<?xml version="1.0" encoding="utf-8"?>
<!-- Generator: Adobe Illustrator 22.0.1, SVG Export Plug-In . SVG Version: 6.00 Build 0)  -->
<svg version="1.1" xmlns="http://www.w3.org/2000/svg" xmlns:xlink="http://www.w3.org/1999/xlink" x="0px" y="0px"
	 viewBox="0 0 1800 681.8" style="enable-background:new 0 0 1800 681.8;" xml:space="preserve">
<style type="text/css">
	.st0{fill:#E4F9FF;}
	.st1{fill:#FFFFFF;}
	.st2{fill:#12CAD6;}
	.st3{fill:#FA163F;}
	.st4{fill:#0FABBC;}
	.st5{fill:#F5876F;}
	.st6{fill:#003446;}
	.st7{fill:#A7A9AC;}
</style>
<g id="Layer_3">
	<rect y="146.9" class="st0" width="1800" height="534.9"/>
	<rect y="0" class="st1" width="1800" height="681.8"/>
</g>
<g id="Layer_13">
</g>
<g id="Layer_9">
	<circle class="st2" cx="1680" cy="454" r="86.9"/>
	
		<ellipse transform="matrix(0.156 -0.9878 0.9878 0.156 121.6738 1055.9016)" class="st3" cx="678.7" cy="456.8" rx="86.9" ry="86.9"/>
	
		<ellipse transform="matrix(0.7071 -0.7071 0.7071 0.7071 -132.1903 679.3512)" class="st3" cx="754" cy="499.2" rx="86.9" ry="86.9"/>
	
		<ellipse transform="matrix(0.7071 -0.7071 0.7071 0.7071 -338.0786 214.2874)" class="st3" cx="89.6" cy="515.2" rx="86.9" ry="86.9"/>
	
		<ellipse transform="matrix(0.7071 -0.7071 0.7071 0.7071 102.7423 1287.2928)" class="st2" cx="1605.3" cy="519.6" rx="108.8" ry="108.8"/>
	
		<ellipse transform="matrix(0.9874 -0.1583 0.1583 0.9874 -74.2113 42.1937)" class="st3" cx="227.8" cy="487" rx="38.7" ry="38.7"/>
	<ellipse transform="matrix(0.92 -0.3919 0.3919 0.92 -172.8953 150.9858)" class="st3" cx="283.4" cy="499" rx="38.7" ry="38.7"/>
	<rect x="1190.7" y="465.3" class="st1" width="170.8" height="16.9"/>
	
		<ellipse transform="matrix(0.998 -6.257959e-02 6.257959e-02 0.998 -29.1738 10.9939)" class="st3" cx="160.9" cy="471.2" rx="56.6" ry="56.6"/>
	
		<ellipse transform="matrix(2.550722e-02 -0.9997 0.9997 2.550722e-02 -113.8898 869.2418)" class="st1" cx="388.9" cy="493" rx="44" ry="44"/>
	<circle class="st1" cx="445.1" cy="472.4" r="44"/>
	<circle class="st3" cx="515.5" cy="493" r="44"/>
	<ellipse transform="matrix(0.9478 -0.3188 0.3188 0.9478 -119.0993 205.0686)" class="st3" cx="567" cy="466.4" rx="44" ry="44"/>
	<ellipse transform="matrix(0.8686 -0.4956 0.4956 0.8686 -162.1848 374.5257)" class="st3" cx="625" cy="493" rx="44" ry="44"/>
	
		<ellipse transform="matrix(0.9632 -0.2688 0.2688 0.9632 -110.4814 201.0703)" class="st3" cx="678.9" cy="503.9" rx="44" ry="44"/>
	<path class="st1" d="M1782.6,419.3c-40.7,0-73.7,33-73.7,73.7c0,40.7,33,73.7,73.7,73.7c6,0,11.8-0.7,17.4-2.1V421.4
		C1794.4,420.1,1788.6,419.3,1782.6,419.3z"/>
	
		<ellipse transform="matrix(0.9239 -0.3827 0.3827 0.9239 -96.6139 485.3997)" class="st3" cx="1171.8" cy="485.6" rx="99.8" ry="99.8"/>
	
		<ellipse transform="matrix(0.7071 -0.7071 0.7071 0.7071 8.2769 1063.6538)" class="st3" cx="1288.1" cy="521.8" rx="99.8" ry="99.8"/>
	<circle class="st3" cx="1702.8" cy="511.6" r="58.6"/>
	<path class="st3" d="M1581,469.4c-9.5,0-17.3,7.7-17.3,17.3c0,9.5,7.7,17.3,17.3,17.3c9.5,0,17.3-7.7,17.3-17.3
		C1598.2,477.1,1590.5,469.4,1581,469.4z"/>
	
		<ellipse transform="matrix(0.9013 -0.4332 0.4332 0.9013 -57.2257 712.8802)" class="st3" cx="1535.8" cy="482" rx="41.5" ry="41.5"/>
	<circle class="st3" cx="1490.7" cy="495.2" r="23.6"/>
</g>
<g id="Layer_4">
	<g>
		<rect y="482.2" class="st2" width="1800" height="74.9"/>
	</g>
	<rect y="482.2" class="st1" width="1800" height="6.8"/>
	<rect y="557" class="st0" width="1800" height="124.8"/>
	<g>
		<rect y="554.6" class="st4" width="1800" height="37.4"/>
	</g>
</g>
<g id="Layer_14">
	<g>
		<g>
			<g>
				<path class="st5" d="M747.4,599.3c0.9-4,7.4-4.3,5.9-10.7c-1.4-6.3-5.2-5.5-4.9-9.7c0.4-4.2,3.9-7.1,2.2-12.9
					c-1.7-5.8-13-7-6.7-11.4c11.5-7.9-0.2-29.1-10.5-26.7c-15.9,3.7-14.9,17.5-10.3,24.2c3.1,4.4-9.5,8.6-9.8,11.6
					c-0.3,3,7.1,2.9,6.9,7.9c-0.1,5-9.7,1.6-12.1,8.5c-2.4,6.9,6.1,11.4,6.5,16.4c0.4,5-14,9.9-14.4,22.1
					c-0.4,12.1,14.4,22.8,32,23.4c17.6,0.6,30-7.5,29.4-21.5C761.1,606.6,746.5,603.3,747.4,599.3z"/>
			</g>
			<g>
				<rect x="731.4" y="561.2" class="st6" width="1.7" height="94.1"/>
			</g>
			<g>
				
					<rect x="726.8" y="575.7" transform="matrix(0.6543 -0.7562 0.7562 0.6543 -188.3679 751.3951)" class="st6" width="1.7" height="12.1"/>
			</g>
			<g>
				
					<rect x="731.1" y="608.8" transform="matrix(0.8609 -0.5088 0.5088 0.8609 -207.3569 460.8946)" class="st6" width="16.2" height="1.7"/>
			</g>
			<g>
				
					<rect x="729.8" y="597.9" transform="matrix(0.5512 -0.8343 0.8343 0.5512 -172.6168 878.7802)" class="st6" width="1.7" height="3.9"/>
			</g>
			<g>
				
					<rect x="731.7" y="572.2" transform="matrix(0.8554 -0.518 0.518 0.8554 -190.4332 463.9316)" class="st6" width="8.2" height="1.7"/>
			</g>
		</g>
	</g>
	<g>
		<g>
			<g>
				<path class="st5" d="M1278.2,568.6c-2.8-4.4-16.8-3.2-20,10.4c-3.2,13.7,2,15.6-4.1,20.6c-6.1,5-16.5,17.1-9.5,31.8
					c7,14.8,34.2,10.4,40.5,0c5-8.3,7.8-16.5-3.7-36.1C1269.8,575.4,1285.8,580.6,1278.2,568.6z"/>
			</g>
			<g>
				<rect x="1265.1" y="597.1" class="st6" width="1.6" height="63.6"/>
			</g>
			<g>
				
					<rect x="1265.1" y="612.1" transform="matrix(0.8671 -0.4981 0.4981 0.8671 -136.4262 714.5734)" class="st6" width="11.6" height="1.6"/>
			</g>
			<g>
				
					<rect x="1262.7" y="618.9" transform="matrix(0.2888 -0.9574 0.9574 0.2888 303.6248 1651.6073)" class="st6" width="1.6" height="5"/>
			</g>
			<g>
				
					<rect x="1266.4" y="628.7" transform="matrix(0.9601 -0.2796 0.2796 0.9601 -125.33 380.346)" class="st6" width="8.4" height="1.6"/>
			</g>
		</g>
	</g>
	<g>
		<g>
			<g>
				<path class="st5" d="M166.2,549.3c-3.6-5.6-21.4-4.1-25.5,13.3c-4.1,17.4,2.6,19.8-5.2,26.2c-7.8,6.4-21,21.7-12.1,40.5
					c9,18.8,43.6,13.3,51.5,0c6.3-10.6,9.9-21.1-4.7-46C155.4,557.9,175.8,564.4,166.2,549.3z"/>
			</g>
			<g>
				<rect x="149.4" y="585.5" class="st6" width="2.1" height="80.9"/>
			</g>
			<g>
				
					<rect x="149.5" y="604.6" transform="matrix(0.867 -0.4983 0.4983 0.867 -280.9438 158.7023)" class="st6" width="14.7" height="2.1"/>
			</g>
			<g>
				
					<rect x="146.4" y="613.3" transform="matrix(0.2888 -0.9574 0.9574 0.2888 -485.3401 579.5336)" class="st6" width="2.1" height="6.3"/>
			</g>
			<g>
				
					<rect x="151.1" y="625.7" transform="matrix(0.9601 -0.2797 0.2797 0.9601 -169.0381 68.7529)" class="st6" width="10.7" height="2.1"/>
			</g>
		</g>
	</g>
	<g>
		<g>
			<path class="st5" d="M1249.3,578.3c-4.1-14.1-23.2-12.9-24.6-23.7c-1.4-10.7-1.4-18.4-11.5-20.9c-9-2.3-13.1,2.8-14.2,10.5
				c-0.8,5.3,2.3,12.5-4.8,15.1c-7.1,2.6-22.9,5.4-18.8,16.3c4.1,11,7.1,15.8,0.9,20.4c-6.2,4.6-11.7,17.1-1.6,29.1
				c10.1,12,36.2,17.4,50.7,13.3c14.5-4.1,23.3-16,18.5-28C1239.1,598.4,1253.4,592.3,1249.3,578.3z"/>
		</g>
		<g>
			<rect x="1208.2" y="582.5" class="st6" width="2.9" height="80.4"/>
		</g>
		<g>
			
				<rect x="1202.3" y="582.1" transform="matrix(0.7259 -0.6878 0.6878 0.7259 -76.2463 989.7647)" class="st6" width="2.9" height="16.9"/>
		</g>
		<g>
			
				<rect x="1207.8" y="610.4" transform="matrix(0.8062 -0.5917 0.5917 0.8062 -126.1306 838.762)" class="st6" width="18.9" height="2.9"/>
		</g>
	</g>
	<g>
		<g>
			<path class="st5" d="M368.7,572.9c-4.7-16.1-26.5-14.8-28.1-27.1c-1.6-12.3-1.6-21-13.1-24c-10.2-2.6-15,3.2-16.3,12
				c-0.9,6.1,2.6,14.3-5.5,17.2c-8.1,2.9-26.2,6.1-21.5,18.7c4.7,12.6,8.1,18.1,1,23.4c-7.1,5.3-13.4,19.6-1.8,33.3
				c11.5,13.7,41.4,19.9,58,15.2c16.5-4.7,26.7-18.3,21.2-32.1C357,595.9,373.4,589,368.7,572.9z"/>
		</g>
		<g>
			<rect x="321.6" y="577.7" class="st6" width="3.3" height="91.9"/>
		</g>
		<g>
			
				<rect x="315" y="577.2" transform="matrix(0.7259 -0.6878 0.6878 0.7259 -316.8796 378.624)" class="st6" width="3.3" height="19.4"/>
		</g>
		<g>
			
				<rect x="321.2" y="609.7" transform="matrix(0.8062 -0.5917 0.5917 0.8062 -297.365 314.9252)" class="st6" width="21.6" height="3.3"/>
		</g>
	</g>
	<g>
		<g>
			<path class="st5" d="M1000.4,570c-4.7-16.1-26.5-14.8-28.1-27.1c-1.6-12.3-1.6-21-13.1-24c-10.2-2.6-15,3.2-16.3,12
				c-0.9,6.1,2.6,14.3-5.5,17.2c-8.1,2.9-26.2,6.1-21.5,18.7c4.7,12.6,8.1,18.1,1,23.4c-7.1,5.3-13.4,19.6-1.8,33.3
				c11.5,13.7,41.4,19.9,58,15.2c16.5-4.7,26.7-18.3,21.2-32.1C988.7,593,1005.1,586.1,1000.4,570z"/>
		</g>
		<g>
			<rect x="953.3" y="574.8" class="st6" width="3.3" height="91.9"/>
		</g>
		<g>
			
				<rect x="946.7" y="574.3" transform="matrix(0.7259 -0.6878 0.6878 0.7259 -141.7701 812.2886)" class="st6" width="3.3" height="19.4"/>
		</g>
		<g>
			
				<rect x="952.9" y="606.8" transform="matrix(0.8062 -0.5916 0.5916 0.8062 -173.2247 688.0743)" class="st6" width="21.6" height="3.3"/>
		</g>
	</g>
	<g>
		<g>
			<g>
				<rect x="511.8" y="547.3" class="st6" width="3" height="120.9"/>
			</g>
			<g>
				<path class="st4" d="M531.7,597.9c-2.5-1.8-4.6-4.2-6.5-6.8c2.2,1.2,4.9-0.4,5.5-3.4c6.3,4.6,15.5,5.8,16.4-0.6
					c1-7.5-5.1-8-16.6-17.3c-0.3-0.2-0.6-0.5-0.9-0.8c2.9-0.2,6-1.3,3.8-5.3c-2.9-5.1-4.6-1.9-11.6-11.7c-3.5-4.9-5-9.1-5.7-11.4
					V528c0,0,2,6.5,4.8,12.6c3.3,7.5,10.3,7.6,11.3,2.3c0.8-4-7.6-9.6-11.4-16.7c-5.4-10.3-3-28.2-3-28.2s-0.2,8.2,2.1,17.5
					c2.3,9.3,8.1,6.2,6.7,2c-1.5-4.5-4-6.4-6.4-15.6c-2.8-10.3-2.3-23.1-2.4-32.2c-0.4,18.2-0.8,22.9-6.5,34.2
					c-4.9,9.6-5.2,11.1-2.3,11.8c3.8,0.9,6.1-10.2,6.1-10.2s-0.4,3.3-0.4,6.5c-0.8,2-2.5,8.8-4.5,12.8c-6,11.9-9.6,10.2-9.6,12.7
					c0,1.8,1.4,2,1.4,2c0,0-0.1,0.1-0.2,0.1c-6.8,4.5-2,10.2,4.5,6.4c6.4-3.8,7.4-20.8,7.4-20.8s-0.2,7.5,0,10.5
					c0.2,3-10.5,23.6-21.7,29.7c-11.1,6.2-9.6,14.2-4.9,15.4c1.9,0.5,15-8.9,16.9-9.5c-0.6,1.1-12.2,12.2-11.4,14
					c0.4,0.7,0.8,1.3,1.2,1.7c0,0-5.1,4.7-9.9,7c-7.9,3.8-13.2,12.5,0.1,10c4.3-0.8,13.6-6.1,17.7-10.8c-2.2,4.2-7.7,9.8-10,11.4
					c-6.3,4.7-10.1,3.8-13,9c-2.6,4.5,0.2,9.7,6,10c-0.7,0.4-1.5,0.8-2.4,1.2c-6,3,2.1,10.5,14,7.3c4.6-1.3,8.3-4.1,11-7.1
					c0.5,2.3,0.2,6.5,4.4,7.6c5.6,1.4,8.8-4,8.6-8.1c2.1,2.3,7.2,7,10.6,8.1c5.6,1.8,10.6,0.4,12.4-5.1c0.5-1.5-0.2-3.4-1.6-5.4
					c12.3,3.3,14.3-8.9,11.1-11.9C548,605.3,542.5,605.9,531.7,597.9z"/>
			</g>
		</g>
	</g>
	<g>
		<g>
			<g>
				<path class="st5" d="M1557.2,552.1c-9-7.4-1.2-10.2-6-30.4c-4.8-20.2-25.5-21.9-29.6-15.4c-11.2,17.6,12.5,10-4.7,39.4
					c-16.9,29-12.8,41.1-5.5,53.4c9.2,15.4,49.4,21.8,59.8,0C1581.6,577.3,1566.2,559.5,1557.2,552.1z"/>
			</g>
			<g>
				<rect x="1538.6" y="548.3" class="st6" width="2.4" height="94"/>
			</g>
			<g>
				
					<rect x="1531.2" y="563.2" transform="matrix(0.4984 -0.8669 0.8669 0.4984 272.9579 1615.2693)" class="st6" width="2.4" height="17.1"/>
			</g>
			<g>
				
					<rect x="1539.7" y="583.1" transform="matrix(0.9574 -0.2888 0.2888 0.9574 -102.9753 470.6439)" class="st6" width="7.3" height="2.4"/>
			</g>
			<g>
				
					<rect x="1531.7" y="590" transform="matrix(0.2795 -0.9601 0.9601 0.2795 532.0416 1901.3937)" class="st6" width="2.4" height="12.4"/>
			</g>
		</g>
	</g>
	<g>
		<g>
			<g>
				<rect x="77.2" y="550.3" class="st6" width="3.2" height="131.2"/>
			</g>
			<g>
				<path class="st4" d="M98.9,605.2c-2.7-2-5-4.6-7-7.3c2.4,1.4,5.3-0.4,6-3.7c6.9,5,16.9,6.3,17.8-0.6c1.1-8.2-5.5-8.7-18-18.8
					c-0.3-0.3-0.7-0.5-1-0.8c3.2-0.3,6.6-1.4,4.1-5.7c-3.2-5.6-5-2-12.6-12.7c-3.8-5.3-5.5-9.9-6.2-12.4v-13.8c0,0,2.2,7.1,5.2,13.7
					c3.6,8.1,11.2,8.3,12.2,2.5c0.8-4.4-8.3-10.4-12.4-18.2c-5.9-11.2-3.3-30.6-3.3-30.6s-0.3,8.9,2.3,19c2.5,10.1,8.8,6.7,7.3,2.2
					c-1.7-4.9-4.3-7-7-16.9c-3-11.1-2.5-25.1-2.6-34.9c-0.4,19.8-0.8,24.9-7.1,37.1c-5.3,10.4-5.7,12-2.5,12.8c4.1,1,6.6-11,6.6-11
					s-0.4,3.5-0.4,7.1c-0.9,2.2-2.7,9.6-4.9,13.9c-6.5,13-10.4,11-10.4,13.8c0,1.9,1.6,2.2,1.6,2.2c-0.1,0-0.1,0.1-0.2,0.1
					c-7.4,4.9-2.1,11,4.8,6.9c7-4.1,8-22.6,8-22.6s-0.2,8.2,0,11.4C79.7,541,68,563.3,55.9,570c-12.1,6.7-10.4,15.4-5.3,16.8
					c2,0.5,16.3-9.7,18.4-10.3c-0.7,1.1-13.3,13.3-12.3,15.2c0.4,0.8,0.8,1.4,1.4,1.9c0,0-5.6,5.2-10.7,7.6
					c-8.6,4.1-14.3,13.6,0.1,10.9c4.6-0.9,14.7-6.6,19.2-11.7c-2.3,4.5-8.4,10.6-10.8,12.4c-6.8,5.1-10.9,4.2-14.2,9.7
					c-2.9,4.9,0.2,10.5,6.5,10.9c-0.8,0.4-1.6,0.9-2.6,1.3c-6.6,3.3,2.3,11.4,15.2,7.9c5-1.4,9-4.5,11.9-7.7c0.5,2.4,0.2,7,4.8,8.2
					c6.1,1.5,9.5-4.3,9.4-8.8c2.3,2.5,7.8,7.7,11.5,8.8c6.1,2,11.5,0.4,13.5-5.6c0.5-1.7-0.3-3.7-1.7-5.8
					c13.3,3.6,15.5-9.6,12.1-12.9C116.6,613.3,110.6,613.9,98.9,605.2z"/>
			</g>
		</g>
	</g>
	<g>
		<rect y="644.4" class="st2" width="1800" height="37.4"/>
	</g>
	<rect y="644.4" class="st1" width="1800" height="7.8"/>
</g>
<g id="Layer_12">
	<g>
		<g>
			<path class="st7" d="M1664.8,202c-7.8,0-14.1,6.3-14.1,14.1v25.3h6.2v-25.3c0-4.3,3.5-7.8,7.8-7.8c4.3,0,7.8,3.5,7.8,7.8v187.4
				h6.2V216.1C1678.9,208.3,1672.6,202,1664.8,202z"/>
		</g>
		<path class="st7" d="M1654.3,238.1h-0.8c-4,0-7.2,3.2-7.2,7.2v0.8c0,4,3.2,7.2,7.2,7.2h0.8c4,0,7.2-3.2,7.2-7.2v-0.8
			C1661.5,241.3,1658.3,238.1,1654.3,238.1z"/>
	</g>
	<g>
		<g>
			<path class="st7" d="M1035,202c-7.8,0-14.1,6.3-14.1,14.1v25.3h6.2v-25.3c0-4.3,3.5-7.8,7.8-7.8c4.3,0,7.8,3.5,7.8,7.8v187.4h6.2
				V216.1C1049,208.3,1042.7,202,1035,202z"/>
		</g>
		<path class="st7" d="M1024.5,238.1h-0.8c-4,0-7.2,3.2-7.2,7.2v0.8c0,4,3.2,7.2,7.2,7.2h0.8c4,0,7.2-3.2,7.2-7.2v-0.8
			C1031.7,241.3,1028.5,238.1,1024.5,238.1z"/>
	</g>
	<g>
		<g>
			<path class="st7" d="M339.6,202.3c-7.8,0-14.1,6.3-14.1,14.1v25.3h6.2v-25.3c0-4.3,3.5-7.8,7.8-7.8c4.3,0,7.8,3.5,7.8,7.8v187.4
				h6.2V216.3C353.7,208.6,347.4,202.3,339.6,202.3z"/>
		</g>
		<path class="st7" d="M329.2,238.3h-0.8c-4,0-7.2,3.2-7.2,7.2v0.8c0,4,3.2,7.2,7.2,7.2h0.8c4,0,7.2-3.2,7.2-7.2v-0.8
			C336.4,241.5,333.1,238.3,329.2,238.3z"/>
	</g>
	<rect y="403.5" class="st1" width="1800" height="51.5"/>
	<rect y="429.2" class="st2" width="1800" height="25.8"/>
	<rect y="455" class="st0" width="1800" height="5.1"/>
	<g>
		<g>
			<rect y="460.1" class="st2" width="7.9" height="5.1"/>
			<rect y="465.2" class="st6" width="3.3" height="3.4"/>
			<rect y="468.6" class="st2" width="7.8" height="12.5"/>
		</g>
		<g>
			<rect y="460.1" class="st1" width="33" height="5.1"/>
			<rect y="465.2" class="st0" width="29.4" height="3.4"/>
			<rect y="468.6" class="st1" width="32.9" height="12.5"/>
		</g>
		<polygon class="st0" points="0,481.1 0,501.7 32.9,481.1 		"/>
	</g>
	<g>
		<g>
			<rect x="338.7" y="460.1" class="st2" width="123" height="5.1"/>
			<rect x="344.9" y="465.2" class="st6" width="112.3" height="3.4"/>
			<rect x="338.8" y="468.6" class="st2" width="122.8" height="12.5"/>
		</g>
		<g>
			<rect x="391.1" y="460.1" class="st1" width="95.8" height="5.1"/>
			<rect x="395.9" y="465.2" class="st0" width="87.4" height="3.4"/>
			<rect x="391.2" y="468.6" class="st1" width="95.6" height="12.5"/>
		</g>
		<rect x="391.2" y="481.1" class="st1" width="52.2" height="163.3"/>
		<polygon class="st0" points="391.2,508.3 443.3,508.3 486.7,481.1 338.8,481.1 		"/>
		<polygon class="st4" points="338.8,481.1 391.2,508.3 409.9,508.3 391.2,481.1 		"/>
		<rect x="391.2" y="508.4" class="st2" width="18.7" height="136"/>
	</g>
	<g>
		<g>
			<rect x="790.4" y="460.1" class="st2" width="123" height="5.1"/>
			<rect x="796.6" y="465.2" class="st6" width="112.3" height="3.4"/>
			<rect x="790.5" y="468.6" class="st2" width="122.8" height="12.5"/>
		</g>
		<g>
			<rect x="842.8" y="460.1" class="st1" width="95.8" height="5.1"/>
			<rect x="847.6" y="465.2" class="st0" width="87.4" height="3.4"/>
			<rect x="842.9" y="468.6" class="st1" width="95.6" height="12.5"/>
		</g>
		<rect x="842.9" y="481.1" class="st1" width="52.2" height="163.3"/>
		<polygon class="st0" points="842.9,508.3 895,508.3 938.4,481.1 790.5,481.1 		"/>
		<polygon class="st4" points="790.5,481.1 842.9,508.3 861.6,508.3 842.9,481.1 		"/>
		<rect x="842.9" y="508.4" class="st2" width="18.7" height="136"/>
	</g>
	<g>
		<g>
			<rect x="1246.4" y="460.1" class="st2" width="123" height="5.1"/>
			<rect x="1252.5" y="465.2" class="st6" width="112.3" height="3.4"/>
			<rect x="1246.5" y="468.6" class="st2" width="122.8" height="12.5"/>
		</g>
		<g>
			<rect x="1298.7" y="460.1" class="st1" width="95.8" height="5.1"/>
			<rect x="1303.5" y="465.2" class="st0" width="87.4" height="3.4"/>
			<rect x="1298.8" y="468.6" class="st1" width="95.6" height="12.5"/>
		</g>
		<rect x="1298.8" y="481.1" class="st1" width="52.2" height="163.3"/>
		<polygon class="st0" points="1298.8,508.3 1351,508.3 1394.4,481.1 1246.5,481.1 		"/>
		<polygon class="st4" points="1246.5,481.1 1298.8,508.3 1317.6,508.3 1298.8,481.1 		"/>
		<rect x="1298.8" y="508.4" class="st2" width="18.7" height="136"/>
	</g>
	<g>
		<g>
			<rect x="1700.2" y="460.1" class="st2" width="99.8" height="5.1"/>
			<rect x="1706.4" y="465.2" class="st6" width="93.6" height="3.4"/>
			<rect x="1700.3" y="468.6" class="st2" width="99.7" height="12.5"/>
		</g>
		<g>
			<rect x="1752.6" y="460.1" class="st1" width="47.4" height="5.1"/>
			<rect x="1757.4" y="465.2" class="st0" width="42.6" height="3.4"/>
			<rect x="1752.7" y="468.6" class="st1" width="47.3" height="12.5"/>
		</g>
		<rect x="1752.7" y="481.1" class="st1" width="47.3" height="163.3"/>
		<polygon class="st0" points="1700.3,481.1 1752.7,508.3 1800,508.3 1800,481.1 		"/>
		<polygon class="st4" points="1700.3,481.1 1752.7,508.3 1771.4,508.3 1752.7,481.1 		"/>
		<rect x="1752.7" y="508.4" class="st2" width="18.7" height="136"/>
	</g>
	<path class="st3" d="M630.4,540.2c-27.3,0-51.1,14.7-64.1,36.5c-0.2,0-0.4,0-0.6,0c-38.9,0-70.7,29.7-74.3,67.6h207.5
		c3.9-9.1,6.1-19,6.1-29.5C705,573.7,671.6,540.2,630.4,540.2z"/>
	<path class="st3" d="M1136.4,590.5c-34,0-62.7,22.8-71.6,53.9H1208C1199.1,613.3,1170.4,590.5,1136.4,590.5z"/>
	<path class="st3" d="M1075.2,578.7c-20.7,0-38.4,13-45.4,31.2c-3.7-1.5-7.8-2.3-12.1-2.3c-12.2,0-22.9,6.6-28.6,16.4
		c-5.4-3.8-12-6.1-19.1-6.1c-16,0-29.4,11.4-32.6,26.5h183.3c2-5.3,3.1-11.1,3.1-17.1C1123.8,600.4,1102,578.7,1075.2,578.7z"/>
	<path class="st3" d="M879.3,608.2c-5.2,0-10.2,1.1-14.7,3c-6.3-12.2-19-20.7-33.7-20.7c-17,0-31.3,11.2-36.1,26.6
		c-6.6-5.6-15.1-8.9-24.4-8.9c-3.1,0-6.1,0.4-9,1.1c-5.5-14-19.2-24-35.2-24c-16.6,0-30.7,10.7-35.8,25.6c-4.4-1.8-9.1-2.7-14.1-2.7
		c-11.7,0-22.1,5.3-29,13.6c-5.2-2.7-11.1-4.2-17.3-4.2c-17,0-31.4,11.3-36.2,26.8h323C916.1,624.3,899.6,608.2,879.3,608.2z"/>
	<path class="st3" d="M1526.2,546.1c-29,0-54.8,10.2-71.4,26c-10-2.9-20.9-4.5-32.3-4.5c-50.2,0-90.9,30.5-90.9,68.1
		c0,2.9,0.3,5.8,0.8,8.6h275.3c6-9.1,9.5-19.3,9.5-30.1C1617.1,576.6,1576.4,546.1,1526.2,546.1z"/>
	<path class="st3" d="M1739.4,566.1c-41.2,0-74.6,33.4-74.6,74.6c0,1.2,0.1,2.4,0.2,3.6h135v-47.2
		C1786.5,578.4,1764.4,566.1,1739.4,566.1z"/>
	<path class="st3" d="M1740.6,610.3c-2.9-38.5-34.9-68.9-74.2-68.9c-34.2,0-62.9,23.1-71.7,54.5c-5.3-1.8-10.9-2.8-16.7-2.8
		c-13.4,0-25.6,5-35,13.3c-9.7-11.9-24.4-19.5-41-19.5c-29.2,0-52.9,23.7-52.9,52.9c0,1.5,0.1,3,0.2,4.5H1800v-44.3
		c-6.5-2.3-13.4-3.6-20.7-3.6C1764.6,596.5,1751.2,601.7,1740.6,610.3z"/>
	<path class="st3" d="M131.3,640.7c0-37-33.1-67-74-67c-23.1,0-43.7,9.6-57.3,24.7v46h131.1C131.1,643.1,131.3,641.9,131.3,640.7z"
		/>
	<rect y="621.7" class="st6" width="1800" height="3.7"/>
	<rect y="633.5" class="st6" width="1800" height="3.7"/>
	<rect y="612.2" class="st6" width="1800" height="3.7"/>
	<rect x="158.9" y="612.2" class="st6" width="3.2" height="32.2"/>
	<rect x="326.4" y="612.2" class="st6" width="3.2" height="32.2"/>
	<rect x="493.9" y="612.2" class="st6" width="3.2" height="32.2"/>
	<rect x="661.4" y="612.2" class="st6" width="3.2" height="32.2"/>
	<rect x="828.8" y="612.2" class="st6" width="3.2" height="32.2"/>
	<rect x="996.3" y="612.2" class="st6" width="3.2" height="32.2"/>
	<rect x="1163.8" y="612.2" class="st6" width="3.2" height="32.2"/>
	<rect x="1331.3" y="612.2" class="st6" width="3.2" height="32.2"/>
	<rect x="1415" y="612.2" class="st6" width="3.2" height="32.2"/>
	<rect x="1582.5" y="612.2" class="st6" width="3.2" height="32.2"/>
	<rect x="1750" y="612.2" class="st6" width="3.2" height="32.2"/>
</g>
<g id="Layer_18">
</g>
</svg>
