<?xml version="1.0" encoding="utf-8"?>
<!-- Generator: Adobe Illustrator 22.0.1, SVG Export Plug-In . SVG Version: 6.00 Build 0)  -->
<svg version="1.1" id="Layer_1" xmlns="http://www.w3.org/2000/svg" xmlns:xlink="http://www.w3.org/1999/xlink" x="0px" y="0px"
	 viewBox="0 0 377 120.7" style="enable-background:new 0 0 377 120.7;" xml:space="preserve">
<style type="text/css">
	.st0{fill:#CECED8;}
	.st1{fill:#000305;}
	.st2{fill:#E1E1E8;}
	.st3{fill:#050300;}
	.st4{fill:#F4F6F9;}
	.st5{fill:#E8E8E8;}
	.st6{fill:#0B0B21;}
	.st7{fill:#142026;}
	.st8{fill:#6E7089;}
	.st9{fill:#A9AFDB;}
	.st10{fill:#BABABA;}
	.st11{fill:#B4B4B8;}
	.st12{fill:#070000;}
	.st13{fill:#D02400;}
	.st14{fill:#E47906;}
	.st15{opacity:8.000000e-02;fill:#EFEBEA;}
	.st16{opacity:0.16;fill:#EFEBEA;}
	.st17{fill:#505289;}
	.st18{fill:#404484;}
</style>
<g>
	<g>
		<g>
			<rect x="2.9" y="2.1" class="st0" width="258.6" height="78.7"/>
			<path class="st1" d="M93.2,2.3l0.1,0.5h-2.8l-0.1-0.5H93.2z M140.6,2.3l0.1,0.5H138l-0.1-0.5H140.6z M189.2,2.3l0.1,0.5h-2.8
				l-0.1-0.5H189.2z M3.5,8.8v42.8l-0.6,0V8.8H3.5z M262.1,1.5v80H2.2v-80H262.1z M3.5,80.2h257.3V2.8H3.5V80.2z M3.5,8.8v42.8
				l-0.6,0V8.8H3.5z"/>
		</g>
		<rect x="11.3" y="7.6" class="st2" width="243.3" height="67.1"/>
		<path class="st3" d="M330.1,106.7c0.9,1.6,2.1,3.2,3.5,4.6H8.3v-25c0-3.2,5.3-5.8,11.9-5.8h321.5c-8.3,4.3-13.7,10.9-13.7,18.3
			c0,0.3,0,0.5,0,0.8c0,0.2,0,0.4,0,0.5C328.2,102.4,328.9,104.6,330.1,106.7z"/>
		<path class="st3" d="M360,85.8c0.1,0.1,0.2,0.2,0.3,0.3c0,0,0,0,0.1,0.1c0.1,0,0.1,0.1,0.2,0.2c0.1,0.1,0.2,0.1,0.3,0.2
			c0,0,0.1,0.1,0.1,0.1c0.1,0.1,0.2,0.1,0.2,0.2c0,0,0,0,0,0c0,0,0,0,0,0l0,0c0.1,0.1,0.1,0.1,0.2,0.2c0,0,0,0,0,0
			c0,0,0.1,0.1,0.1,0.1c0.2,0.2,0.4,0.4,0.5,0.5c0,0,0,0,0,0.1c0,0,0,0,0.1,0.1c0.1,0.1,0.2,0.2,0.3,0.3c0.1,0.1,0.2,0.2,0.2,0.3
			c0.1,0.1,0.2,0.3,0.3,0.4c0.2,0.2,0.3,0.4,0.5,0.6c0.1,0.2,0.3,0.4,0.4,0.6c0.2,0.3,0.4,0.6,0.6,0.9c0.1,0.1,0.1,0.2,0.2,0.3
			c0.1,0.1,0.1,0.2,0.2,0.3c0.1,0.2,0.2,0.4,0.3,0.6c0,0,0,0.1,0.1,0.1c0,0.1,0.1,0.2,0.1,0.3c0,0.1,0.1,0.2,0.1,0.3c0,0,0,0,0,0
			c0,0,0,0,0,0h0c0,0.1,0.1,0.2,0.1,0.2c0,0,0,0.1,0,0.1c0.1,0.2,0.2,0.4,0.2,0.6c0,0,0,0.1,0,0.1c0,0.1,0.1,0.2,0.1,0.3
			c0,0.1,0.1,0.2,0.1,0.3c0,0,0,0.1,0,0.1c0,0.1,0.1,0.2,0.1,0.3c0,0.1,0.1,0.2,0.1,0.3c0,0.1,0.1,0.2,0.1,0.3c0,0,0,0.1,0,0.1
			c0,0,0,0.1,0,0.1c0,0.1,0,0.1,0,0.2c0.1,0.2,0.1,0.4,0.2,0.7c0,0.1,0,0.1,0,0.2c0,0.1,0,0.1,0,0.2c0,0,0,0.1,0,0.1
			c0,0.1,0,0.2,0.1,0.4c0,0.2,0.1,0.4,0.1,0.6c0,0.2,0.1,0.5,0.1,0.7c0,0.2,0,0.5,0.1,0.7c0,0.2,0,0.5,0,0.7c0,0.2,0,0.5,0,0.7
			c0,0.5,0,1.1-0.1,1.6c0,0.1,0,0.1,0,0.1c-0.1,1.7-0.5,3.2-1,4.8c-0.1,0.2-0.1,0.3-0.2,0.5c0,0,0,0.1,0,0.1c0,0.1-0.1,0.2-0.1,0.3
			c-0.4,1-0.9,2-1.5,2.9c0,0,0,0,0,0h10.4V85.8H360z"/>
		<path class="st4" d="M268.1,80.6L268.1,80.6l0.4-8.7l0.2-3.7l0.1-1.4l0-0.6l0.5-10.4l0.1-3.2l0.2-3.3l0.9-20.8l0.1-2.2l0.1-1.8
			l0.2-4v0l0.1-3.1l0.1-2.1v0l0.1,0l0,0l0.1,0l1.3,0.1l9.9,0.8l6.5,0.5l10.4,0.9h0l7.9,0.6l3.3,0.3l14.1,1.2l2.6,0.2l1.2,0.1
			l0.8,0.1h0.1c0.9,0.1,1.8,0.2,2.7,0.4c0.1,0,0.1,0,0.2,0c0.3,0,0.5,0.1,0.8,0.1c0.3,0.1,0.6,0.1,0.9,0.2c0.1,0,0.1,0,0.2,0
			c0,0,0.1,0,0.1,0h0c0.3,0,0.6,0.1,0.8,0.2s0.6,0.1,0.9,0.2c0.6,0.1,1.1,0.2,1.6,0.4c0.3,0.1,0.6,0.1,0.9,0.2c0,0,0,0,0.1,0
			c0.1,0,0.2,0.1,0.3,0.1c0.2,0.1,0.4,0.1,0.6,0.2c0.2,0.1,0.4,0.1,0.6,0.2c0.3,0.1,0.7,0.2,1,0.3c0.3,0.1,0.7,0.2,1,0.3
			c0.3,0.1,0.6,0.2,0.9,0.3c0,0,0.1,0,0.2,0.1c0.1,0,0.1,0,0.2,0.1c0.2,0.1,0.4,0.1,0.6,0.2c0.1,0,0.2,0.1,0.3,0.1l0.1,0
			c0,0,0.1,0,0.1,0l1.5,2.7l0.8,1.4l6.7,11.8l7.8,12.9l0.4,0.6l1.7,2.8l1.9,3.2l4,6.6h0v0l0.1,0.1l-0.1,0l0.3,0.5l0.2,0.3l0.3,0.4
			l0.9,1.4l4,6v28.6h-0.1l-7.3-0.1h-0.1c0,0,0,0,0-0.1c0,0,0,0,0-0.1c0-0.3,0-0.5,0-0.8c0-0.3,0-0.5,0-0.8c0-0.1,0-0.3,0-0.4
			c0-0.1,0-0.2,0-0.3c0-0.2,0-0.5,0-0.7v0c0-0.2,0-0.4-0.1-0.7c0-0.2,0-0.5-0.1-0.7c0-0.2-0.1-0.4-0.1-0.6c0-0.1,0-0.2-0.1-0.4
			c0,0,0,0,0-0.1s0,0,0,0c0,0,0,0,0,0c0,0,0-0.1,0-0.2c0,0,0,0,0,0v0c0,0,0,0,0,0c0,0,0-0.1,0-0.1c0-0.2-0.1-0.3-0.1-0.5
			c0-0.1,0-0.1-0.1-0.2c0,0,0,0,0-0.1c0,0,0,0,0,0c0,0,0,0,0-0.1c0,0,0-0.1,0-0.1c0,0,0,0,0,0c0,0,0,0,0,0c0-0.1,0-0.2-0.1-0.3
			c0-0.1-0.1-0.2-0.1-0.3c0-0.1-0.1-0.2-0.1-0.3c0-0.1,0-0.1-0.1-0.1c0-0.1-0.1-0.2-0.1-0.3c0-0.1-0.1-0.2-0.1-0.3c0,0,0-0.1,0-0.1
			c-0.1-0.2-0.1-0.4-0.2-0.6c0,0,0,0,0-0.1c0,0,0,0,0,0c0-0.1-0.1-0.2-0.1-0.3c0,0,0,0,0,0c0,0,0,0,0,0c0,0,0,0,0,0
			c0-0.1-0.1-0.2-0.1-0.3c0-0.1-0.1-0.2-0.1-0.3c0,0,0,0,0,0c0,0,0,0,0-0.1c0-0.1,0-0.1-0.1-0.1c0,0,0-0.1-0.1-0.1
			c-0.1-0.1-0.1-0.2-0.2-0.3c-0.1-0.1-0.1-0.2-0.2-0.3c0-0.1-0.1-0.1-0.1-0.2s-0.1-0.1-0.1-0.2c-0.1-0.2-0.2-0.3-0.3-0.5
			c-0.1-0.2-0.2-0.3-0.3-0.5c-0.1-0.1-0.1-0.2-0.2-0.3c-0.1-0.1-0.1-0.2-0.2-0.3c-0.1-0.1-0.1-0.2-0.2-0.3c-0.1-0.1-0.1-0.2-0.2-0.3
			c-0.1-0.1-0.1-0.1-0.2-0.2c-0.1-0.1-0.1-0.1-0.2-0.2c-0.1-0.1-0.2-0.2-0.2-0.3c-0.1-0.1-0.2-0.2-0.3-0.3c0,0,0,0-0.1-0.1
			c0,0,0,0,0,0v0c-0.2-0.2-0.4-0.4-0.5-0.5c0,0-0.1-0.1-0.1-0.1c0,0,0,0,0,0h0c-0.1-0.1-0.1-0.1-0.2-0.2l0,0c0,0,0,0,0,0l0,0
			l-0.1-0.1l-0.1-0.1c0,0,0,0-0.1-0.1c0,0-0.1,0-0.1,0c0,0-0.1-0.1-0.1-0.1c0,0-0.1-0.1-0.1-0.1c-0.1-0.1-0.1-0.1-0.2-0.2
			c0,0,0,0-0.1-0.1c0,0,0,0,0,0c0,0,0,0,0,0c-0.1-0.1-0.2-0.1-0.3-0.2h0c-0.2-0.2-0.3-0.3-0.5-0.4h0c-0.1,0-0.1-0.1-0.2-0.1
			c-0.2-0.2-0.5-0.3-0.7-0.5c-0.1,0-0.1-0.1-0.2-0.1c-0.1-0.1-0.2-0.1-0.3-0.2c-0.2-0.1-0.4-0.2-0.5-0.3h0c-0.2-0.1-0.4-0.2-0.6-0.3
			c-0.3-0.2-0.7-0.4-1-0.5c-0.2-0.1-0.5-0.2-0.7-0.3c0,0,0,0-0.1,0c-0.2-0.1-0.4-0.2-0.6-0.2c0,0-0.1-0.1-0.2-0.1
			c-0.2-0.1-0.4-0.2-0.7-0.2c-0.1,0-0.3-0.1-0.4-0.1c-0.1,0-0.3-0.1-0.4-0.1c-0.1,0-0.2,0-0.3-0.1c-0.1,0-0.2-0.1-0.3-0.1
			c-0.1,0-0.1,0-0.2,0c-0.1,0-0.1,0-0.2-0.1c-0.2,0-0.4-0.1-0.6-0.1c-0.2,0-0.5-0.1-0.7-0.1c-0.3,0-0.6-0.1-0.9-0.1
			c-0.2,0-0.5,0-0.7,0c-0.1,0-0.1,0-0.2,0h-0.1c-0.1,0-0.2,0-0.3,0c-0.1,0-0.3,0-0.4,0c-0.3,0-0.6,0-1,0c-0.3,0-0.6,0-0.9,0.1
			c-0.1,0-0.3,0-0.4,0c-0.2,0-0.4,0-0.6,0.1c-0.1,0-0.2,0-0.3,0c0,0,0,0-0.1,0c-0.1,0-0.2,0-0.3,0c-0.2,0-0.4,0.1-0.5,0.1
			c-0.1,0-0.1,0-0.2,0c0,0,0,0-0.1,0c-0.1,0-0.2,0-0.3,0.1c-0.1,0-0.2,0-0.3,0.1c-0.1,0-0.3,0.1-0.4,0.1c-0.2,0.1-0.4,0.1-0.6,0.2
			c-0.1,0-0.3,0.1-0.4,0.1c-0.1,0-0.2,0.1-0.3,0.1c-0.1,0-0.2,0.1-0.3,0.1c-0.3,0.1-0.5,0.2-0.8,0.3c-0.3,0.1-0.5,0.2-0.8,0.3
			c-0.2,0.1-0.3,0.2-0.5,0.2c-0.2,0.1-0.4,0.2-0.5,0.3c-0.2,0.1-0.3,0.2-0.5,0.3c-0.2,0.1-0.3,0.2-0.5,0.3c-0.3,0.2-0.6,0.4-0.9,0.6
			c-0.1,0.1-0.3,0.2-0.4,0.3c-0.2,0.1-0.3,0.3-0.5,0.4h0c-0.5,0.4-1,0.8-1.4,1.2c-0.2,0.2-0.3,0.3-0.5,0.5c-0.1,0.1-0.2,0.2-0.2,0.2
			s-0.1,0.2-0.2,0.3c0,0,0,0,0,0c-0.1,0.1-0.3,0.3-0.4,0.4v0c-0.3,0.3-0.5,0.7-0.8,1c-0.3,0.3-0.5,0.7-0.7,1.1c0,0,0,0,0,0
			c-0.2,0.4-0.5,0.7-0.7,1.1c-0.1,0.3-0.3,0.5-0.4,0.8c-0.1,0.1-0.1,0.3-0.2,0.4c0,0,0,0.1-0.1,0.1c-0.1,0.1-0.1,0.3-0.2,0.4
			c0,0-0.1,0.1-0.1,0.1c0,0.1-0.1,0.2-0.1,0.3c0,0,0,0.1,0,0.1c0,0.1-0.1,0.2-0.1,0.3c0,0.1-0.1,0.2-0.1,0.3c0,0.1-0.1,0.1-0.1,0.2
			c0,0.1-0.1,0.2-0.1,0.2c0,0,0,0.1,0,0.1c0,0.1-0.1,0.3-0.1,0.4v0c0,0,0,0.1,0,0.1s0,0.1,0,0.1c0,0.1,0,0.2-0.1,0.3
			c-0.1,0.5-0.3,1-0.4,1.6c0,0.2-0.1,0.4-0.1,0.6c0,0.1,0,0.3,0,0.4c0,0.1,0,0.3,0,0.4c0,0.3-0.1,0.7-0.1,1c0,0.2,0,0.4,0,0.6
			c0,0,0,0,0,0c0,0.1,0,0.3,0,0.4v0.6c0,0.2,0,0.3,0,0.4h-0.4l-28.4-0.5l-5.2-0.1l-10.4-0.2l-0.6-0.7l-3.8-4.9l-8-10.3l-3.6-4.7
			L268.1,80.6z"/>
		<path class="st5" d="M268.1,80.7l16.1,20.7l44.3,0.7c0-0.2,0.1-0.9,0.1-1.1c0-0.4,0-0.7,0-1.1c0-0.3,0-0.7,0.1-1
			c0-0.1,0-0.3,0-0.4c0-0.1,0-0.3,0.1-0.4c0-0.2,0-0.4,0.1-0.6c0.1-0.5,0.2-1.1,0.3-1.6c0-0.1,0.1-0.3,0.1-0.4
			c0-0.2,0.1-0.4,0.2-0.5c0.1-0.2,0.1-0.4,0.2-0.6c0.1-0.2,0.1-0.4,0.2-0.5c0-0.1,0.1-0.3,0.2-0.4c0,0,0-0.1,0.1-0.1
			c0.1-0.2,0.1-0.3,0.2-0.5c0.7-1.6,1.7-3.1,2.8-4.4c0.1-0.2,0.3-0.3,0.4-0.4c0,0,0,0,0,0c0.1-0.2,0.3-0.3,0.4-0.5
			c0.2-0.2,0.3-0.3,0.5-0.5c0.5-0.4,0.9-0.9,1.4-1.2c0.3-0.2,0.6-0.5,0.9-0.7c0.3-0.2,0.6-0.4,0.9-0.6c0.3-0.2,0.7-0.4,1-0.6
			c0.3-0.2,0.7-0.4,1-0.5c0.5-0.2,1-0.5,1.6-0.7c0.2-0.1,0.5-0.2,0.7-0.2c0.1,0,0.3-0.1,0.4-0.1c0.2-0.1,0.4-0.1,0.6-0.2
			c0.1,0,0.2-0.1,0.4-0.1c0.1,0,0.2,0,0.3-0.1c0.1,0,0.2,0,0.3-0.1c0.1,0,0.1,0,0.2,0c0.3-0.1,0.5-0.1,0.8-0.1c0.1,0,0.2,0,0.3-0.1
			c0.2,0,0.4,0,0.6-0.1c0.1,0,0.2,0,0.4,0c0.3,0,0.6,0,0.9-0.1c0.3,0,0.6,0,1,0c0.2,0,0.5,0,0.7,0h0.1c0.6,0,1.2,0.1,1.8,0.2
			c0.2,0,0.5,0.1,0.7,0.1c0.3,0,0.5,0.1,0.8,0.2c0.3,0.1,0.5,0.1,0.8,0.2c0.3,0.1,0.5,0.1,0.8,0.2c0.2,0.1,0.5,0.1,0.7,0.2
			c0.1,0,0.1,0,0.2,0.1c0.2,0.1,0.4,0.2,0.6,0.2c0,0,0,0,0.1,0c0.2,0.1,0.5,0.2,0.7,0.3c0.4,0.2,0.7,0.3,1,0.5
			c0.2,0.1,0.4,0.2,0.5,0.3c0.2,0.1,0.4,0.2,0.5,0.3c0.2,0.1,0.4,0.2,0.6,0.4c0.5,0.3,0.9,0.7,1.4,1c0.1,0.1,0.2,0.1,0.3,0.2
			c0,0,0,0,0,0c0,0,0.1,0.1,0.1,0.1c0.1,0,0.1,0.1,0.2,0.2c0.2,0.2,0.3,0.3,0.5,0.5l0.1,0.1c0,0,0,0,0,0c0,0,0,0,0,0l0,0
			c0.1,0.1,0.1,0.1,0.2,0.2c0,0,0,0,0,0c0,0,0.1,0.1,0.1,0.1c0.2,0.2,0.4,0.4,0.5,0.5c0,0,0,0,0,0.1c0,0,0,0,0.1,0.1
			c0.1,0.1,0.2,0.2,0.3,0.3c0.1,0.1,0.2,0.2,0.2,0.3c0.1,0.1,0.2,0.3,0.3,0.4c0.2,0.2,0.3,0.4,0.5,0.6c0.1,0.2,0.3,0.4,0.4,0.6
			c0.2,0.3,0.4,0.6,0.6,0.9c0.1,0.1,0.1,0.2,0.2,0.3c0.1,0.1,0.1,0.2,0.2,0.3c0.1,0.1,0.1,0.2,0.2,0.3c0,0.1,0.1,0.2,0.1,0.3
			c0,0,0,0.1,0.1,0.1c0,0.1,0.1,0.2,0.1,0.3c0,0.1,0.1,0.2,0.1,0.3c0,0,0,0,0,0c0,0,0,0,0,0c0,0.1,0.1,0.2,0.1,0.2c0,0,0,0.1,0,0.1
			c0.1,0.2,0.2,0.4,0.2,0.6c0,0,0,0.1,0,0.1c0,0.1,0.1,0.2,0.1,0.3c0,0.1,0.1,0.2,0.1,0.3c0,0,0,0.1,0,0.1c0,0.1,0.1,0.2,0.1,0.3
			c0,0.1,0.1,0.2,0.1,0.3c0,0.1,0.1,0.2,0.1,0.3c0,0.1,0,0.1,0,0.2c0,0.1,0,0.1,0,0.2c0.1,0.2,0.1,0.4,0.2,0.7c0,0.1,0,0.1,0,0.2
			c0,0.1,0,0.1,0,0.2c0,0,0,0.1,0,0.1c0,0.1,0,0.2,0.1,0.4c0,0.2,0.1,0.4,0.1,0.6c0,0.2,0.1,0.5,0.1,0.7c0,0.2,0,0.5,0.1,0.7
			c0,0.2,0,0.5,0,0.7c0,0.2,0,0.5,0,0.7c0,0.5,0,1.1-0.1,1.6l0.1,0l7.4,0.2V74.2l-5.6-8.5h0l0,0l-0.5-0.8l-2.4-3l-32-41
			c-0.1,0-0.2,0-0.3-0.1c-0.3-0.1-0.6-0.1-0.9-0.2c-0.3,0-0.5-0.1-0.8-0.1c-0.1,0-0.1,0-0.2,0c-0.9-0.2-1.8-0.3-2.7-0.4l-0.9-0.1
			l-1.2-0.1l-16.6-1.4l-3.3-0.3l-7.8-0.6h0L289,16.8l-6.5-0.5l-9.9-0.8l-1.3-0.1l-0.2,0l-0.1,2.1l-0.1,3.1v0l-0.2,4l-0.2,4.1
			l-2.3,52L268.1,80.7z"/>
		<path class="st6" d="M367.5,100.9c0,2.3-0.4,4.5-1.1,6.6c-0.1,0.2-0.1,0.4-0.2,0.5c0,0,0,0.1,0,0.1c-0.4,1.1-1,2.2-1.6,3.2h-33.4
			c-0.8-1.2-1.4-2.5-1.9-3.9c-0.7-2.1-1.1-4.3-1.1-6.6c0-10.9,8.8-19.7,19.7-19.7C358.7,81.2,367.5,90,367.5,100.9z"/>
		<path class="st6" d="M261.2,101.1c0,2.3-0.4,4.4-1.1,6.5c-0.1,0.2-0.1,0.3-0.2,0.5c0,0,0,0.1,0,0.1c-0.4,1.1-1,2.2-1.6,3.2h-32.7
			c-0.7-1.2-1.4-2.4-1.8-3.8c-0.7-2-1.1-4.2-1.1-6.5c0-10.7,8.6-19.3,19.3-19.3C252.5,81.8,261.2,90.4,261.2,101.1z"/>
		<path class="st6" d="M219.7,101.1c0,2.3-0.4,4.4-1.1,6.5c-0.1,0.2-0.1,0.3-0.2,0.5c0,0,0,0.1,0,0.1c-0.4,1.1-1,2.2-1.6,3.2h-32.7
			c-0.7-1.2-1.4-2.4-1.8-3.8c-0.7-2-1.1-4.2-1.1-6.5c0-10.7,8.6-19.3,19.3-19.3C211.1,81.8,219.7,90.4,219.7,101.1z"/>
		<path class="st7" d="M270.5,28.6l14,1.7l16.1,1.9l2.2,4.1l0,0l2.6,4.7c1.2,2.7,3.1,6.4,5.3,9.4c0,0,0,0,0,0.1
			c1.5,1.9,3.1,3.6,4.9,4.5c0,0,0,0,0,0c0.5,0.3,1,0.5,1.4,0.6l0.5,0.1l0.5,0.1l6.9,1.4l13,2.6l0.5,0.1l4.9,1l0.4,0.1l24.7,4.9h0
			l0.2,0h0l0.3,0l0.2,0l0.1,0l-15.9-26.2l-9-15.9c0,0-0.1,0-0.1,0l0,0l-0.1,0c-0.3-0.1-0.6-0.2-0.9-0.3c-0.1,0-0.2-0.1-0.3-0.1
			c-0.3-0.1-0.6-0.2-0.9-0.3c-0.7-0.2-1.3-0.4-2-0.6c-0.4-0.1-0.8-0.2-1.2-0.3c-0.4-0.1-0.8-0.2-1.2-0.3c-0.5-0.1-1.1-0.3-1.6-0.4
			c-0.6-0.1-1.1-0.2-1.7-0.4c-0.1,0-0.2,0-0.3-0.1c-0.3-0.1-0.6-0.1-0.9-0.2c-0.3,0-0.5-0.1-0.8-0.1c-0.1,0-0.1,0-0.2,0
			c-0.9-0.2-1.8-0.3-2.7-0.4l-0.9-0.1l-1.2-0.1l-16.6-1.4l-3.3-0.3l-7.8-0.6h0L289,16.8l-6.5-0.5l-9.9-0.8l-1.3-0.1l-0.2,0l-0.1,2.1
			l-0.1,3.1v0l-0.2,4L270.5,28.6z"/>
		<g>
			<path class="st7" d="M365.7,101.1c0,2.1-0.4,4.1-1,6c-0.1,0.2-0.1,0.3-0.2,0.5c0,0,0,0.1,0,0.1c-1.1,2.7-2.8,5.1-5,7
				c-3.1,2.7-7.2,4.3-11.6,4.3c-4.4,0-8.5-1.6-11.6-4.3c-1-0.9-2-1.9-2.8-3c-1-1.4-1.9-2.9-2.4-4.6c-0.7-1.9-1-3.9-1-6
				c0-9.8,8-17.8,17.8-17.8C357.7,83.2,365.7,91.2,365.7,101.1z"/>
			<circle class="st8" cx="347.6" cy="101.2" r="6.9"/>
			<path class="st9" d="M351.4,101.1c0,2.1-1.7,3.9-3.9,3.9c-2.1,0-3.9-1.7-3.9-3.9s1.7-3.9,3.9-3.9
				C349.6,97.3,351.4,99,351.4,101.1z"/>
			<g>
				<path class="st10" d="M335.2,100.5c0-1.7,0.4-3.4,1.1-4.9c2-4.3,6.3-7.3,11.4-7.3c1.9,0,3.8,0.4,5.4,1.3
					c2.6,1.3,4.7,3.4,5.9,6.1c0.7,1.5,1.1,3.2,1.1,4.9c0,0.1,0,0.2,0,0.3c0,0.2,0,0.3,0,0.5c0,0.3,0,0.5-0.1,0.7c0,0.1,0,0.1,0,0.2
					c-0.2,1.9-0.9,3.7-1.8,5.2c-0.2,0.3-0.3,0.5-0.5,0.8c-0.2,0.3-0.4,0.5-0.6,0.8c-0.4,0.5-0.9,0.9-1.4,1.4
					c-0.3,0.2-0.5,0.4-0.8,0.6c-0.1,0.1-0.3,0.2-0.4,0.3c0,0,0,0,0,0c0,0-0.1,0-0.1,0h0c-1.4,0.9-3,1.5-4.6,1.8
					c-0.7,0.1-1.3,0.2-2,0.2c-1.6,0-3-0.3-4.4-0.8c-0.8-0.3-1.6-0.7-2.4-1.2c0,0,0,0,0,0c-0.1-0.1-0.3-0.2-0.4-0.3
					c-0.3-0.2-0.5-0.4-0.8-0.6c-0.1-0.1-0.2-0.2-0.3-0.3c-0.6-0.6-1.2-1.2-1.7-1.9c-0.6-0.8-1.1-1.8-1.5-2.7
					c-0.5-1.1-0.8-2.4-0.9-3.7c0-0.2,0-0.3,0-0.5c0-0.2,0-0.3,0-0.5v-0.1C335.2,100.7,335.2,100.6,335.2,100.5z M336.3,100.9
					c0,0.2,0,0.3,0,0.5c0,0.1,0,0.3,0,0.4v0.1c0.1,1.3,0.5,2.5,1,3.7c0.4,0.9,1,1.8,1.7,2.6c0,0,0,0.1,0.1,0.1
					c0.6,0.7,1.2,1.2,1.9,1.8c0.1,0.1,0.2,0.1,0.3,0.2c0.1,0,0.1,0.1,0.2,0.1c0.3,0.2,0.7,0.4,1.1,0.6c0.2,0.1,0.4,0.2,0.6,0.3
					c0,0,0,0,0,0c1,0.4,2.1,0.7,3.3,0.8c0.4,0.1,0.8,0.1,1.3,0.1c0.4,0,0.9,0,1.3-0.1c1.1-0.1,2.1-0.4,3.1-0.8c0,0,0,0,0,0
					c0.1,0,0.1-0.1,0.2-0.1h0c0.1,0,0.3-0.1,0.4-0.2c0.4-0.2,0.7-0.4,1.1-0.6c0.4-0.2,0.7-0.5,1.1-0.8c0.5-0.4,1-0.9,1.4-1.4
					c0.1-0.2,0.3-0.3,0.4-0.5c0.1-0.1,0.2-0.3,0.3-0.4c1-1.4,1.7-3.1,2-4.9c0,0,0-0.1,0-0.2c0-0.1,0-0.1,0-0.2c0-0.2,0-0.5,0.1-0.7
					c0-0.2,0-0.3,0-0.5c0-0.1,0-0.2,0-0.3c0-0.2,0-0.5,0-0.7c-0.1-1.5-0.5-2.9-1.2-4.2c-0.4-0.8-0.9-1.5-1.4-2.2
					c-0.6-0.7-1.2-1.3-1.9-1.8c-0.6-0.4-1.2-0.8-1.8-1.1c-1.1-0.6-2.4-0.9-3.7-1.1c-0.5-0.1-0.9-0.1-1.4-0.1c-0.4,0-0.9,0-1.3,0.1
					c-2,0.2-3.9,1-5.5,2.2c-0.7,0.5-1.3,1.1-1.9,1.8c-0.6,0.7-1.1,1.4-1.5,2.2c-0.6,1.1-1,2.4-1.2,3.7v0c0,0.4-0.1,0.8-0.1,1.2
					c0,0.1,0,0.2,0,0.3V100.9z"/>
			</g>
		</g>
		<g>
			<path class="st7" d="M259.8,101.1c0,2.1-0.4,4.1-1,6c-0.1,0.2-0.1,0.3-0.2,0.5c0,0,0,0.1,0,0.1c-1.1,2.7-2.8,5.1-5,7
				c-3.1,2.7-7.2,4.3-11.6,4.3s-8.5-1.6-11.6-4.3c-1-0.9-2-1.9-2.8-3c-1-1.4-1.9-2.9-2.4-4.6c-0.7-1.9-1-3.9-1-6
				c0-9.8,8-17.8,17.8-17.8S259.8,91.2,259.8,101.1z"/>
			<circle class="st8" cx="241.7" cy="101.2" r="6.9"/>
			<path class="st9" d="M245.4,101.1c0,2.1-1.7,3.9-3.9,3.9c-2.1,0-3.9-1.7-3.9-3.9s1.7-3.9,3.9-3.9
				C243.7,97.3,245.4,99,245.4,101.1z"/>
			<g>
				<path class="st10" d="M229.3,100.5c0-1.7,0.4-3.4,1.1-4.9c2-4.3,6.3-7.3,11.4-7.3c5,0,9.4,3,11.3,7.3c0.7,1.5,1.1,3.2,1.1,4.9
					c0,0.1,0,0.2,0,0.3c0,0.2,0,0.3,0,0.5c0,0.2,0,0.4,0,0.6c0,0,0,0.1,0,0.1c0,0.1,0,0.1,0,0.2c-0.2,1.5-0.6,3-1.3,4.3
					c-0.3,0.6-0.6,1.1-1,1.6c0,0,0,0.1-0.1,0.1c-0.6,0.8-1.3,1.5-2,2.2c-0.3,0.2-0.5,0.4-0.8,0.6c-0.1,0.1-0.3,0.2-0.4,0.3
					c0,0,0,0,0,0h0c-2,1.3-4.3,2-6.8,2c-2.5,0-4.8-0.7-6.8-2c0,0,0,0,0,0c-0.2-0.1-0.3-0.2-0.4-0.3c-0.3-0.2-0.5-0.4-0.8-0.6
					c-0.8-0.6-1.4-1.3-2-2.2c-0.1-0.1-0.2-0.3-0.3-0.4c-0.3-0.5-0.6-1-0.9-1.5c-0.7-1.4-1.1-2.8-1.2-4.4c0-0.1,0-0.2,0-0.3
					c0-0.1,0-0.1,0-0.2c0-0.2,0-0.3,0-0.5v-0.1C229.3,100.7,229.3,100.6,229.3,100.5z M230.3,100.9c0,0.2,0,0.3,0,0.5
					c0,0,0,0.1,0,0.1c0,0.1,0,0.2,0,0.3v0.1c0.2,1.6,0.6,3,1.3,4.3c0.3,0.5,0.6,1.1,1,1.5c0.1,0.2,0.2,0.3,0.3,0.4
					c0,0,0,0.1,0.1,0.1c0.6,0.7,1.2,1.2,1.9,1.8c0.2,0.1,0.3,0.2,0.5,0.3c0.3,0.2,0.7,0.4,1.1,0.6c0.2,0.1,0.4,0.2,0.6,0.3
					c0,0,0,0,0,0h0c1,0.4,2.1,0.7,3.3,0.8c0.4,0.1,0.8,0.1,1.2,0.1c0.4,0,0.9,0,1.3-0.1c1.1-0.1,2.2-0.4,3.1-0.8c0,0,0,0,0,0
					c0,0,0,0,0,0c0.2-0.1,0.4-0.2,0.6-0.3c0.4-0.2,0.7-0.4,1.1-0.6c0.4-0.2,0.7-0.5,1.1-0.8c0.5-0.4,1-0.9,1.4-1.4
					c0,0,0.1-0.1,0.1-0.1c0.1-0.1,0.2-0.2,0.3-0.4c0.3-0.4,0.6-0.8,0.8-1.2c0.7-1.3,1.2-2.7,1.5-4.2c0,0,0-0.1,0-0.2
					c0-0.1,0-0.1,0-0.2c0,0,0-0.1,0-0.1c0-0.2,0-0.4,0.1-0.6c0-0.2,0-0.3,0-0.5c0-0.1,0-0.2,0-0.3c0-0.2,0-0.5,0-0.7
					c-0.1-1.5-0.5-2.9-1.2-4.2c-0.4-0.8-0.9-1.5-1.4-2.2c-0.6-0.7-1.2-1.3-1.9-1.8c-1.6-1.2-3.4-1.9-5.4-2.2
					c-0.5-0.1-0.9-0.1-1.4-0.1c-0.4,0-0.9,0-1.3,0.1c-2.1,0.2-3.9,1-5.5,2.2c-0.7,0.5-1.3,1.1-1.9,1.8c-0.6,0.7-1.1,1.4-1.5,2.2
					c-0.6,1.1-1,2.4-1.1,3.7v0c-0.1,0.4-0.1,0.8-0.1,1.2c0,0.1,0,0.2,0,0.3V100.9z"/>
			</g>
		</g>
		<g>
			<path class="st7" d="M218.4,101.1c0,2.1-0.4,4.1-1,6c-0.1,0.2-0.1,0.3-0.2,0.5c0,0,0,0.1,0,0.1c-1.1,2.7-2.8,5.1-5,7
				c-3.1,2.7-7.2,4.3-11.6,4.3s-8.5-1.6-11.6-4.3c-1-0.9-2-1.9-2.8-3c-1-1.4-1.9-2.9-2.4-4.6c-0.7-1.9-1-3.9-1-6
				c0-9.8,8-17.8,17.8-17.8C210.4,83.2,218.4,91.2,218.4,101.1z"/>
			<circle class="st8" cx="200.3" cy="101.2" r="6.9"/>
			<path class="st9" d="M204,101.1c0,2.1-1.7,3.9-3.9,3.9c-2.1,0-3.9-1.7-3.9-3.9s1.7-3.9,3.9-3.9C202.3,97.3,204,99,204,101.1z"/>
			<g>
				<path class="st11" d="M187.9,100.5c0-1.7,0.4-3.4,1.1-4.9c2-4.3,6.3-7.3,11.4-7.3s9.4,3,11.4,7.3c0.7,1.5,1.1,3.2,1.1,4.9
					c0,0.1,0,0.2,0,0.3c0,0.2,0,0.3,0,0.5c0,0.3,0,0.5-0.1,0.7c0,0.1,0,0.1,0,0.2c-0.2,1.4-0.5,2.6-1.1,3.8c-0.2,0.5-0.5,1-0.8,1.5
					c-0.1,0.2-0.3,0.4-0.4,0.7c-0.6,0.8-1.3,1.5-2,2.2c-0.3,0.2-0.5,0.4-0.8,0.6c-0.1,0.1-0.3,0.2-0.4,0.3c0,0,0,0,0,0c0,0,0,0,0,0
					c-2,1.3-4.3,2-6.8,2c-2.5,0-4.8-0.7-6.8-2c0,0,0,0,0,0c-0.2-0.1-0.3-0.2-0.4-0.3c-0.3-0.2-0.5-0.4-0.8-0.6
					c-0.8-0.6-1.4-1.3-2-2.2c-0.2-0.2-0.3-0.5-0.5-0.7c-0.3-0.5-0.6-1-0.8-1.5c-0.6-1.3-1-2.7-1.1-4.2c0-0.2,0-0.3,0-0.5v-0.6
					C187.8,100.7,187.8,100.6,187.9,100.5z M188.9,100.9c0,0.2,0,0.3,0,0.5c0,0.1,0,0.3,0,0.4c0,0,0,0,0,0.1
					c0.1,1.5,0.6,2.9,1.2,4.1c0.3,0.5,0.6,1,0.9,1.5c0.2,0.2,0.4,0.5,0.6,0.7c0,0,0,0.1,0.1,0.1c0.6,0.7,1.2,1.2,1.9,1.8
					c0.2,0.1,0.3,0.2,0.5,0.3c0.3,0.2,0.7,0.4,1.1,0.6c0.2,0.1,0.4,0.2,0.6,0.3c0,0,0,0,0,0c0,0,0,0,0,0c1,0.4,2.1,0.7,3.2,0.8
					c0.4,0.1,0.8,0.1,1.3,0.1c0.4,0,0.9,0,1.3-0.1c1.1-0.1,2.1-0.4,3.1-0.8h0c0,0,0,0,0,0c0.2-0.1,0.4-0.2,0.6-0.3
					c0.4-0.2,0.7-0.4,1.1-0.6c0.4-0.2,0.7-0.5,1.1-0.8c0.5-0.4,1-0.9,1.4-1.4c0.1-0.2,0.3-0.3,0.4-0.5c0.1-0.1,0.1-0.1,0.1-0.2
					c0.4-0.5,0.7-1,0.9-1.5c0.6-1.1,1-2.4,1.2-3.7c0,0,0-0.1,0-0.2c0-0.1,0-0.1,0-0.2c0.1-0.2,0.1-0.5,0.1-0.7c0-0.2,0-0.3,0-0.5
					c0-0.1,0-0.2,0-0.3c0-0.2,0-0.5,0-0.7c-0.1-1.5-0.5-2.9-1.2-4.2c-0.4-0.8-0.9-1.5-1.4-2.2c-0.6-0.7-1.2-1.3-1.9-1.8
					c-1.6-1.2-3.4-1.9-5.4-2.2c-0.4-0.1-0.9-0.1-1.4-0.1c-0.4,0-0.9,0-1.3,0.1c-2,0.2-3.9,1-5.5,2.2c-0.7,0.5-1.3,1.1-1.9,1.8
					c-0.6,0.7-1.1,1.4-1.5,2.2c-0.6,1.1-1,2.4-1.1,3.7v0c-0.1,0.4-0.1,0.8-0.1,1.2c0,0.1,0,0.2,0,0.3V100.9z"/>
			</g>
		</g>
		<path class="st6" d="M100.6,101.1c0,2.3-0.4,4.4-1.1,6.5c-0.1,0.2-0.1,0.3-0.2,0.5c0,0,0,0.1,0,0.1c-0.4,1.1-1,2.2-1.6,3.2H64.9
			c-0.7-1.2-1.4-2.4-1.8-3.8c-0.7-2-1.1-4.2-1.1-6.5c0-10.7,8.6-19.3,19.3-19.3C91.9,81.8,100.6,90.4,100.6,101.1z"/>
		<path class="st6" d="M59.2,101.1c0,2.3-0.4,4.4-1.1,6.5c-0.1,0.2-0.1,0.3-0.2,0.5c0,0,0,0.1,0,0.1c-0.4,1.1-1,2.2-1.6,3.2H23.5
			c-0.7-1.2-1.4-2.4-1.8-3.8c-0.7-2-1.1-4.2-1.1-6.5c0-10.7,8.6-19.3,19.3-19.3C50.5,81.8,59.2,90.4,59.2,101.1z"/>
		<g>
			<path class="st7" d="M99.2,101.1c0,2.1-0.4,4.1-1,6c-0.1,0.2-0.1,0.3-0.2,0.5c0,0,0,0.1,0,0.1c-1.1,2.7-2.8,5.1-5,7
				c-3.1,2.7-7.2,4.3-11.6,4.3c-4.4,0-8.5-1.6-11.6-4.3c-1-0.9-2-1.9-2.8-3c-1-1.4-1.9-2.9-2.4-4.6c-0.7-1.9-1-3.9-1-6
				c0-9.8,8-17.8,17.8-17.8C91.2,83.2,99.2,91.2,99.2,101.1z"/>
			<circle class="st8" cx="81.1" cy="101.2" r="6.9"/>
			<path class="st9" d="M84.9,101.1c0,2.1-1.7,3.9-3.9,3.9s-3.9-1.7-3.9-3.9s1.7-3.9,3.9-3.9S84.9,99,84.9,101.1z"/>
			<g>
				<path class="st10" d="M68.7,100.5c0-1.7,0.4-3.4,1.1-4.9c2-4.3,6.3-7.3,11.4-7.3c5.1,0,9.4,3,11.4,7.3c0.7,1.5,1.1,3.2,1.1,4.9
					c0,0.1,0,0.2,0,0.3c0,0.2,0,0.3,0,0.5c0,0.3,0,0.5,0,0.7c0,0.1,0,0.1,0,0.2c-0.3,2.1-1,4.1-2.2,5.8c-0.1,0.1-0.1,0.1-0.2,0.2
					c-0.3,0.5-0.7,0.9-1.1,1.3c-0.3,0.3-0.6,0.6-0.9,0.8c-0.3,0.2-0.5,0.4-0.8,0.6c-0.1,0.1-0.3,0.2-0.4,0.3c0,0,0,0,0,0
					c0,0,0,0,0,0c-1.9,1.3-4.3,2-6.8,2c-2.5,0-4.8-0.7-6.8-2c0,0,0,0,0,0c-0.1-0.1-0.3-0.2-0.4-0.3c-0.3-0.2-0.5-0.4-0.8-0.6l0,0
					c-0.5-0.4-1-0.9-1.4-1.4c-0.2-0.2-0.4-0.5-0.6-0.7c-1.4-1.8-2.3-4-2.4-6.4c0-0.2,0-0.3,0-0.5c0-0.2,0-0.3,0-0.5v-0.1
					C68.7,100.7,68.7,100.6,68.7,100.5z M69.8,100.9c0,0.2,0,0.3,0,0.5c0,0.1,0,0.3,0,0.4c0,0,0,0,0,0.1c0.2,2.4,1.2,4.6,2.7,6.3
					c0,0,0,0.1,0.1,0.1c0.2,0.2,0.4,0.4,0.6,0.6c0.4,0.4,0.9,0.8,1.4,1.2c0.1,0.1,0.2,0.2,0.3,0.2h0c0.1,0,0.1,0.1,0.2,0.1
					c0.3,0.2,0.7,0.4,1,0.6c0.2,0.1,0.4,0.2,0.6,0.3c0,0,0,0,0,0h0c1,0.4,2.1,0.7,3.2,0.8c0.4,0.1,0.8,0.1,1.2,0.1
					c0.5,0,0.9,0,1.4-0.1c1.1-0.1,2.1-0.4,3.1-0.8h0c0,0,0,0,0,0c0.2-0.1,0.4-0.2,0.6-0.3c0.4-0.2,0.7-0.4,1.1-0.6
					c0.4-0.2,0.7-0.5,1-0.8c0.5-0.4,1-0.9,1.4-1.4c0,0,0.1-0.1,0.1-0.1c0.1-0.1,0.2-0.2,0.3-0.3c1.2-1.5,2-3.4,2.3-5.3
					c0,0,0-0.1,0-0.2c0-0.1,0-0.1,0-0.2c0-0.2,0.1-0.5,0.1-0.7c0-0.2,0-0.3,0-0.5c0-0.1,0-0.2,0-0.3c0-0.2,0-0.5,0-0.7
					c-0.1-1.5-0.5-2.9-1.2-4.2c-0.4-0.8-0.9-1.5-1.4-2.2c-0.6-0.7-1.2-1.3-1.9-1.8c-1.6-1.2-3.4-1.9-5.4-2.2
					c-0.4-0.1-0.9-0.1-1.4-0.1c-0.4,0-0.8,0-1.3,0.1c-2.1,0.2-3.9,1-5.5,2.2c-0.7,0.5-1.3,1.1-1.9,1.8c-0.6,0.7-1.1,1.4-1.5,2.2
					c-0.6,1.1-1,2.4-1.1,3.7v0c-0.1,0.4-0.1,0.8-0.1,1.2c0,0.1,0,0.2,0,0.3V100.9z"/>
			</g>
		</g>
		<g>
			<path class="st7" d="M57.8,101.1c0,2.1-0.4,4.1-1,6c-0.1,0.2-0.1,0.3-0.2,0.5c0,0,0,0.1,0,0.1c-1.1,2.7-2.8,5.1-5,7
				c-3.1,2.7-7.2,4.3-11.6,4.3c-4.4,0-8.5-1.6-11.6-4.3c-1-0.9-2-1.9-2.8-3c-1-1.4-1.9-2.9-2.4-4.6c-0.7-1.9-1-3.9-1-6
				c0-9.8,8-17.8,17.8-17.8C49.8,83.2,57.8,91.2,57.8,101.1z"/>
			<circle class="st8" cx="39.7" cy="101.2" r="6.9"/>
			<path class="st9" d="M43.4,101.1c0,2.1-1.7,3.9-3.9,3.9s-3.9-1.7-3.9-3.9s1.7-3.9,3.9-3.9S43.4,99,43.4,101.1z"/>
			<g>
				<path class="st11" d="M27.3,100.5c0-1.7,0.4-3.4,1.1-4.9c2-4.3,6.3-7.3,11.4-7.3c5,0,9.4,3,11.4,7.3c0.7,1.5,1.1,3.2,1.1,4.9
					c0,0.1,0,0.2,0,0.3c0,0.2,0,0.3,0,0.5c0,0.3,0,0.5,0,0.7c0,0.1,0,0.1,0,0.2c-0.3,2.2-1.1,4.3-2.4,6c-0.6,0.8-1.3,1.5-2,2.2
					c-0.1,0.1-0.1,0.1-0.2,0.2c-0.2,0.2-0.4,0.3-0.5,0.4c-0.1,0.1-0.3,0.2-0.4,0.3c0,0,0,0,0,0h0c-0.7,0.4-1.3,0.8-2.1,1.1l0,0
					c-1.4,0.6-3,0.9-4.7,0.9c-0.8,0-1.6-0.1-2.4-0.2h0c-1.3-0.2-2.5-0.7-3.5-1.3h0c-0.3-0.2-0.5-0.3-0.8-0.5c0,0,0,0,0,0
					c0,0,0,0,0,0c-0.1-0.1-0.3-0.2-0.4-0.3c-0.3-0.2-0.5-0.4-0.8-0.6c-0.8-0.6-1.4-1.4-2-2.2c-1.3-1.8-2.2-4-2.4-6.4
					c0-0.2,0-0.3,0-0.5c0-0.2,0-0.3,0-0.5v-0.1C27.3,100.7,27.3,100.6,27.3,100.5z M28.3,100.9c0,0.2,0,0.3,0,0.5c0,0.1,0,0.3,0,0.4
					c0,0,0,0,0,0.1c0.2,2.4,1.2,4.6,2.7,6.3c0,0,0,0.1,0.1,0.1c0.6,0.7,1.2,1.2,1.9,1.8c0.2,0.1,0.3,0.2,0.5,0.3
					c0.3,0.2,0.7,0.4,1,0.6c0.2,0.1,0.4,0.2,0.6,0.3c0,0,0,0,0,0c0,0,0,0,0,0c0.2,0.1,0.5,0.2,0.7,0.3h0c0.8,0.3,1.7,0.5,2.5,0.6
					c0.4,0.1,0.8,0.1,1.2,0.1c0.5,0,0.9,0,1.3-0.1c1.1-0.1,2.1-0.4,3.1-0.8c0,0,0,0,0,0c0,0,0,0,0,0c0.2-0.1,0.4-0.2,0.6-0.3
					c0.2-0.1,0.3-0.2,0.5-0.3c0.2-0.1,0.4-0.2,0.5-0.3c0.4-0.2,0.7-0.5,1.1-0.8c0.5-0.4,1-0.9,1.4-1.4c0.1-0.2,0.3-0.3,0.4-0.5
					c1.2-1.5,2-3.4,2.3-5.3c0,0,0-0.1,0-0.2c0-0.1,0-0.1,0-0.2c0-0.2,0.1-0.5,0.1-0.7c0-0.2,0-0.3,0-0.5c0-0.1,0-0.2,0-0.3
					c0-0.2,0-0.5,0-0.7c-0.1-1.5-0.5-2.9-1.2-4.2c-0.4-0.8-0.9-1.5-1.4-2.2c-0.6-0.7-1.2-1.3-1.9-1.8c-1.5-1.2-3.4-1.9-5.5-2.2
					c-0.4-0.1-0.9-0.1-1.4-0.1c-0.4,0-0.9,0-1.3,0.1c-2,0.2-3.9,1-5.5,2.2c-0.7,0.5-1.3,1.1-1.9,1.8c-0.6,0.7-1.1,1.4-1.5,2.2
					c-0.6,1.1-1,2.4-1.1,3.7v0c-0.1,0.4-0.1,0.8-0.1,1.2c0,0.1,0,0.2,0,0.3V100.9z"/>
			</g>
		</g>
		<g>
			<path class="st12" d="M368.7,75.5l-2.9-4.4c-0.3-0.5-0.2-1.2,0.3-1.6l0.4-0.2c0.3-0.2,0.6-0.1,0.8,0.2l2.9,4.4
				c0.3,0.5,0.2,1.2-0.3,1.6l-0.4,0.2C369.2,75.8,368.9,75.7,368.7,75.5z"/>
			<path class="st13" d="M368.7,75.3l-2.7-4.3c-0.3-0.5-0.2-1.1,0.3-1.4l0.3-0.2c0.2-0.1,0.5-0.1,0.7,0.1l2.7,4.3
				c0.3,0.5,0.2,1.1-0.3,1.4l-0.3,0.2C369.2,75.6,368.9,75.6,368.7,75.3z"/>
			<path class="st14" d="M367.3,73.1l-1.3-2c-0.3-0.5-0.2-1.1,0.3-1.4l0.3-0.2c0.2-0.1,0.5-0.1,0.7,0.1l1.3,2
				c0.3,0.5,0.2,1.1-0.3,1.4l-0.3,0.2C367.7,73.3,367.4,73.3,367.3,73.1z"/>
		</g>
		<polygon class="st15" points="338,59.6 318,55.7 317.5,55.6 307.2,18.3 310.6,18.5 327.2,19.9 		"/>
		<path class="st16" d="M332.2,20.5l11.1,40.2l0,0.1l0.4,0.1l25.3,4.9l0.2,0h0l0.1,0l0-0.1v0l-15.9-26.2l-9-15.9c0,0-0.1,0-0.1,0
			l0,0l-0.1,0c-0.3-0.1-0.6-0.2-0.9-0.3c-0.1,0-0.2-0.1-0.3-0.1c-0.3-0.1-0.6-0.2-0.9-0.3c-0.7-0.2-1.3-0.4-2-0.6
			c-0.4-0.1-0.8-0.2-1.2-0.3c-0.4-0.1-0.8-0.2-1.2-0.3c-0.5-0.1-1.1-0.3-1.6-0.4c-0.6-0.1-1.1-0.2-1.7-0.4c-0.1,0-0.2,0-0.3-0.1
			c-0.3-0.1-0.6-0.1-0.9-0.2C332.7,20.6,332.5,20.5,332.2,20.5z"/>
		<path class="st13" d="M8.9,90.7H8.4c-0.5,0-0.8-0.4-0.8-0.8v-6.1c0-0.5,0.4-0.8,0.8-0.8h0.4c0.5,0,0.8,0.4,0.8,0.8v6.1
			C9.7,90.3,9.3,90.7,8.9,90.7z"/>
		<path class="st13" d="M8.9,100.3H8.4c-0.5,0-0.8-0.4-0.8-0.8v-6.1c0-0.5,0.4-0.8,0.8-0.8h0.4c0.5,0,0.8,0.4,0.8,0.8v6.1
			C9.7,99.9,9.3,100.3,8.9,100.3z"/>
		<path class="st14" d="M8,90.7H7.6c-0.5,0-0.8-0.4-0.8-0.8v-6.1c0-0.5,0.4-0.8,0.8-0.8H8c0.5,0,0.8,0.4,0.8,0.8v6.1
			C8.8,90.3,8.5,90.7,8,90.7z"/>
		<path class="st14" d="M8,100.3H7.6c-0.5,0-0.8-0.4-0.8-0.8v-6.1c0-0.5,0.4-0.8,0.8-0.8H8c0.5,0,0.8,0.4,0.8,0.8v6.1
			C8.8,99.9,8.5,100.3,8,100.3z"/>
		<path class="st17" d="M369.1,65.7l-52.8-10.3c0,0-4-2-7.7-7.8l-8.2-15.5l-1.3-0.1l8.5,16.2c0,0,5,8,8.3,8.5
			c3.2,0.5,55.1,12,55.1,12L369.1,65.7z"/>
		<g>
			<g>
				<path class="st1" d="M301,68.2l0,3.3v0.4h-0.8l0-1.4l0-2.3H301z M301,68.2l0,3.3v0.4h-0.8l0-1.4l0-2.3H301z M301,55.8l0,10.4v2
					l0,3.3v0.4l0,8.7v0l0,4.8h-0.8V83l0-1.3v-1.9l0-7.9l0-1.4v-2.3l0-12.4H301z M300.3,34.1L300.3,34.1l0.5-0.3l6.2,12.4
					c0.2,0.3,0.4,0.6,0.6,0.9c0.2,0.3,0.3,0.5,0.5,0.7c1.1,1.6,2.1,2.9,2.9,4c0.2,0.3,0.4,0.5,0.6,0.7c0.1,0.1,0.2,0.3,0.3,0.4
					c0.2,0.2,0.4,0.5,0.6,0.7c0.2,0.3,0.4,0.5,0.6,0.7c0.2,0.2,0.4,0.4,0.6,0.6c0.6,0.5,1.1,0.9,1.4,1.1c0,0,0,0,0,0
					c0.5,0.3,0.7,0.3,0.7,0.3l26.2,5.7l0,0.2v0.2l-0.3,3.9l0,0.6l-0.1,1.4l-0.3,3.7l-0.6,7.8l-0.2,0.1c-0.3,0.1-0.6,0.3-0.9,0.4
					c-0.3,0.1-0.6,0.3-0.8,0.4v0h0c-0.4,0.2-0.7,0.4-1,0.6c-0.1,0.1-0.3,0.2-0.4,0.3c-0.4,0.2-0.7,0.4-1.1,0.7
					c-0.8,0.5-1.5,1-2.1,1.5c-0.2,0.2-0.4,0.3-0.6,0.5c-0.5,0.4-1,0.9-1.5,1.3h0c0,0,0,0,0,0.1c-0.4,0.4-0.8,0.8-1.1,1.2
					c-0.2,0.2-0.3,0.3-0.4,0.5c-0.7,0.9-1.3,1.8-1.8,2.6c0,0,0,0.1-0.1,0.1c0,0.1-0.1,0.1-0.1,0.2c-0.1,0.3-0.3,0.6-0.4,0.8
					c-0.1,0.2-0.2,0.4-0.2,0.5c-0.1,0.1-0.1,0.3-0.2,0.4c0,0.1-0.1,0.3-0.1,0.4c-0.1,0.2-0.2,0.5-0.2,0.7c0,0.1-0.1,0.2-0.1,0.2
					c-0.1,0.2-0.1,0.5-0.2,0.7c-0.1,0.2-0.1,0.4-0.1,0.5c-0.1,0.6-0.2,1-0.2,1.3c0,0,0,0,0,0.1v0c0,0.3,0,0.5,0,0.5l0,0.4h-0.4
					l-7.4-0.2h0l-0.6,0l-0.6,0l-1.9,0l-1.7,0l-1.1,0l-4.3-0.1l-0.5,0h-0.2l-2,0l-0.2,0l-0.5,0l-1.4,0h-0.1l-1.7,0h0l-2,0v-3.4l0-2.4
					v-4.9l0-1.2v-4.3l0-7.9l0-1.4l0-2.3v-2l0-10.4v-3l0-18.4l-0.1-0.3L300.3,34.1z M301,55.8l0,10.4v2l0,3.3v0.4l0,8.7v0l0,4.8l0,10
					l17,0.3l7.9,0.2c0-0.1,0-0.1,0-0.2c0.1-1.6,0.8-5.9,4.9-10.3c1.5-1.6,3.6-3.3,6.2-4.8c0,0,0,0,0,0c0,0,0,0,0,0
					c0.9-0.5,1.8-1,2.8-1.4l0.5-7.3l0.3-3.7l0.1-1.4l0.1-0.6l0.3-3.7L324.9,59l-0.3,0l-8.9-2c0,0-0.6,0-1.9-1.1
					c-0.7-0.6-1.7-1.5-2.9-3c-1.2-1.5-2.8-3.5-4.5-6.3L301,36l0,16.8V55.8z M301,55.8l0,10.4v2l0,3.3v0.4l0,8.7v0l0,4.8h-0.8V83
					l0-1.3v-1.9l0-7.9l0-1.4v-2.3l0-12.4H301z M301,68.2l0,3.3v0.4h-0.8l0-1.4l0-2.3H301z M301,68.2l0,3.3v0.4h-0.8l0-1.4l0-2.3H301
					z"/>
			</g>
		</g>
		<path class="st1" d="M374.7,111.3h2V92.5c0-0.9-0.7-1.6-1.6-1.6h-0.4V111.3z"/>
	</g>
	<path class="st18" d="M300.1,34.2l0.1,0.3l0.1,45.3v1.9l0,1.3v1.1l0,1.7v1.8l0,2.7l0,2.4v0.4l0,2.6v0.4l2,0l1.7,0l0.1,0l1.4,0
		l0.5,0l0.2,0l2,0h0.2l0.5,0l4.3,0.1l1.1,0l1.7,0l2.4,0.1l0.6,0l7.4,0.2l0.4,0l0-0.4c0-0.1-0.3-9.3,12.1-15.6
		c0.5-0.3,1.1-0.5,1.7-0.8l0.2-0.1l1.3-17.4l0-0.4l-26.2-5.7c0,0-2.7-0.5-8.9-10l-6.2-12.4l-0.5,0.3L300.1,34.2z"/>
</g>
</svg>
