<?xml version="1.0" encoding="utf-8"?>
<!-- Generator: Adobe Illustrator 24.0.2, SVG Export Plug-In . SVG Version: 6.00 Build 0)  -->
<svg version="1.1" id="Layer_1" xmlns="http://www.w3.org/2000/svg" xmlns:xlink="http://www.w3.org/1999/xlink" x="0px" y="0px"
	 viewBox="0 0 500 89" style="enable-background:new 0 0 500 89;" xml:space="preserve">
<style type="text/css">
	.st0{fill:#DDE1E6;}
	.st1{fill:url(#SVGID_1_);}
	.st2{fill:url(#SVGID_2_);}
	.st3{fill:url(#SVGID_3_);}
	.st4{fill:url(#SVGID_4_);}
	.st5{fill:url(#SVGID_5_);}
	.st6{fill:url(#SVGID_6_);}
</style>
<g>
	<g>
		<path class="st0" d="M75.48,61.69c-6.77-4.94-11.7,0.99-11.7,0.99l-0.09,0.09c-4.45,4.45-9.81,6.67-16.1,6.67
			c-6.29,0-11.65-2.22-16.1-6.67c-4.45-4.45-6.67-9.81-6.67-16.1c0-6.29,2.22-11.65,6.67-16.1c4.45-4.45,9.81-6.67,16.1-6.67
			c6.28,0,11.65,2.22,16.1,6.67l0.09,0.09c0,0,5.96,5.87,12.27,0.15c6.06-5.5-0.17-12.24-0.17-12.24l-0.09-0.09
			C68.01,10.72,58.62,6.83,47.59,6.83c-11.03,0-20.43,3.88-28.2,11.65c-7.77,7.77-11.65,17.17-11.65,28.2
			c0,11.03,3.88,20.43,11.65,28.2c7.77,7.77,17.17,11.65,28.2,11.65c11.03,0,20.43-3.88,28.19-11.65l0.09-0.09
			C75.87,74.78,82.53,66.83,75.48,61.69z"/>
		<path class="st0" d="M154.97,83.75c1.07-0.96,1.84-3.08,1.85-4.25l0.32-32.82c0.11-11.03-3.68-20.47-11.37-28.31
			c-7.69-7.84-17.05-11.82-28.08-11.93s-20.47,3.68-28.31,11.37c-7.85,7.69-11.82,17.05-11.93,28.08
			c-0.11,11.03,3.68,20.46,11.37,28.31c7.69,7.84,17.05,11.82,28.08,11.93c8.6,0.08,16.21-2.18,22.84-6.8
			c-0.01,1.21,0.91,3.3,1.97,4.4C144.42,86.53,151.24,87.09,154.97,83.75z M140.01,48.02c-0.32,4.98-2.36,9.76-5.73,13.44
			c-5.04,5.51-11.28,8.02-18.72,7.54c-4.98-0.32-9.76-2.36-13.44-5.72c-5.51-5.04-8.02-11.28-7.54-18.72
			c0.32-4.98,2.36-9.77,5.73-13.45c5.04-5.5,11.27-8.01,18.71-7.53c4.98,0.32,9.76,2.36,13.44,5.72
			C137.98,34.34,140.49,40.58,140.01,48.02z"/>
		<path class="st0" d="M263.42,6.77c-11.03,0-20.43,3.88-28.2,11.65c-1.13,1.13-2.16,2.28-3.11,3.47c-0.95-1.19-1.99-2.34-3.11-3.47
			c-7.77-7.77-17.16-11.65-28.19-11.65c-11.03,0-20.43,3.88-28.19,11.65c-7.77,7.77-11.65,17.17-11.65,28.2v31.25
			c0,4.75,3.85,8.59,8.59,8.59c4.69,0,8.48-3.8,8.48-8.48V46.99c0-5.71,1.94-11.34,5.8-15.56c4.39-4.81,9.72-7.33,15.99-7.57
			c6.87-0.26,13.59,2.64,18.15,7.79c3.73,4.22,5.6,9.2,5.6,14.96v31.25c0,4.75,3.85,8.6,8.6,8.6c4.68,0,8.48-3.8,8.48-8.48V46.62
			c0-5.76,1.87-10.75,5.6-14.96c4.56-5.15,11.28-8.05,18.15-7.79c6.28,0.24,11.61,2.76,16,7.58c3.85,4.22,5.79,9.85,5.79,15.56
			v30.58c0,4.9,3.98,8.88,8.88,8.88c4.53,0,8.2-3.67,8.2-8.2V46.62c0-11.03-3.89-20.43-11.65-28.2
			C283.85,10.65,274.45,6.77,263.42,6.77z"/>
		<path class="st0" d="M317.69,8.71c-4.72,0-8.54,3.82-8.54,8.54v62.62c0,4.72,3.82,8.54,8.54,8.54c4.72,0,8.54-3.82,8.54-8.54
			V17.25C326.22,12.53,322.4,8.71,317.69,8.71z"/>
		<path class="st0" d="M371.56,6.83c-11.03,0-20.43,3.88-28.19,11.65c-7.77,7.77-11.65,17.17-11.65,28.2
			c0,11.03,3.88,20.43,11.65,28.2c7.77,7.77,17.17,11.65,28.19,11.65c11.03,0,20.43-3.88,28.2-11.65
			c7.77-7.77,11.65-17.17,11.65-28.2c0-11.03-3.88-20.43-11.65-28.2C391.99,10.72,382.59,6.83,371.56,6.83z M387.66,62.78
			c-4.45,4.45-9.81,6.67-16.1,6.67c-6.29,0-11.65-2.22-16.1-6.67c-4.45-4.45-6.67-9.81-6.67-16.1c0-6.28,2.22-11.65,6.67-16.1
			c4.45-4.45,9.81-6.67,16.1-6.67c6.29,0,11.65,2.22,16.1,6.67c4.45,4.45,6.67,9.81,6.67,16.1
			C394.33,52.96,392.11,58.33,387.66,62.78z"/>
		<path class="st0" d="M457.15,6.69c-11.03,0-20.43,3.88-28.2,11.65c-7.77,7.77-11.65,17.17-11.65,28.2v31.59
			c0,4.56,3.7,8.26,8.26,8.26h0c4.87,0,8.82-3.95,8.82-8.82V46.54c0-6.89,2.68-12.68,8.02-17.37c3.5-3.07,7.94-4.96,12.58-5.32
			c8.19-0.63,14.92,2.27,20.19,8.72c3.18,3.89,4.74,8.85,4.74,13.87l0,30.21c0,5.37,4.35,9.72,9.72,9.72c4.06,0,7.35-3.29,7.35-7.35
			V46.54c0-11.03-3.88-20.43-11.65-28.2C477.58,10.57,468.18,6.69,457.15,6.69z"/>
	</g>
	<g>
		<linearGradient id="SVGID_1_" gradientUnits="userSpaceOnUse" x1="37.488" y1="83.2682" x2="37.488" y2="3.5747">
			<stop  offset="4.081630e-03" style="stop-color:#F99B22"/>
			<stop  offset="1" style="stop-color:#EE1661"/>
		</linearGradient>
		<path class="st1" d="M69.74,58.44c-6.77-4.94-11.7,0.99-11.7,0.99l-0.09,0.09c-4.45,4.45-9.81,6.67-16.1,6.67
			c-6.29,0-11.65-2.22-16.1-6.67c-4.45-4.45-6.67-9.81-6.67-16.1c0-6.29,2.22-11.65,6.67-16.1c4.45-4.45,9.81-6.67,16.1-6.67
			c6.28,0,11.65,2.22,16.1,6.67l0.09,0.09c0,0,5.96,5.87,12.27,0.15c6.06-5.5-0.17-12.24-0.17-12.24l-0.09-0.09
			C62.27,7.46,52.88,3.57,41.85,3.57c-11.03,0-20.43,3.88-28.2,11.65C5.88,23,2,32.39,2,43.42c0,11.03,3.88,20.43,11.65,28.2
			c7.77,7.77,17.17,11.65,28.2,11.65c11.03,0,20.43-3.88,28.19-11.65l0.09-0.09C70.13,71.53,76.79,63.58,69.74,58.44z"/>
		<linearGradient id="SVGID_2_" gradientUnits="userSpaceOnUse" x1="111.5614" y1="82.8783" x2="111.5614" y2="3.1841">
			<stop  offset="4.081630e-03" style="stop-color:#F99B22"/>
			<stop  offset="1" style="stop-color:#EE1661"/>
		</linearGradient>
		<path class="st2" d="M149.23,80.49c1.07-0.96,1.84-3.08,1.85-4.25l0.32-32.82c0.11-11.03-3.68-20.47-11.37-28.31
			c-7.69-7.84-17.05-11.82-28.08-11.93S91.49,6.87,83.65,14.56c-7.85,7.69-11.82,17.05-11.93,28.08
			C71.61,53.67,75.4,63.1,83.09,70.95c7.69,7.84,17.05,11.82,28.08,11.93c8.6,0.08,16.21-2.18,22.84-6.8
			c-0.01,1.21,0.91,3.3,1.97,4.4C138.68,83.28,145.5,83.83,149.23,80.49z M134.27,44.76c-0.32,4.98-2.36,9.76-5.73,13.44
			c-5.04,5.51-11.28,8.02-18.72,7.54c-4.98-0.32-9.76-2.36-13.44-5.72c-5.51-5.04-8.02-11.28-7.54-18.72
			c0.32-4.98,2.36-9.77,5.73-13.45c5.04-5.5,11.27-8.01,18.71-7.53c4.98,0.32,9.76,2.36,13.44,5.72
			C132.24,31.08,134.75,37.32,134.27,44.76z"/>
		<linearGradient id="SVGID_3_" gradientUnits="userSpaceOnUse" x1="226.3773" y1="83.2064" x2="226.3773" y2="3.5129">
			<stop  offset="4.081630e-03" style="stop-color:#F99B22"/>
			<stop  offset="1" style="stop-color:#EE1661"/>
		</linearGradient>
		<path class="st3" d="M257.68,3.51c-11.03,0-20.43,3.88-28.2,11.65c-1.13,1.13-2.16,2.28-3.11,3.47c-0.95-1.19-1.99-2.34-3.11-3.47
			C215.49,7.4,206.1,3.51,195.07,3.51c-11.03,0-20.43,3.88-28.19,11.65c-7.77,7.77-11.65,17.17-11.65,28.2v31.25
			c0,4.75,3.85,8.59,8.59,8.59c4.69,0,8.48-3.8,8.48-8.48V43.74c0-5.71,1.94-11.34,5.8-15.56c4.39-4.81,9.72-7.33,15.99-7.57
			c6.87-0.26,13.59,2.64,18.15,7.79c3.73,4.22,5.6,9.2,5.6,14.96v31.25c0,4.75,3.85,8.6,8.6,8.6c4.68,0,8.48-3.8,8.48-8.48V43.36
			c0-5.76,1.87-10.75,5.6-14.96c4.56-5.15,11.28-8.05,18.15-7.79c6.28,0.24,11.61,2.76,16,7.58c3.85,4.22,5.79,9.85,5.79,15.56
			v30.58c0,4.9,3.98,8.88,8.88,8.88c4.53,0,8.2-3.67,8.2-8.2V43.36c0-11.03-3.89-20.43-11.65-28.2
			C278.11,7.4,268.71,3.51,257.68,3.51z"/>
		<linearGradient id="SVGID_4_" gradientUnits="userSpaceOnUse" x1="311.9466" y1="85.1452" x2="311.9466" y2="5.4517">
			<stop  offset="4.081630e-03" style="stop-color:#F99B22"/>
			<stop  offset="1" style="stop-color:#EE1661"/>
		</linearGradient>
		<path class="st4" d="M311.95,5.45c-4.72,0-8.54,3.82-8.54,8.54v62.62c0,4.72,3.82,8.54,8.54,8.54s8.54-3.82,8.54-8.54V13.99
			C320.49,9.28,316.66,5.45,311.95,5.45z"/>
		<linearGradient id="SVGID_5_" gradientUnits="userSpaceOnUse" x1="365.8236" y1="83.2682" x2="365.8236" y2="3.5747">
			<stop  offset="4.081630e-03" style="stop-color:#F99B22"/>
			<stop  offset="1" style="stop-color:#EE1661"/>
		</linearGradient>
		<path class="st5" d="M365.82,3.57c-11.03,0-20.43,3.88-28.19,11.65c-7.77,7.77-11.65,17.17-11.65,28.2
			c0,11.03,3.88,20.43,11.65,28.2c7.77,7.77,17.17,11.65,28.19,11.65c11.03,0,20.43-3.88,28.2-11.65
			c7.77-7.77,11.65-17.17,11.65-28.2c0-11.03-3.88-20.43-11.65-28.2C386.25,7.46,376.85,3.57,365.82,3.57z M381.92,59.52
			c-4.45,4.45-9.81,6.67-16.1,6.67c-6.29,0-11.65-2.22-16.1-6.67c-4.45-4.45-6.67-9.81-6.67-16.1c0-6.28,2.22-11.65,6.67-16.1
			c4.45-4.45,9.81-6.67,16.1-6.67c6.29,0,11.65,2.22,16.1,6.67c4.45,4.45,6.67,9.81,6.67,16.1
			C388.59,49.71,386.37,55.07,381.92,59.52z"/>
		<linearGradient id="SVGID_6_" gradientUnits="userSpaceOnUse" x1="451.4136" y1="83.1264" x2="451.4136" y2="3.4329">
			<stop  offset="4.081630e-03" style="stop-color:#F99B22"/>
			<stop  offset="1" style="stop-color:#EE1661"/>
		</linearGradient>
		<path class="st6" d="M451.41,3.43c-11.03,0-20.43,3.88-28.2,11.65c-7.77,7.77-11.65,17.17-11.65,28.2v31.59
			c0,4.56,3.7,8.26,8.26,8.26h0c4.87,0,8.82-3.95,8.82-8.82V43.28c0-6.89,2.68-12.68,8.02-17.37c3.5-3.07,7.94-4.96,12.58-5.32
			c8.19-0.63,14.92,2.27,20.19,8.72c3.18,3.89,4.74,8.85,4.74,13.87l0,30.21c0,5.37,4.35,9.72,9.72,9.72c4.06,0,7.35-3.29,7.35-7.35
			V43.28c0-11.03-3.88-20.43-11.65-28.2C471.84,7.32,462.44,3.43,451.41,3.43z"/>
	</g>
</g>
</svg>
