<?xml version="1.0" encoding="utf-8"?>
<!-- Generator: Adobe Illustrator 24.0.1, SVG Export Plug-In . SVG Version: 6.00 Build 0)  -->
<svg version="1.1" id="Layer_1" xmlns="http://www.w3.org/2000/svg" xmlns:xlink="http://www.w3.org/1999/xlink" x="0px" y="0px"
	 viewBox="0 0 500 500" style="enable-background:new 0 0 500 500;" xml:space="preserve">
<style type="text/css">
	.st0{fill:none;}
	.st1{fill:#231F20;}
	.st2{fill:#12CAD6;}
	.st3{fill:#0FABBC;}
	.st4{fill:#DAE4F5;}
	.st5{fill:#78797A;}
	.st6{fill:#414142;}
	.st7{fill:#A2B9C9;}
	.st8{fill:#B2C3DB;}
	.st9{fill:#BBCDE6;}
	.st10{fill:#9BAABF;}
	.st11{opacity:0.25;fill:#231F20;}
	.st12{fill:#3B414A;}
	.st13{opacity:0.1;fill:url(#SVGID_1_);}
	.st14{opacity:0.1;fill:url(#SVGID_2_);}
	.st15{fill:#BF343F;}
	.st16{fill:#B11629;}
</style>
<rect class="st0" width="500" height="500"/>
<g>
	<path class="st1" d="M479.23,274.67c0,0,7.53,2.06,7.53,8.23c0,6.17,0,12.16,0,12.16h-4.84L479.23,274.67z"/>
	<path class="st2" d="M483.74,285.07c-0.33-2.02-0.85-3.84-1.55-5.49c-0.07-0.17-0.14-0.35-0.22-0.51
		c-0.08-0.17-0.16-0.35-0.23-0.51c-1.66-3.41-6.47-10.43-8.86-13.02c-1.35-1.47-26.65-25-42.41-33.91
		c-24.77-24.61-57.39-57.22-100.02-57.12l-30.6-0.45v144.06l179.94-0.23c-4.43,0,3.96-4.31,3.96-10.28V285.07z"/>
	<path class="st3" d="M20.18,318.09h279.65V174.05H16.46v140.31C16.46,316.42,18.13,318.09,20.18,318.09z"/>
	<path class="st3" d="M482.19,280.25c-0.07-0.17-0.14-0.34-0.22-0.5c-0.08-0.17-0.16-0.34-0.23-0.5c-1.66-3.35-6.47-10.25-8.86-12.8
		c-1.35-1.45-26.65-24.7-42.41-33.46c-24.77-24.19-57.39-56.25-100.02-56.15l-30.6-0.44v142.01h173.84c0,0,10.06-4.75,10.06-10.61
		v-22.15C483.41,283.66,482.89,281.86,482.19,280.25z"/>
	<path class="st3" d="M367.97,185.14c0,0-32.39-54.32-76.89-54.32c-44.5,0-253.01,0-258.89,0c-10.67,0-15.74,12.78-15.74,43.24
		s0,30.46,0,30.46L367.97,185.14z"/>
	<path class="st3" d="M387.1,203.08v9.3h-1.49v-8.63c-2.6-2.26-25.08-21.38-43.32-21.38h-33.67v-1.49h33.67
		c19.86,0,43.56,21.08,44.56,21.97L387.1,203.08z"/>
	<path class="st3" d="M468.8,274.06c-14.94-16.85-42.77-26.34-51.07-26.34H20.14v70.71l453.56,0.02c0,0,4.78-4.24,4.78-9.42
		C478.48,309.03,483.74,290.92,468.8,274.06z"/>
	<g>
		<rect x="385.61" y="237.07" class="st3" width="1.49" height="64.36"/>
	</g>
	<path class="st4" d="M385.08,318.41H12.85c-1.57,0-2.85-1.28-2.85-2.85v-21.51h375.08V318.41z"/>
	<path class="st2" d="M385.08,318.41H18.32c-1.56,0-2.83-1.27-2.83-2.83v-21.53h369.59V318.41z"/>
	<g>
		<path class="st5" d="M477.2,297.81c1.42,0.12,2.65-0.94,2.74-2.36c0.21-3.65,0.06-10.55-3.17-16.59c-1.98-3.7-4.36-6.6-6.44-8.7
			c-1.69-1.71-4.58-0.28-4.28,2.1l2.85,22.82c0.15,1.18,1.1,2.09,2.28,2.2L477.2,297.81z"/>
	</g>
	<path class="st2" d="M489,292.97h-56.18v25.48h43.86c4.83,0,12.33-5.52,12.33-12.33V292.97z"/>
	<path class="st2" d="M479.23,292.97h-46.41v25.48h43.62c1.54,0,2.79-1.25,2.79-2.79V292.97z"/>
	<polygon class="st1" points="370.8,318.41 377.88,301.4 400.29,284.41 418.91,284.41 435.51,290.77 446.47,305.94 449.89,318.46 	
		"/>
	<circle class="st6" cx="412.61" cy="320.44" r="27.52"/>
	<path class="st1" d="M437.15,320.44c0,13.55-10.99,24.54-24.54,24.54c-13.55,0-24.54-10.99-24.54-24.54
		c0-13.55,10.99-24.54,24.54-24.54C426.16,295.9,437.15,306.89,437.15,320.44z"/>
	<path class="st7" d="M429.66,320.44v0.05c-0.03,9.4-7.66,17.01-17.05,17.01c-9.4,0-17.03-7.6-17.06-17.01v-0.05
		c0-9.41,7.64-17.05,17.06-17.05C422.02,303.39,429.66,311.02,429.66,320.44z"/>
	<path class="st8" d="M427.81,320.44c0,8.4-6.81,15.2-15.2,15.2c-8.4,0-15.2-6.81-15.2-15.2c0-8.4,6.81-15.2,15.2-15.2
		C421,305.24,427.81,312.04,427.81,320.44z"/>
	<path class="st9" d="M425.29,320.44c0,7-5.68,12.68-12.68,12.68c-7,0-12.68-5.68-12.68-12.68c0-7,5.68-12.68,12.68-12.68
		C419.61,307.76,425.29,313.44,425.29,320.44z"/>
	<path class="st10" d="M417.67,320.49c0,2.8-2.27,5.06-5.06,5.06s-5.06-2.27-5.06-5.06s2.27-5.06,5.06-5.06
		S417.67,317.69,417.67,320.49z"/>
	<path class="st2" d="M452.99,318.41h-8.45c0-4.59-0.88-8.88-2.51-12.74c-0.06-0.18-0.14-0.37-0.22-0.54
		c-0.08-0.18-0.16-0.37-0.25-0.54c-4.94-10.72-15.64-17.79-28.65-17.79c-16.01,0-29.46,10.47-32.92,24.48
		c-1.04,4.2-4.89,7.09-9.21,7.14h-0.1c0-11.05,4.74-21.06,12.38-28.31c7.65-7.26,18.2-11.75,29.85-11.75
		c17.93,0,32.4,10.61,37.78,26.23c0.08,0.17,0.13,0.36,0.2,0.54c0.05,0.17,0.12,0.36,0.16,0.54
		C452.33,309.63,452.99,313.91,452.99,318.41z"/>
	<path class="st2" d="M452.9,318.41h-8.36c0-4.59-0.88-8.88-2.51-12.74c-0.06-0.18-0.14-0.37-0.22-0.54
		c-0.08-0.18-0.16-0.37-0.25-0.54c-4.94-10.72-15.64-17.79-28.65-17.79c-16.01,0-29.46,10.47-32.92,24.48
		c-1.04,4.2-4.89,7.09-9.21,7.14c0.69-9.99,5.26-18.98,12.28-25.64c7.65-7.26,18.2-11.75,29.85-11.75
		c17.93,0,32.4,10.61,37.78,26.23c0.08,0.17,0.13,0.36,0.2,0.54c0.05,0.17,0.12,0.36,0.16,0.54
		C452.08,311.51,452.7,314.88,452.9,318.41z"/>
	<polygon class="st1" points="70.52,318.41 77.61,301.4 100.01,284.41 118.63,284.41 135.24,290.77 146.2,305.93 150.26,318.41 	"/>
	<path class="st2" d="M152.72,318.41L152.72,318.41c-4.46,0-8.28-3.11-9.26-7.46c-0.41-1.84-0.98-3.6-1.69-5.29
		c-0.06-0.18-0.14-0.37-0.22-0.54c-0.08-0.18-0.16-0.37-0.25-0.54c-4.94-10.72-15.64-17.79-28.65-17.79
		c-16.01,0-29.46,10.47-32.92,24.48c-1.04,4.2-4.89,7.09-9.21,7.14h-0.1c0-11.05,4.74-21.06,12.38-28.31
		c7.65-7.26,18.2-11.75,29.85-11.75c17.93,0,32.4,10.61,37.78,26.23c0.08,0.17,0.13,0.36,0.2,0.54c0.05,0.17,0.12,0.36,0.16,0.54
		C152.05,309.63,152.72,313.9,152.72,318.41z"/>
	<path class="st2" d="M152.63,318.41h-0.52c-4.1,0-7.7-2.85-8.53-6.86c-0.42-2.05-1.03-4.02-1.82-5.88
		c-0.06-0.18-0.14-0.37-0.22-0.54c-0.08-0.18-0.16-0.37-0.25-0.54c-4.94-10.72-15.64-17.79-28.65-17.79
		c-16.01,0-29.46,10.47-32.92,24.48c-1.04,4.2-4.89,7.09-9.21,7.14c0.69-9.99,5.26-18.98,12.28-25.64
		c7.65-7.26,18.2-11.75,29.85-11.75c17.93,0,32.4,10.61,37.78,26.23c0.08,0.17,0.13,0.36,0.2,0.54c0.05,0.17,0.12,0.36,0.16,0.54
		C151.81,311.51,152.42,314.88,152.63,318.41z"/>
	<path class="st11" d="M429.66,320.44c-0.03,9.4-7.66,17.01-17.05,17.01c-9.4,0-17.03-7.6-17.06-17.01H429.66z"/>
	<circle class="st6" cx="112.5" cy="320.49" r="27.52"/>
	<path class="st1" d="M137.04,320.49c0,13.55-10.99,24.54-24.54,24.54s-24.54-10.99-24.54-24.54c0-13.55,10.99-24.54,24.54-24.54
		S137.04,306.93,137.04,320.49z"/>
	<path class="st7" d="M129.56,320.48v0.05c-0.03,9.4-7.66,17.01-17.05,17.01c-9.4,0-17.03-7.6-17.06-17.01v-0.05
		c0-9.41,7.64-17.05,17.06-17.05C121.92,303.43,129.56,311.07,129.56,320.48z"/>
	<path class="st8" d="M127.71,320.49c0,8.4-6.81,15.2-15.2,15.2s-15.2-6.81-15.2-15.2c0-8.4,6.81-15.2,15.2-15.2
		S127.71,312.09,127.71,320.49z"/>
	<path class="st9" d="M125.18,320.49c0,7-5.68,12.68-12.68,12.68c-7,0-12.68-5.68-12.68-12.68c0-7,5.68-12.68,12.68-12.68
		C119.51,307.81,125.18,313.48,125.18,320.49z"/>
	<path class="st10" d="M117.57,320.53c0,2.8-2.27,5.06-5.06,5.06c-2.8,0-5.06-2.27-5.06-5.06s2.27-5.06,5.06-5.06
		C115.3,315.47,117.57,317.74,117.57,320.53z"/>
	<path class="st11" d="M129.56,320.49c-0.03,9.4-7.66,17.01-17.05,17.01c-9.4,0-17.03-7.6-17.06-17.01H129.56z"/>
	<path class="st1" d="M481.99,312.31h-10.61v-7.03h11.97v5.67C483.35,311.7,482.74,312.31,481.99,312.31z"/>
	<path class="st1" d="M425.09,238.89c0,0-53.16-52.54-82.03-54.8h-42.12v54.8H425.09z"/>
	
		<rect x="299.84" y="181.62" transform="matrix(-1 -1.224647e-16 1.224647e-16 -1 617.6226 429.3431)" class="st3" width="17.95" height="66.09"/>
	<path class="st2" d="M301.25,240H39.25c-1.54,0-2.79-1.25-2.79-2.79v-44.93c0-1.54,1.25-2.79,2.79-2.79h261.99
		c1.54,0,2.79,1.25,2.79,2.79v44.93C304.04,238.75,302.79,240,301.25,240z"/>
	<path class="st12" d="M324.96,189.07v45.04h86.03c0,0-36.03-32.06-58.44-42.08h-0.01c-4.15-1.86-7.83-2.96-10.74-2.96h-7.78
		C327.92,189.07,324.96,189.07,324.96,189.07z"/>
	
		<rect x="386.35" y="212.35" transform="matrix(-1 -1.224647e-16 1.224647e-16 -1 779.1449 449.4273)" class="st1" width="6.44" height="24.72"/>
	<g>
		<rect x="308.62" y="180.88" class="st3" width="1.49" height="137.58"/>
	</g>
	<rect x="120.32" y="246.09" class="st1" width="95.56" height="5.35"/>
	<g>
		<rect x="215.15" y="180.88" class="st3" width="1.49" height="137.58"/>
	</g>
	<g>
		<rect x="215.6" y="180.88" class="st3" width="94.51" height="1.49"/>
	</g>
	
		<rect x="317.78" y="251.43" transform="matrix(-1 -1.224647e-16 1.224647e-16 -1 647.6991 507.2546)" class="st1" width="12.13" height="4.39"/>
	
		<rect x="288.82" y="251.43" transform="matrix(-1 -1.224647e-16 1.224647e-16 -1 589.7738 507.2546)" class="st1" width="12.13" height="4.39"/>
	<linearGradient id="SVGID_1_" gradientUnits="userSpaceOnUse" x1="340.1926" y1="211.5859" x2="383.8591" y2="211.5859">
		<stop  offset="0" style="stop-color:#FFFFFF"/>
		<stop  offset="1" style="stop-color:#000000"/>
	</linearGradient>
	<path class="st13" d="M340.19,189.07l33.51,45.04h10.15l-31.32-42.08h-0.01c-4.15-1.86-7.83-2.96-10.74-2.96H340.19z"/>
	<linearGradient id="SVGID_2_" gradientUnits="userSpaceOnUse" x1="324.9612" y1="211.5859" x2="367.5362" y2="211.5859">
		<stop  offset="0" style="stop-color:#FFFFFF"/>
		<stop  offset="1" style="stop-color:#000000"/>
	</linearGradient>
	<path class="st14" d="M324.96,189.07v20.86l17.99,24.18h24.58l-33.52-45.04C327.92,189.07,324.96,189.07,324.96,189.07z"/>
	<path class="st2" d="M325.83,169.57H46.18c-2.26,0-4.09-1.83-4.09-4.09v-12.09c0-2.26,1.83-4.09,4.09-4.09h267.56
		c8.93,0,16.18,7.24,16.18,16.18l0,0C329.91,167.74,328.08,169.57,325.83,169.57z"/>
	<rect x="16.46" y="218.59" class="st15" width="8.17" height="59.76"/>
	<rect x="16.46" y="246.09" class="st16" width="8.17" height="32.27"/>
</g>
</svg>
