<?xml version="1.0" encoding="utf-8"?>
<!-- Generator: Adobe Illustrator 22.0.1, SVG Export Plug-In . SVG Version: 6.00 Build 0)  -->
<svg version="1.1" id="Layer_1" xmlns="http://www.w3.org/2000/svg" xmlns:xlink="http://www.w3.org/1999/xlink" x="0px" y="0px"
	 viewBox="0 0 181.2 119.7" style="enable-background:new 0 0 181.2 119.7;" xml:space="preserve">
<style type="text/css">
	.st0{fill:#FEC981;}
	.st1{fill:#FA9B28;}
	.st2{fill:#AB8A28;}
	.st3{fill:#9C7928;}
	.st4{opacity:0.52;fill:#9C7928;}
	.st5{fill:#212335;}
	.st6{fill:#C4CFE8;}
	.st7{fill:#0C0E0B;}
	.st8{fill:#000033;}
	.st9{fill:#E8845D;}
	.st10{fill:#2A3659;}
	.st11{fill:#5582FF;}
	.st12{fill:#11152B;}
	.st13{fill:#F35647;}
	.st14{fill:#EA433B;}
	.st15{fill:#FF5850;}
	.st16{fill:#AA2D17;}
	.st17{fill:#203563;}
	.st18{fill:#192D51;}
	.st19{fill:#B53217;}
	.st20{fill:#380902;}
	.st21{fill:#B13B19;}
	.st22{fill:#CB4D27;}
	.st23{fill:#282F49;}
	.st24{fill:#2C3654;}
	.st25{fill:#5A70DB;}
	.st26{fill:#3E4264;}
	.st27{fill:#C13A1B;}
	.st28{fill:#EF9973;}
	.st29{fill:#D54D21;}
	.st30{fill:#CE4520;}
	.st31{fill:#4D3781;}
	.st32{fill:#EA916E;}
	.st33{fill:#C63F1A;}
	.st34{fill:#E4E8F7;}
	.st35{fill:#242842;}
	.st36{fill:#F0F8FF;}
	.st37{fill:#FEA46D;}
	.st38{fill:#D87D55;}
	.st39{fill:#BA5E42;}
	.st40{opacity:0.52;fill:#9C621C;}
</style>
<g>
	<g>
		<rect x="125.2" y="44.5" class="st0" width="49.3" height="28.7"/>
		<rect x="125.2" y="44.5" class="st1" width="11.5" height="28.7"/>
		
			<rect x="155.5" y="44.5" transform="matrix(-1 -1.224647e-16 1.224647e-16 -1 312.2178 117.6306)" class="st2" width="1.3" height="28.7"/>
		
			<rect x="129.8" y="44.5" transform="matrix(-1 -1.224647e-16 1.224647e-16 -1 260.9003 117.6306)" class="st3" width="1.3" height="28.7"/>
		
			<rect x="129.8" y="43.7" transform="matrix(-1 -1.224647e-16 1.224647e-16 -1 301.5287 88.1776)" class="st3" width="41.9" height="0.8"/>
		<path class="st4" d="M139.8,49h9.2c0.5,0,0.8-0.4,0.8-0.8v-0.3c0-0.5-0.4-0.8-0.8-0.8h-9.2c-0.5,0-0.8,0.4-0.8,0.8v0.3
			C139,48.6,139.3,49,139.8,49z"/>
		<path class="st4" d="M139.8,51.2h9.2c0.5,0,0.8-0.4,0.8-0.8v-0.3c0-0.5-0.4-0.8-0.8-0.8h-9.2c-0.5,0-0.8,0.4-0.8,0.8v0.3
			C139,50.8,139.3,51.2,139.8,51.2z"/>
		<path class="st4" d="M144.9,53.4h4.1c0.5,0,0.8-0.4,0.8-0.8v-0.3c0-0.5-0.4-0.8-0.8-0.8h-4.1c-0.5,0-0.8,0.4-0.8,0.8v0.3
			C144.1,53,144.4,53.4,144.9,53.4z"/>
	</g>
	<g>
		<path class="st5" d="M88.4,52.7c-1.8,0-4.5,0.2-7.8,0.6c-2.1,0.3-3.4,0.5-4.4,0.7c-2.8,0.5-6.8,1-12.3,0.8c-0.2,0-4,0.5-6.3-2.4
			c-1.5-2-1.3-4.2-1.3-4.7v-2.3h25.7c0.4,0,2.8,0,4.6,1.9C88.8,49.5,88.4,52.4,88.4,52.7z"/>
		<path class="st5" d="M86.7,70.6c-1.2,0-2.4-0.1-3.7-0.1c-1.1-7.6-2.2-15.3-3.3-22.9c2.9,1.7,5.8,3.3,8.6,5
			C87.8,58.5,87.3,64.5,86.7,70.6z"/>
	</g>
	<g>
		<path class="st6" d="M93.7,74.3L93.7,74.3l0.1,0.8l-10.8,0l0.1-0.7l0.5-4.4l0.1,0l0.9,0l0,0l0.2,0l2.1,0l0.2,0l0.1,0.3
			c0,0.2,0.1,0.4,0.2,0.5c0,0.1,0.1,0.1,0.1,0.2c0.1,0.1,0.1,0.2,0.2,0.3c0.1,0.1,0.1,0.1,0.2,0.2c0.1,0.1,0.2,0.2,0.3,0.3
			c0.1,0.1,0.2,0.1,0.3,0.2c0.2,0.1,0.4,0.2,0.6,0.2c0.1,0,0.2,0,0.4,0.1l0.1,0l1.9,0.2c0.2,0,0.4,0.1,0.6,0.1
			C92.7,72.8,93.4,73.5,93.7,74.3z"/>
		<polygon class="st7" points="93.7,75.1 83,75.1 83.1,74.4 93.7,74.4 		"/>
		<path class="st6" d="M91.8,72.6c-0.3,0.4-1,1.1-3.2,0.9c-0.8,0-1.6-0.3-2.2-0.9c-0.7-0.6-1.6-1.5-1.7-2.6l2.1,0l0.2,0l0.1,0.3
			c0,0.2,0.1,0.4,0.2,0.5c0,0.1,0.1,0.1,0.1,0.2c0.1,0.1,0.1,0.2,0.2,0.3c0.1,0.1,0.1,0.1,0.2,0.2c0.1,0.1,0.2,0.2,0.3,0.3
			c0.1,0.1,0.2,0.1,0.3,0.2c0.2,0.1,0.4,0.2,0.6,0.2c0.1,0,0.2,0,0.4,0.1l0.1,0l1.9,0.2C91.5,72.5,91.6,72.5,91.8,72.6z"/>
		<g>
			<path class="st8" d="M89.4,72.3C89.4,72.3,89.4,72.4,89.4,72.3c-0.7,0.2-1.2,0.6-1.9,0.4c-0.2,0-0.1-0.3,0.1-0.2
				c0.5,0.1,0.9-0.1,1.4-0.3C89.1,72.3,89.2,72.3,89.4,72.3L89.4,72.3z"/>
		</g>
		<g>
			<path class="st8" d="M88.4,72c-0.6,0.1-1.1,0.5-1.8,0.3c-0.2,0-0.1-0.3,0.1-0.2c0.5,0.1,1-0.1,1.4-0.3C88.2,71.9,88.3,72,88.4,72
				z"/>
		</g>
		<g>
			<path class="st8" d="M87.8,71.6c-0.5,0.1-1,0.4-1.6,0.3c-0.2,0-0.1-0.3,0.1-0.2c0.5,0.1,0.9-0.1,1.4-0.3
				C87.7,71.5,87.7,71.5,87.8,71.6z"/>
		</g>
		<g>
			<path class="st8" d="M87.4,71.1c-0.6,0.1-1.1,0.4-1.7,0.3c-0.2,0-0.1-0.3,0.1-0.2c0.5,0.1,1-0.2,1.5-0.3
				C87.3,71,87.4,71,87.4,71.1z"/>
		</g>
	</g>
	<path class="st9" d="M87.9,40.1c0,0.1,0,0.1,0,0.2c-0.1,0.2-0.2,0.4-0.4,0.5L87.2,41c0,0,0,0,0,0c-1.2-0.2-2.3-0.5-3.5-0.7
		c-2.9,0.3-6,0.7-10.2,1.1c-2,0.2-3.4,0.3-4.6-0.5c-0.9-0.6-1-1.3-2.4-5.1c-1.6-4.3-2-5.1-2.4-7.2c-0.2-1.3-0.3-2.4-0.3-3.2
		c0.2-0.3,0.6-1,1.4-1.2c0.4,0,0.9,0,1.6,0.2c1,0.4,1.6,1.3,2.1,2.4c1.6,3.3,2.9,10.1,3,10.7c2,0.4,4.3,0.7,6.8,0.9
		c2.1,0.1,4,0.1,5.7,0c0,0,0,0,0,0l1.5-0.8c0,0,0.3-0.2,0.2,0.1c-0.1,0.2-0.4,0.7-0.7,1l1.9,0.5C87.7,39.4,88,39.7,87.9,40.1z"/>
	<rect x="40.4" y="4.8" class="st10" width="46.5" height="4.5"/>
	<path class="st5" d="M174.5,105.2v3.8h-46.8v-5.2h46.4C174.4,104.2,174.5,104.7,174.5,105.2z"/>
	<path class="st11" d="M174.5,105.2h-46.8v-2.6h44.2c0.9,0,1.7,0.5,2.2,1.2C174.4,104.2,174.5,104.7,174.5,105.2z"/>
	<path class="st5" d="M170.6,98.7v3.1h-46.8v-4.2h46.4C170.5,97.9,170.6,98.3,170.6,98.7z"/>
	<path class="st11" d="M170.6,98.7h-46.8v-2.1H168c0.9,0,1.7,0.4,2.2,1C170.5,97.9,170.6,98.3,170.6,98.7z"/>
	<polygon class="st5" points="109.6,63.6 105.4,65 85.6,6.9 83.7,1.3 88.4,1.3 89.9,5.7 	"/>
	<path class="st12" d="M76.1,63.2H50.3v-5.1h21.6c2.4,0,4.3,1.9,4.3,4.3V63.2z"/>
	<path class="st13" d="M42.8,58.1v32.1h-41V66.2c0-4.4,3.6-8,8-8H42.8z"/>
	<path class="st13" d="M112.4,78.3V109H42.7V77h62.1C107.5,77,110,77.4,112.4,78.3z"/>
	<rect x="42.7" y="91.5" class="st14" width="69.7" height="17.5"/>
	<path class="st15" d="M15.5,58.1v32.1H1.8V66.2c0-4.4,3.6-8,8-8H15.5z"/>
	<rect x="76.1" y="77" class="st16" width="27.4" height="16"/>
	<rect x="42.7" y="63.2" class="st17" width="29.4" height="13.7"/>
	<rect x="68.5" y="63.2" class="st18" width="7.6" height="13.7"/>
	<rect x="35.8" y="3.2" class="st5" width="6.9" height="73.8"/>
	<path class="st5" d="M68.5,63.2H42.3v-5.1h22c2.4,0,4.3,1.9,4.3,4.3V63.2z"/>
	<rect x="68.5" y="77" class="st19" width="7.6" height="16"/>
	<rect x="68.5" y="93" class="st20" width="16.3" height="1"/>
	<path class="st14" d="M127.9,100.9c0,1-0.1,1.9-0.2,2.9c0,0.1,0,0.2,0,0.3c0,0.1,0,0.3-0.1,0.4c0,0.3-0.1,0.5-0.1,0.8c0,0,0,0,0,0
		c-0.2,1.2-0.5,2.4-0.9,3.6c0,0,0,0,0,0c-1.3,0-2.5,0-3.7,0h-2.2c-2.7,0-5.4,0-8,0H111c-5.1,0-9.9,0-14.5,0c-2.6,0-5.1,0-7.5,0
		c-0.8,0-1.6,0-2.4,0c-1.2,0-2.4,0-3.6,0c0,0,0,0,0,0c-0.4-1.2-0.7-2.4-0.9-3.6c0,0,0,0,0,0c0-0.3-0.1-0.5-0.1-0.8
		c0-0.1,0-0.3-0.1-0.4c0-0.1,0-0.2,0-0.3c-0.1-0.9-0.2-1.9-0.2-2.9c0-1.8,0.2-3.5,0.5-5.2c0.2-0.9,0.4-1.8,0.7-2.6
		C86.1,83.7,94.7,77,104.8,77c2.7,0,5.2,0.5,7.6,1.3c6.7,2.4,11.9,7.9,14.2,14.8c0.3,0.9,0.5,1.7,0.7,2.6
		C127.7,97.4,127.9,99.1,127.9,100.9z"/>
	<path class="st18" d="M124.4,100.8c0,0.8,0,1.6-0.1,2.4c0,0.1,0,0.2,0,0.3c0,0.1,0,0.3,0,0.4c0,0.2-0.1,0.4-0.1,0.7c0,0,0,0,0,0
		c-0.2,1.1-0.5,2.1-0.8,3.1c-0.1,0.2-0.1,0.4-0.2,0.5c0,0,0,0.1,0,0.1c-0.1,0.2-0.1,0.4-0.2,0.6c-13.3,0-26,0-35.9,0
		c-0.2-0.4-0.3-0.8-0.5-1.2c-0.3-1-0.6-2-0.8-3.1c0,0,0,0,0,0c0-0.2-0.1-0.4-0.1-0.7c0-0.1,0-0.2,0-0.4c0-0.1,0-0.2,0-0.3
		c-0.1-0.8-0.1-1.6-0.1-2.4c0-1.8,0.2-3.5,0.6-5.2c0.1-0.5,0.3-1,0.4-1.5c2.6-8,9.9-13.8,18.4-13.8c8.5,0,15.8,5.8,18.4,13.8
		c0.2,0.5,0.3,1,0.4,1.5C124.2,97.3,124.4,99,124.4,100.8z"/>
	<rect x="43.3" y="90.7" class="st21" width="25.3" height="0.8"/>
	<rect x="1.8" y="76.2" class="st22" width="34" height="0.8"/>
	<path class="st14" d="M47.9,102.4c0,0.8,0,1.6-0.1,2.4c0,0.1,0,0.2,0,0.3c0,0.1,0,0.2,0,0.4c0,0.2-0.1,0.4-0.1,0.6c0,0,0,0,0,0
		c-0.2,1-0.5,2-0.8,3c0,0,0,0,0,0c-1.1,0-2.1,0-3.2,0c-11.5,0-22.4,0-31,0c-1.1,0-2.1,0-3,0c0,0,0,0,0,0c-0.3-1-0.6-2-0.8-3
		c0,0,0,0,0,0c0-0.2-0.1-0.4-0.1-0.6c0-0.1,0-0.2-0.1-0.4c0-0.1,0-0.2,0-0.3c-0.1-0.8-0.1-1.6-0.1-2.4c0-1.5,0.2-2.9,0.5-4.3
		c0.2-0.7,0.4-1.5,0.6-2.2c2.7-7.7,10-13.3,18.7-13.3c8.7,0,16,5.6,18.7,13.3c0.2,0.7,0.5,1.4,0.6,2.2
		C47.8,99.5,47.9,100.9,47.9,102.4z"/>
	<path class="st18" d="M45.3,102.4c0,0.7,0,1.3-0.1,2c0,0.1,0,0.2,0,0.2c0,0.1,0,0.2,0,0.3c0,0.2-0.1,0.4-0.1,0.5c0,0,0,0,0,0
		c-0.2,0.9-0.4,1.7-0.7,2.5c-0.1,0.1-0.1,0.3-0.2,0.4c0,0,0,0.1,0,0.1c-0.1,0.2-0.1,0.3-0.2,0.5c-11.5,0-22.4,0-31,0
		c-0.1-0.3-0.3-0.7-0.4-1c-0.3-0.8-0.5-1.7-0.7-2.5c0,0,0,0,0,0c0-0.2-0.1-0.4-0.1-0.5c0-0.1,0-0.2,0-0.3c0-0.1,0-0.2,0-0.2
		c-0.1-0.7-0.1-1.3-0.1-2c0-1.5,0.2-2.9,0.5-4.3c0.1-0.4,0.2-0.8,0.4-1.2c2.3-6.6,8.6-11.3,15.9-11.3c7.4,0,13.6,4.7,15.9,11.3
		c0.1,0.4,0.3,0.8,0.4,1.2C45.1,99.4,45.3,100.9,45.3,102.4z"/>
	<rect x="35.8" y="75" class="st5" width="87.4" height="2.6"/>
	<rect x="118.6" y="2.4" class="st7" width="9.7" height="106.6"/>
	<g>
		<path class="st5" d="M122.3,100.9c0,0.7,0,1.4-0.1,2c0,0.1,0,0.2,0,0.2c0,0.1,0,0.2,0,0.3c0,0.2-0.1,0.4-0.1,0.5c0,0,0,0,0,0
			c-0.2,0.9-0.4,1.8-0.7,2.6c-0.1,0.2-0.1,0.3-0.2,0.5c0,0,0,0.1,0,0.1c-0.2,0.5-0.4,0.9-0.6,1.4c-1,2.1-2.5,3.9-4.2,5.4
			c-3,2.6-6.9,4.1-11.2,4.1c-4.3,0-8.2-1.6-11.2-4.1c-1-0.9-1.9-1.8-2.7-2.9c-0.6-0.8-1.1-1.6-1.5-2.5c-0.3-0.6-0.6-1.3-0.8-1.9
			c-0.3-0.8-0.5-1.7-0.7-2.6c0,0,0,0,0,0c0-0.2-0.1-0.4-0.1-0.5c0-0.1,0-0.2,0-0.3c0-0.1,0-0.2,0-0.2c-0.1-0.7-0.1-1.4-0.1-2
			c0-2,0.3-3.9,0.9-5.6c2.3-6.7,8.7-11.6,16.3-11.6c7.5,0,13.9,4.8,16.3,11.6C121.9,97,122.3,98.9,122.3,100.9z"/>
		<path class="st11" d="M122.3,100.9c0,0,0,0.1,0,0.1H87.8c0,0,0-0.1,0-0.1c0-2,0.3-3.9,0.9-5.6c2.3-6.7,8.7-11.6,16.3-11.6
			c7.5,0,13.9,4.8,16.3,11.6C121.9,97,122.3,98.9,122.3,100.9z"/>
		<path class="st5" d="M121,100.9c0,0.6,0,1.3-0.1,1.9c0,0.1,0,0.2,0,0.2c0,0.1,0,0.2,0,0.3c0,0.2-0.1,0.3-0.1,0.5c0,0,0,0,0,0
			c-0.2,0.8-0.4,1.6-0.6,2.4c-0.1,0.1-0.1,0.3-0.2,0.4c0,0,0,0.1,0,0.1c-0.2,0.4-0.4,0.9-0.6,1.3c-1,1.9-2.3,3.6-3.9,5
			c-2.8,2.4-6.4,3.8-10.4,3.8c-4,0-7.6-1.4-10.4-3.8c-0.9-0.8-1.8-1.7-2.5-2.7c-0.5-0.7-1-1.5-1.4-2.3c-0.3-0.6-0.5-1.2-0.8-1.8
			c-0.3-0.8-0.5-1.6-0.6-2.4c0,0,0,0,0,0c0-0.2-0.1-0.3-0.1-0.5c0-0.1,0-0.2,0-0.3c0-0.1,0-0.2,0-0.2c-0.1-0.6-0.1-1.3-0.1-1.9
			c0-1.8,0.3-3.6,0.9-5.2c2.2-6.3,8.1-10.7,15.1-10.7s12.9,4.5,15.1,10.7C120.7,97.3,121,99.1,121,100.9z"/>
		<g>
			<path class="st23" d="M93.3,99.2c0.1-0.9,0.4-1.8,0.7-2.7c0.2-0.5,0.4-1,0.7-1.5c0.4-0.7,0.8-1.3,1.3-1.8c0,0,0.1-0.1,0.1-0.1
				c0.4-0.5,0.9-1,1.5-1.4c0,0,0.1-0.1,0.1-0.1c0.1-0.1,0.2-0.1,0.2-0.2c0.2-0.1,0.4-0.3,0.6-0.4c0,0,0,0,0,0
				c0.3-0.2,0.6-0.4,0.9-0.5c1.3-0.7,2.7-1.1,4.2-1.3h0c0.4,0,0.8-0.1,1.3-0.1c0.5,0,0.9,0,1.4,0.1c1.4,0.2,2.8,0.6,4,1.3
				c0.5,0.3,1,0.6,1.5,1h0c0.1,0.1,0.1,0.1,0.2,0.2c0.1,0.1,0.3,0.2,0.4,0.3c0.5,0.4,0.9,0.8,1.3,1.3h0c0.5,0.6,0.9,1.1,1.2,1.8
				c0.3,0.5,0.5,1,0.7,1.5c0.4,1,0.7,2.1,0.7,3.2c0,0.3,0,0.7,0,1c0,0.1,0,0.2,0,0.3c0,0.1,0,0.3,0,0.4c0,0.3,0,0.6-0.1,0.9
				c0,0.3-0.1,0.5-0.1,0.8c0,0.1,0,0.2-0.1,0.3c0,0.1,0,0.2-0.1,0.3l-0.2,0.6c-0.4,1.3-1.1,2.5-1.9,3.5c-0.3,0.4-0.6,0.8-1,1.1
				c0,0,0,0,0,0.1c0,0,0,0-0.1,0.1c-0.1,0.1-0.3,0.2-0.4,0.4c-0.1,0.1-0.2,0.2-0.3,0.3c-0.1,0.1-0.2,0.2-0.3,0.2
				c-0.2,0.1-0.4,0.3-0.6,0.4c-0.2,0.1-0.3,0.2-0.5,0.3c-1.4,0.8-3,1.4-4.6,1.6c-0.4,0.1-0.9,0.1-1.4,0.1c-0.4,0-0.9,0-1.3-0.1
				c-1.8-0.2-3.6-0.8-5-1.8c-0.1,0-0.1-0.1-0.2-0.1c-0.1-0.1-0.2-0.1-0.3-0.2c0,0-0.1,0-0.1-0.1v0c-0.1-0.1-0.1-0.1-0.2-0.2
				c-0.1,0-0.1-0.1-0.1-0.1c-0.2-0.1-0.3-0.2-0.5-0.4c-0.1-0.1-0.3-0.2-0.4-0.4c0,0,0,0-0.1-0.1c0,0,0,0-0.1-0.1
				c-0.2-0.2-0.4-0.4-0.5-0.6c-1-1.2-1.8-2.6-2.3-4.1c0,0,0,0,0,0c-0.1-0.2-0.1-0.4-0.2-0.6c0-0.1-0.1-0.2-0.1-0.3
				c0-0.1,0-0.2-0.1-0.3c-0.1-0.4-0.1-0.8-0.2-1.2c0-0.1,0-0.3,0-0.4c0-0.1,0-0.3,0-0.4c0-0.1,0-0.2,0-0.3
				C93.2,100.2,93.2,99.7,93.3,99.2z"/>
		</g>
		<path class="st24" d="M111.4,101c0,3.7-3,6.6-6.6,6.6c-3.7,0-6.6-3-6.6-6.6c0-3.7,3-6.6,6.6-6.6C108.4,94.4,111.4,97.4,111.4,101z
			"/>
		<path class="st23" d="M108.4,100.9c0,2.1-1.7,3.7-3.7,3.7c-2.1,0-3.7-1.7-3.7-3.7s1.7-3.7,3.7-3.7
			C106.7,97.2,108.4,98.9,108.4,100.9z"/>
		<path class="st5" d="M102.7,101c0,1.1,0.9,2,2,2c1.1,0,2-0.9,2-2c0-1.1-0.9-2-2-2C103.6,99,102.7,99.9,102.7,101z"/>
	</g>
	<path class="st7" d="M50.5,58.1H46v-24h0.7c2.1,0,3.8,1.7,3.8,3.8V58.1z"/>
	<path class="st7" d="M71.6,58.1H46v-4.4h21.9c2,0,3.7,1.6,3.7,3.7V58.1z"/>
	<rect x="101" y="55.2" class="st7" width="11.5" height="22.3"/>
	<polygon class="st5" points="88.8,4.5 88.8,5.7 35.8,5.7 35.8,1.3 87.7,1.3 	"/>
	<rect x="110.5" y="68.8" class="st7" width="12.7" height="6.2"/>
	<rect x="41.1" y="5.7" class="st10" width="3.9" height="52.5"/>
	<rect x="117.6" y="2.4" class="st5" width="3.4" height="64.6"/>
	<path class="st7" d="M103,57.5l-0.4,0.3c-0.5,0.4-1.3,0.3-1.7-0.2L88.3,40.8c-0.4-0.5-0.3-1.3,0.2-1.7l0.4-0.3
		c0.5-0.4,1.3-0.3,1.7,0.2l12.7,16.7C103.6,56.4,103.5,57.1,103,57.5z"/>
	<path class="st7" d="M93,33.7l0.3,0.3c0.4,0.5,0.4,1.2-0.1,1.7l-8.7,8c-0.5,0.4-1.2,0.4-1.7-0.1l-0.3-0.3c-0.4-0.5-0.4-1.2,0.1-1.7
		l8.7-8C91.8,33.2,92.5,33.2,93,33.7z"/>
	<path class="st23" d="M29.2,109c-6.8-0.1-13.4,0-20.2,0c-3,0-5.6-2.1-6.2-5.1c0,0,0,0,0-0.1c-0.9-5.1-1.1-9.7-1-13.6h27.3V109z"/>
	<g>
		<path class="st5" d="M44,102.4c0,0.6,0,1.3-0.1,1.9c0,0.1,0,0.2,0,0.2c0,0.1,0,0.2,0,0.3c0,0.2-0.1,0.3-0.1,0.5c0,0,0,0,0,0
			c-0.2,0.8-0.4,1.6-0.6,2.4c-0.1,0.1-0.1,0.3-0.2,0.4c0,0,0,0.1,0,0.1c-0.2,0.4-0.4,0.8-0.6,1.3c-0.9,1.9-2.3,3.6-3.8,4.9
			c-2.8,2.4-6.3,3.8-10.2,3.8c-3.9,0-7.5-1.4-10.2-3.8c-0.9-0.8-1.7-1.7-2.4-2.6c-0.5-0.7-1-1.5-1.4-2.3c-0.3-0.6-0.5-1.2-0.8-1.8
			c-0.3-0.8-0.5-1.6-0.6-2.4c0,0,0,0,0,0c0-0.2-0.1-0.3-0.1-0.5c0-0.1,0-0.2,0-0.3c0-0.1,0-0.2,0-0.2c-0.1-0.6-0.1-1.2-0.1-1.9
			c0-1.8,0.3-3.5,0.9-5.1c2.1-6.2,8-10.6,14.9-10.6c6.9,0,12.7,4.4,14.9,10.6C43.7,98.8,44,100.6,44,102.4z"/>
		<path class="st25" d="M44,102.4c0,0,0,0.1,0,0.1H12.6c0,0,0-0.1,0-0.1c0-1.8,0.3-3.5,0.9-5.1c2.1-6.2,8-10.6,14.9-10.6
			c6.9,0,12.7,4.4,14.9,10.6C43.7,98.8,44,100.6,44,102.4z"/>
		<path class="st5" d="M42.9,102.4c0,0.6,0,1.2-0.1,1.7c0,0.1,0,0.1,0,0.2c0,0.1,0,0.2,0,0.3c0,0.2-0.1,0.3-0.1,0.5c0,0,0,0,0,0
			c-0.1,0.8-0.3,1.5-0.6,2.2c0,0.1-0.1,0.3-0.1,0.4c0,0,0,0.1,0,0.1c-0.2,0.4-0.3,0.8-0.5,1.2c-0.9,1.8-2.1,3.3-3.6,4.6
			c-2.6,2.2-5.9,3.5-9.5,3.5c-3.6,0-6.9-1.3-9.5-3.5c-0.8-0.7-1.6-1.5-2.3-2.4c-0.5-0.7-0.9-1.4-1.3-2.1c-0.3-0.5-0.5-1.1-0.7-1.6
			c-0.3-0.7-0.5-1.4-0.6-2.2c0,0,0,0,0,0c0-0.2-0.1-0.3-0.1-0.5c0-0.1,0-0.2,0-0.3c0-0.1,0-0.1,0-0.2c-0.1-0.6-0.1-1.2-0.1-1.7
			c0-1.7,0.3-3.3,0.8-4.8c2-5.7,7.4-9.8,13.8-9.8s11.8,4.1,13.8,9.8C42.6,99.1,42.9,100.7,42.9,102.4z"/>
		<g>
			<path class="st23" d="M17.5,100.8c0.2-1.4,0.6-2.7,1.3-3.8c0.1-0.2,0.2-0.3,0.3-0.5c0.3-0.4,0.6-0.8,0.9-1.2
				c0.4-0.5,0.9-1,1.4-1.4c0.1-0.1,0.2-0.2,0.3-0.3c0.2-0.1,0.3-0.2,0.5-0.3h0c0.3-0.2,0.5-0.4,0.8-0.5c1.1-0.6,2.4-1,3.8-1.2
				c0.4,0,0.8-0.1,1.2-0.1c0.4,0,0.7,0,1.1,0.1c0.1,0,0.1,0,0.2,0c1.3,0.2,2.6,0.6,3.7,1.2c0.5,0.3,1,0.6,1.4,0.9l0,0
				c0.7,0.5,1.2,1,1.8,1.7c0.3,0.4,0.6,0.8,0.9,1.2c0.1,0.2,0.2,0.3,0.3,0.5c0.7,1.3,1.2,2.8,1.3,4.3c0,0.3,0,0.6,0,0.9
				c0,0.1,0,0.2,0,0.3c0,0.1,0,0.2,0,0.3c0,0.3,0,0.6-0.1,0.8c0,0.2-0.1,0.5-0.1,0.7c0,0.1,0,0.2-0.1,0.2c0,0.1-0.1,0.2-0.1,0.3
				l-0.2,0.5c-0.4,1.2-1,2.3-1.7,3.2c-0.1,0.1-0.2,0.2-0.3,0.3c-0.2,0.3-0.5,0.5-0.7,0.8c-0.1,0.1-0.2,0.2-0.4,0.3
				c-0.1,0.1-0.2,0.2-0.3,0.2h0c-0.1,0.1-0.2,0.1-0.3,0.2c-0.2,0.1-0.4,0.3-0.5,0.4c-0.4,0.3-0.8,0.5-1.2,0.7
				c-1.1,0.5-2.3,0.9-3.5,1c-0.4,0.1-0.8,0.1-1.3,0.1c-0.4,0-0.8,0-1.2-0.1c-0.8-0.1-1.6-0.3-2.3-0.5h0c-0.9-0.3-1.7-0.7-2.5-1.2
				c-0.1,0-0.2-0.1-0.3-0.2h0c0,0-0.1,0-0.1-0.1c-0.1,0-0.1-0.1-0.2-0.1c-0.1,0-0.1-0.1-0.1-0.1c-0.1-0.1-0.3-0.2-0.4-0.3
				c-0.1-0.1-0.2-0.2-0.4-0.3c-0.2-0.2-0.4-0.4-0.6-0.7c0-0.1-0.1-0.1-0.1-0.2c0,0,0,0,0,0c0,0,0,0,0,0c-0.9-1-1.6-2.2-2-3.6v0
				c-0.1-0.2-0.1-0.3-0.2-0.5c0-0.1-0.1-0.2-0.1-0.3c0-0.1,0-0.2-0.1-0.2c-0.1-0.4-0.1-0.8-0.2-1.1c0-0.1,0-0.3,0-0.4
				c0-0.1,0-0.2,0-0.3c0-0.1,0-0.2,0-0.3C17.4,101.7,17.5,101.2,17.5,100.8z"/>
		</g>
		<path class="st24" d="M34.1,102.5c0,3.3-2.7,6.1-6.1,6.1c-3.3,0-6.1-2.7-6.1-6.1c0-3.3,2.7-6.1,6.1-6.1
			C31.4,96.4,34.1,99.1,34.1,102.5z"/>
		<path class="st23" d="M31.4,102.4c0,1.9-1.5,3.4-3.4,3.4c-1.9,0-3.4-1.5-3.4-3.4s1.5-3.4,3.4-3.4C29.8,99,31.4,100.5,31.4,102.4z"
			/>
		<circle class="st5" cx="27.9" cy="102.5" r="1.8"/>
	</g>
	<g>
		<path class="st26" d="M87,54.2c-1.8,0-4.5,0.2-7.8,0.6c-2.1,0.3-3.4,0.5-4.4,0.7c-2.8,0.5-6.8,1-12.3,0.8c-0.2,0-4,0.5-6.3-2.4
			c-1.5-2-1.3-4.2-1.3-4.7v-2.3h25.7c0.4,0,2.8,0,4.6,1.9C87.5,51,87,53.9,87,54.2z"/>
		<path class="st26" d="M84.7,70.1c-1.2,0-2,0.2-3.3,0.2c-1.1-7.6-2-13.6-3.1-21.3c2.9,1.7,5.8,3.3,8.6,5
			C86.4,60,85.3,64.1,84.7,70.1z"/>
	</g>
	<path class="st27" d="M70.1,29.3l-5,1.7l-2.2-4.7C62.2,24.8,63.3,23,65,23c0,0,0,0,0.1,0C67.2,23.1,68.9,25.5,70.1,29.3z"/>
	<g>
		<g>
			<path class="st28" d="M70,18.4l-0.5,0.2c-0.1,0-0.1,0-0.2,0l-0.1,1.7c-0.1,1.2-0.9,1.6-2,1.5l-0.6-0.4l-0.3-0.2l0,0l-0.5,3
				c0,0.2-4.2-0.7-4-0.9c0.1-0.2,1.8-3.7,1.8-3.7l-0.1,0l-0.2-0.1l-0.1-0.1l0.9-6.6l3.3,0.5c1.3,0.2,2.3,1.4,2.2,2.7l-0.1,0.6
				l0.3,0.8l0.1,0.5l0.2,0.4C70.1,18.3,70.1,18.4,70,18.4z"/>
		</g>
	</g>
	<path class="st29" d="M72.9,46.8c-1.9,0.9-3.8,1.7-5.6,2.6l-2.7,0.3c-4.8,0.1-13,1.7-8.8-8c0.4-1-0.2-2.3-0.2-3.7
		c0-0.7,0-1.3,0.1-1.9c0.4-2.7,2.1-6.8,6.7-13.4c0.1,0,0.1,0,0.2-0.1c0.3-0.1,0.7-0.2,1.1-0.3c0,0,0.4-0.1,0.9-0.1
		c1.9,0,3.9,5.2,3.9,5.2c2.1,5.6,1.1,5.6,2.7,9.6c1.3,3.2,3,5.8,2.1,9C73,46.4,72.9,46.6,72.9,46.8z"/>
	<path class="st30" d="M67.2,49.4l-2.7,0.3c-4.8,0.1-13,1.7-8.8-8c0.7-1.7-0.2-3.1-0.2-3.7c-0.1-0.5,0-1.2,0.1-1.9
		c0.4-2.7,2.1-6.8,6.7-13.4c0.1,0,0.1,0,0.2-0.1c-2.6,6.1-3.7,11.3-4.2,14.9c-1.2,8.3,0.4,10.2,1,10.7
		C61.7,50.3,65.2,48.8,67.2,49.4z"/>
	<path class="st28" d="M84.5,43c0,0.1,0,0.1,0,0.2c-0.1,0.2-0.2,0.4-0.4,0.5l-0.4,0.2c0,0,0,0,0,0c-1.1-0.3-2.3-0.7-3.4-1
		c-2.9,0.1-6,0.2-10.2,0.3c-2,0.1-3.4,0.1-4.6-0.9c-0.8-0.7-0.9-1.3-2-5.3c-1.2-4.4-1.6-5.2-1.8-7.3c-0.1-1.3-0.1-2.5,0-3.2
		c0.2-0.3,0.7-0.9,1.5-1.1c0.4,0,0.9,0,1.5,0.4c0.9,0.5,1.5,1.4,2,2.5c1.3,3.4,2.1,10.3,2.2,10.9c1.9,0.6,4.2,1.1,6.7,1.4
		c2.1,0.3,4,0.4,5.7,0.5c0,0,0,0,0,0l1.5-0.7c0,0,0.3-0.2,0.2,0.1c-0.1,0.2-0.5,0.6-0.7,0.9l1.9,0.7C84.4,42.2,84.6,42.6,84.5,43z"
		/>
	<path class="st31" d="M69.3,15.2c-0.7,0.1-1.9,0.3-2.2,0.3c-0.6,0-1.1,0.5-1.2,1.1l-0.1,0.8c0,0,0-0.5-0.6-1
		c-0.2-0.2-0.5,0-0.6,0.3c-0.1,0.3-0.1,0.7,0,0.9c0.1,0.1,0.1,0.2,0.2,0.2c0.3,0.3,0.7,0.3,0.7,0.3l-0.7,0.8l-1.6,1.8
		c0,0-2.9-7,0.3-9.2c1.9-1.2,3.6-0.4,4.3-1c0.2-0.2,0.6-0.9,0.4-1.9c0,0,0.1,0,0.2,0.1c0.7,0.5,2.9,2.5,3,4.2
		C71.5,14.9,69.4,15.1,69.3,15.2z"/>
	<path class="st32" d="M66.3,21.2l-0.5,3c0,0.2-4.2-0.7-4-0.9c0.1-0.2,1.4-2.8,1.4-2.8l1.4-1.4L66.3,21.2z"/>
	<path class="st33" d="M67.6,31.9l-3.9,0.7L62.1,33l-1.5-5.2c-0.3-1,0-1.9,0.7-2.5c0.5-0.5,1.2-0.7,2-0.6c0,0,0,0,0.1,0
		C65.6,25,66.9,27.8,67.6,31.9z"/>
	<g>
		<path class="st34" d="M91.4,74.3L91.4,74.3l0.1,0.8l-10.8,0l0.1-0.7l0.5-4.4l0.1,0l0.9,0l0,0l0.2,0l2.1,0h0.2l0.1,0.3
			c0,0.2,0.1,0.4,0.2,0.5c0,0.1,0.1,0.1,0.1,0.2c0.1,0.1,0.1,0.2,0.2,0.3c0.1,0.1,0.1,0.1,0.2,0.2c0.1,0.1,0.2,0.2,0.3,0.3
			c0.1,0.1,0.2,0.1,0.3,0.2c0.2,0.1,0.4,0.2,0.6,0.2c0.1,0,0.2,0,0.4,0.1l0.1,0l1.9,0.2c0.2,0,0.4,0.1,0.6,0.1
			C90.4,72.8,91.1,73.5,91.4,74.3z"/>
		<polygon class="st35" points="91.5,75.1 80.7,75.1 80.8,74.4 91.4,74.4 		"/>
		<path class="st36" d="M89.6,72.6c-0.3,0.4-1,1.1-3.2,0.9c-0.8,0-1.6-0.3-2.2-0.9c-0.7-0.6-1.6-1.5-1.7-2.6l2.1,0h0.2l0.1,0.3
			c0,0.2,0.1,0.4,0.2,0.5c0,0.1,0.1,0.1,0.1,0.2c0.1,0.1,0.1,0.2,0.2,0.3c0.1,0.1,0.1,0.1,0.2,0.2c0.1,0.1,0.2,0.2,0.3,0.3
			c0.1,0.1,0.2,0.1,0.3,0.2c0.2,0.1,0.4,0.2,0.6,0.2c0.1,0,0.2,0,0.4,0.1l0.1,0l1.9,0.2C89.2,72.5,89.4,72.5,89.6,72.6z"/>
		<g>
			<path class="st8" d="M87.2,72.3C87.2,72.3,87.1,72.4,87.2,72.3c-0.7,0.2-1.2,0.6-1.9,0.4c-0.2,0-0.1-0.3,0.1-0.2
				c0.5,0.1,0.9-0.1,1.4-0.3C86.8,72.3,87,72.3,87.2,72.3L87.2,72.3z"/>
		</g>
		<g>
			<path class="st8" d="M86.2,72c-0.6,0.1-1.1,0.5-1.8,0.3c-0.2,0-0.1-0.3,0.1-0.2c0.5,0.1,1-0.1,1.4-0.3C86,71.9,86.1,72,86.2,72z"
				/>
		</g>
		<g>
			<path class="st8" d="M85.5,71.6c-0.5,0.1-1,0.4-1.6,0.3c-0.2,0-0.1-0.3,0.1-0.2c0.5,0.1,0.9-0.1,1.4-0.3
				C85.4,71.5,85.5,71.5,85.5,71.6z"/>
		</g>
		<g>
			<path class="st8" d="M85.2,71.1c-0.6,0.1-1.1,0.4-1.7,0.3c-0.2,0-0.1-0.3,0.1-0.2c0.5,0.1,1-0.2,1.5-0.3
				C85.1,71,85.1,71,85.2,71.1z"/>
		</g>
	</g>
	<g>
		<rect x="130.7" y="74" class="st37" width="49.3" height="28.7"/>
		<rect x="130.7" y="74" class="st38" width="11.5" height="28.7"/>
		
			<rect x="160.9" y="74" transform="matrix(-1 -1.224647e-16 1.224647e-16 -1 323.1772 176.727)" class="st38" width="1.3" height="28.7"/>
		
			<rect x="135.3" y="74" transform="matrix(-1 -1.224647e-16 1.224647e-16 -1 271.8597 176.727)" class="st39" width="1.3" height="28.7"/>
		
			<rect x="135.3" y="73.3" transform="matrix(-1 -1.224647e-16 1.224647e-16 -1 312.4881 147.274)" class="st39" width="41.9" height="0.8"/>
		<path class="st40" d="M145.3,78.5h9.2c0.5,0,0.8-0.4,0.8-0.8v-0.3c0-0.5-0.4-0.8-0.8-0.8h-9.2c-0.5,0-0.8,0.4-0.8,0.8v0.3
			C144.4,78.2,144.8,78.5,145.3,78.5z"/>
		<path class="st40" d="M145.3,80.8h9.2c0.5,0,0.8-0.4,0.8-0.8v-0.3c0-0.5-0.4-0.8-0.8-0.8h-9.2c-0.5,0-0.8,0.4-0.8,0.8v0.3
			C144.4,80.4,144.8,80.8,145.3,80.8z"/>
		<path class="st40" d="M150.4,83h4.1c0.5,0,0.8-0.4,0.8-0.8v-0.3c0-0.5-0.4-0.8-0.8-0.8h-4.1c-0.5,0-0.8,0.4-0.8,0.8v0.3
			C149.6,82.6,149.9,83,150.4,83z"/>
	</g>
	<rect x="127.9" y="50.4" class="st5" width="5.9" height="58.6"/>
</g>
</svg>
