<?xml version="1.0" encoding="utf-8"?>
<!-- Generator: Adobe Illustrator 22.0.1, SVG Export Plug-In . SVG Version: 6.00 Build 0)  -->
<svg version="1.1" id="Layer_1" xmlns="http://www.w3.org/2000/svg" xmlns:xlink="http://www.w3.org/1999/xlink" x="0px" y="0px"
	 viewBox="0 0 500 500" style="enable-background:new 0 0 500 500;" xml:space="preserve">
<style type="text/css">
	.st0{fill:#C2F1FF;}
	.st1{fill:url(#SVGID_1_);}
	.st2{opacity:0.22;fill:#2726A4;}
	.st3{fill:#D6827B;}
	.st4{opacity:0.66;fill:#E5E11F;}
	.st5{fill:#BAB410;}
	.st6{opacity:0.19;fill:#CC463B;}
	.st7{opacity:0.46;fill:#E5D81F;}
	.st8{fill:#A9837B;}
	.st9{fill:#C1938A;}
	.st10{opacity:0.23;fill:#6A4D50;}
	.st11{fill:#635D25;}
	.st12{fill:#AA712E;}
	.st13{fill:#9D732E;}
	.st14{fill:#919A0E;}
	.st15{fill:#55DFFF;}
	.st16{fill:#818579;}
	.st17{fill:#313048;}
	.st18{opacity:0.4;fill:#161528;}
	.st19{opacity:0.12;fill:#D6D4F9;}
	.st20{fill:#F6A857;}
	.st21{fill:#EEE4C3;}
	.st22{opacity:0.17;fill:#303056;}
	.st23{fill:#C19F87;}
	.st24{fill:#CC4024;}
	.st25{fill:#303056;}
	.st26{fill:#AA7710;}
	.st27{fill:#99610B;}
	.st28{fill:#AA8B10;}
	.st29{fill:#99740B;}
	.st30{fill:#B0461B;}
	.st31{fill:#973315;}
	.st32{fill:#B46922;}
	.st33{opacity:0.16;fill:#231228;}
	.st34{fill:#B83D18;}
	.st35{fill:#BA6825;}
	.st36{fill:#A84A1B;}
	.st37{fill:#A9661E;}
	.st38{fill:#B27810;}
	.st39{fill:#B59116;}
	.st40{fill:#BA750B;}
	.st41{fill:#BC931A;}
	.st42{fill:#A85024;}
	.st43{fill:#97201B;}
	.st44{fill:#A83523;}
	.st45{fill:#B03023;}
	.st46{fill:#9E301D;}
	.st47{fill:#B3522A;}
	.st48{fill:#B82520;}
	.st49{fill:#BA512E;}
	.st50{fill:#FEC981;}
	.st51{fill:#FA9B28;}
	.st52{fill:#AB8A28;}
	.st53{fill:#9C7928;}
	.st54{opacity:0.52;fill:#9C7928;}
	.st55{fill:#212335;}
	.st56{fill:#C4CFE8;}
	.st57{fill:#0C0E0B;}
	.st58{fill:#000033;}
	.st59{fill:#E8845D;}
	.st60{fill:#2A3659;}
	.st61{fill:#5582FF;}
	.st62{fill:#11152B;}
	.st63{fill:#F35647;}
	.st64{fill:#EA433B;}
	.st65{fill:#FF5850;}
	.st66{fill:#AA2D17;}
	.st67{fill:#203563;}
	.st68{fill:#192D51;}
	.st69{fill:#B53217;}
	.st70{fill:#380902;}
	.st71{fill:#B13B19;}
	.st72{fill:#CB4D27;}
	.st73{fill:#282F49;}
	.st74{fill:#2C3654;}
	.st75{fill:#5A70DB;}
	.st76{fill:#3E4264;}
	.st77{fill:#C13A1B;}
	.st78{fill:#EF9973;}
	.st79{fill:#D54D21;}
	.st80{fill:#CE4520;}
	.st81{fill:#4D3781;}
	.st82{fill:#EA916E;}
	.st83{fill:#C63F1A;}
	.st84{fill:#E4E8F7;}
	.st85{fill:#242842;}
	.st86{fill:#F0F8FF;}
	.st87{fill:#FEA46D;}
	.st88{fill:#D87D55;}
	.st89{fill:#BA5E42;}
	.st90{opacity:0.52;fill:#9C621C;}
</style>
<rect x="-377" y="-10" class="st0" width="1800" height="520"/>
<linearGradient id="SVGID_1_" gradientUnits="userSpaceOnUse" x1="-8.8117" y1="306.0031" x2="-66.2351" y2="-192.0824" gradientTransform="matrix(-1 0 0 1 500 0)">
	<stop  offset="0" style="stop-color:#AFF4FD"/>
	<stop  offset="0.1191" style="stop-color:#A7F1FD"/>
	<stop  offset="0.3069" style="stop-color:#90E9FD"/>
	<stop  offset="0.5396" style="stop-color:#6BDBFD"/>
	<stop  offset="0.8059" style="stop-color:#39C9FD"/>
	<stop  offset="1" style="stop-color:#0FBAFD"/>
</linearGradient>
<rect x="-377" y="-7" class="st1" width="1800" height="379.9"/>
<rect x="-377" y="324.7" class="st2" width="1800" height="27.1"/>
<g>
	<rect x="-377" y="399.4" class="st3" width="1800" height="44.7"/>
	<rect x="-377" y="328.1" class="st4" width="1800" height="116"/>
	<polygon class="st5" points="-377,329.9 -377,389.8 517.9,393.5 545.6,393.6 545.6,393.6 621.9,393.9 1423,397.2 1423,329.9 	"/>
	<rect x="-377" y="330.5" class="st6" width="1800" height="14.1"/>
	<polygon class="st7" points="-377,345.3 -377,346.2 -376.4,346.2 -312.1,346.5 -311.1,346.5 -282.8,346.7 -280.4,346.7 
		-272.8,346.7 -266.1,346.8 -244.3,346.9 -237.2,346.9 -233.4,346.9 -228,346.9 -225.8,346.9 -211.4,347 -211.4,347 -203.9,347 
		-196.4,347.1 -140.7,347.3 -136.6,347.4 -131.7,347.4 -125.4,347.4 -112.4,347.5 -112.1,347.5 -110.8,347.5 -101.1,347.5 
		-98.8,347.5 -91,347.6 -88.5,347.6 -85.6,347.6 -80.7,347.6 -79.6,347.6 -77.4,347.6 -70.3,347.7 -57.5,347.7 -49.7,347.8 
		-38.2,347.8 -37.2,347.8 -35.4,347.8 -33.8,347.8 -15.6,347.9 -15.1,347.9 -4.8,348 3.1,348 3.1,348 9.6,348.1 10.2,348.1 
		18.8,348.1 25.3,348.1 33,348.2 47.6,348.2 50.9,348.3 55.9,348.3 58.4,348.3 59,348.3 60.9,348.3 61.8,348.3 68.8,348.3 
		73.5,348.4 73.6,348.4 74.9,348.4 76.3,348.4 77.6,348.4 79.3,348.4 83.8,348.4 95.2,348.5 103.2,348.5 108.7,348.5 125.3,348.6 
		128.9,348.6 135.8,348.7 151.5,348.7 153.5,348.7 171.9,348.8 173.8,348.8 176.5,348.8 181.4,348.9 185,348.9 185.9,348.9 
		194.1,348.9 233.1,349.1 234.6,349.1 235.3,349.1 236.1,349.1 237.6,349.1 268.1,349.3 271.3,349.3 274.9,349.3 276.1,349.3 
		282.1,349.3 309.1,349.5 315.6,349.5 323.7,349.5 329.7,349.6 370.2,349.8 371.7,349.8 372.4,349.8 373.2,349.8 374.5,349.8 
		375.5,349.8 407.8,349.9 420.3,350 421.3,350 425.8,350 445,350.1 456.5,350.2 458.2,350.2 461,350.2 464.2,350.2 475,350.3 
		475,350.3 478.7,350.3 507.2,350.4 513.8,350.4 518.6,350.5 538.6,350.6 552.1,350.6 564.9,350.7 565.8,350.7 570,350.7 
		573.4,350.7 576.3,350.7 577.8,350.7 578.6,350.7 579.3,350.8 580.8,350.8 596.4,350.8 614.2,350.9 618.9,350.9 619.4,350.9 
		624.5,351 625.3,351 666.1,351.2 667,351.2 672.2,351.2 672.9,351.2 678.5,351.2 713.5,351.4 714.9,351.4 716.4,351.4 717.9,351.4 
		724.7,351.4 727.3,351.5 731.2,351.5 740.4,351.5 749.2,351.6 749.2,351.6 768.7,351.6 769.5,351.6 773.3,351.7 799,351.8 
		807.4,351.8 816.2,351.9 820.5,351.9 829.5,351.9 830.1,351.9 843.6,352 846.2,352 873.2,352.1 877.1,352.2 882.4,352.2 898,352.3 
		915.4,352.3 937,352.4 948.3,352.5 968.5,352.6 981.2,352.7 984.1,352.7 984.1,352.7 990.3,352.7 1004,352.8 1025.9,352.9 
		1029.2,352.9 1033.5,352.9 1058.2,353 1065.3,353 1073.8,353.1 1084.3,353.1 1094.8,353.2 1182.7,353.6 1187,353.6 1189.8,353.6 
		1283.4,354.1 1340.4,354.4 1362.3,354.5 1423,354.7 1423,345.3 	"/>
</g>
<rect x="-377" y="428.9" class="st8" width="1800" height="81.1"/>
<rect x="-377" y="473.7" class="st9" width="1800" height="36.3"/>
<rect x="-377" y="428.9" class="st10" width="1800" height="22.9"/>
<g>
	<g>
		
			<rect x="769.5" y="309" transform="matrix(-0.6242 -0.7813 0.7813 -0.6242 1003.2734 1124.7649)" class="st11" width="5.4" height="24.1"/>
	</g>
	<g>
		
			<rect x="759.9" y="315.7" transform="matrix(-1 -1.224647e-16 1.224647e-16 -1 1524.9309 660.5901)" class="st11" width="5.1" height="29.2"/>
	</g>
	<g>
		<path class="st12" d="M813.9,317.9c0-53.1-15.7-96.2-35.1-96.2c-19.4,0-35.1,43.1-35.1,96.2H813.9z"/>
	</g>
	<g>
		<path class="st13" d="M762,317.9c0-33.3-9.9-60.4-22-60.4s-22,27-22,60.4H762z"/>
	</g>
</g>
<g>
	<path class="st11" d="M772.5,357.4c0-14.1-8.5-25.5-19-25.5s-19,11.4-19,25.5H772.5z"/>
</g>
<g>
	<path class="st14" d="M739.1,357.5c0-12-7.3-21.8-16.2-21.8c-9,0-16.2,9.7-16.2,21.8H739.1z"/>
</g>
<rect x="493.3" y="228" transform="matrix(-1 -1.224647e-16 1.224647e-16 -1 1224.7213 659.83)" class="st15" width="238.1" height="203.8"/>
<rect x="452.7" y="228.2" transform="matrix(-1 -1.224647e-16 1.224647e-16 -1 989.4055 649.8536)" class="st16" width="83.9" height="193.5"/>
<g>
	<g>
		<rect x="692" y="246.1" class="st17" width="24.1" height="31.8"/>
		<rect x="692" y="246.1" class="st18" width="24.1" height="14.5"/>
		<polygon class="st19" points="692,246.1 692,248 693.5,260.6 695.6,277.9 698.1,277.9 696,260.6 694.3,246.1 		"/>
		<polygon class="st19" points="698.5,246.1 702.3,277.9 699.8,277.9 695.9,246.1 		"/>
	</g>
	<g>
		<rect x="658.5" y="246.1" class="st17" width="24.1" height="31.8"/>
		<rect x="658.5" y="246.1" class="st18" width="24.1" height="14.5"/>
		<polygon class="st19" points="658.5,246.1 658.5,248 660,260.6 662.1,277.9 664.7,277.9 662.6,260.6 660.8,246.1 		"/>
		<polygon class="st19" points="665,246.1 668.9,277.9 666.3,277.9 662.5,246.1 		"/>
	</g>
	<g>
		<rect x="625.8" y="246.1" class="st17" width="24.1" height="31.8"/>
		<rect x="625.8" y="246.1" class="st18" width="24.1" height="14.5"/>
		<polygon class="st19" points="625.8,246.1 625.8,248 627.3,260.6 629.4,277.9 632,277.9 629.9,260.6 628.1,246.1 		"/>
		<polygon class="st19" points="632.3,246.1 636.2,277.9 633.6,277.9 629.8,246.1 		"/>
	</g>
	<g>
		<g>
			<rect x="692" y="293.2" class="st17" width="24.1" height="31.8"/>
			<rect x="692" y="293.2" class="st18" width="24.1" height="14.5"/>
			<polygon class="st19" points="692,293.2 692,295.1 693.5,307.7 695.6,325 698.1,325 696,307.7 694.3,293.2 			"/>
			<polygon class="st19" points="698.5,293.2 702.3,325 699.8,325 695.9,293.2 			"/>
		</g>
		<g>
			<rect x="658.5" y="293.2" class="st17" width="24.1" height="31.8"/>
			<rect x="658.5" y="293.2" class="st18" width="24.1" height="14.5"/>
			<polygon class="st19" points="658.5,293.2 658.5,295.1 660,307.7 662.1,325 664.7,325 662.6,307.7 660.8,293.2 			"/>
			<polygon class="st19" points="665,293.2 668.9,325 666.3,325 662.5,293.2 			"/>
		</g>
		<g>
			<rect x="625.8" y="293.2" class="st17" width="24.1" height="31.8"/>
			<rect x="625.8" y="293.2" class="st18" width="24.1" height="14.5"/>
			<polygon class="st19" points="625.8,293.2 625.8,295.1 627.3,307.7 629.4,325 632,325 629.9,307.7 628.1,293.2 			"/>
			<polygon class="st19" points="632.3,293.2 636.2,325 633.6,325 629.8,293.2 			"/>
		</g>
	</g>
</g>
<g>
	<g>
		<rect x="692" y="335.1" class="st17" width="24.1" height="31.8"/>
		<rect x="692" y="335.1" class="st18" width="24.1" height="14.5"/>
		<polygon class="st19" points="692,335.1 692,337 693.5,349.6 695.6,366.9 698.1,366.9 696,349.6 694.3,335.1 		"/>
		<polygon class="st19" points="698.5,335.1 702.3,366.9 699.8,366.9 695.9,335.1 		"/>
	</g>
	<g>
		<rect x="658.5" y="335.1" class="st17" width="24.1" height="31.8"/>
		<rect x="658.5" y="335.1" class="st18" width="24.1" height="14.5"/>
		<polygon class="st19" points="658.5,335.1 658.5,337 660,349.6 662.1,366.9 664.7,366.9 662.6,349.6 660.8,335.1 		"/>
		<polygon class="st19" points="665,335.1 668.9,366.9 666.3,366.9 662.5,335.1 		"/>
	</g>
	<g>
		<rect x="625.8" y="335.1" class="st17" width="24.1" height="31.8"/>
		<rect x="625.8" y="335.1" class="st18" width="24.1" height="14.5"/>
		<polygon class="st19" points="625.8,335.1 625.8,337 627.3,349.6 629.4,366.9 632,366.9 629.9,349.6 628.1,335.1 		"/>
		<polygon class="st19" points="632.3,335.1 636.2,366.9 633.6,366.9 629.8,335.1 		"/>
	</g>
	<g>
		<g>
			<rect x="692" y="382.2" class="st17" width="24.1" height="31.8"/>
			<rect x="692" y="382.2" class="st18" width="24.1" height="14.5"/>
			<polygon class="st19" points="692,382.2 692,384.1 693.5,396.7 695.6,414 698.1,414 696,396.7 694.3,382.2 			"/>
			<polygon class="st19" points="698.5,382.2 702.3,414 699.8,414 695.9,382.2 			"/>
		</g>
		<g>
			<rect x="658.5" y="382.2" class="st17" width="24.1" height="31.8"/>
			<rect x="658.5" y="382.2" class="st18" width="24.1" height="14.5"/>
			<polygon class="st19" points="658.5,382.2 658.5,384.1 660,396.7 662.1,414 664.7,414 662.6,396.7 660.8,382.2 			"/>
			<polygon class="st19" points="665,382.2 668.9,414 666.3,414 662.5,382.2 			"/>
		</g>
		<g>
			<rect x="625.8" y="382.2" class="st17" width="24.1" height="31.8"/>
			<rect x="625.8" y="382.2" class="st18" width="24.1" height="14.5"/>
			<polygon class="st19" points="625.8,382.2 625.8,384.1 627.3,396.7 629.4,414 632,414 629.9,396.7 628.1,382.2 			"/>
			<polygon class="st19" points="632.3,382.2 636.2,414 633.6,414 629.8,382.2 			"/>
		</g>
	</g>
</g>
<g>
	<rect x="592.4" y="293.2" class="st17" width="24.1" height="31.8"/>
	<rect x="592.4" y="293.2" class="st18" width="24.1" height="14.5"/>
	<polygon class="st19" points="592.4,293.2 592.4,295.1 593.9,307.7 596,325 598.5,325 596.4,307.7 594.7,293.2 	"/>
	<polygon class="st19" points="598.9,293.2 602.7,325 600.2,325 596.3,293.2 	"/>
</g>
<g>
	<rect x="559.7" y="293.2" class="st17" width="24.1" height="31.8"/>
	<rect x="559.7" y="293.2" class="st18" width="24.1" height="14.5"/>
	<polygon class="st19" points="559.7,293.2 559.7,295.1 561.2,307.7 563.3,325 565.8,325 563.7,307.7 562,293.2 	"/>
	<polygon class="st19" points="566.2,293.2 570,325 567.5,325 563.6,293.2 	"/>
</g>
<rect x="59" y="251.8" class="st20" width="25.7" height="180.8"/>
<rect y="296.6" class="st21" width="507.1" height="136.3"/>
<rect x="-4" y="297.6" class="st22" width="507.6" height="33.3"/>
<rect x="-1" y="299.6" class="st23" width="25.5" height="136.3"/>
<path class="st24" d="M-74.5,251.8v63.5h585.7c0-16.8-9.3-32.1-24.5-43.4c-0.7-0.5-1.4-1-2-1.5c-6.4-4.5-13.8-8.3-21.8-11.3
	c-0.6-0.2-1.2-0.4-1.8-0.7c-8.6-3-18.1-5.1-28-6.1c-4-0.4-8.1-0.6-12.3-0.6H-74.5z"/>
<rect x="220.6" y="340.7" class="st25" width="108.5" height="92.2"/>
<g>
	<g>
		<rect x="183" y="340.7" class="st17" width="32.3" height="21.2"/>
		<rect x="183" y="340.7" class="st18" width="32.2" height="9.7"/>
		<polygon class="st19" points="183,340.7 183,341.9 185,350.3 187.8,361.9 191.2,361.9 188.4,350.3 186.1,340.7 		"/>
		<polygon class="st19" points="191.7,340.7 196.9,361.9 193.5,361.9 188.3,340.7 		"/>
	</g>
	<g>
		<rect x="144.4" y="340.7" class="st17" width="32.3" height="21.2"/>
		<rect x="144.4" y="340.7" class="st18" width="32.2" height="9.7"/>
		<polygon class="st19" points="144.4,340.7 144.4,341.9 146.4,350.3 149.2,361.9 152.6,361.9 149.8,350.3 147.4,340.7 		"/>
		<polygon class="st19" points="153.1,340.7 158.2,361.9 154.8,361.9 149.7,340.7 		"/>
	</g>
	<g>
		<rect x="105.7" y="340.7" class="st17" width="32.3" height="21.2"/>
		<rect x="105.7" y="340.7" class="st18" width="32.2" height="9.7"/>
		<polygon class="st19" points="105.7,340.7 105.7,341.9 107.8,350.3 110.6,361.9 114,361.9 111.2,350.3 108.8,340.7 		"/>
		<polygon class="st19" points="114.4,340.7 119.6,361.9 116.2,361.9 111.1,340.7 		"/>
	</g>
	<g>
		<rect x="183" y="367.9" class="st17" width="32.3" height="21.2"/>
		<rect x="183" y="367.9" class="st18" width="32.2" height="9.7"/>
		<polygon class="st19" points="183,367.9 183,369.2 185,377.6 187.8,389.1 191.2,389.1 188.4,377.6 186.1,367.9 		"/>
		<polygon class="st19" points="191.7,367.9 196.9,389.1 193.5,389.1 188.3,367.9 		"/>
	</g>
	<g>
		<rect x="144.4" y="367.9" class="st17" width="32.3" height="21.2"/>
		<rect x="144.4" y="367.9" class="st18" width="32.2" height="9.7"/>
		<polygon class="st19" points="144.4,367.9 144.4,369.2 146.4,377.6 149.2,389.1 152.6,389.1 149.8,377.6 147.4,367.9 		"/>
		<polygon class="st19" points="153.1,367.9 158.2,389.1 154.8,389.1 149.7,367.9 		"/>
	</g>
	<g>
		<rect x="105.7" y="367.9" class="st17" width="32.3" height="21.2"/>
		<rect x="105.7" y="367.9" class="st18" width="32.2" height="9.7"/>
		<polygon class="st19" points="105.7,367.9 105.7,369.2 107.8,377.6 110.6,389.1 114,389.1 111.2,377.6 108.8,367.9 		"/>
		<polygon class="st19" points="114.4,367.9 119.6,389.1 116.2,389.1 111.1,367.9 		"/>
	</g>
	<g>
		<rect x="68" y="340.7" class="st17" width="32.3" height="21.2"/>
		<rect x="68" y="340.7" class="st18" width="32.2" height="9.7"/>
		<polygon class="st19" points="68,340.7 68,341.9 70,350.3 72.9,361.9 76.3,361.9 73.5,350.3 71.1,340.7 		"/>
		<polygon class="st19" points="76.7,340.7 81.9,361.9 78.5,361.9 73.3,340.7 		"/>
	</g>
	<g>
		<rect x="68" y="367.9" class="st17" width="32.3" height="21.2"/>
		<rect x="68" y="367.9" class="st18" width="32.2" height="9.7"/>
		<polygon class="st19" points="68,367.9 68,369.2 70,377.6 72.9,389.1 76.3,389.1 73.5,377.6 71.1,367.9 		"/>
		<polygon class="st19" points="76.7,367.9 81.9,389.1 78.5,389.1 73.3,367.9 		"/>
	</g>
</g>
<g>
	<rect x="450.8" y="340.7" class="st17" width="32.3" height="21.2"/>
	<rect x="450.8" y="340.7" class="st18" width="32.2" height="9.7"/>
	<polygon class="st19" points="450.8,340.7 450.8,341.9 452.9,350.3 455.7,361.9 459.1,361.9 456.3,350.3 453.9,340.7 	"/>
	<polygon class="st19" points="459.5,340.7 464.7,361.9 461.3,361.9 456.1,340.7 	"/>
</g>
<g>
	<rect x="412.2" y="340.7" class="st17" width="32.3" height="21.2"/>
	<rect x="412.2" y="340.7" class="st18" width="32.2" height="9.7"/>
	<polygon class="st19" points="412.2,340.7 412.2,341.9 414.2,350.3 417.1,361.9 420.5,361.9 417.6,350.3 415.3,340.7 	"/>
	<polygon class="st19" points="420.9,340.7 426.1,361.9 422.7,361.9 417.5,340.7 	"/>
</g>
<g>
	<rect x="373.6" y="340.7" class="st17" width="32.3" height="21.2"/>
	<rect x="373.6" y="340.7" class="st18" width="32.2" height="9.7"/>
	<polygon class="st19" points="373.6,340.7 373.6,341.9 375.6,350.3 378.4,361.9 381.8,361.9 379,350.3 376.7,340.7 	"/>
	<polygon class="st19" points="382.3,340.7 387.5,361.9 384.1,361.9 378.9,340.7 	"/>
</g>
<g>
	<rect x="450.8" y="367.9" class="st17" width="32.3" height="21.2"/>
	<rect x="450.8" y="367.9" class="st18" width="32.2" height="9.7"/>
	<polygon class="st19" points="450.8,367.9 450.8,369.2 452.9,377.6 455.7,389.1 459.1,389.1 456.3,377.6 453.9,367.9 	"/>
	<polygon class="st19" points="459.5,367.9 464.7,389.1 461.3,389.1 456.1,367.9 	"/>
</g>
<g>
	<rect x="412.2" y="367.9" class="st17" width="32.3" height="21.2"/>
	<rect x="412.2" y="367.9" class="st18" width="32.2" height="9.7"/>
	<polygon class="st19" points="412.2,367.9 412.2,369.2 414.2,377.6 417.1,389.1 420.5,389.1 417.6,377.6 415.3,367.9 	"/>
	<polygon class="st19" points="420.9,367.9 426.1,389.1 422.7,389.1 417.5,367.9 	"/>
</g>
<g>
	<rect x="373.6" y="367.9" class="st17" width="32.3" height="21.2"/>
	<rect x="373.6" y="367.9" class="st18" width="32.2" height="9.7"/>
	<polygon class="st19" points="373.6,367.9 373.6,369.2 375.6,377.6 378.4,389.1 381.8,389.1 379,377.6 376.7,367.9 	"/>
	<polygon class="st19" points="382.3,367.9 387.5,389.1 384.1,389.1 378.9,367.9 	"/>
</g>
<g>
	<rect x="335.9" y="340.7" class="st17" width="32.3" height="21.2"/>
	<rect x="335.9" y="340.7" class="st18" width="32.2" height="9.7"/>
	<polygon class="st19" points="335.9,340.7 335.9,341.9 337.9,350.3 340.7,361.9 344.1,361.9 341.3,350.3 338.9,340.7 	"/>
	<polygon class="st19" points="344.6,340.7 349.7,361.9 346.3,361.9 341.2,340.7 	"/>
</g>
<g>
	<rect x="335.9" y="367.9" class="st17" width="32.3" height="21.2"/>
	<rect x="335.9" y="367.9" class="st18" width="32.2" height="9.7"/>
	<polygon class="st19" points="335.9,367.9 335.9,369.2 337.9,377.6 340.7,389.1 344.1,389.1 341.3,377.6 338.9,367.9 	"/>
	<polygon class="st19" points="344.6,367.9 349.7,389.1 346.3,389.1 341.2,367.9 	"/>
</g>
<polygon class="st18" points="260.6,340.7 260.6,432.9 300.5,432.9 341.8,340.7 "/>
<ellipse class="st10" cx="753.8" cy="436.9" rx="112.1" ry="9.7"/>
<ellipse class="st10" cx="602.3" cy="451.8" rx="125.7" ry="9.7"/>
<g>
	<g>
		<rect x="130.4" y="415.9" class="st26" width="48.8" height="21"/>
		<rect x="179.2" y="415.9" class="st27" width="11.4" height="21"/>
	</g>
	<g>
		<rect x="130.4" y="375.6" class="st26" width="48.8" height="21"/>
		<rect x="179.2" y="375.6" class="st27" width="11.4" height="21"/>
	</g>
	<g>
		<rect x="130.4" y="395.8" class="st28" width="48.8" height="21"/>
		<rect x="179.2" y="395.8" class="st29" width="11.4" height="21"/>
	</g>
	<g>
		<rect x="188.1" y="415.9" class="st30" width="48.8" height="21"/>
		<rect x="236.9" y="415.9" class="st31" width="11.4" height="21"/>
	</g>
	<g>
		<rect x="188.1" y="375.6" class="st30" width="48.8" height="21"/>
		<rect x="236.9" y="375.6" class="st31" width="11.4" height="21"/>
	</g>
	<g>
		<rect x="188.1" y="395.8" class="st32" width="48.8" height="21"/>
		<rect x="236.9" y="395.8" class="st31" width="11.4" height="21"/>
	</g>
	<polygon class="st33" points="179.9,436.9 188,436.9 188,375.6 185.7,375.6 	"/>
	<polygon class="st33" points="236.5,436.9 248.6,436.9 248.6,375.6 242.3,375.6 	"/>
	<g>
		<rect x="243.5" y="395.7" class="st34" width="48.8" height="21"/>
		<rect x="292.3" y="395.7" class="st31" width="11.4" height="21"/>
	</g>
	<g>
		<rect x="243.5" y="415.9" class="st35" width="48.8" height="21"/>
		<rect x="292.3" y="415.9" class="st31" width="11.4" height="21"/>
	</g>
	<polygon class="st33" points="303.7,395.7 303.7,436.9 295.7,436.9 297.6,416.7 299.6,395.7 	"/>
</g>
<g>
	<g>
		<rect x="-37" y="430.9" class="st36" width="48.8" height="21"/>
		<rect x="11.8" y="430.9" class="st31" width="11.4" height="21"/>
	</g>
	<g>
		<rect x="-37" y="390.5" class="st36" width="48.8" height="21"/>
		<rect x="11.8" y="390.5" class="st31" width="11.4" height="21"/>
	</g>
	<g>
		<rect x="-37" y="410.7" class="st37" width="48.8" height="21"/>
		<rect x="11.8" y="410.7" class="st31" width="11.4" height="21"/>
	</g>
	<g>
		<rect x="20.8" y="430.9" class="st38" width="48.8" height="21"/>
		<rect x="69.6" y="430.9" class="st27" width="11.4" height="21"/>
	</g>
	<g>
		<rect x="20.8" y="390.5" class="st38" width="48.8" height="21"/>
		<rect x="69.6" y="390.5" class="st27" width="11.4" height="21"/>
	</g>
	<g>
		<rect x="20.8" y="410.7" class="st39" width="48.8" height="21"/>
		<rect x="69.6" y="410.7" class="st29" width="11.4" height="21"/>
	</g>
	<polygon class="st33" points="69.2,451.8 81.2,451.8 81.2,390.5 74.9,390.5 	"/>
	<g>
		<rect x="76.2" y="410.7" class="st40" width="48.8" height="21"/>
		<rect x="124.9" y="410.7" class="st27" width="11.4" height="21"/>
	</g>
	<g>
		<rect x="76.2" y="430.8" class="st41" width="48.8" height="21"/>
		<rect x="124.9" y="430.8" class="st27" width="11.4" height="21"/>
	</g>
	<polygon class="st33" points="136.4,410.7 136.4,451.8 128.4,451.8 130.3,431.6 132.2,410.7 	"/>
</g>
<g>
	<g>
		<rect x="18.4" y="430.9" class="st42" width="48.8" height="21"/>
		<rect x="67.2" y="430.9" class="st43" width="11.4" height="21"/>
	</g>
	<g>
		<rect x="18.4" y="390.6" class="st42" width="48.8" height="21"/>
		<rect x="67.2" y="390.6" class="st43" width="11.4" height="21"/>
	</g>
	<g>
		<rect x="18.4" y="410.7" class="st44" width="48.8" height="21"/>
		<rect x="67.2" y="410.7" class="st43" width="11.4" height="21"/>
	</g>
	<g>
		<rect x="76.2" y="430.9" class="st45" width="48.8" height="21"/>
		<rect x="124.9" y="430.9" class="st46" width="11.4" height="21"/>
	</g>
	<g>
		<rect x="76.2" y="390.6" class="st45" width="48.8" height="21"/>
		<rect x="124.9" y="390.6" class="st46" width="11.4" height="21"/>
	</g>
	<g>
		<rect x="76.2" y="410.7" class="st47" width="48.8" height="21"/>
		<rect x="124.9" y="410.7" class="st46" width="11.4" height="21"/>
	</g>
	<g>
		<rect x="131.5" y="410.7" class="st48" width="48.8" height="21"/>
		<rect x="180.3" y="410.7" class="st43" width="11.4" height="21"/>
	</g>
	<g>
		<rect x="131.5" y="430.9" class="st49" width="48.8" height="21"/>
		<rect x="180.3" y="430.9" class="st43" width="11.4" height="21"/>
	</g>
</g>
<g>
	<rect x="18.4" y="370.4" class="st44" width="48.8" height="21"/>
	<rect x="67.2" y="370.4" class="st43" width="11.4" height="21"/>
</g>
<g>
	<rect x="18.4" y="330.1" class="st44" width="48.8" height="21"/>
	<rect x="67.2" y="330.1" class="st43" width="11.4" height="21"/>
</g>
<g>
	<rect x="18.4" y="350.2" class="st42" width="48.8" height="21"/>
	<rect x="67.2" y="350.2" class="st43" width="11.4" height="21"/>
</g>
<g>
	<rect x="76.2" y="370.4" class="st45" width="48.8" height="21"/>
	<rect x="124.9" y="370.4" class="st46" width="11.4" height="21"/>
</g>
<g>
	<rect x="76.2" y="330.1" class="st45" width="48.8" height="21"/>
	<rect x="124.9" y="330.1" class="st46" width="11.4" height="21"/>
</g>
<g>
	<rect x="76.2" y="350.2" class="st47" width="48.8" height="21"/>
	<rect x="124.9" y="350.2" class="st46" width="11.4" height="21"/>
</g>
<g>
	<rect x="131.5" y="369.6" class="st48" width="48.8" height="21"/>
	<rect x="180.3" y="369.6" class="st43" width="11.4" height="21"/>
</g>
<g>
	<rect x="131.5" y="389.8" class="st49" width="48.8" height="21"/>
	<rect x="180.3" y="389.8" class="st43" width="11.4" height="21"/>
</g>
<g>
	<g>
		<rect x="247" y="421.7" class="st50" width="49.3" height="28.7"/>
		<rect x="247" y="421.7" class="st51" width="11.5" height="28.7"/>
		
			<rect x="277.2" y="421.7" transform="matrix(-1 -1.224647e-16 1.224647e-16 -1 555.7369 872.0905)" class="st52" width="1.3" height="28.7"/>
		
			<rect x="251.6" y="421.7" transform="matrix(-1 -1.224647e-16 1.224647e-16 -1 504.4195 872.0905)" class="st53" width="1.3" height="28.7"/>
		
			<rect x="251.6" y="420.9" transform="matrix(-1 -1.224647e-16 1.224647e-16 -1 545.0479 842.6375)" class="st53" width="41.9" height="0.8"/>
		<path class="st54" d="M261.5,426.2h9.2c0.5,0,0.8-0.4,0.8-0.8v-0.3c0-0.5-0.4-0.8-0.8-0.8h-9.2c-0.5,0-0.8,0.4-0.8,0.8v0.3
			C260.7,425.9,261.1,426.2,261.5,426.2z"/>
		<path class="st54" d="M261.5,428.4h9.2c0.5,0,0.8-0.4,0.8-0.8v-0.3c0-0.5-0.4-0.8-0.8-0.8h-9.2c-0.5,0-0.8,0.4-0.8,0.8v0.3
			C260.7,428.1,261.1,428.4,261.5,428.4z"/>
		<path class="st54" d="M266.7,430.6h4.1c0.5,0,0.8-0.4,0.8-0.8v-0.3c0-0.5-0.4-0.8-0.8-0.8h-4.1c-0.5,0-0.8,0.4-0.8,0.8v0.3
			C265.8,430.3,266.2,430.6,266.7,430.6z"/>
	</g>
	<g>
		<path class="st55" d="M210.1,430c-1.8,0-4.5,0.2-7.8,0.6c-2.1,0.3-3.4,0.5-4.4,0.7c-2.8,0.5-6.8,1-12.3,0.8c-0.2,0-4,0.5-6.3-2.4
			c-1.5-2-1.3-4.2-1.3-4.7v-2.3h25.7c0.4,0,2.8,0,4.6,1.9C210.6,426.7,210.2,429.6,210.1,430z"/>
		<path class="st55" d="M208.5,447.8c-1.2,0-2.4-0.1-3.7-0.1c-1.1-7.6-2.2-15.3-3.3-22.9c2.9,1.7,5.8,3.3,8.6,5
			C209.6,435.7,209,441.8,208.5,447.8z"/>
	</g>
	<g>
		<path class="st56" d="M215.4,451.5L215.4,451.5l0.1,0.8l-10.8,0l0.1-0.7l0.5-4.4l0.1,0l0.9,0l0,0l0.2,0l2.1,0l0.2,0l0.1,0.3
			c0,0.2,0.1,0.4,0.2,0.5c0,0.1,0.1,0.1,0.1,0.2c0.1,0.1,0.1,0.2,0.2,0.3c0.1,0.1,0.1,0.1,0.2,0.2c0.1,0.1,0.2,0.2,0.3,0.3
			c0.1,0.1,0.2,0.1,0.3,0.2c0.2,0.1,0.4,0.2,0.6,0.2c0.1,0,0.2,0,0.4,0.1l0.1,0l1.9,0.2c0.2,0,0.4,0.1,0.6,0.1
			C214.4,450.1,215.1,450.7,215.4,451.5z"/>
		<polygon class="st57" points="215.5,452.3 204.7,452.3 204.8,451.6 215.5,451.6 		"/>
		<path class="st56" d="M213.6,449.8c-0.3,0.4-1,1.1-3.2,0.9c-0.8,0-1.6-0.3-2.2-0.9c-0.7-0.6-1.6-1.5-1.7-2.6l2.1,0l0.2,0l0.1,0.3
			c0,0.2,0.1,0.4,0.2,0.5c0,0.1,0.1,0.1,0.1,0.2c0.1,0.1,0.1,0.2,0.2,0.3c0.1,0.1,0.1,0.1,0.2,0.2c0.1,0.1,0.2,0.2,0.3,0.3
			c0.1,0.1,0.2,0.1,0.3,0.2c0.2,0.1,0.4,0.2,0.6,0.2c0.1,0,0.2,0,0.4,0.1l0.1,0l1.9,0.2C213.2,449.7,213.4,449.8,213.6,449.8z"/>
		<g>
			<path class="st58" d="M211.2,449.5C211.2,449.6,211.1,449.6,211.2,449.5c-0.7,0.2-1.2,0.6-1.9,0.4c-0.2,0-0.1-0.3,0.1-0.2
				c0.5,0.1,0.9-0.1,1.4-0.3C210.8,449.5,211,449.5,211.2,449.5L211.2,449.5z"/>
		</g>
		<g>
			<path class="st58" d="M210.2,449.3c-0.6,0.1-1.1,0.5-1.8,0.3c-0.2,0-0.1-0.3,0.1-0.2c0.5,0.1,1-0.1,1.4-0.3
				C210,449.2,210.1,449.2,210.2,449.3z"/>
		</g>
		<g>
			<path class="st58" d="M209.6,448.8c-0.5,0.1-1,0.4-1.6,0.3c-0.2,0-0.1-0.3,0.1-0.2c0.5,0.1,0.9-0.1,1.4-0.3
				C209.4,448.7,209.5,448.8,209.6,448.8z"/>
		</g>
		<g>
			<path class="st58" d="M209.2,448.3c-0.6,0.1-1.1,0.4-1.7,0.3c-0.2,0-0.1-0.3,0.1-0.2c0.5,0.1,1-0.2,1.5-0.3
				C209.1,448.2,209.1,448.3,209.2,448.3z"/>
		</g>
	</g>
	<path class="st59" d="M209.7,417.3c0,0.1,0,0.1,0,0.2c-0.1,0.2-0.2,0.4-0.4,0.5l-0.4,0.2c0,0,0,0,0,0c-1.2-0.2-2.3-0.5-3.5-0.7
		c-2.9,0.3-6,0.7-10.2,1.1c-2,0.2-3.4,0.3-4.6-0.5c-0.9-0.6-1-1.3-2.4-5.1c-1.6-4.3-2-5.1-2.4-7.2c-0.2-1.3-0.3-2.4-0.3-3.2
		c0.2-0.3,0.6-1,1.4-1.2c0.4,0,0.9,0,1.6,0.2c1,0.4,1.6,1.3,2.1,2.4c1.6,3.3,2.9,10.1,3,10.7c2,0.4,4.3,0.7,6.8,0.9
		c2.1,0.1,4,0.1,5.7,0c0,0,0,0,0,0l1.5-0.8c0,0,0.3-0.2,0.2,0.1c-0.1,0.2-0.4,0.7-0.7,1l1.9,0.5C209.5,416.6,209.7,417,209.7,417.3z
		"/>
	<rect x="162.2" y="382" class="st60" width="46.5" height="4.5"/>
	<path class="st55" d="M296.3,482.4v3.8h-46.8V481h46.4C296.1,481.4,296.3,481.9,296.3,482.4z"/>
	<path class="st61" d="M296.3,482.4h-46.8v-2.6h44.2c0.9,0,1.7,0.5,2.2,1.2C296.1,481.4,296.3,481.9,296.3,482.4z"/>
	<path class="st55" d="M292.4,475.9v3.1h-46.8v-4.2H292C292.2,475.1,292.4,475.5,292.4,475.9z"/>
	<path class="st61" d="M292.4,475.9h-46.8v-2.1h44.2c0.9,0,1.7,0.4,2.2,1C292.2,475.1,292.4,475.5,292.4,475.9z"/>
	<polygon class="st55" points="231.3,440.8 227.2,442.3 207.4,384.1 205.5,378.5 210.2,378.5 211.6,382.9 	"/>
	<path class="st62" d="M197.9,440.5H172v-5.1h21.6c2.4,0,4.3,1.9,4.3,4.3V440.5z"/>
	<path class="st63" d="M164.6,435.4v32.1h-41v-24.1c0-4.4,3.6-8,8-8H164.6z"/>
	<path class="st63" d="M234.2,455.5v30.7h-69.7v-32h62.1C229.2,454.2,231.8,454.7,234.2,455.5z"/>
	<rect x="164.5" y="468.7" class="st64" width="69.7" height="17.5"/>
	<path class="st65" d="M137.2,435.4v32.1h-13.6v-24.1c0-4.4,3.6-8,8-8H137.2z"/>
	<rect x="197.9" y="454.2" class="st66" width="27.4" height="16"/>
	<rect x="164.5" y="440.5" class="st67" width="29.4" height="13.7"/>
	<rect x="190.3" y="440.5" class="st68" width="7.6" height="13.7"/>
	<rect x="157.5" y="380.4" class="st55" width="6.9" height="73.8"/>
	<path class="st55" d="M190.3,440.5H164v-5.1h22c2.4,0,4.3,1.9,4.3,4.3V440.5z"/>
	<rect x="190.3" y="454.2" class="st69" width="7.6" height="16"/>
	<rect x="190.3" y="470.2" class="st70" width="16.3" height="1"/>
	<path class="st64" d="M249.6,478.2c0,1-0.1,1.9-0.2,2.9c0,0.1,0,0.2,0,0.3c0,0.1,0,0.3-0.1,0.4c0,0.3-0.1,0.5-0.1,0.8c0,0,0,0,0,0
		c-0.2,1.2-0.5,2.4-0.9,3.6c0,0,0,0,0,0c-1.3,0-2.5,0-3.7,0h-2.2c-2.7,0-5.4,0-8,0h-1.6c-5.1,0-9.9,0-14.5,0c-2.6,0-5.1,0-7.5,0
		c-0.8,0-1.6,0-2.4,0c-1.2,0-2.4,0-3.6,0c0,0,0,0,0,0c-0.4-1.2-0.7-2.4-0.9-3.6c0,0,0,0,0,0c0-0.3-0.1-0.5-0.1-0.8
		c0-0.1,0-0.3-0.1-0.4c0-0.1,0-0.2,0-0.3c-0.1-0.9-0.2-1.9-0.2-2.9c0-1.8,0.2-3.5,0.5-5.2c0.2-0.9,0.4-1.8,0.7-2.6
		c3.1-9.4,11.7-16.1,21.8-16.1c2.7,0,5.2,0.5,7.6,1.3c6.7,2.4,11.9,7.9,14.2,14.8c0.3,0.9,0.5,1.7,0.7,2.6
		C249.5,474.6,249.6,476.4,249.6,478.2z"/>
	<path class="st68" d="M246.2,478.1c0,0.8,0,1.6-0.1,2.4c0,0.1,0,0.2,0,0.3c0,0.1,0,0.3,0,0.4c0,0.2-0.1,0.4-0.1,0.7c0,0,0,0,0,0
		c-0.2,1.1-0.5,2.1-0.8,3.1c-0.1,0.2-0.1,0.4-0.2,0.5c0,0,0,0.1,0,0.1c-0.1,0.2-0.1,0.4-0.2,0.6c-13.3,0-26,0-35.9,0
		c-0.2-0.4-0.3-0.8-0.5-1.2c-0.3-1-0.6-2-0.8-3.1c0,0,0,0,0,0c0-0.2-0.1-0.4-0.1-0.7c0-0.1,0-0.2,0-0.4c0-0.1,0-0.2,0-0.3
		c-0.1-0.8-0.1-1.6-0.1-2.4c0-1.8,0.2-3.5,0.6-5.2c0.1-0.5,0.3-1,0.4-1.5c2.6-8,9.9-13.8,18.4-13.8c8.5,0,15.8,5.8,18.4,13.8
		c0.2,0.5,0.3,1,0.4,1.5C246,474.5,246.2,476.3,246.2,478.1z"/>
	<rect x="165.1" y="467.9" class="st71" width="25.3" height="0.8"/>
	<rect x="123.6" y="453.4" class="st72" width="34" height="0.8"/>
	<path class="st64" d="M169.7,479.6c0,0.8,0,1.6-0.1,2.4c0,0.1,0,0.2,0,0.3c0,0.1,0,0.2,0,0.4c0,0.2-0.1,0.4-0.1,0.6c0,0,0,0,0,0
		c-0.2,1-0.5,2-0.8,3c0,0,0,0,0,0c-1.1,0-2.1,0-3.2,0c-11.5,0-22.4,0-31,0c-1.1,0-2.1,0-3,0c0,0,0,0,0,0c-0.3-1-0.6-2-0.8-3
		c0,0,0,0,0,0c0-0.2-0.1-0.4-0.1-0.6c0-0.1,0-0.2-0.1-0.4c0-0.1,0-0.2,0-0.3c-0.1-0.8-0.1-1.6-0.1-2.4c0-1.5,0.2-2.9,0.5-4.3
		c0.2-0.7,0.4-1.5,0.6-2.2c2.7-7.7,10-13.3,18.7-13.3c8.7,0,16,5.6,18.7,13.3c0.2,0.7,0.5,1.4,0.6,2.2
		C169.5,476.7,169.7,478.1,169.7,479.6z"/>
	<path class="st68" d="M167,479.6c0,0.7,0,1.3-0.1,2c0,0.1,0,0.2,0,0.2c0,0.1,0,0.2,0,0.3c0,0.2-0.1,0.4-0.1,0.5c0,0,0,0,0,0
		c-0.2,0.9-0.4,1.7-0.7,2.5c-0.1,0.1-0.1,0.3-0.2,0.4c0,0,0,0.1,0,0.1c-0.1,0.2-0.1,0.3-0.2,0.5c-11.5,0-22.4,0-31,0
		c-0.1-0.3-0.3-0.7-0.4-1c-0.3-0.8-0.5-1.7-0.7-2.5c0,0,0,0,0,0c0-0.2-0.1-0.4-0.1-0.5c0-0.1,0-0.2,0-0.3c0-0.1,0-0.2,0-0.2
		c-0.1-0.7-0.1-1.3-0.1-2c0-1.5,0.2-2.9,0.5-4.3c0.1-0.4,0.2-0.8,0.4-1.2c2.3-6.6,8.6-11.3,15.9-11.3c7.4,0,13.6,4.7,15.9,11.3
		c0.1,0.4,0.3,0.8,0.4,1.2C166.8,476.7,167,478.1,167,479.6z"/>
	<rect x="157.5" y="452.2" class="st55" width="87.4" height="2.6"/>
	<rect x="240.4" y="379.7" class="st57" width="9.7" height="106.6"/>
	<g>
		<path class="st55" d="M244,478.1c0,0.7,0,1.4-0.1,2c0,0.1,0,0.2,0,0.2c0,0.1,0,0.2,0,0.3c0,0.2-0.1,0.4-0.1,0.5c0,0,0,0,0,0
			c-0.2,0.9-0.4,1.8-0.7,2.6c-0.1,0.2-0.1,0.3-0.2,0.5c0,0,0,0.1,0,0.1c-0.2,0.5-0.4,0.9-0.6,1.4c-1,2.1-2.5,3.9-4.2,5.4
			c-3,2.6-6.9,4.1-11.2,4.1c-4.3,0-8.2-1.6-11.2-4.1c-1-0.9-1.9-1.8-2.7-2.9c-0.6-0.8-1.1-1.6-1.5-2.5c-0.3-0.6-0.6-1.3-0.8-1.9
			c-0.3-0.8-0.5-1.7-0.7-2.6c0,0,0,0,0,0c0-0.2-0.1-0.4-0.1-0.5c0-0.1,0-0.2,0-0.3c0-0.1,0-0.2,0-0.2c-0.1-0.7-0.1-1.4-0.1-2
			c0-2,0.3-3.9,0.9-5.6c2.3-6.7,8.7-11.6,16.3-11.6c7.5,0,13.9,4.8,16.3,11.6C243.7,474.3,244,476.2,244,478.1z"/>
		<path class="st61" d="M244,478.1c0,0,0,0.1,0,0.1h-34.4c0,0,0-0.1,0-0.1c0-2,0.3-3.9,0.9-5.6c2.3-6.7,8.7-11.6,16.3-11.6
			c7.5,0,13.9,4.8,16.3,11.6C243.7,474.3,244,476.2,244,478.1z"/>
		<path class="st55" d="M242.8,478.1c0,0.6,0,1.3-0.1,1.9c0,0.1,0,0.2,0,0.2c0,0.1,0,0.2,0,0.3c0,0.2-0.1,0.3-0.1,0.5c0,0,0,0,0,0
			c-0.2,0.8-0.4,1.6-0.6,2.4c-0.1,0.1-0.1,0.3-0.2,0.4c0,0,0,0.1,0,0.1c-0.2,0.4-0.4,0.9-0.6,1.3c-1,1.9-2.3,3.6-3.9,5
			c-2.8,2.4-6.4,3.8-10.4,3.8c-4,0-7.6-1.4-10.4-3.8c-0.9-0.8-1.8-1.7-2.5-2.7c-0.5-0.7-1-1.5-1.4-2.3c-0.3-0.6-0.5-1.2-0.8-1.8
			c-0.3-0.8-0.5-1.6-0.6-2.4c0,0,0,0,0,0c0-0.2-0.1-0.3-0.1-0.5c0-0.1,0-0.2,0-0.3c0-0.1,0-0.2,0-0.2c-0.1-0.6-0.1-1.3-0.1-1.9
			c0-1.8,0.3-3.6,0.9-5.2c2.2-6.3,8.1-10.7,15.1-10.7s12.9,4.5,15.1,10.7C242.5,474.5,242.8,476.3,242.8,478.1z"/>
		<g>
			<path class="st73" d="M215,476.4c0.1-0.9,0.4-1.8,0.7-2.7c0.2-0.5,0.4-1,0.7-1.5c0.4-0.7,0.8-1.3,1.3-1.8c0-0.1,0.1-0.1,0.1-0.1
				c0.4-0.5,0.9-1,1.5-1.4c0,0,0.1-0.1,0.1-0.1c0.1-0.1,0.2-0.1,0.2-0.2c0.2-0.1,0.4-0.3,0.5-0.4c0,0,0,0,0,0
				c0.3-0.2,0.6-0.4,0.9-0.5c1.3-0.7,2.7-1.1,4.1-1.3h0c0.4,0,0.8-0.1,1.3-0.1c0.5,0,0.9,0,1.4,0.1c1.4,0.2,2.8,0.6,4,1.3
				c0.5,0.3,1,0.6,1.5,1h0c0.1,0.1,0.1,0.1,0.2,0.1c0.2,0.1,0.3,0.2,0.4,0.3c0.5,0.4,0.9,0.9,1.3,1.3h0c0.5,0.5,0.9,1.1,1.2,1.8
				c0.3,0.5,0.5,1,0.7,1.5c0.4,1,0.7,2.1,0.7,3.2c0,0.3,0,0.7,0,1c0,0.1,0,0.2,0,0.4c0,0.1,0,0.3,0,0.4c0,0.3,0,0.6-0.1,0.9
				c0,0.3-0.1,0.5-0.1,0.8c0,0.1,0,0.2-0.1,0.3c0,0.1,0,0.2-0.1,0.3l-0.2,0.6c-0.4,1.3-1,2.5-1.9,3.5c-0.3,0.4-0.6,0.8-1,1.1
				c0,0,0,0-0.1,0.1c0,0,0,0-0.1,0.1c-0.1,0.1-0.3,0.2-0.4,0.4c-0.1,0.1-0.2,0.2-0.3,0.3c-0.1,0.1-0.2,0.1-0.3,0.2
				c-0.2,0.1-0.4,0.3-0.6,0.4c-0.2,0.1-0.4,0.2-0.5,0.3c-1.4,0.8-3,1.4-4.6,1.6c-0.4,0.1-0.9,0.1-1.4,0.1c-0.4,0-0.9,0-1.3-0.1
				c-1.8-0.2-3.6-0.8-5.1-1.8c-0.1,0-0.1-0.1-0.2-0.1c-0.1-0.1-0.2-0.1-0.3-0.2c0,0-0.1,0-0.1-0.1v0c-0.1-0.1-0.1-0.1-0.2-0.2
				c0,0-0.1-0.1-0.1-0.1c-0.2-0.1-0.3-0.2-0.5-0.4c-0.1-0.1-0.3-0.2-0.4-0.4c0,0,0,0-0.1-0.1c0,0,0,0-0.1-0.1
				c-0.2-0.2-0.4-0.4-0.5-0.6c-1-1.2-1.8-2.6-2.3-4.1c0,0,0,0,0,0c-0.1-0.2-0.1-0.4-0.2-0.6c0-0.1-0.1-0.2-0.1-0.3
				c0-0.1,0-0.2-0.1-0.3c-0.1-0.4-0.1-0.8-0.2-1.2c0-0.1,0-0.3,0-0.4c0-0.1,0-0.3,0-0.4c0-0.1,0-0.2,0-0.4
				C214.9,477.4,215,476.9,215,476.4z"/>
		</g>
		<path class="st74" d="M233.1,478.3c0,3.7-3,6.6-6.6,6.6c-3.7,0-6.6-3-6.6-6.6c0-3.7,3-6.6,6.6-6.6
			C230.2,471.6,233.1,474.6,233.1,478.3z"/>
		<path class="st73" d="M230.2,478.2c0,2.1-1.7,3.7-3.7,3.7c-2.1,0-3.7-1.7-3.7-3.7c0-2.1,1.7-3.7,3.7-3.7
			C228.5,474.5,230.2,476.1,230.2,478.2z"/>
		<path class="st55" d="M224.4,478.3c0,1.1,0.9,2,2,2c1.1,0,2-0.9,2-2c0-1.1-0.9-2-2-2C225.3,476.2,224.4,477.1,224.4,478.3z"/>
	</g>
	<path class="st57" d="M172.3,435.4h-4.5v-24h0.7c2.1,0,3.8,1.7,3.8,3.8V435.4z"/>
	<path class="st57" d="M193.3,435.4h-25.5V431h21.9c2,0,3.7,1.6,3.7,3.7V435.4z"/>
	<rect x="222.7" y="432.5" class="st57" width="11.5" height="22.3"/>
	<polygon class="st55" points="210.6,381.7 210.6,382.9 157.5,382.9 157.5,378.5 209.5,378.5 	"/>
	<rect x="232.3" y="446" class="st57" width="12.7" height="6.2"/>
	<rect x="162.9" y="382.9" class="st60" width="3.9" height="52.5"/>
	<rect x="239.3" y="379.7" class="st55" width="3.4" height="64.6"/>
	<path class="st57" d="M224.8,434.8l-0.4,0.3c-0.5,0.4-1.3,0.3-1.7-0.2L210.1,418c-0.4-0.5-0.3-1.3,0.2-1.7l0.4-0.3
		c0.5-0.4,1.3-0.3,1.7,0.2l12.7,16.7C225.4,433.6,225.3,434.4,224.8,434.8z"/>
	<path class="st57" d="M214.7,411l0.3,0.3c0.4,0.5,0.4,1.2-0.1,1.7l-8.7,8c-0.5,0.4-1.2,0.4-1.7-0.1l-0.3-0.3
		c-0.4-0.5-0.4-1.2,0.1-1.7l8.7-8C213.5,410.4,214.3,410.5,214.7,411z"/>
	<path class="st73" d="M150.9,486.2c-6.8-0.1-13.4,0-20.2,0c-3,0-5.6-2.1-6.2-5.1c0,0,0,0,0-0.1c-0.9-5.1-1.1-9.7-1-13.6h27.3V486.2
		z"/>
	<g>
		<path class="st55" d="M165.8,479.6c0,0.6,0,1.3-0.1,1.9c0,0.1,0,0.2,0,0.2c0,0.1,0,0.2,0,0.3c0,0.2-0.1,0.3-0.1,0.5c0,0,0,0,0,0
			c-0.2,0.8-0.4,1.6-0.6,2.4c-0.1,0.1-0.1,0.3-0.2,0.4c0,0,0,0.1,0,0.1c-0.2,0.4-0.4,0.8-0.6,1.3c-0.9,1.9-2.3,3.6-3.8,4.9
			c-2.8,2.4-6.3,3.8-10.2,3.8c-3.9,0-7.5-1.4-10.2-3.8c-0.9-0.8-1.7-1.7-2.4-2.6c-0.5-0.7-1-1.5-1.4-2.3c-0.3-0.6-0.5-1.2-0.8-1.8
			c-0.3-0.8-0.5-1.6-0.6-2.4c0,0,0,0,0,0c0-0.2-0.1-0.3-0.1-0.5c0-0.1,0-0.2,0-0.3c0-0.1,0-0.2,0-0.2c-0.1-0.6-0.1-1.2-0.1-1.9
			c0-1.8,0.3-3.5,0.9-5.1c2.1-6.2,8-10.6,14.9-10.6c6.9,0,12.7,4.4,14.9,10.6C165.5,476.1,165.8,477.8,165.8,479.6z"/>
		<path class="st75" d="M165.8,479.6c0,0,0,0.1,0,0.1h-31.5c0,0,0-0.1,0-0.1c0-1.8,0.3-3.5,0.9-5.1c2.1-6.2,8-10.6,14.9-10.6
			c6.9,0,12.7,4.4,14.9,10.6C165.5,476.1,165.8,477.8,165.8,479.6z"/>
		<path class="st55" d="M164.7,479.6c0,0.6,0,1.2-0.1,1.7c0,0.1,0,0.1,0,0.2c0,0.1,0,0.2,0,0.3c0,0.2-0.1,0.3-0.1,0.5c0,0,0,0,0,0
			c-0.1,0.8-0.3,1.5-0.6,2.2c0,0.1-0.1,0.3-0.1,0.4c0,0,0,0.1,0,0.1c-0.2,0.4-0.3,0.8-0.5,1.2c-0.9,1.8-2.1,3.3-3.6,4.6
			c-2.6,2.2-5.9,3.5-9.5,3.5c-3.6,0-6.9-1.3-9.5-3.5c-0.8-0.7-1.6-1.5-2.3-2.4c-0.5-0.7-0.9-1.4-1.3-2.1c-0.3-0.5-0.5-1.1-0.7-1.6
			c-0.3-0.7-0.5-1.4-0.6-2.2c0,0,0,0,0,0c0-0.2-0.1-0.3-0.1-0.5c0-0.1,0-0.2,0-0.3c0-0.1,0-0.1,0-0.2c-0.1-0.6-0.1-1.2-0.1-1.7
			c0-1.7,0.3-3.3,0.8-4.8c2-5.7,7.4-9.8,13.8-9.8c6.4,0,11.8,4.1,13.8,9.8C164.4,476.3,164.7,477.9,164.7,479.6z"/>
		<g>
			<path class="st73" d="M139.3,478c0.2-1.4,0.6-2.7,1.3-3.8c0.1-0.1,0.2-0.3,0.3-0.5c0.3-0.4,0.6-0.9,0.9-1.2
				c0.4-0.5,0.9-1,1.4-1.4c0.1-0.1,0.2-0.2,0.3-0.3c0.2-0.1,0.3-0.2,0.5-0.3h0c0.3-0.2,0.5-0.4,0.8-0.5c1.2-0.6,2.4-1,3.8-1.2
				c0.4,0,0.8-0.1,1.2-0.1c0.4,0,0.7,0,1.1,0.1c0.1,0,0.1,0,0.2,0c1.3,0.2,2.6,0.6,3.7,1.2c0.5,0.3,0.9,0.6,1.4,0.9l0,0
				c0.7,0.5,1.2,1,1.8,1.7c0.3,0.4,0.6,0.8,0.9,1.2c0.1,0.1,0.2,0.3,0.3,0.5c0.7,1.3,1.2,2.8,1.3,4.3c0,0.3,0,0.6,0,0.9
				c0,0.1,0,0.2,0,0.3c0,0.1,0,0.2,0,0.3c0,0.3,0,0.6-0.1,0.8c0,0.2-0.1,0.5-0.1,0.7c0,0.1,0,0.2-0.1,0.2c0,0.1-0.1,0.2-0.1,0.3
				l-0.2,0.5c-0.4,1.2-1,2.3-1.7,3.2c-0.1,0.1-0.2,0.2-0.3,0.3c-0.2,0.3-0.5,0.5-0.7,0.8c-0.1,0.1-0.2,0.2-0.4,0.3
				c-0.1,0.1-0.2,0.2-0.3,0.2h0c-0.1,0.1-0.2,0.1-0.3,0.2c-0.2,0.1-0.4,0.3-0.5,0.4c-0.4,0.3-0.8,0.5-1.2,0.7
				c-1.1,0.5-2.3,0.9-3.5,1c-0.4,0.1-0.8,0.1-1.3,0.1c-0.4,0-0.8,0-1.2-0.1c-0.8-0.1-1.6-0.3-2.3-0.5h0c-0.9-0.3-1.7-0.7-2.5-1.2
				c-0.1-0.1-0.2-0.1-0.3-0.2h0c0,0-0.1,0-0.1-0.1c-0.1-0.1-0.1-0.1-0.2-0.1c-0.1,0-0.1-0.1-0.1-0.1c-0.1-0.1-0.3-0.2-0.4-0.3
				c-0.1-0.1-0.2-0.2-0.4-0.3c-0.2-0.2-0.4-0.4-0.6-0.6c0-0.1-0.1-0.1-0.1-0.2c0,0,0,0,0,0c0,0,0,0,0,0c-0.9-1-1.6-2.2-2-3.6v0
				c-0.1-0.2-0.1-0.4-0.2-0.5c0-0.1-0.1-0.2-0.1-0.3c0-0.1,0-0.2-0.1-0.2c-0.1-0.4-0.1-0.8-0.2-1.1c0-0.1,0-0.3,0-0.4
				c0-0.1,0-0.2,0-0.3c0-0.1,0-0.2,0-0.3C139.2,478.9,139.2,478.5,139.3,478z"/>
		</g>
		<path class="st74" d="M155.8,479.7c0,3.3-2.7,6.1-6.1,6.1c-3.3,0-6.1-2.7-6.1-6.1c0-3.3,2.7-6.1,6.1-6.1
			C153.1,473.7,155.8,476.4,155.8,479.7z"/>
		<path class="st73" d="M153.1,479.6c0,1.9-1.5,3.4-3.4,3.4c-1.9,0-3.4-1.5-3.4-3.4s1.5-3.4,3.4-3.4
			C151.6,476.2,153.1,477.8,153.1,479.6z"/>
		<circle class="st55" cx="149.7" cy="479.7" r="1.8"/>
	</g>
	<g>
		<path class="st76" d="M208.8,431.5c-1.8,0-4.5,0.2-7.8,0.6c-2.1,0.3-3.4,0.5-4.4,0.7c-2.8,0.5-6.8,1-12.3,0.8
			c-0.2,0-4,0.5-6.3-2.4c-1.5-2-1.3-4.2-1.3-4.7v-2.3h25.7c0.4,0,2.8,0,4.6,1.9C209.2,428.2,208.8,431.1,208.8,431.5z"/>
		<path class="st76" d="M206.5,447.3c-1.2,0-2,0.2-3.3,0.2c-1.1-7.6-2-13.6-3.1-21.3c2.9,1.7,5.8,3.3,8.6,5
			C208.2,437.3,207,441.3,206.5,447.3z"/>
	</g>
	<path class="st77" d="M191.8,406.5l-5,1.7l-2.2-4.7c-0.7-1.5,0.4-3.3,2.1-3.3c0,0,0,0,0.1,0C189,400.4,190.6,402.8,191.8,406.5z"/>
	<g>
		<g>
			<path class="st78" d="M191.8,395.6l-0.5,0.2c-0.1,0-0.1,0-0.2,0l-0.1,1.7c-0.1,1.2-0.9,1.6-2,1.5l-0.6-0.4l-0.3-0.2l0,0l-0.5,3
				c0,0.2-4.2-0.7-4-0.9c0.1-0.2,1.8-3.7,1.8-3.7l-0.1,0l-0.2-0.1l-0.1-0.1l0.9-6.6l3.3,0.5c1.3,0.2,2.3,1.4,2.2,2.7l-0.1,0.6
				l0.3,0.8l0.1,0.5l0.2,0.4C191.9,395.5,191.8,395.6,191.8,395.6z"/>
		</g>
	</g>
	<path class="st79" d="M194.6,424c-1.9,0.9-3.8,1.7-5.6,2.6l-2.7,0.3c-4.8,0.1-13,1.7-8.8-8c0.4-1-0.2-2.3-0.2-3.7
		c0-0.7,0-1.3,0.1-1.9c0.4-2.7,2.1-6.8,6.7-13.4c0.1,0,0.1,0,0.2-0.1c0.3-0.1,0.7-0.2,1.1-0.3c0,0,0.4-0.1,0.9-0.1
		c1.9,0,3.9,5.2,3.9,5.2c2.1,5.6,1.1,5.6,2.7,9.6c1.3,3.2,3,5.8,2.1,9C194.8,423.7,194.7,423.9,194.6,424z"/>
	<path class="st80" d="M189,426.6l-2.7,0.3c-4.8,0.1-13,1.7-8.8-8c0.7-1.7-0.2-3.1-0.2-3.7c-0.1-0.5,0-1.2,0.1-1.9
		c0.4-2.7,2.1-6.8,6.7-13.4c0.1,0,0.1,0,0.2-0.1c-2.6,6.1-3.7,11.3-4.2,14.9c-1.2,8.3,0.4,10.2,1,10.7
		C183.4,427.5,186.9,426.1,189,426.6z"/>
	<path class="st78" d="M206.3,420.2c0,0.1,0,0.1,0,0.2c-0.1,0.2-0.2,0.4-0.4,0.5l-0.4,0.2c0,0,0,0,0,0c-1.1-0.3-2.3-0.7-3.4-1
		c-2.9,0.1-6,0.2-10.2,0.3c-2,0.1-3.4,0.1-4.6-0.9c-0.8-0.7-0.9-1.3-2-5.3c-1.2-4.4-1.6-5.2-1.8-7.3c-0.1-1.3-0.1-2.5,0-3.2
		c0.2-0.3,0.7-0.9,1.5-1.1c0.4,0,0.9,0,1.5,0.4c0.9,0.5,1.5,1.4,2,2.5c1.3,3.4,2.1,10.3,2.2,10.9c1.9,0.6,4.2,1.1,6.7,1.4
		c2.1,0.3,4,0.4,5.7,0.5c0,0,0,0,0,0l1.5-0.7c0,0,0.3-0.2,0.2,0.1c-0.1,0.2-0.5,0.6-0.7,0.9l1.9,0.7
		C206.1,419.5,206.3,419.9,206.3,420.2z"/>
	<path class="st81" d="M191.1,392.4c-0.7,0.1-1.9,0.3-2.2,0.3c-0.6,0-1.1,0.5-1.2,1.1l-0.1,0.8c0,0,0-0.5-0.6-1
		c-0.2-0.2-0.5,0-0.6,0.3c-0.1,0.3-0.1,0.7,0,0.9c0.1,0.1,0.1,0.2,0.2,0.2c0.3,0.3,0.7,0.3,0.7,0.3l-0.7,0.8l-1.6,1.8
		c0,0-2.9-7,0.3-9.2c1.9-1.2,3.6-0.4,4.3-1c0.2-0.2,0.6-0.9,0.4-1.9c0,0,0.1,0,0.2,0.1c0.7,0.5,2.9,2.5,3,4.2
		C193.2,392.1,191.2,392.4,191.1,392.4z"/>
	<path class="st82" d="M188.1,398.4l-0.5,3c0,0.2-4.2-0.7-4-0.9c0.1-0.2,1.4-2.8,1.4-2.8l1.4-1.4L188.1,398.4z"/>
	<path class="st83" d="M189.4,409.2l-3.9,0.7l-1.6,0.3l-1.5-5.2c-0.3-1,0-1.9,0.7-2.5c0.5-0.5,1.2-0.7,2-0.6c0,0,0,0,0.1,0
		C187.4,402.3,188.7,405,189.4,409.2z"/>
	<g>
		<path class="st84" d="M213.2,451.5L213.2,451.5l0.1,0.8l-10.8,0l0.1-0.7l0.5-4.4l0.1,0l0.9,0l0,0l0.2,0l2.1,0h0.2l0.1,0.3
			c0,0.2,0.1,0.4,0.2,0.5c0,0.1,0.1,0.1,0.1,0.2c0.1,0.1,0.1,0.2,0.2,0.3c0.1,0.1,0.1,0.1,0.2,0.2c0.1,0.1,0.2,0.2,0.3,0.3
			c0.1,0.1,0.2,0.1,0.3,0.2c0.2,0.1,0.4,0.2,0.6,0.2c0.1,0,0.2,0,0.4,0.1l0.1,0l1.9,0.2c0.2,0,0.4,0.1,0.6,0.1
			C212.2,450.1,212.9,450.7,213.2,451.5z"/>
		<polygon class="st85" points="213.3,452.3 202.5,452.3 202.6,451.6 213.2,451.6 		"/>
		<path class="st86" d="M211.3,449.8c-0.3,0.4-1,1.1-3.2,0.9c-0.8,0-1.6-0.3-2.2-0.9c-0.7-0.6-1.6-1.5-1.7-2.6l2.1,0h0.2l0.1,0.3
			c0,0.2,0.1,0.4,0.2,0.5c0,0.1,0.1,0.1,0.1,0.2c0.1,0.1,0.1,0.2,0.2,0.3c0.1,0.1,0.1,0.1,0.2,0.2c0.1,0.1,0.2,0.2,0.3,0.3
			c0.1,0.1,0.2,0.1,0.3,0.2c0.2,0.1,0.4,0.2,0.6,0.2c0.1,0,0.2,0,0.4,0.1l0.1,0l1.9,0.2C211,449.7,211.2,449.8,211.3,449.8z"/>
		<g>
			<path class="st58" d="M208.9,449.5C208.9,449.6,208.9,449.6,208.9,449.5c-0.7,0.2-1.2,0.6-1.9,0.4c-0.2,0-0.1-0.3,0.1-0.2
				c0.5,0.1,0.9-0.1,1.4-0.3C208.6,449.5,208.7,449.5,208.9,449.5L208.9,449.5z"/>
		</g>
		<g>
			<path class="st58" d="M207.9,449.3c-0.6,0.1-1.1,0.5-1.8,0.3c-0.2,0-0.1-0.3,0.1-0.2c0.5,0.1,1-0.1,1.4-0.3
				C207.7,449.2,207.8,449.2,207.9,449.3z"/>
		</g>
		<g>
			<path class="st58" d="M207.3,448.8c-0.5,0.1-1,0.4-1.6,0.3c-0.2,0-0.1-0.3,0.1-0.2c0.5,0.1,0.9-0.1,1.4-0.3
				C207.2,448.7,207.2,448.8,207.3,448.8z"/>
		</g>
		<g>
			<path class="st58" d="M206.9,448.3c-0.6,0.1-1.1,0.4-1.7,0.3c-0.2,0-0.1-0.3,0.1-0.2c0.5,0.1,1-0.2,1.5-0.3
				C206.8,448.2,206.9,448.3,206.9,448.3z"/>
		</g>
	</g>
	<g>
		<rect x="252.5" y="451.2" class="st87" width="49.3" height="28.7"/>
		<rect x="252.5" y="451.2" class="st88" width="11.5" height="28.7"/>
		
			<rect x="282.7" y="451.2" transform="matrix(-1 -1.224647e-16 1.224647e-16 -1 566.6964 931.1869)" class="st88" width="1.3" height="28.7"/>
		
			<rect x="257" y="451.2" transform="matrix(-1 -1.224647e-16 1.224647e-16 -1 515.3788 931.1869)" class="st89" width="1.3" height="28.7"/>
		
			<rect x="257" y="450.5" transform="matrix(-1 -1.224647e-16 1.224647e-16 -1 556.0073 901.7339)" class="st89" width="41.9" height="0.8"/>
		<path class="st90" d="M267,455.8h9.2c0.5,0,0.8-0.4,0.8-0.8v-0.3c0-0.5-0.4-0.8-0.8-0.8H267c-0.5,0-0.8,0.4-0.8,0.8v0.3
			C266.2,455.4,266.6,455.8,267,455.8z"/>
		<path class="st90" d="M267,458h9.2c0.5,0,0.8-0.4,0.8-0.8v-0.3c0-0.5-0.4-0.8-0.8-0.8H267c-0.5,0-0.8,0.4-0.8,0.8v0.3
			C266.2,457.6,266.6,458,267,458z"/>
		<path class="st90" d="M272.1,460.2h4.1c0.5,0,0.8-0.4,0.8-0.8V459c0-0.5-0.4-0.8-0.8-0.8h-4.1c-0.5,0-0.8,0.4-0.8,0.8v0.3
			C271.3,459.8,271.7,460.2,272.1,460.2z"/>
	</g>
	<rect x="249.6" y="427.6" class="st55" width="5.9" height="58.6"/>
</g>
</svg>
