<?xml version="1.0" encoding="utf-8"?>
<!-- Generator: Adobe Illustrator 22.0.1, SVG Export Plug-In . SVG Version: 6.00 Build 0)  -->
<svg version="1.1" id="Layer_1" xmlns="http://www.w3.org/2000/svg" xmlns:xlink="http://www.w3.org/1999/xlink" x="0px" y="0px"
	 viewBox="0 0 470 111" style="enable-background:new 0 0 470 111;" xml:space="preserve">
<style type="text/css">
	.st0{fill:#12CAD6;}
	.st1{fill:#003446;}
	.st2{opacity:0.13;fill:#12CAD6;enable-background:new    ;}
	.st3{fill:#F74763;}
	.st4{opacity:0.1;}
	.st5{fill:url(#SVGID_1_);}
	.st6{fill:url(#SVGID_2_);}
	.st7{opacity:0.1;fill:url(#SVGID_3_);enable-background:new    ;}
	.st8{opacity:0.1;fill:url(#SVGID_4_);enable-background:new    ;}
	.st9{opacity:0.1;fill:url(#SVGID_5_);enable-background:new    ;}
	.st10{opacity:0.1;fill:url(#SVGID_6_);enable-background:new    ;}
	.st11{opacity:0.1;fill:url(#SVGID_7_);enable-background:new    ;}
	.st12{opacity:0.1;fill:url(#SVGID_8_);enable-background:new    ;}
	.st13{opacity:0.8;}
	.st14{fill:#E4F9FF;}
	.st15{opacity:0.5;}
	.st16{opacity:0.3;fill:#003446;enable-background:new    ;}
</style>
<rect x="103.3" y="75.1" class="st0" width="141" height="21"/>
<rect x="105.3" y="90.3" class="st0" width="140.9" height="1.4"/>
<rect x="105.3" y="87.5" class="st0" width="140.9" height="1.4"/>
<rect x="105.3" y="84.6" class="st0" width="140.9" height="1.4"/>
<rect x="105.3" y="81.8" class="st0" width="140.9" height="1.4"/>
<rect x="105.3" y="79" class="st0" width="140.9" height="1.4"/>
<rect x="105.3" y="76.1" class="st0" width="140.9" height="1.4"/>
<g>
	<path class="st1" d="M464.3,92.6l-103.1,1.2V8.2c0,0,46.3-2.4,73.6,18.8l24.9,34.6l0.1,0.1c0.6,1.6,1.2,3.4,1.6,5.2
		C464.3,78.4,464.3,92.6,464.3,92.6z"/>
	<path class="st0" d="M461.5,67l-87.7-18.6c-2.7-0.6-4.7-3-4.7-5.8l0,0l90.6,19.1l0.1,0.1C460.5,63.4,461,65.1,461.5,67z"/>
	<path class="st0" d="M464.3,92.6l-6,0.1c0-1.9-0.3-19.7-4.5-30.8l-1.2-1.7l7.3,1.5C464.3,73.5,464.3,92.6,464.3,92.6z"/>
	<path class="st0" d="M361.2,64.1c0,0,73,1.5,85.1,3.9c12.1,2.4,17.4,9.8,17.4,20.9v5.2H361.2V64.1z"/>
	<g>
		<path class="st0" d="M460.9,83.6l-3,0.6c-0.1-0.7-0.3-1.3-0.5-1.9l0,0c-0.9-2.9-2.6-5.3-5-7.1l1.3-1.7l0.5-0.7
			c2.6,2,4.6,4.6,5.7,7.7c0.1,0.3,0.2,0.7,0.3,1C460.6,82.1,460.8,82.8,460.9,83.6z"/>
	</g>
	<path class="st0" d="M460.9,83.6l-3,0.6c-0.1-0.7-0.3-1.3-0.5-1.9l0,0.1l2.9-0.9C460.6,82.1,460.8,82.8,460.9,83.6z"/>
	<path class="st1" d="M361.2,66.3c0,0,69.7,1.1,81.2,3.3c11.5,2.2,16.8,8.9,16.8,18.6v5.9h-98V66.3z"/>
	<rect x="419.8" y="23.4" class="st1" width="0.7" height="67.5"/>
	<rect x="419.1" y="23.4" class="st0" width="0.7" height="67.5"/>
	<rect x="388.5" y="23.3" class="st0" width="0.7" height="67.5"/>
	<rect x="389.2" y="23.3" class="st1" width="0.7" height="67.5"/>
	<path class="st1" d="M430.4,82.4h-52.7c-0.9,0-1.7-0.8-1.7-1.7l0,0c0-0.9,0.8-1.7,1.7-1.7h52.7V82.4z"/>
	<g>
		<g>
			<g>
				<path class="st0" d="M454.5,96h-4.2v-5.4c0-6.1-5.7-11.1-12.8-11.1s-12.8,5-12.8,11.1V96h-4.2v-5.4c0-8.2,7.6-14.8,17-14.8
					s17,6.6,17,14.8V96z"/>
			</g>
		</g>
	</g>
	<path class="st1" d="M376.6,90.8h-15.4V78.6C361.2,85.4,368.1,90.8,376.6,90.8z"/>
	<g>
		<polygon class="st1" points="459.8,61.8 452.6,60.3 388.5,46.9 388.5,23.4 428.1,26.5 434.9,27.1 		"/>
	</g>
	<polygon class="st1" points="417.5,27.6 417.5,50.2 414.7,49.6 411.5,48.9 410.6,48.8 409.9,48.6 409.4,48.5 406.4,47.9 
		405.6,47.7 404.7,47.5 404.2,47.4 399.4,46.4 399.3,46.3 398,46.1 394.8,45.4 393.9,45.2 392.4,44.9 391.1,44.6 391.1,25.6 
		394.8,25.9 398,26.1 399.4,26.3 400.4,26.3 404.1,26.6 404.7,26.6 405.8,26.7 409.4,27 410.6,27.1 411.5,27.1 411.7,27.2 
		414.7,27.4 417,27.6 	"/>
	<polygon class="st1" points="446.8,56.5 445.8,56.3 442,55.5 437.1,54.4 433.3,53.6 432.8,53.5 431.5,53.2 428.9,52.7 427,52.2 
		425,51.8 422.2,51.2 422.2,27.9 425,28.1 425.8,28.1 430.6,34.6 431.5,35.7 433.3,38.3 434.8,40.1 435.9,41.8 437.1,43.3 438.3,45 
		442,50 445.8,55.1 	"/>
	<path class="st1" d="M434.9,27.1l-6.7-0.5l-66.9-4.9V7c0,0,3.4-0.1,8.9,0.1c0.1,0,0.2,0,0.3,0c1,0.1,2.1,0.1,3.3,0.3c0,0,0,0,0,0
		C387,9,408.4,8.7,425,19.3c0.3,0.2,0.6,0.4,0.9,0.6c0.3,0.2,0.6,0.4,1,0.6c0.2,0.1,0.4,0.3,0.6,0.4c0.1,0.1,0.2,0.2,0.3,0.2
		c0.2,0.2,0.5,0.3,0.7,0.5c0,0,0.1,0.1,0.1,0.1c0.3,0.2,0.5,0.4,0.8,0.6c0.1,0.1,0.2,0.1,0.3,0.2c0.3,0.2,0.5,0.4,0.8,0.6
		c0.3,0.3,0.7,0.6,1,0.8c0,0,0,0,0,0c0.2,0.2,0.5,0.4,0.7,0.6c0.2,0.1,0.3,0.3,0.5,0.4c0.2,0.2,0.4,0.4,0.6,0.5
		c0.3,0.3,0.6,0.5,0.8,0.8C434.4,26.6,434.6,26.8,434.9,27.1z"/>
	<path class="st2" d="M459.8,61.8l-5.8-1.2l-0.6-0.1l-0.8-0.2l-3.5-4.9l-1.2-1.6l-0.6-0.9l-1.5-2l-2-2.7l-1.8-2.5l-4.9-6.9l-3.8-5.2
		l-1.9-2.6l-2.8-3.9c-0.2-0.2-0.4-0.4-0.6-0.6l0,0c0,0,0,0,0,0c-0.9-0.9-1.8-1.7-2.7-2.4c-0.1-0.1-0.2-0.2-0.3-0.3
		c-1.7-1.4-3.5-2.7-5.4-3.9c-18.4-12-34-11.7-55.9-12.7c-0.9,0-1.8-0.1-2.5-0.1v0c0,0,3.4-0.2,8.9,0.1c0.1,0,0.2,0,0.3,0
		c1.1,0.1,2.2,0.2,3.3,0.3c0,0,0,0,0,0C387,9,408.4,8.7,425,19.3c0.3,0.2,0.6,0.4,0.9,0.6c0.3,0.2,0.6,0.4,1,0.6
		c0.2,0.1,0.4,0.3,0.6,0.4c0.1,0.1,0.2,0.2,0.3,0.2c0.2,0.2,0.5,0.3,0.7,0.5c0,0,0.1,0.1,0.1,0.1c0.3,0.2,0.5,0.4,0.8,0.6
		c0.1,0.1,0.2,0.1,0.3,0.2c0.3,0.2,0.5,0.4,0.8,0.6c0.3,0.3,0.7,0.6,1,0.8c0,0,0,0,0,0c0.2,0.2,0.5,0.4,0.7,0.6
		c0.2,0.1,0.3,0.3,0.5,0.4c0.2,0.2,0.4,0.4,0.6,0.5c0.3,0.3,0.6,0.5,0.8,0.8c0.2,0.2,0.5,0.4,0.7,0.7l2.3,3.1L442,37l3.8,5.2l1,1.4
		l0.5,0.7l3.6,4.9l1.2,1.6l2.2,3.1l2.2,3L459.8,61.8z"/>
	<path class="st1" d="M358.7,26h2.5v52.4h-4.9V28.4C356.3,27.1,357.4,26,358.7,26z"/>
	<rect x="346.8" y="90.8" class="st1" width="117.5" height="8.8"/>
	<rect x="452" y="90.8" class="st1" width="2.5" height="8.8"/>
	<rect x="281" y="78.5" class="st1" width="80.2" height="21.2"/>
	<path class="st1" d="M422.5,90.8l-0.8,6.9h-4.4v-3.4l-41,0.4L365.1,94l-6.1-6.4l-3.6-9.1h5.8v0.2c0,6.7,6.9,12.2,15.4,12.2
		L422.5,90.8L422.5,90.8z"/>
	<rect x="420.5" y="90.8" class="st1" width="2" height="7.9"/>
	<path class="st1" d="M371.6,93.5c-7.7,0-14-5.3-14-15.1h-3.3c0,0,0.3,16.8,16.8,16.8h45.4c0.4,0,0.8-0.4,0.8-0.9l0,0
		c0-0.5-0.4-0.9-0.8-0.9L371.6,93.5z"/>
	<g>
		<g>
			<g>
				<g>
					<path class="st1" d="M452.8,99.6H449V94c0-6.4-5.2-11.7-11.7-11.7s-11.7,5.2-11.7,11.7v5.7h-3.8V94c0-8.6,7-15.5,15.5-15.5
						s15.5,7,15.5,15.5V99.6z"/>
				</g>
			</g>
		</g>
		<g>
			<g>
				<g>
					<path class="st1" d="M450.9,94c0-7.5-6.1-13.6-13.6-13.6c-7.5,0-13.6,6.1-13.6,13.6v5.7h27.2L450.9,94L450.9,94z"/>
				</g>
			</g>
		</g>
		<g>
			<g>
				<g>
					<ellipse class="st1" cx="437.3" cy="94.1" rx="11.9" ry="11.9"/>
				</g>
			</g>
		</g>
		<g>
			<g>
				<g>
					<path class="st1" d="M437.3,82.2c-6.6,0-11.9,5.3-11.9,11.9h1.5c0-5.7,4.6-10.4,10.4-10.4s10.4,4.6,10.4,10.4h1.5
						C449.2,87.5,443.9,82.2,437.3,82.2z"/>
				</g>
			</g>
		</g>
		<g>
			<g>
				<g>
					<path class="st0" d="M444.7,94.1L444.7,94.1c0,4.2-3.4,7.5-7.5,7.5c-4.1,0-7.5-3.3-7.5-7.5v0c0-4.1,3.4-7.4,7.5-7.4
						C441.4,86.6,444.7,90,444.7,94.1z"/>
				</g>
			</g>
		</g>
		<g>
			<path class="st1" d="M444.7,94.1L444.7,94.1l-15,0v0c0-4.1,3.4-7.4,7.5-7.4C441.4,86.6,444.7,90,444.7,94.1z"/>
		</g>
		<g>
			<g>
				<g>
					<path class="st0" d="M443.8,94.1L443.8,94.1c0,3.6-2.9,6.5-6.5,6.5c-3.6,0-6.5-2.9-6.5-6.5v0c0-3.6,2.9-6.5,6.5-6.5
						C440.9,87.6,443.8,90.5,443.8,94.1z"/>
				</g>
			</g>
		</g>
		<g>
			<path class="st1" d="M443.8,94.1c0,3.6-2.9,6.5-6.5,6.5c-3.6,0-6.5-2.9-6.5-6.5H443.8z"/>
		</g>
		<g>
			<g>
				<g>
					<path class="st1" d="M437.3,87.6L437.3,87.6L437.3,87.6C437.3,87.6,437.3,87.6,437.3,87.6L437.3,87.6L437.3,87.6L437.3,87.6
						L437.3,87.6L437.3,87.6L437.3,87.6L437.3,87.6L437.3,87.6L437.3,87.6L437.3,87.6L437.3,87.6L437.3,87.6L437.3,87.6L437.3,87.6
						L437.3,87.6L437.3,87.6L437.3,87.6L437.3,87.6L437.3,87.6L437.3,87.6L437.3,87.6C437.3,87.6,437.3,87.6,437.3,87.6L437.3,87.6
						L437.3,87.6L437.3,87.6L437.3,87.6L437.3,87.6L437.3,87.6L437.3,87.6L437.3,87.6L437.3,87.6L437.3,87.6L437.3,87.6L437.3,87.6
						L437.3,87.6L437.3,87.6L437.3,87.6L437.3,87.6L437.3,87.6L437.3,87.6L437.3,87.6L437.3,87.6L437.3,87.6L437.3,87.6L437.3,87.6
						L437.3,87.6L437.3,87.6C437.2,87.6,437.2,87.6,437.3,87.6L437.3,87.6L437.3,87.6L437.3,87.6L437.3,87.6L437.3,87.6L437.3,87.6
						L437.3,87.6L437.3,87.6L437.3,87.6L437.3,87.6L437.3,87.6L437.3,87.6L437.3,87.6L437.3,87.6L437.3,87.6L437.3,87.6L437.3,87.6
						L437.3,87.6L437.3,87.6L437.3,87.6L437.3,87.6L437.3,87.6L437.3,87.6L437.3,87.6L437.3,87.6C437.2,87.6,437.2,87.6,437.3,87.6
						L437.3,87.6L437.3,87.6L437.3,87.6L437.3,87.6L437.3,87.6L437.3,87.6L437.3,87.6L437.3,87.6L437.3,87.6L437.3,87.6L437.3,87.6
						L437.3,87.6L437.3,87.6L437.3,87.6L437.3,87.6L437.3,87.6L437.3,87.6L437.3,87.6L437.3,87.6L437.3,87.6L437.3,87.6L437.3,87.6
						L437.3,87.6L437.3,87.6L437.3,87.6L437.3,87.6L437.3,87.6L437.3,87.6L437.3,87.6L437.3,87.6L437.3,87.6L437.3,87.6L437.3,87.6
						L437.3,87.6L437.3,87.6L437.3,87.6L437.3,87.6L437.3,87.6L437.3,87.6L437.3,87.6L437.3,87.6L437.3,87.6L437.3,87.6L437.3,87.6
						L437.3,87.6L437.3,87.6L437.3,87.6L437.3,87.6L437.3,87.6L437.3,87.6C437.2,87.6,437.2,87.6,437.3,87.6L437.3,87.6L437.3,87.6
						L437.3,87.6L437.3,87.6L437.3,87.6L437.3,87.6L437.3,87.6L437.3,87.6L437.3,87.6L437.3,87.6L437.3,87.6L437.3,87.6L437.3,87.6
						L437.3,87.6L437.3,87.6L437.3,87.6L437.3,87.6L437.3,87.6L437.3,87.6L437.3,87.6L437.3,87.6L437.3,87.6L437.3,87.6L437.3,87.6
						L437.3,87.6L437.3,87.6L437.3,87.6L437.3,87.6L437.3,87.6L437.3,87.6L437.3,87.6L437.3,87.6L437.3,87.6L437.3,87.6L437.3,87.6
						L437.3,87.6L437.3,87.6L437.3,87.6L437.3,87.6L437.3,87.6L437.3,87.6L437.3,87.6L437.3,87.6L437.3,87.6L437.3,87.6L437.3,87.6
						L437.3,87.6L437.3,87.6L437.3,87.6L437.3,87.6L437.3,87.6L437.3,87.6L437.3,87.6L437.3,87.6L437.3,87.6L437.3,87.6L437.3,87.6
						L437.3,87.6L437.3,87.6L437.3,87.6L437.3,87.6L437.3,87.6L437.3,87.6L437.3,87.6L437.3,87.6L437.3,87.6L437.3,87.6L437.3,87.6
						L437.3,87.6L437.3,87.6L437.3,87.6L437.3,87.6L437.3,87.6L437.3,87.6L437.3,87.6L437.3,87.6L437.3,87.6L437.3,87.6L437.3,87.6
						L437.3,87.6L437.3,87.6L437.3,87.6L437.3,87.6L437.3,87.6L437.3,87.6L437.3,87.6L437.3,87.6L437.3,87.6L437.3,87.6L437.3,87.6
						L437.3,87.6L437.3,87.6L437.3,87.6L437.3,87.6L437.3,87.6L437.3,87.6L437.3,87.6L437.3,87.6L437.3,87.6L437.3,87.6L437.3,87.6
						L437.3,87.6L437.3,87.6L437.3,87.6L437.3,87.6L437.3,87.6L437.3,87.6L437.3,87.6L437.3,87.6L437.3,87.6L437.3,87.6L437.3,87.6
						L437.3,87.6L437.3,87.6L437.3,87.6L437.3,87.6L437.3,87.6c-0.1,0-0.1,0-0.1,0l0,0l0,0l0,0l0,0l0,0l0,0l0,0l0,0l0,0l0,0l0,0l0,0
						l0,0l0,0l0,0l0,0l0,0l0,0l0,0c0,0,0,0,0,0l0,0l0,0l0,0l0,0l0,0l0,0l0,0l0,0l0,0l0,0l0,0l0,0l0,0l0,0l0,0l0,0l0,0c0,0,0,0,0,0
						l0,0l0,0l0,0l0,0l0,0l0,0l0,0l0,0l0,0l0,0l0,0l0,0l0,0l0,0l0,0c0,0,0,0,0,0l0,0l0,0l0,0l0,0l0,0l0,0l0,0l0,0l0,0l0,0l0,0l0,0
						l0,0l0,0l0,0c0,0,0,0,0,0l0,0l0,0l0,0l0,0l0,0l0,0l0,0l0,0l0,0l0,0l0,0l0,0l0,0c0,0,0,0,0,0l0,0l0,0l0,0l0,0l0,0l0,0l0,0
						c0,0,0,0,0,0l0,0l0,0l0,0l0,0l0,0l0,0l0,0l0,0l0,0c0,0,0,0-0.1,0l0,0c0,0,0,0-0.1,0l0,0l0,0l0,0l0,0l0,0h0l0,0
						c-0.1,0-0.3,0.1-0.4,0.1l0,0c0,0,0,0,0,0l0,0c0,0,0,0,0,0l0,0l0,0l0,0l0,0l0,0l0,0l0,0l0,0l0,0c0,0,0,0,0,0l0,0l0,0l0,0l0,0
						l0,0l0,0l0,0l0,0l0,0l0,0l0,0l0,0l0,0c0,0,0,0,0,0l0,0l0,0l0,0l0,0l0,0l0,0l0,0l0,0l0,0l0,0l0,0l0,0l0,0c0,0,0,0,0,0l0,0l0,0
						l0,0l0,0l0,0l0,0l0,0l0,0l0,0l0,0l0,0l0,0l0,0l0,0l0,0l0,0l0,0c0,0,0,0,0,0l0,0l0,0l0,0l0,0l0,0l0,0l0,0l0,0l0,0l0,0l0,0l0,0
						l0,0l0,0l0,0l0,0l0,0l0,0l0,0l0,0l0,0c0,0,0,0,0,0l0,0l0,0l0,0l0,0l0,0l0,0l0,0l0,0l0,0l0,0l0,0l0,0l0,0l0,0l0,0l0,0l0,0l0,0
						l0,0l0,0l0,0l0,0l0,0l0,0l0,0l0,0l0,0l0,0l0,0l0,0l0,0l0,0l0,0l0,0l0,0l0,0l0,0l0,0l0,0l0,0l0,0l0,0l0,0l0,0l0,0l0,0l0,0l0,0
						c0,0,0,0,0,0l0,0l0,0l0,0l0,0l0,0l0,0l0,0l0,0l0,0l0,0l0,0l0,0l0,0l0,0l0,0c0,0,0,0,0,0l0,0h0l0,0l0,0l0,0l0,0l0,0
						c0,0-0.1,0-0.1,0l0.2,0.6c0.7-0.3,1.4-0.4,2.1-0.4v-0.4H437.3L437.3,87.6z M434.4,88.3C434.4,88.3,434.3,88.3,434.4,88.3
						L434.4,88.3L434.4,88.3L434.4,88.3L434.4,88.3L434.4,88.3L434.4,88.3L434.4,88.3L434.4,88.3L434.4,88.3L434.4,88.3L434.4,88.3
						L434.4,88.3L434.4,88.3L434.4,88.3L434.4,88.3L434.4,88.3L434.4,88.3L434.4,88.3L434.4,88.3L434.4,88.3L434.4,88.3L434.4,88.3
						L434.4,88.3L434.4,88.3L434.4,88.3L434.4,88.3L434.4,88.3L434.4,88.3L434.4,88.3L434.4,88.3L434.4,88.3L434.4,88.3L434.4,88.3
						L434.4,88.3L434.4,88.3L434.4,88.3L434.4,88.3C434.3,88.3,434.3,88.3,434.4,88.3L434.4,88.3L434.4,88.3L434.4,88.3L434.4,88.3
						L434.4,88.3L434.4,88.3L434.4,88.3L434.4,88.3L434.4,88.3L434.4,88.3L434.4,88.3L434.4,88.3L434.4,88.3L434.4,88.3L434.4,88.3
						L434.4,88.3L434.4,88.3L434.4,88.3L434.4,88.3L434.4,88.3L434.4,88.3L434.4,88.3L434.4,88.3L434.4,88.3L434.4,88.3L434.4,88.3
						L434.4,88.3L434.4,88.3L434.4,88.3L434.4,88.3L434.4,88.3L434.4,88.3L434.4,88.3L434.4,88.3L434.4,88.3L434.4,88.3L434.4,88.3
						L434.4,88.3L434.4,88.3L434.4,88.3L434.4,88.3L434.4,88.3L434.4,88.3L434.4,88.3L434.4,88.3L434.4,88.3L434.4,88.3L434.4,88.3
						L434.4,88.3C434.3,88.3,434.3,88.3,434.4,88.3L434.4,88.3L434.4,88.3L434.4,88.3L434.4,88.3L434.4,88.3L434.4,88.3L434.4,88.3
						L434.4,88.3L434.4,88.3L434.4,88.3L434.4,88.3L434.4,88.3L434.4,88.3L434.4,88.3L434.4,88.3L434.4,88.3L434.4,88.3L434.4,88.3
						L434.4,88.3L434.4,88.3L434.4,88.3L434.4,88.3L434.4,88.3L434.4,88.3L434.4,88.3L434.4,88.3L434.4,88.3L434.4,88.3L434.4,88.3
						L434.4,88.3L434.4,88.3L434.4,88.3L434.4,88.3L434.4,88.3L434.4,88.3L434.4,88.3L434.4,88.3L434.4,88.3L434.4,88.3L434.4,88.3
						L434.4,88.3L434.4,88.3L434.4,88.3L434.4,88.3L434.4,88.3L434.4,88.3L434.4,88.3L434.4,88.3L434.4,88.3
						C434.3,88.3,434.3,88.3,434.4,88.3L434.4,88.3L434.4,88.3L434.4,88.3L434.4,88.3L434.4,88.3L434.4,88.3L434.4,88.3L434.4,88.3
						L434.4,88.3L434.4,88.3L434.4,88.3L434.4,88.3L434.4,88.3L434.4,88.3L434.4,88.3L434.4,88.3L434.4,88.3L434.4,88.3L434.4,88.3
						L434.4,88.3L434.4,88.3L434.4,88.3L434.4,88.3L434.4,88.3L434.4,88.3L434.4,88.3L434.4,88.3L434.4,88.3L434.4,88.3L434.4,88.3
						L434.4,88.3L434.4,88.3L434.4,88.3L434.4,88.3L434.4,88.3L434.4,88.3L434.4,88.3L434.4,88.3L434.4,88.3L434.4,88.3L434.4,88.3
						L434.4,88.3L434.4,88.3L434.4,88.3L434.4,88.3L434.4,88.3L434.4,88.3L434.4,88.3L434.4,88.3L434.4,88.3L434.4,88.3
						C434.3,88.3,434.3,88.3,434.4,88.3L434.4,88.3L434.4,88.3L434.4,88.3L434.4,88.3L434.4,88.3L434.4,88.3L434.4,88.3L434.4,88.3
						L434.4,88.3L434.4,88.3L434.4,88.3L434.4,88.3L434.4,88.3L434.4,88.3L434.4,88.3L434.4,88.3L434.4,88.3L434.4,88.3L434.4,88.3
						L434.4,88.3L434.4,88.3L434.4,88.3L434.4,88.3L434.4,88.3L434.4,88.3L434.4,88.3L434.4,88.3L434.4,88.3L434.4,88.3L434.4,88.3
						L434.4,88.3L434.4,88.3L434.4,88.3L434.4,88.3L434.4,88.3L434.4,88.3L434.4,88.3L434.4,88.3L434.4,88.3L434.4,88.3L434.4,88.3
						L434.4,88.3L434.4,88.3c-0.1,0.1-0.1,0.1-0.1,0.1l0,0l0,0l0,0l0,0l0,0l0,0l0,0l0,0l0,0l0,0l0,0l0,0l0,0l0,0l0,0l0,0l0,0l0,0
						l0,0l0,0l0,0l0,0l0,0l0,0l0,0l0,0l0,0l0,0l0,0l0,0l0,0l0,0l0,0l0,0l0,0c0,0,0,0,0,0l0,0c0,0,0,0,0,0l0,0l0,0l0,0l0,0l0,0l0,0
						l0,0l0,0l0,0l0,0l0,0l0,0l0,0l0,0l0,0l0,0l0,0l0,0l0,0l0,0l0,0c-0.4,0.3-0.8,0.6-1.1,1l0.5,0.4c0.5-0.6,1.1-1,1.7-1.3
						L434.4,88.3L434.4,88.3z M432,90.2C432,90.2,432,90.2,432,90.2L432,90.2L432,90.2L432,90.2L432,90.2L432,90.2L432,90.2
						L432,90.2L432,90.2L432,90.2L432,90.2L432,90.2L432,90.2L432,90.2L432,90.2L432,90.2L432,90.2L432,90.2L432,90.2L432,90.2
						C432,90.2,432,90.2,432,90.2L432,90.2L432,90.2L432,90.2L432,90.2L432,90.2L432,90.2L432,90.2L432,90.2L432,90.2L432,90.2
						L432,90.2L432,90.2L432,90.2L432,90.2L432,90.2L432,90.2L432,90.2L432,90.2L432,90.2L432,90.2L432,90.2L432,90.2L432,90.2
						L432,90.2L432,90.2L432,90.2L432,90.2L432,90.2L432,90.2L432,90.2L432,90.2L432,90.2L432,90.2C432,90.3,432,90.3,432,90.2
						L432,90.2L432,90.2L432,90.2L432,90.2L432,90.2L432,90.2L432,90.2L432,90.2L432,90.2L432,90.2L432,90.2L432,90.2L432,90.2
						L432,90.2L432,90.2L432,90.2L432,90.2L432,90.2L432,90.2L432,90.2L432,90.2L432,90.2L432,90.2L432,90.2L432,90.2L432,90.2
						L432,90.2L432,90.2L432,90.2L432,90.2L432,90.2L432,90.2L432,90.2L432,90.2L432,90.2L432,90.2L432,90.2L432,90.2L432,90.2
						L432,90.2L432,90.2L432,90.2L432,90.2L432,90.2L432,90.2L432,90.2L432,90.2L432,90.2L432,90.2L432,90.2L432,90.2L432,90.2
						L432,90.2L432,90.2L432,90.2L432,90.2L432,90.2L432,90.2L432,90.2L432,90.2L432,90.2L432,90.2L432,90.2L432,90.2L432,90.2
						L432,90.2L432,90.2L432,90.2L432,90.2L432,90.2L432,90.2L432,90.2L432,90.2L432,90.2L432,90.2L432,90.2L432,90.2L432,90.2
						L432,90.2L432,90.2L432,90.2C432,90.3,432,90.3,432,90.2L432,90.2L432,90.2L432,90.2L432,90.2L432,90.2L432,90.2L432,90.2
						L432,90.2L432,90.2L432,90.2L432,90.2L432,90.2L432,90.2L432,90.2L432,90.2L432,90.2L432,90.2L432,90.2L432,90.2L432,90.2
						L432,90.2L432,90.2L432,90.2L432,90.2L432,90.2L432,90.2L432,90.2L432,90.2L432,90.2L432,90.2L432,90.2L432,90.2L432,90.2
						L432,90.2L432,90.2L432,90.2L432,90.2L432,90.2L432,90.2L432,90.2L432,90.2L432,90.2L432,90.2L432,90.2L432,90.2L432,90.2
						L432,90.2L432,90.2L432,90.2L432,90.2L432,90.2L432,90.2L432,90.2L432,90.2L432,90.2L432,90.2L432,90.2L432,90.2L432,90.2
						L432,90.2L432,90.2L432,90.2L432,90.2L432,90.2L432,90.2L432,90.2L432,90.2L432,90.2L432,90.2L432,90.2L432,90.2L432,90.2
						L432,90.2L432,90.2L432,90.2L432,90.2L432,90.2L432,90.2L432,90.2L432,90.2L432,90.2c-0.1,0.1-0.1,0.1-0.1,0.1l0,0l0,0l0,0l0,0
						l0,0l0,0l0,0l0,0l0,0l0,0l0,0l0,0l0,0l0,0l0,0l0,0l0,0l0,0l0,0l0,0l0,0l0,0l0,0l0,0l0,0l0,0l0,0l0,0l0,0l0,0l0,0c0,0,0,0,0,0
						l0,0l0,0l0,0l0,0l0,0l0,0l0,0l0,0l0,0l0,0l0,0l0,0l0,0l0,0l0,0l0,0l0,0l0,0l0,0l0,0l0,0l0,0l0,0c0,0,0,0.1,0,0.1l0,0v0l0,0
						c-0.2,0.4-0.4,0.9-0.6,1.4l0.6,0.2c0.2-0.7,0.5-1.4,1-2L432,90.2L432,90.2z M430.9,92.9L430.9,92.9L430.9,92.9
						C430.9,92.9,430.9,92.9,430.9,92.9L430.9,92.9C430.9,92.9,430.9,92.9,430.9,92.9L430.9,92.9L430.9,92.9L430.9,92.9
						C430.9,92.9,430.9,92.9,430.9,92.9L430.9,92.9L430.9,92.9L430.9,92.9L430.9,92.9L430.9,92.9c-0.1,0.4-0.1,0.7-0.1,1.1l0,0
						c0,0,0,0,0,0l0,0c0,0,0,0,0,0l0,0l0,0l0,0l0,0l0,0l0,0l0,0l0,0l0,0c0,0,0,0,0,0c0,0.4,0,0.8,0.1,1.1l0,0l0,0l0,0l0,0
						c0,0,0,0.1,0,0.1l0.6-0.1c-0.1-0.4-0.1-0.8-0.1-1.1c0-0.4,0-0.7,0.1-1L430.9,92.9L430.9,92.9z M431.6,95.8l-0.6,0.2
						c0.1,0.5,0.4,1,0.6,1.4l0,0l0,0l0,0l0,0l0,0l0,0l0,0l0,0l0,0l0,0l0,0l0,0l0,0l0,0l0,0l0,0l0,0c0,0,0,0,0,0.1l0,0l0,0l0,0l0,0
						l0,0l0,0l0,0l0,0l0,0l0,0l0,0l0,0l0,0l0,0l0,0l0,0l0,0l0,0l0,0l0,0l0,0l0,0l0,0l0,0l0,0l0,0l0,0c0,0,0,0,0,0l0,0l0,0l0,0l0,0
						l0,0l0,0l0,0l0,0l0,0l0,0l0,0l0,0l0,0l0,0l0,0l0,0l0,0l0,0l0,0l0,0l0,0l0,0l0,0l0,0l0,0l0,0l0,0l0,0l0,0l0,0l0,0l0,0l0,0l0,0
						l0,0l0,0l0,0c0,0,0,0,0,0l0,0l0,0l0,0l0,0l0,0l0,0l0,0l0,0l0,0l0,0l0,0l0,0l0,0l0,0l0,0l0,0l0,0l0,0l0,0l0,0l0,0l0,0l0,0l0,0
						l0,0l0,0l0,0l0,0l0,0l0,0l0,0l0,0l0,0l0,0l0,0l0,0l0,0l0,0l0,0l0,0l0,0c0,0,0,0,0,0l0,0l0,0l0,0l0,0l0,0l0,0l0,0l0,0l0,0l0,0
						l0,0l0,0l0,0l0,0l0,0l0,0l0,0l0,0l0,0l0,0l0,0l0,0l0,0l0,0l0,0l0,0l0,0l0,0l0,0l0,0l0,0l0,0l0,0l0,0l0,0l0,0l0,0l0,0l0,0l0,0
						l0,0l0,0l0,0l0,0l0,0l0,0l0,0l0,0l0,0l0,0l0,0l0,0l0,0l0,0l0,0l0,0l0,0l0,0l0,0l0,0l0,0l0,0l0,0l0,0l0,0l0,0l0,0l0,0l0,0l0,0
						l0,0l0,0l0,0l0,0l0,0l0,0c0,0,0,0,0,0l0,0l0,0l0,0l0,0l0,0l0,0l0,0l0,0l0,0l0,0l0,0l0,0l0,0l0,0l0,0l0,0l0,0l0,0l0,0l0,0l0,0
						l0,0l0,0l0,0l0,0l0,0l0,0l0,0l0,0l0,0l0,0l0,0l0,0l0,0l0,0l0,0l0,0l0,0l0,0l0,0l0,0l0,0l0,0l0,0l0,0l0,0l0,0l0,0l0,0l0,0l0,0
						l0,0l0,0l0,0l0,0l0,0l0,0l0,0l0,0l0,0l0,0l0,0l0,0l0,0l0,0l0,0l0,0l0,0l0,0l0,0l0,0l0,0l0,0l0,0l0,0l0,0l0,0l0,0l0,0
						c0,0,0,0,0,0l0,0l0,0l0,0l0,0l0,0l0,0l0,0l0,0l0,0l0.5-0.4C432.1,97.1,431.8,96.5,431.6,95.8L431.6,95.8z M432.9,98.1l-0.4,0.4
						c0.1,0.1,0.2,0.2,0.3,0.3l0,0l0,0l0,0l0,0l0,0l0,0l0,0l0,0l0,0l0,0l0,0l0,0l0,0l0,0l0,0l0,0l0,0l0,0l0,0l0,0l0,0l0,0l0,0l0,0
						l0,0l0,0l0,0l0,0l0,0l0,0l0,0l0,0l0,0l0,0l0,0l0,0l0,0l0,0l0,0l0,0l0,0l0,0l0,0l0,0l0,0l0,0l0,0l0,0l0,0l0,0l0,0l0,0l0,0l0,0
						l0,0l0,0l0,0l0,0l0,0l0,0l0,0l0,0l0,0l0,0l0,0l0,0l0,0l0,0l0,0l0,0l0,0l0,0l0,0l0,0l0,0l0,0l0,0l0,0l0,0l0,0l0,0l0,0l0,0l0,0
						l0,0l0,0c0,0,0,0,0,0l0,0l0,0l0,0l0,0l0,0l0,0l0,0l0,0l0,0l0,0l0,0l0,0l0,0l0,0l0,0l0,0l0,0l0,0l0,0l0,0l0,0l0,0l0,0l0,0l0,0
						c0.1,0.1,0.1,0.1,0.2,0.1l0,0l0,0l0,0c0,0,0.1,0.1,0.1,0.1l0,0l0,0l0,0l0,0l0,0l0,0l0,0l0,0l0,0l0,0l0,0l0,0l0,0l0,0l0,0l0,0
						l0,0l0,0l0,0c0,0,0,0,0,0l0,0l0,0l0,0l0,0l0,0l0,0l0,0l0,0l0,0l0,0l0,0l0,0l0,0l0,0l0,0l0,0l0,0l0,0l0,0l0,0l0,0l0,0l0,0l0,0
						l0,0l0,0l0,0l0,0l0,0l0,0l0,0l0,0l0,0l0,0l0,0c0,0,0,0,0,0l0,0l0,0l0,0l0,0l0,0l0,0l0,0l0,0l0,0l0,0l0,0l0,0l0,0l0,0l0,0l0,0
						l0,0l0,0l0,0l0,0l0,0l0,0l0,0l0,0l0,0l0,0l0,0l0,0l0,0l0,0l0,0l0,0l0,0l0,0l0,0l0,0l0,0l0,0l0,0l0,0l0,0l0,0l0,0l0,0l0,0l0,0
						l0,0l0,0l0,0l0,0l0,0l0,0l0,0l0,0l0,0l0,0l0,0l0,0l0,0l0,0l0,0l0,0l0,0l0,0l0,0l0,0l0,0l0,0l0,0l0,0l0,0l0,0l0,0l0,0l0,0l0,0
						l0,0l0,0l0,0l0,0l0,0l0,0l0,0l0,0l0,0l0,0l0,0l0,0l0,0l0,0l0,0l0,0l0,0l0,0c0,0,0,0,0,0l0,0l0,0l0,0l0,0l0,0l0,0l0,0l0,0l0,0
						l0,0l0,0l0,0l0,0l0,0l0,0l0,0l0,0l0,0l0,0l0,0l0,0l0,0l0,0l0,0l0,0l0,0l0,0l0,0l0,0l0,0l0,0l0,0l0,0l0,0l0,0l0,0l0,0l0,0l0,0
						c0,0,0,0,0,0l0,0l0,0l0,0l0,0l0,0l0,0l0,0l0,0l0,0l0,0l0,0l0,0l0,0l0,0l0,0l0,0l0,0l0,0l0,0l0,0l0,0l0,0l0,0l0,0l0,0
						c0,0,0.1,0,0.1,0.1l0,0l0,0l0,0l0,0l0,0l0,0l0,0l0,0l0,0c0,0,0.1,0,0.1,0.1l0,0l0,0l0,0l0,0l0,0l0,0l0,0l0,0l0,0h0l0,0
						c0,0,0,0,0.1,0l0,0l0,0l0,0l0,0l0,0l0,0l0,0l0,0l0,0l0,0l0,0l0,0l0,0l0,0l0,0l0,0l0,0l0,0l0,0l0,0l0,0l0,0l0,0l0,0l0,0
						c0,0,0,0,0,0l0,0l0,0l0,0l0,0l0,0l0,0l0,0l0,0l0,0l0,0l0,0l0,0l0,0l0,0l0,0l0,0l0,0l0,0l0,0l0,0l0,0l0,0l0,0l0,0l0,0l0,0l0,0
						l0,0l0,0l0,0l0,0l0,0l0,0l0,0l0,0l0,0l0,0l0,0l0,0l0,0l0,0l0,0l0,0h0l0,0l0,0l0,0l0,0l0,0l0,0l0,0l0,0l0,0l0,0l0,0l0,0l0,0l0,0
						l0,0l0,0l0,0l0,0l0,0l0,0l0,0l0,0l0,0l0,0l0,0l0,0l0,0l0,0l0,0l0,0l0,0l0,0l0,0l0,0l0,0l0,0l0,0l0,0l0,0l0,0l0,0l0,0h0l0.3-0.5
						C434,99.1,433.4,98.7,432.9,98.1L432.9,98.1z M435.2,99.6l-0.2,0.6c0.3,0.1,0.6,0.2,1,0.3l0,0l0,0l0,0l0,0l0,0c0,0,0,0,0,0l0,0
						l0,0l0,0l0,0l0,0l0,0l0,0l0,0l0,0c0,0,0,0,0,0l0,0l0,0l0,0l0,0l0,0l0,0l0,0l0,0l0,0l0,0l0,0c0,0,0,0,0,0l0,0l0,0l0,0l0,0l0,0
						l0,0l0,0l0,0l0,0l0,0l0,0l0,0l0,0h0l0,0l0,0l0,0l0,0l0,0l0,0l0,0l0,0l0,0l0,0l0,0l0,0l0,0h0l0,0l0,0l0,0l0,0l0,0l0,0l0,0l0,0
						l0,0l0,0l0,0l0,0l0,0l0,0l0,0h0l0,0l0,0l0,0l0,0l0,0l0,0l0,0l0,0l0,0l0,0l0,0l0,0l0,0l0,0l0,0l0,0l0,0l0,0l0,0l0,0l0,0l0,0l0,0
						l0,0l0,0l0,0l0,0l0,0l0,0l0,0l0,0l0,0l0,0l0,0l0,0l0,0l0,0l0,0l0,0l0,0l0,0l0,0l0,0l0,0l0,0l0,0l0,0l0,0l0,0l0,0l0,0l0,0l0,0
						l0,0l0,0l0,0l0,0l0,0l0,0l0,0l0,0l0,0l0,0l0,0l0,0l0,0c0,0,0,0,0,0l0,0l0,0l0,0l0,0l0,0l0,0l0,0l0,0l0,0l0,0l0,0l0,0l0,0l0,0
						l0,0c0,0,0,0,0,0l0,0l0,0l0,0l0,0l0,0l0,0l0,0l0,0l0,0l0,0l0,0l0,0l0,0l0,0l0,0h0l0,0l0,0l0,0l0,0l0,0l0,0l0,0l0,0l0,0l0,0l0,0
						l0,0l0,0l0,0l0,0l0,0l0,0l0,0l0,0l0,0l0,0l0,0l0,0l0,0l0,0l0,0l0,0l0,0l0,0l0,0l0,0l0,0l0,0c0,0,0,0,0,0l0,0l0,0l0,0l0,0l0,0
						l0,0l0,0l0,0l0,0l0,0l0,0l0,0l0,0l0,0l0,0c0,0,0,0,0,0l0,0l0,0l0,0l0,0l0,0l0,0l0,0l0,0l0,0l0,0l0,0l0,0l0,0l0,0l0,0h0l0,0l0,0
						l0,0l0,0l0,0l0,0l0,0l0,0l0,0l0,0l0,0l0,0l0,0l0,0l0,0c0,0,0,0,0,0l0,0l0,0l0,0l0,0l0,0l0,0l0,0l0,0l0,0l0,0l0,0l0,0l0,0l0,0
						l0,0h0l0,0l0,0l0,0l0,0l0,0l0,0l0,0l0,0l0,0l0,0l0,0l0,0l0,0l0,0l0,0c0,0,0,0,0,0l0,0l0,0l0,0l0,0l0,0l0,0l0,0l0,0l0,0l0,0l0,0
						l0,0l0,0l0,0l0,0h0l0,0l0,0l0,0l0,0l0,0l0,0l0,0l0,0l0,0l0,0l0,0l0,0l0,0h0l0,0l0,0l0,0l0,0l0,0l0,0l0,0l0,0l0,0l0,0l0,0l0,0
						l0,0l0,0l0,0c0,0,0,0,0,0l0,0c0,0,0,0,0,0l0,0l0,0l0,0l0,0l0,0l0,0l0,0l0,0l0,0l0,0l0,0l0,0l0,0l0,0l0,0c0,0,0,0,0,0l0,0l0,0
						l0,0l0,0l0,0l0,0l0,0l0,0l0,0l0,0l0,0l0,0l0,0l0,0l0,0c0,0,0,0,0,0l0,0l0,0l0,0l0,0l0,0l0,0l0,0l0,0l0,0l0,0l0,0l0,0l0,0l0,0
						l0,0l0,0l0,0c0,0,0,0,0,0l0,0l0,0l0,0l0,0l0,0l0,0l0,0l0,0l0,0l0,0l0,0l0,0l0,0l0,0l0,0c0,0,0,0,0,0l0,0l0,0l0,0l0,0l0,0l0,0
						l0,0l0,0l0,0l0,0l0,0l0,0l0,0l0,0l0,0h0l0,0l0,0l0,0l0,0l0,0l0,0l0,0l0,0l0,0l0,0l0,0l0,0l0,0l0,0l0,0l0,0l0,0l0,0l0,0l0,0l0,0
						l0,0l0,0l0,0l0,0l0,0l0,0l0,0l0,0l0,0l0,0l0,0l0,0l0,0l0,0l0,0l0,0l0,0l0,0l0,0l0,0l0,0l0,0l0,0l0,0l0,0l0,0l0,0l0,0
						c0,0,0,0,0,0l0,0l0,0l0,0l0,0l0,0l0,0l0,0l0,0l0,0l0,0l0,0l0,0l0,0l0,0l0,0c0,0,0,0,0,0l0,0l0,0c0,0,0,0,0,0l0,0l0,0
						c0,0,0,0,0.1,0l0-0.6h-0.1C436.6,100,435.9,99.9,435.2,99.6L435.2,99.6z M440,99.4c-0.6,0.3-1.4,0.6-2.1,0.6l0.1,0.6
						c0.1,0,0.1,0,0.2,0l0,0l0,0l0,0l0,0l0,0l0,0l0,0l0,0l0,0c0,0,0,0,0.1,0l0,0l0,0l0,0l0,0l0,0l0,0l0,0l0,0l0,0l0,0l0,0l0,0l0,0
						c0,0,0,0,0,0l0,0l0,0l0,0l0,0l0,0l0,0l0,0l0,0l0,0l0,0l0,0l0,0l0,0l0,0l0,0l0,0l0,0c0,0,0,0,0,0l0,0l0,0l0,0l0,0l0,0l0,0l0,0
						l0,0l0,0l0,0l0,0l0,0l0,0l0,0l0,0l0,0l0,0l0,0l0,0l0,0l0,0c0,0,0,0,0,0l0,0l0,0l0,0l0,0l0,0l0,0l0,0l0,0l0,0l0,0l0,0l0,0l0,0
						l0,0l0,0l0,0l0,0l0,0l0,0l0,0l0,0c0,0,0,0,0,0l0,0l0,0l0,0l0,0l0,0l0,0l0,0l0,0l0,0l0,0l0,0l0,0l0,0l0,0l0,0l0,0l0,0l0,0l0,0
						l0,0l0,0l0,0l0,0c0,0,0,0,0,0l0,0l0,0l0,0l0,0l0,0l0,0l0,0l0,0l0,0l0,0l0,0l0,0l0,0l0,0l0,0l0,0l0,0l0,0l0,0l0,0l0,0
						c0,0,0,0,0,0l0,0l0,0l0,0l0,0l0,0l0,0l0,0l0,0l0,0l0,0l0,0l0,0l0,0l0,0l0,0l0,0l0,0l0,0l0,0l0,0l0,0c0,0,0,0,0,0l0,0l0,0l0,0
						l0,0l0,0l0,0l0,0l0,0l0,0l0,0l0,0l0,0l0,0l0,0l0,0l0,0l0,0l0,0l0,0c0,0,0,0,0,0l0,0l0,0l0,0l0,0l0,0l0,0l0,0l0,0l0,0l0,0l0,0
						l0,0l0,0l0,0l0,0l0,0l0,0l0,0l0,0c0,0,0,0,0,0l0,0l0,0l0,0l0,0l0,0l0,0l0,0l0,0l0,0l0,0l0,0l0,0l0,0l0,0l0,0l0,0l0,0
						c0,0,0,0,0,0l0,0l0,0l0,0l0,0l0,0l0,0l0,0l0,0l0,0l0,0l0,0l0,0l0,0l0,0l0,0c0,0,0,0,0.1,0l0,0c0.3-0.1,0.7-0.2,1-0.4l0,0l0,0
						l0,0l0,0l0,0l0,0l0,0c0,0,0,0,0,0l0,0l0,0l0,0l0,0l0,0l0,0l0,0l0,0l0,0l0,0l0,0l0,0l0,0l0,0l0,0l0,0l0,0l0,0l0,0l0,0l0,0
						c0,0,0,0,0,0l0,0l0,0l0,0l0,0l0,0l0,0l0,0l0,0l0,0l0,0l0,0l0,0l0,0l0,0l0,0l0,0l0,0l0,0l0,0l0,0l0,0l0,0l0,0l0,0l0,0l0,0l0,0
						l0,0l0,0l0,0l0,0l0,0l0,0l0,0l0,0L440,99.4L440,99.4z M442,97.6c-0.4,0.6-1,1.1-1.6,1.5l0.3,0.5c0.2-0.1,0.4-0.3,0.6-0.5l0,0
						l0,0l0,0c0,0,0,0,0.1-0.1l0,0c0,0,0,0,0,0l0,0l0,0l0,0l0,0l0,0l0,0l0,0l0,0l0,0l0,0l0,0l0,0l0,0l0,0l0,0l0,0l0,0l0,0l0,0l0,0
						l0,0l0,0l0,0l0,0l0,0l0,0l0,0l0,0l0,0c0,0,0,0,0,0l0,0l0,0l0,0l0,0l0,0l0,0l0,0l0,0l0,0l0,0l0,0l0,0l0,0l0,0l0,0l0,0l0,0l0,0
						l0,0l0,0l0,0l0,0l0,0l0,0l0,0l0,0l0,0l0,0l0,0l0,0l0,0l0,0l0,0l0,0l0,0l0,0l0,0l0,0l0,0l0,0l0,0l0,0l0,0l0,0l0,0l0,0l0,0l0,0
						l0,0l0,0l0,0l0,0l0,0l0,0l0,0l0,0l0,0l0,0l0,0l0,0l0,0l0,0l0,0l0,0l0,0l0,0l0,0l0,0l0,0l0,0l0,0l0,0l0,0l0,0l0,0l0,0l0,0l0,0
						l0,0l0,0l0,0l0,0l0,0l0,0l0,0l0,0l0,0l0,0l0,0l0,0l0,0l0,0l0,0l0,0l0,0l0,0l0,0l0,0l0,0l0,0l0,0l0,0l0,0l0,0l0,0l0,0l0,0l0,0
						l0,0l0,0l0,0l0,0l0,0l0,0l0,0l0,0l0,0l0,0l0,0l0,0l0,0l0,0l0,0l0,0l0,0l0,0l0,0l0,0l0,0l0,0l0,0l0,0l0,0l0,0l0,0l0,0l0,0l0,0
						l0,0l0,0l0,0l0,0l0,0l0,0l0,0l0,0l0,0l0,0l0,0l0,0l0,0l0,0l0,0l0,0l0,0l0,0l0,0l0,0l0,0l0,0l0,0l0,0l0,0l0,0l0,0l0,0l0,0l0,0
						l0,0l0,0l0,0l0,0l0,0l0,0l0,0l0,0l0,0l0,0l0,0l0,0l0,0l0,0l0,0l0,0l0,0l0,0l0,0l0,0l0,0l0,0l0,0l0,0l0,0l0,0l0,0l0,0l0,0l0,0
						l0,0l0,0l0,0l0,0l0,0l0,0l0,0l0,0l0,0l0,0l0,0l0,0l0,0l0,0l0,0l0,0l0,0l0,0l0,0l0,0l0,0l0,0l0,0l0,0l0,0l0,0l0,0l0,0l0,0l0,0
						l0,0l0,0l0,0l0,0l0,0l0,0l0,0l0,0l0,0l0,0l0,0l0,0l0,0l0,0l0,0l0,0l0,0l0,0l0,0l0,0l0,0l0,0l0,0l0,0l0,0l0,0l0,0l0,0l0,0l0,0
						l0,0l0,0l0,0l0,0l0,0l0,0l0,0l0,0l0,0l0,0c0,0,0,0,0,0l0,0l0,0l0,0l0,0l0,0l0,0l0,0l0,0l0,0l0,0l0,0l0,0l0,0l0,0l0,0l0,0l0,0
						l0,0l0,0l0,0l0,0l0,0l0,0l0,0l0,0l0,0l0,0l0,0l0,0l0,0l0,0l0,0l0,0l0,0l0,0l0,0l0,0l0,0l0,0l0,0l0,0l0,0l0,0l0,0l0,0l0,0l0,0
						l0,0l0,0l0,0l0,0l0,0l0,0l0,0l0,0l0,0l0,0l0,0l0,0l0,0l0,0l0,0l0,0l0,0l0,0l0,0l0,0l0,0l0,0l0,0l0,0l0,0l0,0l0,0l0,0l0,0l0,0
						l0,0l0,0l0,0l0,0l0,0l0,0l0,0l0,0l0,0l0,0l0,0l0,0l0,0l0,0l0,0l0,0l0,0l0,0l0,0l0,0l0,0l0,0l0,0l0,0l0,0l0,0l0,0l0,0
						c0,0,0,0,0,0l0,0l0,0l0,0l0,0l0,0l0,0l0,0l0,0l0,0l0,0l0,0l0,0l0,0l0,0l0,0l0,0l0,0l0,0l0,0l0,0l0,0l0,0l0,0l0,0l0,0l0,0l0,0
						l0,0l0,0l0,0l0,0l0,0l0,0l0,0l0,0l0,0l0,0c0.1-0.1,0.1-0.2,0.2-0.3L442,97.6L442,97.6z M443.1,95.1c-0.1,0.7-0.4,1.4-0.8,2.1
						l0.5,0.3c0.1-0.2,0.3-0.5,0.4-0.7l0,0l0,0l0,0l0,0l0,0l0,0l0,0c0,0,0,0,0-0.1l0,0l0,0l0,0l0,0l0,0l0,0l0,0l0,0l0,0l0,0l0,0l0,0
						l0,0l0,0l0,0l0,0l0,0l0,0l0,0c0,0,0,0,0,0l0,0l0,0l0,0l0,0l0,0l0,0l0,0l0,0l0,0l0,0l0,0l0,0l0,0l0,0l0,0l0,0l0,0l0,0l0,0l0,0
						l0,0l0,0l0,0l0,0l0,0c0,0,0,0,0,0l0,0l0,0l0,0l0,0l0,0l0,0l0,0l0,0l0,0l0,0l0,0l0,0l0,0l0,0l0,0l0,0l0,0l0,0l0,0l0,0l0,0l0,0
						l0,0l0,0l0,0l0,0l0,0l0,0l0,0l0,0l0,0v0l0,0l0,0l0,0l0,0l0,0l0,0l0,0l0,0l0,0l0,0l0,0l0,0l0,0l0,0l0,0l0,0l0,0l0,0l0,0l0,0l0,0
						l0,0l0,0l0,0l0,0l0,0l0,0l0,0l0,0l0,0l0,0l0,0l0,0v0l0,0l0,0l0,0l0,0l0,0l0,0l0,0l0,0l0,0l0,0l0,0l0,0l0,0l0,0l0,0l0,0l0,0l0,0
						l0,0l0,0l0,0l0,0l0,0l0,0l0,0l0,0l0,0l0,0l0,0l0,0l0,0l0,0l0,0l0,0l0,0l0,0l0,0l0,0l0,0l0,0l0,0l0,0l0,0l0,0l0,0l0,0l0,0l0,0
						l0,0l0,0l0,0l0,0l0,0l0,0l0,0l0,0l0,0l0,0l0,0l0,0l0,0l0,0l0,0l0,0l0,0l0,0l0,0c0,0,0,0,0,0l0,0l0,0l0,0l0,0l0,0l0,0l0,0l0,0
						l0,0l0,0l0,0l0,0l0,0l0,0l0,0l0,0l0,0l0,0l0,0l0,0l0,0l0,0l0,0l0,0l0,0l0,0l0,0l0,0l0,0l0,0l0,0l0,0l0,0l0,0l0,0l0,0l0,0l0,0
						l0,0l0,0l0,0l0,0l0,0l0,0l0,0l0,0l0,0l0,0l0,0l0,0l0,0l0,0l0,0l0,0l0,0l0,0l0,0l0,0l0,0l0,0l0,0l0,0l0,0l0,0l0,0l0,0l0,0l0,0
						l0,0v0l0,0l0,0l0,0l0,0l0,0l0,0l0,0l0,0l0,0l0,0l0,0l0,0l0,0l0,0l0,0l0,0l0,0l0,0l0,0l0,0l0,0l0,0l0,0l0,0l0,0l0,0l0,0l0,0l0,0
						l0,0l0,0c0,0,0,0,0,0l0,0l0,0l0,0l0,0l0,0l0,0l0,0l0,0l0,0l0,0l0,0l0,0l0,0l0,0l0,0l0,0l0,0l0,0l0,0l0,0l0,0l0,0l0,0l0,0l0,0
						l0,0l0,0c0,0,0,0,0,0l0,0l0,0l0,0l0,0l0,0l0,0l0,0l0,0l0,0l0,0l0,0l0,0l0,0l0,0l0,0l0,0l0,0l0,0l0,0c0-0.2,0.1-0.4,0.1-0.6
						L443.1,95.1L443.1,95.1z M443.5,92.2l-0.6,0.2c0.2,0.6,0.3,1.1,0.3,1.7c0,0.1,0,0.3,0,0.4l0.6,0c0-0.1,0-0.1,0-0.2l0,0v0l0,0
						l0,0l0,0l0,0l0,0l0,0l0,0l0,0l0,0l0,0l0,0l0,0l0,0l0,0l0,0l0,0l0,0l0,0l0,0l0,0l0,0l0,0l0,0l0,0l0,0l0,0l0,0l0,0c0,0,0,0,0,0
						l0,0l0,0l0,0c0,0,0,0,0,0l0,0l0,0l0,0v0l0,0c0,0,0,0,0,0l0,0c0,0,0,0,0,0l0,0v0l0,0c0,0,0,0,0,0l0,0c0,0,0,0,0,0l0,0v0l0,0v0
						l0,0l0,0l0,0c0,0,0,0,0,0l0,0l0,0l0,0c0,0,0,0,0,0l0,0l0,0C443.8,93.5,443.7,92.9,443.5,92.2L443.5,92.2L443.5,92.2L443.5,92.2
						L443.5,92.2L443.5,92.2L443.5,92.2L443.5,92.2C443.5,92.3,443.5,92.3,443.5,92.2L443.5,92.2C443.5,92.2,443.5,92.2,443.5,92.2
						L443.5,92.2L443.5,92.2L443.5,92.2L443.5,92.2L443.5,92.2z M442,89.6l-0.4,0.4c0.5,0.5,0.9,1.1,1.2,1.8l0.6-0.2
						c0-0.1-0.1-0.2-0.1-0.3l0,0l0,0l0,0l0,0l0,0l0,0l0,0l0,0l0,0l0,0l0,0l0,0l0,0l0,0l0,0l0,0l0,0l0,0l0,0l0,0l0,0l0,0l0,0l0,0l0,0
						l0,0l0,0l0,0l0,0l0,0l0,0l0,0l0,0c0,0,0,0,0,0l0,0l0,0l0,0l0,0l0,0l0,0l0,0l0,0l0,0l0,0l0,0l0,0l0,0l0,0l0,0l0,0l0,0l0,0l0,0
						l0,0l0,0l0,0l0,0l0,0l0,0l0,0l0,0l0,0l0,0l0,0l0,0l0,0l0,0l0,0l0,0l0,0l0,0l0,0l0,0l0,0l0,0l0,0l0,0l0,0c0,0,0,0,0,0l0,0l0,0
						l0,0l0,0l0,0l0,0l0,0l0,0l0,0l0,0l0,0l0,0l0,0l0,0l0,0l0,0l0,0l0,0l0,0l0,0l0,0l0,0l0,0l0,0l0,0l0,0l0,0l0,0l0,0l0,0l0,0
						c0,0,0-0.1,0-0.1l0,0C442.7,90.4,442.4,90,442,89.6L442,89.6z M439.5,88l-0.2,0.6c0.7,0.3,1.3,0.6,1.9,1.1l0.4-0.5l0,0l0,0l0,0
						l0,0l0,0l0,0l0,0l0,0l0,0l0,0l0,0l0,0l0,0l0,0l0,0l0,0l0,0l0,0l0,0l0,0l0,0l0,0l0,0l0,0l0,0l0,0l0,0l0,0l0,0l0,0c0,0,0,0,0,0
						l0,0l0,0l0,0l0,0l0,0l0,0l0,0l0,0l0,0l0,0l0,0l0,0l0,0l0,0l0,0l0,0l0,0l0,0l0,0l0,0l0,0l0,0l0,0l0,0l0,0l0,0l0,0l0,0l0,0l0,0
						l0,0l0,0l0,0l0,0l0,0l0,0l0,0l0,0l0,0l0,0l0,0l0,0l0,0c0,0,0,0,0,0l0,0l0,0l0,0l0,0l0,0l0,0l0,0l0,0l0,0l0,0l0,0l0,0l0,0l0,0
						l0,0l0,0l0,0l0,0l0,0l0,0l0,0l0,0l0,0l0,0l0,0l0,0l0,0l0,0l0,0l0,0l0,0l0,0l0,0l0,0l0,0l0,0l0,0l0,0l0,0l0,0l0,0c0,0,0,0,0,0
						l0,0l0,0l0,0l0,0l0,0l0,0l0,0l0,0l0,0l0,0l0,0l0,0l0,0l0,0l0,0l0,0l0,0l0,0l0,0l0,0l0,0l0,0l0,0l0,0l0,0l0,0l0,0l0,0l0,0l0,0
						l0,0l0,0l0,0l0,0l0,0l0,0l0,0l0,0l0,0l0,0l0,0l0,0l0,0c0,0,0,0,0,0l0,0l0,0l0,0l0,0l0,0l0,0l0,0l0,0l0,0l0,0l0,0l0,0l0,0l0,0
						l0,0l0,0l0,0l0,0l0,0l0,0l0,0l0,0l0,0l0,0l0,0l0,0l0,0l0,0l0,0l0,0l0,0l0,0l0,0l0,0l0,0l0,0l0,0l0,0l0,0c0,0,0,0,0,0l0,0l0,0
						l0,0l0,0l0,0l0,0l0,0l0,0l0,0l0,0l0,0l0,0l0,0l0,0l0,0l0,0l0,0l0,0l0,0l0,0l0,0l0,0l0,0l0,0l0,0l0,0l0,0l0,0l0,0l0,0l0,0l0,0
						l0,0l0,0l0,0l0,0l0,0l0,0l0,0c0,0,0,0,0,0l0,0l0,0l0,0l0,0l0,0l0,0l0,0l0,0l0,0l0,0l0,0l0,0l0,0l0,0l0,0l0,0l0,0l0,0l0,0l0,0
						l0,0l0,0l0,0l0,0l0,0l0,0l0,0l0,0l0,0l0,0l0,0l0,0l0,0l0,0l0,0l0,0l0,0l0,0l0,0l0,0l0,0l0,0l0,0l0,0l0,0c0,0,0,0,0,0l0,0l0,0
						l0,0l0,0l0,0l0,0l0,0l0,0l0,0l0,0l0,0l0,0l0,0l0,0l0,0l0,0l0,0l0,0l0,0l0,0l0,0l0,0l0,0l0,0l0,0l0,0l0,0l0,0l0,0l0,0l0,0l0,0
						l0,0l0,0l0,0l0,0l0,0l0,0l0,0c0,0,0,0,0,0l0,0l0,0l0,0l0,0l0,0l0,0l0,0l0,0l0,0l0,0l0,0l0,0l0,0l0,0l0,0l0,0l0,0l0,0l0,0l0,0
						l0,0l0,0l0,0l0,0l0,0l0,0l0,0l0,0l0,0l0,0l0,0l0,0l0,0l0,0l0,0l0,0l0,0l0,0l0,0l0,0l0,0c0,0,0,0,0,0l0,0l0,0l0,0l0,0l0,0l0,0
						l0,0l0,0l0,0l0,0l0,0l0,0l0,0l0,0l0,0l0,0l0,0l0,0l0,0l0,0l0,0l0,0l0,0l0,0l0,0l0,0l0,0l0,0l0,0l0,0l0,0l0,0l0,0l0,0l0,0l0,0
						l0,0l0,0l0,0l0,0l0,0l0,0l0,0l0,0l0,0l0,0l0,0h0l0,0l0,0l0,0l0,0l0,0l0,0l0,0l0,0l0,0l0,0l0,0l0,0l0,0l0,0l0,0l0,0l0,0l0,0l0,0
						l0,0l0,0l0,0l0,0l0,0l0,0l0,0l0,0l0,0l0,0l0,0l0,0l0,0l0,0l0,0l0,0l0,0l0,0l0,0l0,0l0,0l0,0l0,0l0,0l0,0l0,0l0,0l0,0l0,0l0,0
						l0,0l0,0l0,0l0,0l0,0l0,0l0,0l0,0l0,0l0,0l0,0l0,0l0,0l0,0l0,0l0,0l0,0l0,0l0,0l0,0l0,0l0,0l0,0l0,0l0,0l0,0l0,0l0,0l0,0l0,0
						l0,0l0,0l0,0l0,0l0,0l0,0l0,0l0,0l0,0c0,0,0,0,0,0l0,0l0,0l0,0l0,0l0,0l0,0l0,0l0,0l0,0l0,0l0,0l0,0l0,0l0,0l0,0l0,0l0,0l0,0
						l0,0l0,0l0,0l0,0l0,0l0,0l0,0l0,0l0,0l0,0l0,0l0,0l0,0l0,0l0,0c0,0,0,0-0.1,0l0,0C440,88.2,439.7,88.1,439.5,88L439.5,88z
						 M437.3,87.6v0.6c0.5,0,1,0.1,1.5,0.2l0.1-0.6c-0.4-0.1-0.9-0.2-1.4-0.2l0,0c0,0,0,0,0,0l0,0h0l0,0c0,0,0,0,0,0l0,0h0l0,0
						c0,0,0,0,0,0l0,0h0l0,0c0,0,0,0,0,0l0,0h0l0,0h0l0,0l0,0l0,0h0l0,0h0l0,0l0,0l0,0h0l0,0c0,0,0,0,0,0l0,0l0,0l0,0l0,0l0,0
						L437.3,87.6L437.3,87.6L437.3,87.6L437.3,87.6L437.3,87.6L437.3,87.6L437.3,87.6L437.3,87.6L437.3,87.6L437.3,87.6L437.3,87.6
						L437.3,87.6L437.3,87.6L437.3,87.6L437.3,87.6L437.3,87.6L437.3,87.6L437.3,87.6L437.3,87.6L437.3,87.6L437.3,87.6L437.3,87.6
						L437.3,87.6L437.3,87.6L437.3,87.6L437.3,87.6L437.3,87.6L437.3,87.6L437.3,87.6L437.3,87.6C437.3,87.6,437.3,87.6,437.3,87.6
						L437.3,87.6C437.3,87.6,437.3,87.6,437.3,87.6L437.3,87.6z"/>
				</g>
			</g>
		</g>
		<g>
			<g>
				<g>
					<g>
						<path class="st1" d="M442.4,94.1L442.4,94.1c0,2.8-2.3,5.1-5.1,5.1c-2.8,0-5.1-2.3-5.1-5.1v0c0-2.8,2.3-5.1,5.1-5.1
							C440.1,88.9,442.4,91.3,442.4,94.1z"/>
					</g>
				</g>
			</g>
			<g>
				<path class="st1" d="M442.4,94.1c0,2.8-2.3,5.1-5.1,5.1c-2.8,0-5.1-2.3-5.1-5.1H442.4z"/>
			</g>
			<g>
				<g>
					<g>
						<path class="st1" d="M441.4,94.1L441.4,94.1c0,2.3-1.8,4.1-4.1,4.1s-4.1-1.8-4.1-4.1v0c0-2.3,1.8-4.1,4.1-4.1
							S441.4,91.8,441.4,94.1z"/>
					</g>
				</g>
			</g>
		</g>
	</g>
	<g>
		<g>
			<g>
				<g>
					<path class="st1" d="M348.7,99.6h-3.8V94c0-6.4-5.2-11.7-11.7-11.7s-11.7,5.2-11.7,11.7v5.7h-3.8V94c0-8.6,7-15.5,15.5-15.5
						s15.5,7,15.5,15.5V99.6z"/>
				</g>
			</g>
		</g>
		<g>
			<g>
				<g>
					<path class="st1" d="M315.4,99.6h-3.8V94c0-6.4-5.2-11.7-11.7-11.7s-11.7,5.2-11.7,11.7v5.7h-3.8V94c0-8.6,7-15.5,15.5-15.5
						s15.5,7,15.5,15.5V99.6z"/>
				</g>
			</g>
		</g>
		<path class="st1" d="M329.5,78.6h-26.1c-9.7,0-17.5,7.8-17.5,17.5v3.5h61v-3.5C346.9,86.5,339.1,78.6,329.5,78.6z"/>
		<g>
			<g>
				<g>
					<path class="st1" d="M346.8,94c0-7.5-6.1-13.6-13.6-13.6c-7.5,0-13.6,6.1-13.6,13.6v5.7h27.2L346.8,94L346.8,94z"/>
				</g>
			</g>
		</g>
		<g>
			<g>
				<g>
					<ellipse class="st1" cx="333.2" cy="94.1" rx="11.9" ry="11.9"/>
				</g>
			</g>
		</g>
		<g>
			<g>
				<g>
					<path class="st1" d="M333.2,82.2c-6.6,0-11.9,5.3-11.9,11.9h1.5c0-5.7,4.6-10.4,10.4-10.4s10.4,4.6,10.4,10.4h1.5
						C345.1,87.5,339.8,82.2,333.2,82.2z"/>
				</g>
			</g>
		</g>
		<g>
			<g>
				<g>
					<path class="st0" d="M340.7,94.1L340.7,94.1c0,4.2-3.4,7.5-7.5,7.5c-4.1,0-7.5-3.3-7.5-7.5v0c0-4.1,3.4-7.4,7.5-7.4
						C337.3,86.6,340.7,90,340.7,94.1z"/>
				</g>
			</g>
		</g>
		<g>
			<path class="st1" d="M340.7,94.1L340.7,94.1l-15,0v0c0-4.1,3.4-7.4,7.5-7.4C337.3,86.6,340.7,90,340.7,94.1z"/>
		</g>
		<g>
			<g>
				<g>
					<path class="st0" d="M339.7,94.1L339.7,94.1c0,3.6-2.9,6.5-6.5,6.5c-3.6,0-6.5-2.9-6.5-6.5v0c0-3.6,2.9-6.5,6.5-6.5
						C336.8,87.6,339.7,90.5,339.7,94.1z"/>
				</g>
			</g>
		</g>
		<g>
			<path class="st1" d="M339.7,94.1c0,3.6-2.9,6.5-6.5,6.5c-3.6,0-6.5-2.9-6.5-6.5H339.7z"/>
		</g>
		<g>
			<g>
				<g>
					<g>
						<path class="st1" d="M338.6,94.1L338.6,94.1c0,3-2.4,5.4-5.4,5.4s-5.4-2.4-5.5-5.4v0c0-3,2.4-5.4,5.5-5.4
							C336.2,88.6,338.6,91.1,338.6,94.1z"/>
					</g>
				</g>
			</g>
			<g>
				<path class="st1" d="M338.6,94.1c0,3-2.4,5.4-5.4,5.4s-5.4-2.4-5.5-5.4H338.6z"/>
			</g>
			<g>
				<g>
					<g>
						<path class="st1" d="M337.5,94.1L337.5,94.1c0,2.4-2,4.4-4.4,4.4c-2.4,0-4.4-1.9-4.4-4.4v0c0-2.4,2-4.3,4.4-4.3
							C335.6,89.7,337.5,91.7,337.5,94.1z"/>
					</g>
				</g>
			</g>
		</g>
	</g>
	<g>
		<g>
			<g>
				<g>
					<path class="st1" d="M313.5,94c0-7.5-6.1-13.6-13.6-13.6c-7.5,0-13.6,6.1-13.6,13.6v5.7h27.2L313.5,94L313.5,94z"/>
				</g>
			</g>
		</g>
		<g>
			<g>
				<g>
					<ellipse class="st1" cx="299.9" cy="94.1" rx="11.9" ry="11.9"/>
				</g>
			</g>
		</g>
		<g>
			<g>
				<g>
					<path class="st1" d="M299.9,82.2c-6.6,0-11.9,5.3-11.9,11.9h1.5c0-5.7,4.6-10.4,10.4-10.4s10.4,4.6,10.4,10.4h1.5
						C311.8,87.5,306.5,82.2,299.9,82.2z"/>
				</g>
			</g>
		</g>
		<g>
			<g>
				<g>
					<path class="st0" d="M307.4,94.1L307.4,94.1c0,4.2-3.4,7.5-7.5,7.5c-4.1,0-7.5-3.3-7.5-7.5v0c0-4.1,3.4-7.4,7.5-7.4
						C304,86.6,307.4,90,307.4,94.1z"/>
				</g>
			</g>
		</g>
		<g>
			<path class="st1" d="M307.4,94.1L307.4,94.1l-15,0v0c0-4.1,3.4-7.4,7.5-7.4C304,86.6,307.4,90,307.4,94.1z"/>
		</g>
		<g>
			<g>
				<g>
					<path class="st0" d="M306.4,94.1L306.4,94.1c0,3.6-2.9,6.5-6.5,6.5c-3.6,0-6.5-2.9-6.5-6.5v0c0-3.6,2.9-6.5,6.5-6.5
						C303.5,87.6,306.4,90.5,306.4,94.1z"/>
				</g>
			</g>
		</g>
		<g>
			<path class="st1" d="M306.4,94.1c0,3.6-2.9,6.5-6.5,6.5c-3.6,0-6.5-2.9-6.5-6.5H306.4z"/>
		</g>
		<g>
			<g>
				<g>
					<g>
						<path class="st1" d="M305.4,94.1L305.4,94.1c0,3-2.4,5.4-5.4,5.4s-5.4-2.4-5.5-5.4v0c0-3,2.4-5.4,5.5-5.4
							C302.9,88.6,305.4,91.1,305.4,94.1z"/>
					</g>
				</g>
			</g>
			<g>
				<path class="st1" d="M305.4,94.1c0,3-2.4,5.4-5.4,5.4s-5.4-2.4-5.5-5.4H305.4z"/>
			</g>
			<g>
				<g>
					<g>
						<path class="st1" d="M304.3,94.1L304.3,94.1c0,2.4-2,4.4-4.4,4.4c-2.4,0-4.4-1.9-4.4-4.4v0c0-2.4,2-4.3,4.4-4.3
							C302.3,89.7,304.3,91.7,304.3,94.1z"/>
					</g>
				</g>
			</g>
		</g>
	</g>
	<path class="st1" d="M313.5,96.3v3.3h6v-3.3c0-0.9-0.7-1.6-1.6-1.6h-2.9C314.2,94.8,313.5,95.5,313.5,96.3z"/>
	<path class="st1" d="M313.5,97.6v2.1h6v-2.1c0-0.8-0.6-1.4-1.5-1.4H315C314.2,96.1,313.5,96.8,313.5,97.6z"/>
	<rect x="281" y="91" class="st1" width="5.3" height="8.6"/>
	<rect x="348.7" y="97.7" class="st1" width="74.9" height="1.9"/>
	<path class="st1" d="M354.4,34.6h1.9v43.8h-4.2V36.9C352.1,35.6,353.1,34.6,354.4,34.6z"/>
	<rect x="356.3" y="72.6" class="st1" width="4.9" height="1"/>
	<rect x="352.1" y="72.6" class="st0" width="4.2" height="1"/>
	<path class="st1" d="M463.7,96.1h0.7v-5.2H461v2.6C461,94.9,462.2,96.1,463.7,96.1z"/>
	<path class="st1" d="M361.2,78.5h-80.1v-0.6c0-0.4,0.4-0.8,0.8-0.8h79.4V78.5z"/>
	<path class="st3" d="M283,91H281V77.8c0-0.4,0.3-0.7,0.7-0.7h1.2V91z"/>
	<rect x="281" y="83.1" class="st3" width="1.9" height="7.9"/>
	<path class="st1" d="M361.2,25.5h-3.5c-0.8,0-1.4,0.6-1.4,1.4v1h4.9V25.5z"/>
	<path class="st0" d="M353.5,32.9h2.8v3.4h-4.2v-2C352.1,33.6,352.8,32.9,353.5,32.9z"/>
	<rect x="305.5" y="75.2" class="st1" width="21.9" height="1.8"/>
	<path class="st1" d="M434.9,27.1l-6.7-0.5l-66.9-4.9v-2.8l64.1,5.3l6.9,0.6C433.1,25.4,434,26.2,434.9,27.1z"/>
	<polygon class="st0" points="361.2,21.6 388.5,23.6 388.5,25.1 361.2,22.9 	"/>
	<path class="st0" d="M460,80.4l-0.8,0.3c0,0-0.9-2.7-2.5-4.6c-1.1-1.4-2.3-2.2-2.9-2.7l0.5-0.7C456.9,74.7,458.9,77.3,460,80.4z"/>
	<path class="st1" d="M351.4,92.9h-2.7v4.8h7.6l0,0C356.3,95.1,354.1,92.9,351.4,92.9z"/>
	<polygon class="st1" points="429.6,28.4 436,28.7 434.9,27.1 426.4,25.8 	"/>
	<g class="st4">
		
			<linearGradient id="SVGID_1_" gradientUnits="userSpaceOnUse" x1="397.645" y1="-43.0885" x2="397.645" y2="-29.1613" gradientTransform="matrix(1 0 0 -1 0 0)">
			<stop  offset="0" style="stop-color:#FFFFFF"/>
			<stop  offset="1" style="stop-color:#003446"/>
		</linearGradient>
		<polygon class="st5" points="404.1,26.6 392.4,44.9 391.1,44.6 391.1,40.7 400.4,26.3 		"/>
		
			<linearGradient id="SVGID_2_" gradientUnits="userSpaceOnUse" x1="402.78" y1="-43.2478" x2="402.78" y2="-29.2502" gradientTransform="matrix(1 0 0 -1 0 0)">
			<stop  offset="0" style="stop-color:#FFFFFF"/>
			<stop  offset="1" style="stop-color:#003446"/>
		</linearGradient>
		<polygon class="st6" points="411.7,27.2 399.3,46.3 398,46.1 394.8,45.4 393.9,45.2 405.8,26.7 409.4,27 410.6,27.1 411.5,27.1 		
			"/>
	</g>
	<g>
		
			<linearGradient id="SVGID_3_" gradientUnits="userSpaceOnUse" x1="428.46" y1="-53.7776" x2="428.46" y2="-40.0504" gradientTransform="matrix(1 0 0 -1 0 0)">
			<stop  offset="0" style="stop-color:#FFFFFF"/>
			<stop  offset="1" style="stop-color:#003446"/>
		</linearGradient>
		<polygon class="st7" points="434.8,40.1 427,52.2 425,51.8 422.2,51.2 422.2,47.8 430.6,34.6 431.5,35.7 433.3,38.3 		"/>
		
			<linearGradient id="SVGID_4_" gradientUnits="userSpaceOnUse" x1="433.62" y1="-54.2168" x2="433.62" y2="-39.9948" gradientTransform="matrix(1 0 0 -1 0 0)">
			<stop  offset="0" style="stop-color:#FFFFFF"/>
			<stop  offset="1" style="stop-color:#003446"/>
		</linearGradient>
		<polygon class="st8" points="438.3,45 432.8,53.5 431.5,53.2 428.9,52.7 435.9,41.8 437.1,43.3 		"/>
	</g>
	<g>
		
			<linearGradient id="SVGID_5_" gradientUnits="userSpaceOnUse" x1="447.325" y1="-54.6501" x2="447.325" y2="-46.7408" gradientTransform="matrix(1 0 0 -1 0 0)">
			<stop  offset="0" style="stop-color:#FFFFFF"/>
			<stop  offset="1" style="stop-color:#003446"/>
		</linearGradient>
		<polygon class="st9" points="450.8,49.2 447.9,53.8 447.3,52.9 445.8,50.9 443.8,48.1 446.8,43.6 447.3,44.3 		"/>
		
			<linearGradient id="SVGID_6_" gradientUnits="userSpaceOnUse" x1="452.705" y1="-61.1488" x2="452.705" y2="-49.4034" gradientTransform="matrix(1 0 0 -1 0 0)">
			<stop  offset="0" style="stop-color:#FFFFFF"/>
			<stop  offset="1" style="stop-color:#003446"/>
		</linearGradient>
		<polygon class="st10" points="456.4,56.9 454,60.6 453.4,60.4 452.6,60.3 449.1,55.4 452,50.9 454.2,53.9 		"/>
	</g>
	<g>
		
			<linearGradient id="SVGID_7_" gradientUnits="userSpaceOnUse" x1="410.855" y1="-48.0159" x2="410.855" y2="-32.4902" gradientTransform="matrix(1 0 0 -1 0 0)">
			<stop  offset="0" style="stop-color:#FFFFFF"/>
			<stop  offset="1" style="stop-color:#003446"/>
		</linearGradient>
		<polygon class="st11" points="417.5,27.6 417.5,29.2 405.6,47.7 404.7,47.5 404.2,47.4 417,27.6 		"/>
		
			<linearGradient id="SVGID_8_" gradientUnits="userSpaceOnUse" x1="411.96" y1="-48.1842" x2="411.96" y2="-34.8304" gradientTransform="matrix(1 0 0 -1 0 0)">
			<stop  offset="0" style="stop-color:#FFFFFF"/>
			<stop  offset="1" style="stop-color:#003446"/>
		</linearGradient>
		<polygon class="st12" points="417.5,30.7 417.5,36.8 409.9,48.6 409.4,48.5 406.4,47.9 		"/>
	</g>
	<path class="st0" d="M366.7,5.6h-1.4c-0.9,0-1.7,0.8-1.7,1.7v0.1h4.8V7.3C368.4,6.3,367.6,5.6,366.7,5.6z"/>
	<g class="st13">
		<polygon class="st14" points="417.5,27.6 417.5,43.6 401.9,40.5 401.9,26.4 		"/>
	</g>
	<g class="st13">
		<polygon class="st14" points="425.8,28.1 426.4,45.4 441.4,49.1 		"/>
	</g>
	<g class="st15">
		<polygon class="st14" points="436,28.7 432.3,28.4 448.1,49.6 451.2,49.8 		"/>
	</g>
	<path class="st1" d="M436.2,57H436c-1.8,0-3.2,1.4-3.2,3.2v3.8h0.1c1.8,0,3.2-1.4,3.2-3.2V57z"/>
	<path class="st1" d="M434.8,46.5L434.8,46.5v13.4l0,0c1.9,0,3.4-1.5,3.4-3.4v-6.5C438.2,48,436.7,46.5,434.8,46.5z"/>
	<path class="st0" d="M438.2,54.6h-3.4v-8.1h0.6c1.5,0,2.8,1.3,2.8,2.8V54.6z"/>
	<path class="st0" d="M434.8,52.9L434.8,52.9v-3.6l0,0c0.6,0,1,0.5,1,1v1.6C435.8,52.5,435.4,52.9,434.8,52.9z"/>
	<rect x="452.8" y="97.8" class="st1" width="11.5" height="1.8"/>
	<rect x="281" y="87.6" class="st0" width="1.9" height="3.4"/>
</g>
<g>
	<g>
		<g>
			<g>
				<path class="st0" d="M349.2,99.7h-2.5v-7c0-7.3-5.2-13.2-11.6-13.2h-36.9c-6.4,0-11.6,5.9-11.6,13.2v7H284v-7
					c0-8.6,6.3-15.7,14.1-15.7h36.9c7.8,0,14.1,7,14.1,15.7V99.7z"/>
			</g>
		</g>
	</g>
</g>
<rect x="354.3" y="32.9" class="st16" width="1.9" height="44.1"/>
<rect x="18.7" y="75.2" class="st0" width="86.6" height="21"/>
<rect x="18.7" y="90" class="st1" width="13.5" height="6.2"/>
<rect x="18.7" y="78.7" class="st3" width="2" height="11.3"/>
<rect x="18.7" y="81.6" class="st3" width="2" height="8.5"/>
<rect x="18.7" y="86.4" class="st0" width="2" height="3.6"/>
<rect x="11.6" y="72.1" class="st1" width="336.6" height="3.1"/>
<g>
	<g>
		<g>
			<g>
				<path class="st1" d="M96.7,93.2v3h-29v-3c0-8,6.5-14.5,14.5-14.5C90.2,78.7,96.7,85.2,96.7,93.2z"/>
			</g>
		</g>
	</g>
	<g>
		<g>
			<g>
				<ellipse class="st1" cx="82.2" cy="93.3" rx="12.7" ry="12.7"/>
			</g>
		</g>
	</g>
	<g>
		<g>
			<g>
				<path class="st1" d="M82.2,80.6c-7,0-12.7,5.7-12.7,12.7h1.6c0-6.1,5-11.1,11.1-11.1c6.1,0,11.1,5,11.1,11.1h1.6
					C94.9,86.3,89.2,80.6,82.2,80.6z"/>
			</g>
		</g>
	</g>
	<g>
		<g>
			<g>
				<path class="st0" d="M90.2,93.3L90.2,93.3c0,4.4-3.6,8-8,8s-8-3.6-8-8v0c0-4.4,3.6-7.9,8-7.9C86.6,85.4,90.2,88.9,90.2,93.3z"/>
			</g>
		</g>
	</g>
	<g>
		<path class="st1" d="M90.2,93.3L90.2,93.3l-15.9,0v0c0-4.4,3.6-7.9,8-7.9S90.2,88.9,90.2,93.3z"/>
	</g>
	<g>
		<g>
			<g>
				<path class="st0" d="M89.1,93.3L89.1,93.3c0,3.9-3.1,7-6.9,7c-3.8,0-6.9-3.1-6.9-6.9v0c0-3.8,3.1-6.9,6.9-6.9
					S89.1,89.5,89.1,93.3z"/>
			</g>
		</g>
	</g>
	<g>
		<path class="st1" d="M89.1,93.3c0,3.8-3.1,6.9-6.9,6.9c-3.8,0-6.9-3.1-6.9-6.9H89.1z"/>
	</g>
	<g>
		<g>
			<g>
				<g>
					<path class="st1" d="M88,93.3L88,93.3c0,3.2-2.6,5.8-5.8,5.8c-3.2,0-5.8-2.6-5.8-5.8v0c0-3.2,2.6-5.8,5.8-5.8
						C85.4,87.5,88,90.1,88,93.3z"/>
				</g>
			</g>
		</g>
		<g>
			<path class="st1" d="M88,93.3c0,3.2-2.6,5.8-5.8,5.8c-3.2,0-5.8-2.6-5.8-5.8H88z"/>
		</g>
		<g>
			<g>
				<g>
					<path class="st1" d="M86.8,93.3L86.8,93.3c0,2.6-2.1,4.6-4.6,4.6s-4.6-2.1-4.6-4.6v0c0-2.6,2.1-4.6,4.6-4.6
						C84.8,88.7,86.8,90.8,86.8,93.3z"/>
				</g>
			</g>
		</g>
	</g>
</g>
<g>
	<g>
		<g>
			<g>
				<path class="st1" d="M61.3,93.2v3h-29v-3c0-8,6.5-14.5,14.5-14.5C54.8,78.7,61.3,85.2,61.3,93.2z"/>
			</g>
		</g>
	</g>
	<g>
		<g>
			<g>
				<ellipse class="st1" cx="46.7" cy="93.3" rx="12.7" ry="12.7"/>
			</g>
		</g>
	</g>
	<g>
		<g>
			<g>
				<path class="st1" d="M46.8,80.6c-7,0-12.7,5.7-12.7,12.7h1.6c0-6.1,5-11.1,11-11.1s11.1,5,11.1,11.1h1.6
					C59.4,86.3,53.8,80.6,46.8,80.6z"/>
			</g>
		</g>
	</g>
	<g>
		<g>
			<g>
				<path class="st0" d="M54.7,93.3L54.7,93.3c0,4.4-3.6,8-8,8s-8-3.6-8-8v0c0-4.4,3.6-7.9,8-7.9C51.2,85.4,54.7,88.9,54.7,93.3z"/>
			</g>
		</g>
	</g>
	<g>
		<path class="st1" d="M54.7,93.3L54.7,93.3l-15.9,0v0c0-4.4,3.6-7.9,8-7.9C51.2,85.4,54.7,88.9,54.7,93.3z"/>
	</g>
	<g>
		<g>
			<g>
				<path class="st0" d="M53.7,93.3L53.7,93.3c0,3.9-3.1,7-6.9,7c-3.8,0-6.9-3.1-6.9-6.9v0c0-3.8,3.1-6.9,6.9-6.9
					S53.7,89.5,53.7,93.3z"/>
			</g>
		</g>
	</g>
	<g>
		<path class="st1" d="M53.7,93.3c0,3.8-3.1,6.9-6.9,6.9c-3.8,0-6.9-3.1-6.9-6.9H53.7z"/>
	</g>
	<g>
		<g>
			<g>
				<g>
					<path class="st1" d="M52.5,93.3L52.5,93.3c0,3.2-2.6,5.8-5.8,5.8S41,96.5,41,93.3v0c0-3.2,2.6-5.8,5.8-5.8
						C50,87.5,52.5,90.1,52.5,93.3z"/>
				</g>
			</g>
		</g>
		<g>
			<path class="st1" d="M52.5,93.3c0,3.2-2.6,5.8-5.8,5.8S41,96.5,41,93.3H52.5z"/>
		</g>
		<g>
			<g>
				<g>
					<path class="st1" d="M51.4,93.3L51.4,93.3c0,2.6-2.1,4.6-4.6,4.6c-2.6,0-4.6-2.1-4.6-4.6v0c0-2.6,2.1-4.6,4.6-4.6
						C49.3,88.7,51.4,90.8,51.4,93.3z"/>
				</g>
			</g>
		</g>
	</g>
</g>
<path class="st1" d="M67.7,95.3v0.9h-6.4v-0.9c0-0.7,0.6-1.3,1.3-1.3h3.8C67.1,94,67.7,94.6,67.7,95.3z"/>
<rect x="3.2" y="7.4" class="st1" width="344.9" height="64.7"/>
<rect x="3.2" y="7.4" class="st0" width="344.9" height="53.6"/>
<rect x="3.2" y="64.2" class="st0" width="344.9" height="2"/>
<path class="st0" d="M268.3,75.1h-24.1v21.1h15.3c4.9,0,8.8-3.9,8.8-8.8V75.1z"/>
<rect x="105.3" y="93.3" class="st0" width="138.9" height="2.9"/>
<g>
	<rect x="14.1" y="68.4" class="st0" width="4" height="1.3"/>
	<rect x="45.4" y="68.4" class="st0" width="4" height="1.3"/>
	<rect x="76.7" y="68.4" class="st0" width="4.1" height="1.3"/>
	<rect x="108" y="68.4" class="st0" width="4.1" height="1.3"/>
	<rect x="139.3" y="68.4" class="st0" width="4.1" height="1.3"/>
	<rect x="175.6" y="68.4" class="st0" width="4.1" height="1.3"/>
	<rect x="211.9" y="68.4" class="st0" width="4.1" height="1.3"/>
	<rect x="243.1" y="68.4" class="st0" width="4.1" height="1.3"/>
	<rect x="274.4" y="68.4" class="st0" width="4" height="1.3"/>
	<rect x="305.7" y="68.4" class="st0" width="4" height="1.3"/>
	<rect x="337" y="68.4" class="st0" width="4" height="1.3"/>
</g>
<rect x="3.2" y="7.4" class="st1" width="344.9" height="4.5"/>
<rect x="3.2" y="11.9" class="st1" width="344.9" height="0.7"/>
</svg>
