<?xml version="1.0" encoding="utf-8"?>
<!-- Generator: Adobe Illustrator 22.0.1, SVG Export Plug-In . SVG Version: 6.00 Build 0)  -->
<svg version="1.1" id="Layer_1" xmlns="http://www.w3.org/2000/svg" xmlns:xlink="http://www.w3.org/1999/xlink" x="0px" y="0px"
	 viewBox="0 0 500 124" style="enable-background:new 0 0 500 124;" xml:space="preserve">
<style type="text/css">
	.st0{fill:#003446;}
	.st1{fill:#12CAD6;}
	.st2{fill:#FFFFFF;}
	.st3{fill:#E4F9FF;}
	.st4{fill:#F5876F;}
	.st5{opacity:0.13;fill:#12CAD6;enable-background:new    ;}
	.st6{fill:#0FABBC;}
	.st7{fill:#F74763;}
	.st8{opacity:0.1;}
	.st9{fill:url(#SVGID_1_);}
	.st10{fill:url(#SVGID_2_);}
	.st11{opacity:0.1;fill:url(#SVGID_3_);enable-background:new    ;}
	.st12{opacity:0.1;fill:url(#SVGID_4_);enable-background:new    ;}
	.st13{opacity:0.1;fill:url(#SVGID_5_);enable-background:new    ;}
	.st14{opacity:0.1;fill:url(#SVGID_6_);enable-background:new    ;}
	.st15{opacity:0.1;fill:url(#SVGID_7_);enable-background:new    ;}
	.st16{opacity:0.1;fill:url(#SVGID_8_);enable-background:new    ;}
	.st17{opacity:0.3;fill:#003446;enable-background:new    ;}
</style>
<g>
	<g>
		<rect x="115" y="88" class="st0" width="150.3" height="22.4"/>
		<rect x="117.2" y="104.2" class="st0" width="150.2" height="1.5"/>
		<rect x="117.2" y="101.2" class="st0" width="150.2" height="1.5"/>
		<rect x="117.2" y="98.2" class="st0" width="150.2" height="1.5"/>
		<rect x="117.2" y="95.1" class="st0" width="150.2" height="1.5"/>
		<rect x="117.2" y="92.1" class="st0" width="150.2" height="1.5"/>
		<rect x="117.2" y="89.1" class="st0" width="150.2" height="1.5"/>
		<g>
			<g>
				<path class="st1" d="M499.9,106.7l-110,1.3V1.5c0,0,49.4,12.6,78.5,35.2L495,73.6l0.1,0.1c0.7,1.7,1.2,3.6,1.7,5.5
					C499.9,91.5,499.9,106.7,499.9,106.7z"/>
				<path class="st1" d="M389.9,28V0.7c0,0,54.6-1.9,75.7,33.6L389.9,28z"/>
				<path class="st2" d="M496.8,79.3l-93.5-19.8c-2.9-0.6-5-3.2-5-6.1l0,0l96.6,20.3l0.1,0.1C495.8,75.5,496.3,77.4,496.8,79.3z"/>
				<path class="st2" d="M499.9,106.7l-6.5,0.1c0-2.1-0.3-21-4.8-32.8l-1.3-1.8l7.8,1.6C499.9,86.3,499.9,106.7,499.9,106.7z"/>
				<path class="st2" d="M389.9,76.3c0,0,77.9,1.6,90.8,4.2c12.9,2.6,18.6,10.4,18.6,22.2v5.6H389.9V76.3z"/>
				<g>
					<path class="st3" d="M496.2,97l-3.2,0.6c-0.1-0.7-0.3-1.4-0.5-2.1l0,0c-1-3.1-2.8-5.6-5.3-7.6l1.4-1.8l0.6-0.8
						c2.8,2.2,4.9,4.9,6.1,8.3c0.1,0.3,0.3,0.7,0.4,1.1C495.9,95.5,496.1,96.2,496.2,97z"/>
				</g>
				<path class="st4" d="M496.2,97l-3.2,0.6c-0.1-0.7-0.3-1.4-0.5-2.1v0.1l3.1-0.9C495.9,95.5,496.1,96.2,496.2,97z"/>
				<path class="st1" d="M389.9,78.6c0,0,74.3,1.2,86.6,3.5c12.2,2.3,17.9,9.5,17.9,19.9v6.3H389.9V78.6z"/>
				<rect x="452.4" y="32.8" class="st1" width="0.8" height="71.9"/>
				<rect x="451.7" y="32.8" class="st2" width="0.8" height="71.9"/>
				<rect x="419" y="32.8" class="st2" width="0.8" height="71.9"/>
				<rect x="419.8" y="32.8" class="st1" width="0.8" height="71.9"/>
				<path class="st0" d="M463.7,95.7h-56.2c-1,0-1.8-0.8-1.8-1.8l0,0c0-1,0.8-1.8,1.8-1.8h56.2V95.7z"/>
				<g>
					<g>
						<g>
							<path class="st2" d="M489.4,110.3h-4.5v-5.8c0-6.6-6.1-11.9-13.6-11.9s-13.6,5.3-13.6,11.9v5.8h-4.5v-5.8
								c0-8.7,8.1-15.8,18.1-15.8s18.1,7.1,18.1,15.8V110.3z"/>
						</g>
					</g>
				</g>
				<path class="st0" d="M406.4,104.8H390v-13C389.9,98.9,397.3,104.8,406.4,104.8z"/>
				<g>
					<polygon class="st0" points="495.1,73.8 487.3,72.2 419,57.9 419,32.8 461.2,36.2 468.4,36.8 					"/>
				</g>
				<polygon class="st0" points="449.9,37.4 449.9,61.5 447,60.9 443.5,60.1 442.7,59.9 441.8,59.7 441.3,59.6 438.2,59 437.3,58.8 
					436.3,58.6 435.8,58.5 430.7,57.4 430.6,57.3 429.2,57 425.7,56.3 424.8,56.1 423.2,55.8 421.9,55.5 421.9,35.3 425.7,35.6 
					429.2,35.8 430.7,35.9 431.8,36 435.7,36.3 436.3,36.3 437.4,36.4 441.3,36.7 442.7,36.8 443.5,36.9 443.8,36.9 447,37.1 
					449.4,37.3 				"/>
				<polygon class="st0" points="481.2,68.2 480.1,67.9 476.1,67.1 470.8,65.9 466.8,65.1 466.3,65 464.8,64.7 462.1,64.1 460,63.6 
					458,63.2 454.9,62.5 454.9,37.7 458,37.9 458.8,37.9 464,44.8 464.8,46 466.8,48.7 468.3,50.7 469.6,52.5 470.8,54.1 
					472.2,55.9 476.1,61.2 480.1,66.6 				"/>
				<path class="st5" d="M495.1,73.8l-6.2-1.3l-0.7-0.1l-0.9-0.2l-3.7-5.2l-1.2-1.7l-0.7-0.9l-1.6-2.2l-2.1-2.9l-1.9-2.7l-5.3-7.3
					l-4-5.6l-2-2.8l-3-4.1c-0.2-0.2-0.4-0.4-0.6-0.6l0,0l7.2,0.5l2.4,3.3l5.3,7.3l4,5.6l1,1.4l0.5,0.7l3.8,5.3l1.3,1.7l2.3,3.3
					l2.3,3.2L495.1,73.8z"/>
				<path class="st0" d="M387.2,35.7h2.7v55.9h-5.2V38.2C384.7,36.8,385.8,35.7,387.2,35.7z"/>
				<rect x="374.6" y="104.8" class="st0" width="125.3" height="9.4"/>
				<rect x="486.7" y="104.8" class="st0" width="2.6" height="9.4"/>
				<rect x="304.5" y="91.6" class="st0" width="85.4" height="22.6"/>
				<path class="st0" d="M455.3,104.8l-0.8,7.4h-4.6v-3.6l-43.8,0.4l-12-0.8l-6.5-6.9l-3.8-9.7h6.2v0.2c0,7.2,7.4,13,16.4,13
					L455.3,104.8L455.3,104.8z"/>
				<rect x="453.2" y="104.8" class="st0" width="2.1" height="8.4"/>
				<path class="st0" d="M401,107.7c-8.2,0-14.9-5.7-14.9-16.1h-3.5c0,0,0.3,17.9,17.9,17.9h48.4c0.5,0,0.9-0.4,0.9-0.9l0,0
					c0-0.5-0.4-0.9-0.9-0.9H401z"/>
				<g>
					<g>
						<g>
							<g>
								<path class="st1" d="M487.6,114.2h-4.1v-6c0-6.9-5.6-12.5-12.5-12.5s-12.5,5.6-12.5,12.5v6h-4.1v-6
									c0-9.1,7.4-16.5,16.5-16.5s16.5,7.4,16.5,16.5v6H487.6z"/>
							</g>
						</g>
					</g>
					<g>
						<g>
							<g>
								<path class="st0" d="M485.5,108.1c0-8-6.5-14.5-14.5-14.5s-14.5,6.5-14.5,14.5v6h29V108.1z"/>
							</g>
						</g>
					</g>
					<g>
						<g>
							<g>
								
									<ellipse transform="matrix(0.7071 -0.7071 0.7071 0.7071 61.4117 364.7285)" class="st0" cx="471" cy="108.2" rx="12.7" ry="12.7"/>
							</g>
						</g>
					</g>
					<g>
						<g>
							<g>
								<path class="st0" d="M471,95.6c-7,0-12.7,5.7-12.7,12.7h1.6c0-6.1,5-11.1,11.1-11.1s11.1,5,11.1,11.1h1.6
									C483.7,101.2,478,95.6,471,95.6z"/>
							</g>
						</g>
					</g>
					<g>
						<g>
							<g>
								<path class="st1" d="M479,108.2L479,108.2c0,4.4-3.6,8-8,8s-8-3.6-8-8l0,0c0-4.4,3.6-7.9,8-7.9S479,103.8,479,108.2z"/>
							</g>
						</g>
					</g>
					<g>
						<path class="st6" d="M479,108.2L479,108.2h-15.9l0,0c0-4.4,3.6-7.9,8-7.9C475.4,100.3,479,103.8,479,108.2z"/>
					</g>
					<g>
						<g>
							<g>
								<path class="st1" d="M478,108.2L478,108.2c0,3.9-3.1,7-6.9,7s-6.9-3.1-6.9-6.9l0,0c0-3.8,3.1-6.9,6.9-6.9
									C474.9,101.3,478,104.4,478,108.2z"/>
							</g>
						</g>
					</g>
					<g>
						<path class="st6" d="M478,108.2c0,3.8-3.1,6.9-6.9,6.9s-6.9-3.1-6.9-6.9H478z"/>
					</g>
					<g>
						<g>
							<g>
								<path class="st0" d="M471,101.3L471,101.3L471,101.3L471,101.3L471,101.3L471,101.3L471,101.3L471,101.3L471,101.3
									L471,101.3L471,101.3L471,101.3L471,101.3L471,101.3L471,101.3L471,101.3L471,101.3L471,101.3L471,101.3L471,101.3
									L471,101.3L471,101.3L471,101.3L471,101.3L471,101.3L471,101.3L471,101.3L471,101.3L471,101.3
									C470.9,101.3,470.9,101.3,471,101.3C470.9,101.3,470.9,101.3,471,101.3C470.9,101.3,470.9,101.3,471,101.3
									C470.9,101.3,470.9,101.3,471,101.3C470.9,101.3,470.9,101.3,471,101.3C470.9,101.3,470.9,101.3,471,101.3
									C470.9,101.3,470.9,101.3,471,101.3c-0.1,0-0.1,0-0.1,0l0,0l0,0l0,0l0,0l0,0l0,0l0,0l0,0l0,0l0,0l0,0l0,0l0,0l0,0l0,0l0,0
									l0,0l0,0l0,0l0,0l0,0l0,0l0,0l0,0l0,0l0,0l0,0l0,0l0,0l0,0l0,0l0,0l0,0l0,0l0,0l0,0l0,0l0,0l0,0l0,0l0,0l0,0l0,0l0,0l0,0
									l0,0l0,0l0,0l0,0l0,0l0,0l0,0l0,0l0,0l0,0l0,0l0,0l0,0l0,0l0,0l0,0l0,0l0,0l0,0l0,0l0,0l0,0l0,0l0,0l0,0l0,0l0,0l0,0l0,0
									l0,0l0,0l0,0l0,0l0,0l0,0l0,0l0,0l0,0l0,0l0,0l0,0l0,0l0,0l0,0l0,0l0,0l0,0l0,0l0,0l0,0l0,0l0,0l0,0l0,0l0,0l0,0l0,0l0,0
									l0,0l0,0l0,0l0,0l0,0l0,0l0,0l0,0l0,0l0,0l0,0l0,0l0,0l0,0l0,0l0,0l0,0l0,0l0,0l0,0l0,0l0,0l0,0l0,0l0,0l0,0l0,0l0,0l0,0
									l0,0l0,0l0,0l0,0l0,0l0,0l0,0l0,0l0,0l0,0l0,0l0,0l0,0l0,0l0,0l0,0l0,0l0,0l0,0l0,0l0,0l0,0l0,0l0,0l0,0l0,0l0,0l0,0l0,0
									l0,0l0,0l0,0l0,0l0,0l0,0l0,0l0,0l0,0l0,0l0,0l0,0l0,0l0,0l0,0l0,0l0,0l0,0l0,0l0,0l0,0l0,0l0,0l0,0l0,0l0,0l0,0l0,0l0,0
									l0,0l0,0l0,0l0,0l0,0l0,0l0,0l0,0l0,0l0,0l0,0l0,0l0,0l0,0l0,0l0,0l0,0l0,0l0,0l0,0l0,0l0,0l0,0l0,0l0,0l0,0l0,0l0,0l0,0
									l0,0l0,0l0,0l0,0l0,0l0,0l0,0l0,0l0,0l0,0l0,0l0,0l0,0l0,0l0,0l0,0l0,0l0,0l0,0l0,0l0,0l0,0l0,0l0,0l0,0l0,0l0,0l0,0l0,0
									l0,0l0,0l0,0l0,0l0,0l0,0l0,0l0,0l0,0l0,0l0,0l0,0l0,0l0,0l0,0l0,0l0,0l0,0l0,0l0,0l0,0l0,0l0,0l0,0l0,0l0,0l0,0l0,0l0,0
									l0,0l0,0l0,0l0,0l0,0l0,0l0,0l0,0l0,0l0,0l0,0l0,0l0,0l0,0l0,0l0,0l0,0l0,0l0,0l0,0l0,0l0,0l0,0l0,0l0,0l0,0l0,0l0,0l0,0
									l0,0l0,0l0,0l0,0l0,0c0,0,0,0-0.1,0l0,0c0,0,0,0-0.1,0l0,0l0,0l0,0l0,0l0,0l0,0l0,0c-0.2,0-0.3,0.1-0.5,0.1l0,0
									c0,0,0,0-0.1,0l0,0c0,0,0,0-0.1,0l0,0l0,0l0,0l0,0l0,0l0,0l0,0l0,0l0,0l0,0l0,0l0,0l0,0l0,0l0,0l0,0l0,0l0,0l0,0l0,0l0,0
									l0,0l0,0l0,0l0,0l0,0l0,0l0,0l0,0l0,0l0,0l0,0l0,0l0,0l0,0l0,0l0,0l0,0l0,0l0,0l0,0l0,0l0,0l0,0l0,0l0,0l0,0l0,0l0,0l0,0
									l0,0l0,0l0,0l0,0l0,0l0,0l0,0l0,0l0,0l0,0l0,0l0,0l0,0l0,0l0,0l0,0l0,0l0,0l0,0l0,0l0,0l0,0l0,0l0,0l0,0l0,0l0,0l0,0l0,0
									l0,0l0,0l0,0l0,0l0,0l0,0l0,0l0,0l0,0l0,0l0,0l0,0l0,0l0,0l0,0l0,0l0,0l0,0l0,0l0,0l0,0l0,0l0,0l0,0l0,0l0,0l0,0l0,0l0,0
									l0,0l0,0l0,0l0,0l0,0l0,0l0,0l0,0l0,0l0,0l0,0l0,0l0,0l0,0l0,0l0,0l0,0l0,0l0,0l0,0l0,0l0,0l0,0l0,0l0,0l0,0l0,0l0,0l0,0
									l0,0l0,0l0,0l0,0l0,0l0,0l0,0l0,0l0,0l0,0l0,0l0,0l0,0h-0.1l0.2,0.6c0.7-0.3,1.5-0.4,2.3-0.4v-0.3H471L471,101.3z
									 M467.9,102L467.9,102L467.9,102L467.9,102L467.9,102L467.9,102L467.9,102L467.9,102L467.9,102L467.9,102L467.9,102
									C467.9,102,467.9,102.1,467.9,102L467.9,102C467.9,102.1,467.9,102.1,467.9,102L467.9,102
									C467.9,102.1,467.9,102.1,467.9,102L467.9,102C467.9,102.1,467.9,102.1,467.9,102L467.9,102
									C467.9,102.1,467.9,102.1,467.9,102L467.9,102C467.9,102.1,467.9,102.1,467.9,102L467.9,102
									C467.9,102.1,467.9,102.1,467.9,102L467.9,102C467.9,102.1,467.9,102.1,467.9,102L467.9,102
									C467.8,102.1,467.8,102.1,467.9,102L467.9,102C467.8,102.1,467.8,102.1,467.9,102L467.9,102
									C467.8,102.1,467.8,102.1,467.9,102L467.9,102C467.8,102.1,467.8,102.1,467.9,102L467.9,102
									C467.8,102.1,467.8,102.1,467.9,102L467.9,102C467.8,102.1,467.8,102.1,467.9,102L467.9,102c-0.1,0.1-0.1,0.1-0.1,0.1l0,0
									l0,0l0,0l0,0l0,0l0,0l0,0l0,0l0,0l0,0l0,0l0,0l0,0l0,0l0,0l0,0l0,0l0,0l0,0l0,0l0,0l0,0l0,0l0,0l0,0l0,0l0,0l0,0l0,0l0,0
									l0,0l0,0l0,0l0,0l0,0l0,0l0,0l0,0l0,0l0,0l0,0l0,0l0,0l0,0l0,0l0,0l0,0l0,0l0,0l0,0l0,0l0,0l0,0l0,0l0,0l0,0l0,0l0,0l0,0
									l0,0l0,0l0,0l0,0l0,0l0,0l0,0l0,0l0,0l0,0l0,0l0,0l0,0l0,0l0,0l0,0l0,0l0,0l0,0l0,0l0,0l0,0l0,0l0,0l0,0l0,0l0,0l0,0l0,0
									l0,0l0,0l0,0l0,0l0,0l0,0l0,0l0,0l0,0l0,0l0,0l0,0l0,0l0,0l0,0l0,0l0,0l0,0l0,0l0,0l0,0l0,0l0,0l0,0l0,0l0,0l0,0l0,0l0,0
									l0,0l0,0l0,0l0,0l0,0l0,0l0,0l0,0l0,0l0,0l0,0l0,0l0,0l0,0l0,0l0,0l0,0l0,0l0,0l0,0l0,0l0,0l0,0l0,0l0,0l0,0l0,0l0,0l0,0
									l0,0l0,0l0,0l0,0l0,0l0,0l0,0l0,0l0,0l0,0l0,0l0,0l0,0l0,0l0,0l0,0l0,0l0,0l0,0l0,0l0,0l0,0l0,0l0,0l0,0l0,0l0,0l0,0l0,0
									l0,0l0,0l0,0l0,0l0,0l0,0l0,0l0,0l0,0l0,0l0,0l0,0l0,0l0,0l0,0l0,0l0,0l0,0l0,0l0,0l0,0l0,0l0,0l0,0l0,0l0,0l0,0l0,0l0,0
									l0,0l0,0l0,0l0,0l0,0l0,0l0,0l0,0l0,0l0,0l0,0l0,0l0,0l0,0l0,0l0,0l0,0l0,0l0,0l0,0l0,0l0,0l0,0l0,0l0,0l0,0l0,0l0,0l0,0
									c0,0,0,0-0.1,0l0,0l0,0l0,0l0,0l0,0l0,0l0,0l0,0l0,0l0,0l0,0l0,0l0,0l0,0l0,0l0,0l0,0l0,0l0,0l0,0l0,0
									c-0.4,0.3-0.9,0.7-1.2,1.1l0.5,0.4c0.5-0.6,1.2-1.1,1.9-1.4L467.9,102L467.9,102z M465.5,104.1L465.5,104.1L465.5,104.1
									C465.4,104.1,465.4,104.1,465.5,104.1C465.4,104.1,465.4,104.1,465.5,104.1C465.4,104.1,465.4,104.1,465.5,104.1
									L465.5,104.1C465.4,104.1,465.4,104.1,465.5,104.1L465.5,104.1C465.4,104.1,465.4,104.1,465.5,104.1L465.5,104.1
									C465.4,104.1,465.4,104.1,465.5,104.1L465.5,104.1C465.4,104.1,465.4,104.1,465.5,104.1L465.5,104.1
									C465.4,104.1,465.4,104.1,465.5,104.1L465.5,104.1C465.4,104.1,465.4,104.1,465.5,104.1L465.5,104.1
									C465.4,104.1,465.4,104.1,465.5,104.1L465.5,104.1c-0.1,0.1-0.1,0.1-0.1,0.1l0,0l0,0l0,0l0,0l0,0l0,0l0,0l0,0l0,0l0,0l0,0
									l0,0l0,0l0,0l0,0l0,0l0,0l0,0l0,0l0,0l0,0l0,0l0,0l0,0l0,0l0,0l0,0l0,0l0,0l0,0l0,0l0,0l0,0l0,0l0,0l0,0l0,0l0,0l0,0l0,0
									l0,0l0,0l0,0l0,0l0,0l0,0l0,0l0,0l0,0l0,0l0,0l0,0l0,0l0,0l0,0l0,0l0,0l0,0l0,0l0,0l0,0l0,0l0,0l0,0l0,0l0,0l0,0l0,0l0,0
									l0,0l0,0l0,0l0,0l0,0l0,0l0,0l0,0l0,0l0,0l0,0l0,0l0,0l0,0l0,0l0,0l0,0l0,0l0,0l0,0l0,0l0,0l0,0l0,0l0,0l0,0l0,0l0,0l0,0
									l0,0l0,0l0,0l0,0l0,0l0,0l0,0l0,0l0,0l0,0l0,0l0,0l0,0l0,0l0,0l0,0l0,0l0,0l0,0l0,0l0,0l0,0l0,0l0,0l0,0l0,0l0,0l0,0l0,0
									l0,0l0,0l0,0l0,0l0,0l0,0l0,0l0,0l0,0l0,0l0,0l0,0l0,0l0,0l0,0l0,0l0,0l0,0l0,0l0,0l0,0l0,0l0,0l0,0l0,0l0,0l0,0l0,0l0,0
									l0,0l0,0l0,0l0,0l0,0l0,0l0,0l0,0l0,0l0,0l0,0l0,0l0,0l0,0l0,0l0,0l0,0l0,0l0,0l0,0l0,0l0,0l0,0l0,0l0,0l0,0l0,0l0,0l0,0
									l0,0l0,0l0,0l0,0l0,0l0,0l0,0l0,0l0,0l0,0l0,0l0,0l0,0l0,0l0,0l0,0l0,0l0,0l0,0l0,0l0,0l0,0l0,0l0,0l0,0l0,0l0,0l0,0l0,0
									l0,0l0,0l0,0l0,0l0,0l0,0l0,0l0,0l0,0l0,0l0,0l0,0l0,0l0,0l0,0l0,0l0,0l0,0l0,0l0,0l0,0l0,0l0,0l0,0l0,0l0,0l0,0l0,0l0,0
									l0,0l0,0l0,0l0,0l0,0l0,0l0,0l0,0l0,0l0,0v0.1l0,0l0,0l0,0c-0.3,0.5-0.5,1-0.6,1.5l0.6,0.2c0.2-0.8,0.6-1.5,1-2.1
									L465.5,104.1L465.5,104.1z M464.2,107L464.2,107L464.2,107L464.2,107L464.2,107L464.2,107L464.2,107L464.2,107L464.2,107
									L464.2,107L464.2,107L464.2,107L464.2,107L464.2,107L464.2,107c-0.1,0.4-0.1,0.8-0.1,1.2l0,0l0,0l0,0l0,0l0,0l0,0l0,0l0,0
									l0,0l0,0l0,0l0,0l0,0l0,0c0,0.4,0,0.8,0.1,1.2l0,0l0,0l0,0l0,0v0.1l0.6-0.1c-0.1-0.4-0.1-0.8-0.1-1.2s0-0.7,0.1-1.1
									L464.2,107L464.2,107z M465,110l-0.6,0.2c0.2,0.5,0.4,1.1,0.7,1.5l0,0l0,0l0,0l0,0l0,0l0,0l0,0l0,0l0,0l0,0l0,0l0,0l0,0l0,0
									l0,0l0,0l0,0l0,0l0,0l0,0l0,0l0,0l0,0l0,0l0,0l0,0l0,0l0,0l0,0l0,0l0,0l0,0l0,0l0,0l0,0l0,0l0,0l0,0l0,0l0,0l0,0l0,0l0,0
									l0,0l0,0l0,0l0,0l0,0l0,0l0,0l0,0l0,0l0,0l0,0l0,0l0,0l0,0l0,0l0,0l0,0l0,0l0,0l0,0l0,0l0,0l0,0l0,0l0,0l0,0l0,0l0,0l0,0
									l0,0l0,0l0,0l0,0l0,0l0,0l0,0l0,0l0,0l0,0l0,0l0,0l0,0l0,0l0,0l0,0l0,0l0,0l0,0l0,0l0,0l0,0l0,0l0,0l0,0l0,0l0,0l0,0l0,0
									l0,0l0,0l0,0l0,0l0,0l0,0l0,0l0,0l0,0l0,0l0,0l0,0l0,0l0,0l0,0l0,0l0,0l0,0l0,0l0,0l0,0l0,0l0,0l0,0l0,0l0,0l0,0l0,0l0,0
									l0,0l0,0l0,0l0,0l0,0l0,0l0,0l0,0l0,0l0,0l0,0l0,0l0,0l0,0l0,0l0,0l0,0l0,0l0,0l0,0l0,0l0,0l0,0l0,0l0,0l0,0l0,0l0,0l0,0
									l0,0l0,0l0,0l0,0l0,0l0,0l0,0l0,0l0,0l0,0l0,0l0,0l0,0l0,0l0,0l0,0l0,0l0,0l0,0l0,0l0,0l0,0l0,0l0,0l0,0l0,0l0,0l0,0l0,0
									l0,0l0,0l0,0l0,0l0,0l0,0l0,0l0,0l0,0l0,0l0,0l0,0l0,0l0,0l0,0l0,0l0,0l0,0l0,0l0,0l0,0l0,0l0,0l0,0l0,0l0,0l0,0l0,0l0,0
									l0,0l0,0l0,0l0,0l0,0l0,0l0,0l0,0l0,0l0,0l0,0l0,0l0,0l0,0l0,0l0,0l0,0l0,0l0,0l0,0l0,0l0,0l0,0l0,0l0,0l0,0l0,0l0,0l0,0
									l0,0l0,0l0,0l0,0l0,0l0,0l0,0l0,0l0,0l0,0l0,0l0,0l0,0l0,0l0,0l0,0l0,0l0,0l0,0l0,0l0,0l0,0l0,0l0,0l0,0l0,0l0,0l0,0l0,0
									l0,0l0,0l0,0l0,0l0,0l0,0l0,0l0,0l0,0l0,0l0,0l0,0l0,0l0,0l0,0l0,0l0,0l0.5-0.4C465.6,111.5,465.2,110.8,465,110L465,110z
									 M466.4,112.5l-0.5,0.4c0.1,0.1,0.2,0.2,0.3,0.3l0,0l0,0l0,0l0,0l0,0l0,0l0,0l0,0l0,0l0,0l0,0l0,0l0,0l0,0l0,0l0,0l0,0l0,0
									l0,0l0,0l0,0l0,0l0,0l0,0l0,0l0,0l0,0l0,0l0,0l0,0l0,0l0,0l0,0l0,0l0,0l0,0l0,0l0,0l0,0l0,0l0,0l0,0l0,0l0,0l0,0l0,0l0,0
									l0,0l0,0l0,0l0,0l0,0l0,0l0,0l0,0l0,0l0,0l0,0l0,0l0,0l0,0l0,0l0,0l0,0l0,0l0,0l0,0l0,0l0,0l0,0l0,0l0,0l0,0l0,0l0,0l0,0
									l0,0l0,0l0,0l0,0l0,0l0,0l0,0l0,0l0,0l0,0l0,0l0,0l0,0l0,0l0,0l0,0l0,0l0,0l0,0l0,0l0,0l0,0l0,0l0,0l0,0l0,0l0,0l0,0l0,0
									l0,0l0,0l0,0l0,0l0,0l0,0l0,0c0.1,0.1,0.1,0.1,0.2,0.2l0,0l0,0l0,0l0.1,0.1l0,0l0,0l0,0l0,0l0,0l0,0l0,0l0,0l0,0l0,0l0,0
									l0,0l0,0l0,0l0,0l0,0l0,0l0,0l0,0c0,0,0,0,0.1,0l0,0l0,0l0,0l0,0l0,0l0,0l0,0l0,0l0,0l0,0l0,0l0,0l0,0l0,0l0,0l0,0l0,0l0,0
									l0,0l0,0l0,0l0,0l0,0l0,0l0,0l0,0l0,0l0,0l0,0l0,0l0,0l0,0l0,0l0,0l0,0l0,0l0,0l0,0l0,0l0,0l0,0l0,0l0,0l0,0l0,0l0,0l0,0
									l0,0l0,0l0,0l0,0l0,0l0,0l0,0l0,0l0,0l0,0l0,0l0,0l0,0l0,0l0,0l0,0l0,0l0,0l0,0l0,0l0,0l0,0l0,0l0,0l0,0l0,0l0,0l0,0l0,0
									l0,0l0,0l0,0l0,0l0,0l0,0l0,0l0,0l0,0l0,0l0,0l0,0l0,0l0,0l0,0l0,0l0,0l0,0l0,0l0,0l0,0l0,0l0,0l0,0l0,0l0,0l0,0l0,0l0,0
									l0,0l0,0l0,0l0,0l0,0l0,0l0,0l0,0l0,0l0,0l0,0l0,0l0,0l0,0l0,0l0,0l0,0l0,0l0,0l0,0l0,0l0,0l0,0l0,0l0,0l0,0l0,0l0,0l0,0
									l0,0l0,0l0,0l0,0l0,0l0,0l0,0l0,0l0,0l0,0l0,0l0,0l0,0l0,0l0,0l0,0l0,0l0,0l0,0l0,0l0,0l0,0l0,0l0,0l0,0l0,0l0,0l0,0l0,0
									l0,0l0,0l0,0l0,0l0,0l0,0l0,0l0,0l0,0l0,0l0,0l0,0l0,0l0,0l0,0l0,0l0,0l0,0l0,0l0,0l0,0l0,0l0,0l0,0l0,0l0,0l0,0l0,0l0,0
									l0,0l0,0l0,0l0,0c0,0,0.1,0,0.1,0.1l0,0l0,0l0,0l0,0l0,0l0,0l0,0l0,0l0,0c0,0,0.1,0,0.1,0.1l0,0l0,0l0,0l0,0l0,0l0,0l0,0
									l0,0l0,0l0,0l0,0h0.1l0,0l0,0l0,0l0,0l0,0l0,0l0,0l0,0l0,0l0,0l0,0l0,0l0,0l0,0l0,0l0,0l0,0l0,0l0,0l0,0l0,0l0,0l0,0l0,0
									l0,0c0,0,0,0,0.1,0l0,0l0,0l0,0l0,0l0,0l0,0l0,0l0,0l0,0l0,0l0,0l0,0l0,0l0,0l0,0l0,0l0,0l0,0l0,0l0,0l0,0l0,0l0,0l0,0l0,0
									l0,0l0,0l0,0l0,0l0,0l0,0l0,0l0,0l0,0l0,0l0,0l0,0l0,0l0,0l0,0l0,0l0,0l0,0l0,0l0,0l0,0l0,0l0,0l0,0l0,0l0,0l0,0l0,0l0,0
									l0,0l0,0l0,0l0,0l0,0l0,0l0,0l0,0l0,0l0,0l0,0l0,0l0,0l0,0l0,0l0,0l0,0l0,0l0,0l0,0l0,0l0,0l0,0l0,0l0,0l0,0l0,0l0,0l0,0
									l0,0l0,0l0,0l0,0l0.3-0.6C467.6,113.6,466.9,113.1,466.4,112.5L466.4,112.5z M468.8,114.1l-0.2,0.6c0.3,0.1,0.7,0.2,1,0.3
									l0,0l0,0l0,0l0,0l0,0l0,0l0,0l0,0l0,0l0,0l0,0l0,0l0,0l0,0l0,0l0,0l0,0l0,0l0,0l0,0l0,0l0,0l0,0l0,0l0,0l0,0l0,0l0,0l0,0
									l0,0l0,0l0,0l0,0l0,0l0,0l0,0l0,0l0,0l0,0l0,0l0,0l0,0l0,0l0,0l0,0l0,0l0,0l0,0l0,0l0,0l0,0l0,0l0,0l0,0l0,0l0,0l0,0l0,0
									l0,0l0,0l0,0l0,0l0,0l0,0l0,0l0,0l0,0l0,0l0,0l0,0l0,0l0,0l0,0l0,0l0,0l0,0l0,0l0,0l0,0l0,0l0,0l0,0l0,0l0,0l0,0l0,0l0,0
									l0,0l0,0l0,0l0,0l0,0l0,0l0,0l0,0l0,0l0,0l0,0l0,0l0,0l0,0l0,0l0,0l0,0l0,0l0,0l0,0l0,0l0,0l0,0l0,0l0,0l0,0l0,0l0,0l0,0
									l0,0l0,0l0,0l0,0l0,0l0,0l0,0l0,0l0,0l0,0l0,0l0,0l0,0l0,0l0,0l0,0l0,0l0,0l0,0l0,0l0,0l0,0l0,0l0,0l0,0l0,0l0,0l0,0l0,0
									l0,0l0,0l0,0l0,0l0,0l0,0l0,0l0,0l0,0l0,0l0,0l0,0l0,0l0,0l0,0l0,0l0,0l0,0l0,0l0,0l0,0l0,0l0,0l0,0l0,0l0,0l0,0l0,0l0,0
									l0,0l0,0l0,0l0,0l0,0l0,0l0,0l0,0l0,0l0,0l0,0l0,0l0,0l0,0l0,0l0,0l0,0l0,0l0,0l0,0l0,0l0,0l0,0l0,0l0,0l0,0l0,0l0,0l0,0
									l0,0l0,0l0,0l0,0l0,0l0,0l0,0l0,0l0,0l0,0l0,0l0,0l0,0l0,0l0,0l0,0l0,0l0,0l0,0l0,0l0,0l0,0l0,0l0,0l0,0l0,0l0,0l0,0l0,0
									l0,0l0,0l0,0l0,0l0,0l0,0l0,0l0,0l0,0l0,0l0,0l0,0l0,0l0,0l0,0l0,0l0,0l0,0l0,0l0,0l0,0l0,0l0,0l0,0l0,0l0,0l0,0l0,0l0,0
									l0,0l0,0l0,0l0,0l0,0l0,0l0,0l0,0l0,0l0,0l0,0l0,0l0,0l0,0l0,0l0,0l0,0l0,0l0,0l0,0l0,0l0,0l0,0l0,0l0,0l0,0l0,0l0,0l0,0
									l0,0l0,0l0,0l0,0l0,0l0,0l0,0l0,0l0,0l0,0l0,0l0,0l0,0l0,0l0,0l0,0l0,0l0,0l0,0l0,0l0,0l0,0l0,0l0,0l0,0l0,0l0,0l0,0l0,0
									l0,0l0,0l0,0l0,0l0,0l0,0l0,0l0,0l0,0l0,0l0,0l0,0l0,0l0,0l0,0l0,0l0,0l0,0l0,0l0,0l0,0l0,0l0,0l0,0l0,0l0,0l0,0l0,0l0,0
									l0,0l0,0l0,0l0,0l0,0l0,0l0,0l0,0l0,0l0,0l0,0l0,0l0,0l0,0l0,0l0,0l0,0l0,0l0,0l0,0l0,0l0,0l0,0l0,0l0,0l0,0l0,0l0,0l0,0
									l0,0l0,0l0,0l0,0l0,0l0,0l0,0l0,0l0,0l0,0l0,0l0,0l0,0l0,0l0,0l0,0l0,0l0,0l0,0l0,0l0,0l0,0l0,0l0,0l0,0l0,0l0,0l0,0l0,0
									l0,0l0,0l0,0l0,0l0,0l0,0l0,0l0,0l0,0l0,0l0,0l0,0l0,0l0,0l0,0l0,0l0,0l0,0l0,0l0,0l0,0l0,0l0,0l0,0l0,0l0,0l0,0l0,0l0,0
									l0,0l0,0l0,0l0,0l0,0l0,0l0,0l0,0l0,0l0,0l0,0l0,0l0,0l0,0l0,0l0,0l0,0l0,0l0,0l0,0l0,0l0,0l0,0l0,0l0,0l0,0l0,0l0,0l0,0
									l0,0l0,0l0,0l0,0l0,0l0,0l0,0l0,0l0,0l0,0l0,0l0,0l0,0l0,0l0,0l0,0l0,0l0,0l0,0l0,0l0,0l0,0h0.1v-0.6h-0.1
									C470.3,114.5,469.5,114.4,468.8,114.1L468.8,114.1z M473.9,113.8c-0.7,0.4-1.4,0.6-2.2,0.7l0.1,0.6c0.1,0,0.1,0,0.2,0l0,0
									l0,0l0,0l0,0l0,0l0,0l0,0l0,0l0,0c0,0,0,0,0.1,0l0,0l0,0l0,0l0,0l0,0l0,0l0,0l0,0l0,0l0,0l0,0l0,0l0,0c0,0,0,0,0.1,0l0,0
									l0,0l0,0l0,0l0,0l0,0l0,0l0,0l0,0l0,0l0,0l0,0l0,0l0,0l0,0l0,0l0,0l0,0l0,0l0,0l0,0l0,0l0,0l0,0l0,0l0,0l0,0l0,0l0,0l0,0
									l0,0l0,0l0,0l0,0l0,0l0,0l0,0l0,0l0,0l0,0l0,0l0,0l0,0l0,0l0,0l0,0l0,0l0,0l0,0l0,0l0,0l0,0l0,0l0,0l0,0l0,0l0,0l0,0l0,0
									l0,0l0,0l0,0l0,0l0,0l0,0l0,0l0,0l0,0l0,0l0,0l0,0l0,0l0,0l0,0l0,0l0,0l0,0l0,0l0,0l0,0l0,0l0,0l0,0l0,0l0,0l0,0l0,0l0,0
									l0,0l0,0l0,0l0,0l0,0l0,0l0,0l0,0l0,0l0,0l0,0l0,0l0,0l0,0l0,0l0,0l0,0l0,0l0,0l0,0l0,0l0,0l0,0l0,0l0,0l0,0l0,0l0,0l0,0
									l0,0l0,0l0,0l0,0l0,0l0,0l0,0l0,0l0,0l0,0l0,0l0,0l0,0l0,0l0,0l0,0l0,0l0,0l0,0l0,0l0,0l0,0l0,0l0,0l0,0l0,0l0,0l0,0l0,0
									l0,0l0,0l0,0l0,0l0,0l0,0l0,0l0,0l0,0l0,0l0,0l0,0l0,0l0,0l0,0l0,0l0,0l0,0l0,0l0,0l0,0l0,0l0,0l0,0l0,0l0,0l0,0l0,0l0,0
									l0,0l0,0l0,0l0,0l0,0l0,0l0,0l0,0l0,0l0,0l0,0l0,0l0,0l0,0l0,0l0,0l0,0l0,0l0,0l0,0l0,0l0,0l0,0l0,0l0,0l0,0l0,0l0,0
									c0,0,0,0,0.1,0l0,0c0.4-0.1,0.7-0.2,1-0.4l0,0l0,0l0,0l0,0l0,0l0,0l0,0l0,0l0,0l0,0l0,0l0,0l0,0l0,0l0,0l0,0l0,0l0,0l0,0
									l0,0l0,0l0,0l0,0l0,0l0,0l0,0l0,0l0,0l0,0l0,0l0,0l0,0l0,0l0,0l0,0l0,0l0,0l0,0l0,0l0,0l0,0l0,0l0,0l0,0l0,0l0,0l0,0l0,0
									l0,0l0,0l0,0l0,0l0,0l0,0l0,0l0,0l0,0l0,0l0,0l0,0l0,0l0,0l0,0l0,0l0,0L473.9,113.8L473.9,113.8z M476.1,112
									c-0.5,0.6-1,1.2-1.7,1.6l0.3,0.5c0.2-0.1,0.5-0.3,0.7-0.5l0,0l0,0l0,0c0,0,0.1,0,0.1-0.1l0,0l0,0l0,0l0,0l0,0l0,0l0,0l0,0
									l0,0l0,0l0,0l0,0l0,0l0,0l0,0l0,0l0,0l0,0l0,0l0,0l0,0l0,0l0,0l0,0l0,0l0,0l0,0l0,0l0,0l0,0l0,0l0,0l0,0l0,0l0,0l0,0l0,0
									l0,0l0,0l0,0l0,0l0,0l0,0l0,0l0,0l0,0l0,0l0,0l0,0l0,0l0,0l0,0l0,0l0,0l0,0l0,0l0,0l0,0l0,0l0,0l0,0l0,0l0,0l0,0l0,0l0,0
									l0,0l0,0l0,0l0,0l0,0l0,0l0,0l0,0l0,0l0,0l0,0l0,0l0,0l0,0l0,0l0,0l0,0l0,0l0,0l0,0l0,0l0,0l0,0l0,0l0,0l0,0l0,0l0,0l0,0
									l0,0l0,0l0,0l0,0l0,0l0,0l0,0l0,0l0,0l0,0l0,0l0,0l0,0l0,0l0,0l0,0l0,0l0,0l0,0l0,0l0,0l0,0l0,0l0,0l0,0l0,0l0,0l0,0l0,0
									l0,0l0,0l0,0l0,0l0,0l0,0l0,0l0,0l0,0l0,0l0,0l0,0l0,0l0,0l0,0l0,0l0,0l0,0l0,0l0,0l0,0l0,0l0,0l0,0l0,0l0,0l0,0l0,0l0,0
									l0,0l0,0l0,0l0,0l0,0l0,0l0,0l0,0l0,0l0,0l0,0l0,0l0,0l0,0l0,0l0,0l0,0l0,0l0,0l0,0l0,0l0,0l0,0l0,0l0,0l0,0l0,0l0,0l0,0
									l0,0l0,0l0,0l0,0l0,0l0,0l0,0l0,0l0,0l0,0l0,0l0,0l0,0l0,0l0,0l0,0l0,0l0,0l0,0l0,0l0,0l0,0l0,0l0,0l0,0l0,0l0,0l0,0l0,0
									l0,0l0,0l0,0l0,0l0,0l0,0l0,0l0,0l0,0l0,0l0,0l0,0l0,0l0,0l0,0l0,0l0,0l0,0l0,0l0,0l0,0l0,0l0,0l0,0l0,0l0,0l0,0l0,0l0,0
									l0,0l0,0l0,0l0,0l0,0l0,0l0,0l0,0l0,0l0,0l0,0l0,0l0,0l0,0l0,0l0,0l0,0l0,0l0,0l0,0l0,0l0,0l0,0l0,0l0,0l0,0l0,0l0,0l0,0
									l0,0l0,0l0,0l0,0l0,0l0,0l0,0l0,0l0,0l0,0l0,0l0,0l0,0l0,0l0,0l0,0l0,0l0,0l0,0l0,0l0,0l0,0l0,0l0,0l0,0l0,0l0,0l0,0l0,0
									l0,0l0,0l0,0l0,0l0,0l0,0l0,0l0,0l0,0l0,0l0,0l0,0l0,0l0,0l0,0l0,0l0,0l0,0l0,0l0,0l0,0l0,0l0,0l0,0l0,0l0,0l0,0l0,0l0,0
									l0,0l0,0l0,0l0,0l0,0l0,0l0,0l0,0l0,0l0,0l0,0l0,0l0,0l0,0l0,0l0,0l0,0l0,0l0,0l0,0l0,0l0,0l0,0l0,0l0,0l0,0l0,0l0,0l0,0
									l0,0l0,0l0,0l0,0l0,0l0,0l0,0l0,0l0,0l0,0l0,0l0,0l0,0l0,0l0,0l0,0l0,0l0,0l0,0l0,0l0,0l0,0l0,0l0,0l0,0l0,0l0,0l0,0l0,0
									l0,0l0,0l0,0l0,0l0,0l0,0l0,0l0,0l0,0l0,0l0,0l0,0l0,0l0,0l0,0l0,0l0,0l0,0l0,0l0,0l0,0l0,0l0,0l0,0l0,0l0,0l0,0l0,0l0,0
									l0,0l0,0l0,0l0,0l0,0l0,0l0,0l0,0l0,0l0,0l0,0l0,0l0,0l0,0l0,0l0,0l0,0l0,0l0,0l0,0l0,0l0,0l0,0l0,0l0,0l0,0l0,0l0,0l0,0
									l0,0c0.1-0.1,0.1-0.2,0.2-0.3L476.1,112L476.1,112z M477.2,109.3c-0.1,0.8-0.4,1.5-0.8,2.2l0.6,0.3c0.2-0.3,0.3-0.5,0.4-0.8
									l0,0l0,0l0,0l0,0l0,0l0,0l0,0c0,0,0,0,0-0.1l0,0l0,0l0,0l0,0l0,0l0,0l0,0l0,0l0,0l0,0l0,0l0,0l0,0l0,0l0,0l0,0l0,0l0,0l0,0
									l0,0l0,0l0,0l0,0l0,0l0,0l0,0l0,0l0,0l0,0l0,0l0,0l0,0l0,0l0,0l0,0l0,0l0,0l0,0l0,0l0,0l0,0l0,0l0,0l0,0l0,0l0,0l0,0l0,0
									l0,0l0,0l0,0l0,0l0,0l0,0l0,0l0,0l0,0l0,0l0,0l0,0l0,0l0,0l0,0l0,0l0,0l0,0l0,0l0,0l0,0l0,0l0,0l0,0l0,0l0,0l0,0l0,0l0,0
									l0,0l0,0l0,0l0,0l0,0l0,0l0,0l0,0l0,0l0,0l0,0l0,0l0,0l0,0l0,0l0,0l0,0l0,0l0,0l0,0l0,0l0,0l0,0l0,0l0,0l0,0l0,0l0,0l0,0
									l0,0l0,0l0,0l0,0l0,0l0,0l0,0l0,0l0,0l0,0l0,0l0,0l0,0l0,0l0,0l0,0l0,0l0,0l0,0l0,0l0,0l0,0l0,0l0,0l0,0l0,0l0,0l0,0l0,0
									l0,0l0,0l0,0l0,0l0,0l0,0l0,0l0,0l0,0l0,0l0,0l0,0l0,0l0,0l0,0l0,0l0,0l0,0l0,0l0,0l0,0l0,0l0,0l0,0l0,0l0,0l0,0l0,0l0,0
									l0,0l0,0l0,0l0,0l0,0l0,0l0,0l0,0l0,0l0,0l0,0l0,0l0,0l0,0l0,0l0,0l0,0l0,0l0,0l0,0l0,0l0,0l0,0l0,0l0,0l0,0l0,0l0,0l0,0
									l0,0l0,0l0,0l0,0l0,0l0,0l0,0l0,0l0,0l0,0l0,0l0,0l0,0l0,0l0,0l0,0l0,0l0,0l0,0l0,0l0,0l0,0l0,0l0,0l0,0l0,0l0,0l0,0l0,0
									l0,0l0,0l0,0l0,0l0,0l0,0l0,0l0,0l0,0l0,0l0,0l0,0l0,0l0,0l0,0l0,0l0,0l0,0l0,0l0,0l0,0l0,0l0,0l0,0l0,0l0,0l0,0l0,0l0,0
									l0,0l0,0l0,0l0,0l0,0l0,0l0,0l0,0l0,0l0,0l0,0l0,0l0,0l0,0l0,0l0,0l0,0l0,0l0,0l0,0l0,0l0,0l0,0l0,0l0,0l0,0l0,0l0,0l0,0
									l0,0l0,0l0,0l0,0l0,0l0,0l0,0l0,0l0,0l0,0l0,0l0,0l0,0l0,0l0,0l0,0l0,0l0,0l0,0l0,0l0,0l0,0l0,0l0,0l0,0l0,0l0,0l0,0l0,0
									l0,0l0,0l0,0l0,0l0,0l0,0l0,0l0,0l0,0l0,0l0,0l0,0l0,0l0,0l0,0l0,0l0,0l0,0l0,0l0,0c0.1-0.2,0.1-0.4,0.1-0.6L477.2,109.3
									L477.2,109.3z M477.7,106.2l-0.6,0.2c0.2,0.6,0.3,1.2,0.3,1.9c0,0.2,0,0.3,0,0.5h0.6c0-0.1,0-0.2,0-0.2l0,0l0,0l0,0l0,0l0,0
									l0,0l0,0l0,0l0,0l0,0l0,0l0,0l0,0l0,0l0,0l0,0l0,0l0,0l0,0l0,0l0,0l0,0l0,0l0,0l0,0l0,0l0,0l0,0l0,0l0,0l0,0l0,0l0,0l0,0
									l0,0l0,0l0,0l0,0l0,0l0,0l0,0l0,0l0,0l0,0l0,0l0,0l0,0l0,0l0,0l0,0l0,0l0,0l0,0l0,0l0,0l0,0l0,0l0,0l0,0l0,0l0,0l0,0l0,0
									C478,107.5,477.9,106.9,477.7,106.2L477.7,106.2L477.7,106.2L477.7,106.2L477.7,106.2L477.7,106.2L477.7,106.2L477.7,106.2
									L477.7,106.2L477.7,106.2L477.7,106.2L477.7,106.2L477.7,106.2L477.7,106.2L477.7,106.2L477.7,106.2z M476.1,103.4l-0.5,0.4
									c0.5,0.6,1,1.2,1.3,1.9l0.6-0.2c0-0.1-0.1-0.2-0.2-0.3l0,0l0,0l0,0l0,0l0,0l0,0l0,0l0,0l0,0l0,0l0,0l0,0l0,0l0,0l0,0l0,0
									l0,0l0,0l0,0l0,0l0,0l0,0l0,0l0,0l0,0l0,0l0,0l0,0l0,0l0,0l0,0l0,0l0,0l0,0l0,0l0,0l0,0l0,0l0,0l0,0l0,0l0,0l0,0l0,0l0,0
									l0,0l0,0l0,0l0,0l0,0l0,0l0,0l0,0l0,0l0,0l0,0l0,0l0,0l0,0l0,0l0,0l0,0l0,0l0,0l0,0l0,0l0,0l0,0l0,0l0,0l0,0l0,0l0,0l0,0
									l0,0l0,0l0,0l0,0l0,0l0,0l0,0l0,0l0,0l0,0l0,0l0,0l0,0l0,0l0,0l0,0l0,0l0,0l0,0l0,0l0,0l0,0l0,0l0,0l0,0l0,0l0,0l0,0l0,0
									l0,0l0,0l0,0l0,0l0,0l0,0l0,0v-0.1l0,0C476.8,104.4,476.5,103.9,476.1,103.4L476.1,103.4z M473.4,101.7l-0.2,0.6
									c0.7,0.3,1.4,0.7,2,1.2l0.4-0.5l0,0l0,0l0,0l0,0l0,0l0,0l0,0l0,0l0,0l0,0l0,0l0,0l0,0l0,0l0,0l0,0l0,0l0,0l0,0l0,0l0,0l0,0
									l0,0l0,0l0,0l0,0l0,0l0,0l0,0l0,0l0,0l0,0l0,0l0,0l0,0l0,0l0,0l0,0l0,0l0,0l0,0l0,0l0,0l0,0l0,0l0,0l0,0l0,0l0,0l0,0l0,0
									l0,0l0,0l0,0l0,0l0,0l0,0l0,0l0,0l0,0l0,0l0,0l0,0l0,0l0,0l0,0l0,0l0,0l0,0l0,0l0,0l0,0l0,0l0,0l0,0l0,0l0,0l0,0l0,0l0,0
									l0,0l0,0l0,0l0,0l0,0l0,0l0,0l0,0l0,0l0,0l0,0l0,0l0,0l0,0l0,0l0,0l0,0l0,0l0,0l0,0l0,0l0,0l0,0l0,0l0,0l0,0l0,0l0,0l0,0
									l0,0l0,0l0,0l0,0l0,0l0,0l0,0l0,0l0,0l0,0l0,0l0,0l0,0l0,0l0,0l0,0l0,0l0,0l0,0l0,0l0,0l0,0l0,0l0,0l0,0l0,0l0,0l0,0l0,0
									l0,0l0,0l0,0l0,0l0,0l0,0l0,0l0,0l0,0l0,0l0,0l0,0l0,0l0,0l0,0l0,0l0,0l0,0l0,0l0,0l0,0l0,0l0,0l0,0l0,0l0,0l0,0l0,0l0,0
									l0,0l0,0l0,0l0,0l0,0l0,0l0,0l0,0l0,0l0,0l0,0l0,0l0,0l0,0l0,0l0,0l0,0l0,0l0,0l0,0l0,0l0,0l0,0l0,0l0,0l0,0l0,0l0,0l0,0
									l0,0l0,0l0,0l0,0l0,0l0,0l0,0l0,0l0,0l0,0l0,0l0,0l0,0l0,0l0,0l0,0l0,0l0,0l0,0l0,0l0,0l0,0l0,0l0,0l0,0l0,0l0,0l0,0l0,0
									l0,0l0,0l0,0l0,0l0,0l0,0l0,0l0,0l0,0l0,0l0,0l0,0l0,0l0,0l0,0l0,0l0,0l0,0l0,0l0,0l0,0l0,0l0,0l0,0l0,0l0,0l0,0l0,0l0,0
									l0,0l0,0l0,0l0,0l0,0l0,0l0,0l0,0l0,0l0,0l0,0l0,0l0,0l0,0l0,0l0,0l0,0l0,0l0,0l0,0l0,0l0,0l0,0l0,0l0,0l0,0l0,0l0,0l0,0
									l0,0l0,0l0,0l0,0l0,0l0,0l0,0l0,0l0,0l0,0l0,0l0,0l0,0l0,0l0,0l0,0l0,0l0,0l0,0l0,0l0,0l0,0l0,0l0,0l0,0l0,0l0,0l0,0l0,0
									l0,0l0,0l0,0l0,0l0,0l0,0l0,0l0,0l0,0l0,0l0,0l0,0l0,0l0,0l0,0l0,0l0,0l0,0l0,0l0,0l0,0l0,0l0,0l0,0l0,0l0,0l0,0l0,0l0,0
									l0,0l0,0l0,0l0,0l0,0l0,0l0,0l0,0l0,0l0,0l0,0l0,0l0,0l0,0l0,0l0,0l0,0l0,0l0,0l0,0l0,0l0,0l0,0l0,0l0,0l0,0l0,0l0,0l0,0
									l0,0l0,0l0,0l0,0l0,0l0,0l0,0l0,0l0,0l0,0l0,0l0,0l0,0l0,0l0,0l0,0l0,0l0,0l0,0l0,0l0,0l0,0l0,0l0,0l0,0l0,0l0,0l0,0l0,0
									l0,0l0,0l0,0l0,0l0,0l0,0l0,0l0,0l0,0l0,0l0,0l0,0l0,0l0,0l0,0l0,0l0,0l0,0l0,0l0,0l0,0l0,0l0,0l0,0l0,0l0,0l0,0l0,0l0,0
									l0,0l0,0l0,0l0,0l0,0l0,0l0,0l0,0l0,0l0,0l0,0l0,0l0,0l0,0l0,0l0,0l0,0l0,0l0,0l0,0l0,0l0,0l0,0l0,0l0,0l0,0l0,0l0,0l0,0
									l0,0l0,0l0,0l0,0l0,0l0,0l0,0l0,0l0,0l0,0l0,0l0,0l0,0l0,0l0,0l0,0l0,0l0,0l0,0l0,0l0,0l0,0l0,0l0,0l0,0l0,0l0,0l0,0l0,0
									l0,0l0,0l0,0l0,0l0,0l0,0l0,0l0,0l0,0l0,0l0,0l0,0l0,0l0,0l0,0l0,0l0,0l0,0l0,0l0,0l0,0l0,0l0,0l0,0l0,0l0,0l0,0l0,0l0,0
									l0,0l0,0l0,0l0,0l0,0l0,0l0,0l0,0l0,0l0,0l0,0l0,0l0,0l0,0l0,0l0,0l0,0l0,0l0,0l0,0l0,0l0,0l0,0l0,0c0,0,0,0-0.1,0l0,0
									C473.9,101.9,473.6,101.8,473.4,101.7L473.4,101.7z M471,101.3v0.6c0.5,0,1.1,0.1,1.6,0.2l0.2-0.6c-0.5-0.1-0.9-0.2-1.4-0.2
									l0,0l0,0l0,0l0,0l0,0l0,0l0,0l0,0l0,0l0,0l0,0l0,0l0,0l0,0l0,0l0,0l0,0l0,0l0,0l0,0l0,0l0,0l0,0l0,0l0,0l0,0l0,0l0,0l0,0
									l0,0l0,0l0,0l0,0l0,0l0,0l0,0l0,0l0,0l0,0C471.1,101.3,471.1,101.3,471,101.3L471,101.3C471.1,101.3,471.1,101.3,471,101.3
									L471,101.3C471.1,101.3,471.1,101.3,471,101.3L471,101.3C471.1,101.3,471.1,101.3,471,101.3L471,101.3
									C471.1,101.3,471.1,101.3,471,101.3L471,101.3C471.1,101.3,471.1,101.3,471,101.3L471,101.3
									C471.1,101.3,471.1,101.3,471,101.3L471,101.3C471.1,101.3,471.1,101.3,471,101.3L471,101.3
									C471.1,101.3,471.1,101.3,471,101.3L471,101.3C471.1,101.3,471.1,101.3,471,101.3L471,101.3
									C471.1,101.3,471.1,101.3,471,101.3L471,101.3L471,101.3L471,101.3L471,101.3L471,101.3L471,101.3L471,101.3L471,101.3
									L471,101.3z"/>
							</g>
						</g>
					</g>
					<g>
						<g>
							<g>
								<g>
									<path class="st0" d="M476.5,108.2L476.5,108.2c0,3-2.5,5.5-5.5,5.5s-5.5-2.5-5.5-5.5l0,0c0-3,2.5-5.5,5.5-5.5
										C474.1,102.8,476.5,105.2,476.5,108.2z"/>
								</g>
							</g>
						</g>
						<g>
							<path class="st0" d="M476.5,108.2c0,3-2.5,5.5-5.5,5.5s-5.5-2.5-5.5-5.5H476.5z"/>
						</g>
						<g>
							<g>
								<g>
									<path class="st0" d="M475.4,108.2L475.4,108.2c0,2.4-2,4.4-4.4,4.4s-4.4-2-4.4-4.4l0,0c0-2.4,2-4.4,4.4-4.4
										C473.4,103.9,475.4,105.8,475.4,108.2z"/>
								</g>
							</g>
						</g>
					</g>
				</g>
				<g>
					<g>
						<g>
							<g>
								<path class="st0" d="M376.6,114.2h-4.1v-6c0-6.9-5.6-12.5-12.5-12.5s-12.5,5.6-12.5,12.5v6h-4.1v-6
									c0-9.1,7.4-16.5,16.5-16.5s16.5,7.4,16.5,16.5v6H376.6z"/>
							</g>
						</g>
					</g>
					<g>
						<g>
							<g>
								<path class="st0" d="M341.2,114.2h-4.1v-6c0-6.9-5.6-12.5-12.5-12.5s-12.5,5.6-12.5,12.5v6H308v-6c0-9.1,7.4-16.5,16.5-16.5
									s16.5,7.4,16.5,16.5v6H341.2z"/>
							</g>
						</g>
					</g>
					<path class="st0" d="M356.1,91.8h-27.8c-10.3,0-18.6,8.3-18.6,18.6v3.7h65.1v-3.7C374.7,100.1,366.4,91.8,356.1,91.8z"/>
					<g>
						<g>
							<g>
								<path class="st0" d="M374.6,108.1c0-8-6.5-14.5-14.5-14.5s-14.5,6.5-14.5,14.5v6h29V108.1z"/>
							</g>
						</g>
					</g>
					<g>
						<g>
							<g>
								
									<ellipse transform="matrix(0.9729 -0.2314 0.2314 0.9729 -15.263 86.2618)" class="st0" cx="360.1" cy="108.2" rx="12.7" ry="12.7"/>
							</g>
						</g>
					</g>
					<g>
						<g>
							<g>
								<path class="st0" d="M360.1,95.6c-7,0-12.7,5.7-12.7,12.7h1.6c0-6.1,5-11.1,11.1-11.1s11.1,5,11.1,11.1h1.6
									C372.8,101.2,367.1,95.6,360.1,95.6z"/>
							</g>
						</g>
					</g>
					<g>
						<g>
							<g>
								<path class="st1" d="M368.1,108.2L368.1,108.2c0,4.4-3.6,8-8,8s-8-3.6-8-8l0,0c0-4.4,3.6-7.9,8-7.9S368,103.8,368.1,108.2z"
									/>
							</g>
						</g>
					</g>
					<g>
						<path class="st6" d="M368.1,108.2L368.1,108.2h-15.9l0,0c0-4.4,3.6-7.9,8-7.9C364.5,100.3,368,103.8,368.1,108.2z"/>
					</g>
					<g>
						<g>
							<g>
								<path class="st1" d="M367,108.2L367,108.2c0,3.9-3.1,7-6.9,7s-6.9-3.1-6.9-6.9l0,0c0-3.8,3.1-6.9,6.9-6.9
									C363.9,101.3,367,104.4,367,108.2z"/>
							</g>
						</g>
					</g>
					<g>
						<path class="st6" d="M367,108.2c0,3.8-3.1,6.9-6.9,6.9s-6.9-3.1-6.9-6.9H367z"/>
					</g>
					<g>
						<g>
							<g>
								<g>
									<path class="st0" d="M365.9,108.2L365.9,108.2c0,3.2-2.6,5.8-5.8,5.8c-3.2,0-5.8-2.6-5.8-5.8l0,0c0-3.2,2.6-5.8,5.8-5.8
										S365.9,105,365.9,108.2z"/>
								</g>
							</g>
						</g>
						<g>
							<path class="st0" d="M365.9,108.2c0,3.2-2.6,5.8-5.8,5.8c-3.2,0-5.8-2.6-5.8-5.8H365.9z"/>
						</g>
						<g>
							<g>
								<g>
									<path class="st0" d="M364.7,108.2L364.7,108.2c0,2.6-2.1,4.7-4.6,4.7c-2.6,0-4.6-2.1-4.6-4.6l0,0c0-2.6,2.1-4.6,4.6-4.6
										C362.6,103.6,364.7,105.7,364.7,108.2z"/>
								</g>
							</g>
						</g>
					</g>
				</g>
				<g>
					<g>
						<g>
							<g>
								<path class="st0" d="M339.1,108.1c0-8-6.5-14.5-14.5-14.5s-14.5,6.5-14.5,14.5v6h29V108.1z"/>
							</g>
						</g>
					</g>
					<g>
						<g>
							<g>
								
									<ellipse transform="matrix(0.9831 -0.1829 0.1829 0.9831 -14.3155 61.1926)" class="st0" cx="324.6" cy="108.2" rx="12.7" ry="12.7"/>
							</g>
						</g>
					</g>
					<g>
						<g>
							<g>
								<path class="st0" d="M324.6,95.6c-7,0-12.7,5.7-12.7,12.7h1.6c0-6.1,5-11.1,11.1-11.1s11.1,5,11.1,11.1h1.6
									C337.3,101.2,331.6,95.6,324.6,95.6z"/>
							</g>
						</g>
					</g>
					<g>
						<g>
							<g>
								<path class="st1" d="M332.6,108.2L332.6,108.2c0,4.4-3.6,8-8,8s-8-3.6-8-8l0,0c0-4.4,3.6-7.9,8-7.9S332.6,103.8,332.6,108.2
									z"/>
							</g>
						</g>
					</g>
					<g>
						<path class="st6" d="M332.6,108.2L332.6,108.2h-15.9l0,0c0-4.4,3.6-7.9,8-7.9C329,100.3,332.6,103.8,332.6,108.2z"/>
					</g>
					<g>
						<g>
							<g>
								<path class="st1" d="M331.6,108.2L331.6,108.2c0,3.9-3.1,7-6.9,7s-6.9-3.1-6.9-6.9l0,0c0-3.8,3.1-6.9,6.9-6.9
									C328.4,101.3,331.5,104.4,331.6,108.2z"/>
							</g>
						</g>
					</g>
					<g>
						<path class="st6" d="M331.6,108.2c0,3.8-3.1,6.9-6.9,6.9s-6.9-3.1-6.9-6.9H331.6z"/>
					</g>
					<g>
						<g>
							<g>
								<g>
									<path class="st0" d="M330.4,108.2L330.4,108.2c0,3.2-2.6,5.8-5.8,5.8c-3.2,0-5.8-2.6-5.8-5.8l0,0c0-3.2,2.6-5.8,5.8-5.8
										S330.4,105,330.4,108.2z"/>
								</g>
							</g>
						</g>
						<g>
							<path class="st0" d="M330.4,108.2c0,3.2-2.6,5.8-5.8,5.8c-3.2,0-5.8-2.6-5.8-5.8H330.4z"/>
						</g>
						<g>
							<g>
								<g>
									<path class="st0" d="M329.2,108.2L329.2,108.2c0,2.6-2.1,4.7-4.6,4.7c-2.6,0-4.6-2.1-4.6-4.6l0,0c0-2.6,2.1-4.6,4.6-4.6
										C327.2,103.6,329.2,105.7,329.2,108.2z"/>
								</g>
							</g>
						</g>
					</g>
				</g>
				<path class="st0" d="M339.1,110.6v3.5h6.4v-3.5c0-0.9-0.8-1.7-1.7-1.7h-3.1C339.9,109,339.1,109.7,339.1,110.6z"/>
				<path class="st0" d="M339.1,112v2.2h6.4V112c0-0.9-0.7-1.5-1.5-1.5h-3.4C339.8,110.4,339.1,111.1,339.1,112z"/>
				<rect x="304.5" y="105" class="st0" width="5.6" height="9.2"/>
				<rect x="376.6" y="112.1" class="st0" width="79.9" height="2"/>
				<path class="st1" d="M382.7,44.8h2v46.7h-4.4V47.2C380.3,45.9,381.4,44.8,382.7,44.8z"/>
				<rect x="384.7" y="85.3" class="st0" width="5.2" height="1.1"/>
				<rect x="380.3" y="85.3" class="st6" width="4.4" height="1.1"/>
				<path class="st0" d="M499.2,110.3h0.7v-5.6h-3.5v2.7C496.4,109.1,497.6,110.3,499.2,110.3z"/>
				<path class="st0" d="M389.9,91.6h-85.4V91c0-0.5,0.4-0.8,0.8-0.8h84.6V91.6z"/>
				<path class="st7" d="M306.5,105h-2V90.9c0-0.4,0.3-0.7,0.7-0.7h1.3V105z"/>
				<rect x="304.5" y="96.5" class="st7" width="2" height="8.5"/>
				<path class="st0" d="M389.9,35.1h-3.7c-0.8,0-1.5,0.7-1.5,1.5v1h5.2V35.1z"/>
				<path class="st1" d="M381.8,43.1h2.9v3.6h-4.4v-2.1C380.3,43.7,380.9,43.1,381.8,43.1z"/>
				<rect x="330.6" y="88.1" class="st0" width="23.4" height="1.9"/>
				<path class="st0" d="M468.4,36.8l-7.2-0.5L389.9,31v-3l68.4,5.6l7.4,0.6C466.6,35,467.5,35.9,468.4,36.8z"/>
				<polygon class="st2" points="389.9,31 419,33.1 419,34.6 389.9,32.4 				"/>
				<path class="st1" d="M495.3,93.6l-0.9,0.3c0,0-1-2.9-2.7-4.9c-1.2-1.4-2.5-2.3-3.1-2.9l0.6-0.8C492,87.6,494,90.3,495.3,93.6z"
					/>
				<path class="st0" d="M379.5,107h-2.9v5.2h8.1l0,0C384.7,109.3,382.4,107,379.5,107z"/>
				<polygon class="st0" points="462.8,38.2 469.7,38.6 468.4,36.8 459.4,35.5 				"/>
				<g class="st8">
					
						<linearGradient id="SVGID_1_" gradientUnits="userSpaceOnUse" x1="428.8" y1="38.125" x2="428.8" y2="52.9711" gradientTransform="matrix(1 0 0 -1 0 92)">
						<stop  offset="0" style="stop-color:#FFFFFF"/>
						<stop  offset="1" style="stop-color:#003446"/>
					</linearGradient>
					<polygon class="st9" points="435.7,36.3 423.2,55.8 421.9,55.5 421.9,51.4 431.8,36 					"/>
					
						<linearGradient id="SVGID_2_" gradientUnits="userSpaceOnUse" x1="434.3" y1="37.9553" x2="434.3" y2="52.8764" gradientTransform="matrix(1 0 0 -1 0 92)">
						<stop  offset="0" style="stop-color:#FFFFFF"/>
						<stop  offset="1" style="stop-color:#003446"/>
					</linearGradient>
					<polygon class="st10" points="443.8,36.9 430.6,57.3 429.2,57 425.7,56.3 424.8,56.1 437.4,36.4 441.3,36.7 442.7,36.8 
						443.5,36.9 					"/>
				</g>
				<g>
					
						<linearGradient id="SVGID_3_" gradientUnits="userSpaceOnUse" x1="461.6" y1="26.7308" x2="461.6" y2="41.3637" gradientTransform="matrix(1 0 0 -1 0 92)">
						<stop  offset="0" style="stop-color:#FFFFFF"/>
						<stop  offset="1" style="stop-color:#003446"/>
					</linearGradient>
					<polygon class="st11" points="468.3,50.7 460,63.6 458,63.2 454.9,62.5 454.9,58.9 464,44.8 464.8,46 466.8,48.7 					"/>
					
						<linearGradient id="SVGID_4_" gradientUnits="userSpaceOnUse" x1="467.15" y1="26.2627" x2="467.15" y2="41.423" gradientTransform="matrix(1 0 0 -1 0 92)">
						<stop  offset="0" style="stop-color:#FFFFFF"/>
						<stop  offset="1" style="stop-color:#003446"/>
					</linearGradient>
					<polygon class="st12" points="472.2,55.9 466.3,65 464.8,64.7 462.1,64.1 469.6,52.5 470.8,54.1 					"/>
				</g>
				<g>
					
						<linearGradient id="SVGID_5_" gradientUnits="userSpaceOnUse" x1="481.75" y1="25.8007" x2="481.75" y2="34.232" gradientTransform="matrix(1 0 0 -1 0 92)">
						<stop  offset="0" style="stop-color:#FFFFFF"/>
						<stop  offset="1" style="stop-color:#003446"/>
					</linearGradient>
					<polygon class="st13" points="485.5,60.4 482.4,65.3 481.7,64.3 480.1,62.1 478,59.3 481.1,54.4 481.7,55.2 					"/>
					
						<linearGradient id="SVGID_6_" gradientUnits="userSpaceOnUse" x1="487.5" y1="18.8733" x2="487.5" y2="31.3936" gradientTransform="matrix(1 0 0 -1 0 92)">
						<stop  offset="0" style="stop-color:#FFFFFF"/>
						<stop  offset="1" style="stop-color:#003446"/>
					</linearGradient>
					<polygon class="st14" points="491.4,68.6 488.9,72.5 488.2,72.4 487.3,72.2 483.6,67 486.7,62.2 489.1,65.4 					"/>
				</g>
				<g>
					
						<linearGradient id="SVGID_7_" gradientUnits="userSpaceOnUse" x1="442.85" y1="32.8726" x2="442.85" y2="49.4226" gradientTransform="matrix(1 0 0 -1 0 92)">
						<stop  offset="0" style="stop-color:#FFFFFF"/>
						<stop  offset="1" style="stop-color:#003446"/>
					</linearGradient>
					<polygon class="st15" points="449.9,37.4 449.9,39.1 437.3,58.8 436.3,58.6 435.8,58.5 449.4,37.3 					"/>
					
						<linearGradient id="SVGID_8_" gradientUnits="userSpaceOnUse" x1="444.05" y1="32.6932" x2="444.05" y2="46.9281" gradientTransform="matrix(1 0 0 -1 0 92)">
						<stop  offset="0" style="stop-color:#FFFFFF"/>
						<stop  offset="1" style="stop-color:#003446"/>
					</linearGradient>
					<polygon class="st16" points="449.9,40.7 449.9,47.1 441.8,59.7 441.3,59.6 438.2,59 					"/>
				</g>
				<polygon class="st1" points="449.9,37.4 449.9,54.4 433.4,51.1 433.4,36.1 				"/>
				<polygon class="st1" points="458.8,37.9 459.4,56.4 475.4,60.3 				"/>
				<polygon class="st1" points="469.7,38.6 465.8,38.2 482.6,60.8 485.9,61 				"/>
				<path class="st0" d="M469.8,68.7h-0.1c-1.9,0-3.4,1.5-3.4,3.4v4h0.1c1.9,0,3.4-1.5,3.4-3.4V68.7z"/>
				<path class="st1" d="M468.4,57.5L468.4,57.5v14.2l0,0c2,0,3.7-1.6,3.7-3.7v-6.9C472,59.1,470.4,57.5,468.4,57.5z"/>
				<path class="st2" d="M472,66.2h-3.7v-8.7h0.7c1.7,0,3,1.3,3,3V66.2z"/>
				<path class="st4" d="M468.4,64.4L468.4,64.4v-3.8l0,0c0.6,0,1.1,0.5,1.1,1.1v1.7C469.5,63.9,469,64.4,468.4,64.4z"/>
				<rect x="487.6" y="112.2" class="st0" width="12.3" height="1.9"/>
				<rect x="304.5" y="101.3" class="st4" width="2" height="3.7"/>
			</g>
			<g>
				<g>
					<g>
						<g>
							<path class="st2" d="M377.1,114.2h-2.7v-7.4c0-7.7-5.6-14-12.4-14h-39.4c-6.8,0-12.4,6.3-12.4,14v7.4h-2.7v-7.4
								c0-9.2,6.8-16.7,15.1-16.7H362c8.3,0,15.1,7.5,15.1,16.7V114.2z"/>
						</g>
					</g>
				</g>
			</g>
			<rect x="382.6" y="43.1" class="st17" width="2.1" height="47"/>
		</g>
		<rect x="24.9" y="88.1" class="st0" width="92.3" height="22.4"/>
		<rect x="24.9" y="103.9" class="st0" width="14.4" height="6.6"/>
		<rect x="24.9" y="91.8" class="st7" width="2.2" height="12.1"/>
		<rect x="24.9" y="94.9" class="st7" width="2.2" height="9"/>
		<rect x="24.9" y="100" class="st4" width="2.2" height="3.9"/>
		<rect x="17.2" y="84.8" class="st0" width="358.8" height="3.3"/>
		<g>
			<g>
				<g>
					<g>
						<path class="st0" d="M108,107.3v3.2H77.1v-3.2c0-8.5,6.9-15.4,15.4-15.4C101.1,91.8,108,98.8,108,107.3z"/>
					</g>
				</g>
			</g>
			<g>
				<g>
					<g>
						<circle class="st0" cx="92.5" cy="107.4" r="13.5"/>
					</g>
				</g>
			</g>
			<g>
				<g>
					<g>
						<path class="st0" d="M92.5,93.9C85,93.9,79,100,79,107.4h1.7c0-6.5,5.3-11.8,11.8-11.8s11.8,5.3,11.8,11.8h1.7
							C106.1,100,100,93.9,92.5,93.9z"/>
					</g>
				</g>
			</g>
			<g>
				<g>
					<g>
						<path class="st1" d="M101,107.4L101,107.4c0,4.7-3.8,8.5-8.5,8.5s-8.5-3.8-8.5-8.5l0,0c0-4.7,3.8-8.5,8.5-8.5
							S101,102.7,101,107.4z"/>
					</g>
				</g>
			</g>
			<g>
				<path class="st6" d="M101,107.4L101,107.4H84l0,0c0-4.7,3.8-8.5,8.5-8.5S101,102.7,101,107.4z"/>
			</g>
			<g>
				<g>
					<g>
						<path class="st1" d="M99.9,107.4L99.9,107.4c0,4.1-3.3,7.4-7.4,7.4s-7.4-3.3-7.4-7.4l0,0c0-4.1,3.3-7.4,7.4-7.4
							S99.9,103.3,99.9,107.4z"/>
					</g>
				</g>
			</g>
			<g>
				<path class="st6" d="M99.9,107.4c0,4.1-3.3,7.4-7.4,7.4s-7.4-3.3-7.4-7.4H99.9z"/>
			</g>
			<g>
				<g>
					<g>
						<g>
							<path class="st0" d="M98.7,107.4L98.7,107.4c0,3.4-2.8,6.2-6.2,6.2c-3.4,0-6.2-2.8-6.2-6.2l0,0c0-3.4,2.8-6.2,6.2-6.2
								C95.9,101.2,98.7,104,98.7,107.4z"/>
						</g>
					</g>
				</g>
				<g>
					<path class="st0" d="M98.7,107.4c0,3.4-2.8,6.2-6.2,6.2c-3.4,0-6.2-2.8-6.2-6.2H98.7z"/>
				</g>
				<g>
					<g>
						<g>
							<path class="st0" d="M97.5,107.4L97.5,107.4c0,2.7-2.2,5-4.9,5c-2.7,0-4.9-2.2-4.9-4.9l0,0c0-2.7,2.2-4.9,4.9-4.9
								C95.3,102.5,97.5,104.7,97.5,107.4z"/>
						</g>
					</g>
				</g>
			</g>
		</g>
		<g>
			<g>
				<g>
					<g>
						<path class="st0" d="M70.2,107.3v3.2H39.3v-3.2c0-8.5,6.9-15.4,15.4-15.4C63.3,91.8,70.2,98.8,70.2,107.3z"/>
					</g>
				</g>
			</g>
			<g>
				<g>
					<g>
						<circle class="st0" cx="54.7" cy="107.4" r="13.5"/>
					</g>
				</g>
			</g>
			<g>
				<g>
					<g>
						<path class="st0" d="M54.7,93.9c-7.5,0-13.5,6.1-13.5,13.5H43c0-6.5,5.3-11.8,11.8-11.8s11.8,5.3,11.8,11.8h1.7
							C68.3,100,62.2,93.9,54.7,93.9z"/>
					</g>
				</g>
			</g>
			<g>
				<g>
					<g>
						<path class="st1" d="M63.2,107.4L63.2,107.4c0,4.7-3.8,8.5-8.5,8.5s-8.5-3.8-8.5-8.5l0,0c0-4.7,3.8-8.5,8.5-8.5
							S63.2,102.7,63.2,107.4z"/>
					</g>
				</g>
			</g>
			<g>
				<path class="st6" d="M63.2,107.4L63.2,107.4h-17l0,0c0-4.7,3.8-8.5,8.5-8.5S63.2,102.7,63.2,107.4z"/>
			</g>
			<g>
				<g>
					<g>
						<path class="st1" d="M62.1,107.4L62.1,107.4c0,4.1-3.3,7.4-7.4,7.4s-7.4-3.3-7.4-7.4l0,0c0-4.1,3.3-7.4,7.4-7.4
							S62.1,103.3,62.1,107.4z"/>
					</g>
				</g>
			</g>
			<g>
				<path class="st6" d="M62.1,107.4c0,4.1-3.3,7.4-7.4,7.4s-7.4-3.3-7.4-7.4H62.1z"/>
			</g>
			<g>
				<g>
					<g>
						<g>
							<path class="st0" d="M60.9,107.4L60.9,107.4c0,3.4-2.8,6.2-6.2,6.2s-6.2-2.8-6.2-6.2l0,0c0-3.4,2.8-6.2,6.2-6.2
								C58.2,101.2,60.9,104,60.9,107.4z"/>
						</g>
					</g>
				</g>
				<g>
					<path class="st0" d="M60.9,107.4c0,3.4-2.8,6.2-6.2,6.2s-6.2-2.8-6.2-6.2H60.9z"/>
				</g>
				<g>
					<g>
						<g>
							<path class="st0" d="M59.7,107.4L59.7,107.4c0,2.7-2.2,5-4.9,5s-4.9-2.2-4.9-4.9l0,0c0-2.7,2.2-4.9,4.9-4.9
								C57.5,102.5,59.7,104.7,59.7,107.4z"/>
						</g>
					</g>
				</g>
			</g>
		</g>
		<path class="st0" d="M77.1,109.6v0.9h-6.9v-0.9c0-0.8,0.6-1.4,1.4-1.4h4.1C76.4,108.2,77.1,108.8,77.1,109.6z"/>
		<rect x="8.4" y="0.7" class="st1" width="367.6" height="84.2"/>
		<rect x="8.4" y="0.7" class="st1" width="367.7" height="72.3"/>
		<rect x="8.4" y="76.4" class="st2" width="367.6" height="2.2"/>
		<path class="st0" d="M290.9,88.1h-25.7v22.5h16.3c5.2,0,9.4-4.2,9.4-9.4L290.9,88.1L290.9,88.1z"/>
		<rect x="117.2" y="107.4" class="st0" width="148.1" height="3.1"/>
		<g>
			<rect x="20" y="80.9" class="st4" width="4.3" height="1.4"/>
			<rect x="53.3" y="80.9" class="st4" width="4.3" height="1.4"/>
			<rect x="86.7" y="80.9" class="st4" width="4.3" height="1.4"/>
			<rect x="120" y="80.9" class="st4" width="4.3" height="1.4"/>
			<rect x="153.4" y="80.9" class="st4" width="4.3" height="1.4"/>
			<rect x="192.1" y="80.9" class="st4" width="4.3" height="1.4"/>
			<rect x="230.8" y="80.9" class="st4" width="4.3" height="1.4"/>
			<rect x="264.1" y="80.9" class="st4" width="4.3" height="1.4"/>
			<rect x="297.4" y="80.9" class="st4" width="4.3" height="1.4"/>
			<rect x="330.8" y="80.9" class="st4" width="4.3" height="1.4"/>
			<rect x="364.1" y="80.9" class="st4" width="4.3" height="1.4"/>
		</g>
		<rect x="8.4" y="0.7" class="st2" width="367.7" height="4.8"/>
		<rect x="8.4" y="5.5" class="st1" width="367.7" height="0.8"/>
	</g>
	<path class="st4" d="M395.8-1h-1.5c-1,0-1.8,0.8-1.8,1.8v0.1h5.2V0.8C397.6-0.2,396.8-1,395.8-1z"/>
</g>
</svg>
