<?xml version="1.0" encoding="utf-8"?>
<!-- Generator: Adobe Illustrator 22.0.1, SVG Export Plug-In . SVG Version: 6.00 Build 0)  -->
<svg version="1.1" id="Layer_1" xmlns="http://www.w3.org/2000/svg" xmlns:xlink="http://www.w3.org/1999/xlink" x="0px" y="0px"
	 viewBox="0 0 171 78" style="enable-background:new 0 0 171 78;" xml:space="preserve">
<style type="text/css">
	.st0{fill:#231F20;}
	.st1{fill:#FFB080;}
	.st2{fill:#F18D4F;}
	.st3{fill:#CF6C2C;}
	.st4{fill:#F17D35;}
	.st5{fill:#DAE4F5;}
	.st6{fill:#E86E20;}
	.st7{fill:#78797A;}
	.st8{fill:#414142;}
	.st9{fill:#A2B9C9;}
	.st10{fill:#B2C3DB;}
	.st11{fill:#BBCDE6;}
	.st12{fill:#9BAABF;}
	.st13{opacity:0.25;fill:#231F20;enable-background:new    ;}
	.st14{fill:#3B414A;}
	.st15{opacity:0.1;fill:url(#SVGID_1_);enable-background:new    ;}
	.st16{opacity:0.1;fill:url(#SVGID_2_);enable-background:new    ;}
	.st17{fill:#BF343F;}
	.st18{fill:#B11629;}
</style>
<g>
	<path class="st0" d="M168.9,53.2c0,0,2.7,0.7,2.7,2.9s0,4.3,0,4.3h-1.7L168.9,53.2z"/>
	<path class="st1" d="M170.5,56.9c-0.1-0.7-0.3-1.4-0.6-1.9c0-0.1-0.1-0.1-0.1-0.2s-0.1-0.1-0.1-0.2c-0.6-1.2-2.3-3.7-3.1-4.6
		c-0.5-0.5-9.5-8.9-15.1-12.1c-8.8-8.8-20.4-20.4-35.6-20.3L105,17.4v51.3l64.1-0.1c-1.6,0,1.4-1.5,1.4-3.7L170.5,56.9L170.5,56.9z"
		/>
	<path class="st2" d="M7.8,68.7H105V17.4H4.1v47.6C4.1,67,5.8,68.7,7.8,68.7z"/>
	<path class="st2" d="M169.9,55.2c0-0.1-0.1-0.1-0.1-0.2s-0.1-0.1-0.1-0.2c-0.6-1.2-2.3-3.6-3.1-4.6c-0.5-0.5-9.5-8.8-15.1-11.9
		c-8.8-8.6-20.4-20-35.6-20L105,18.2v50.6h61.9c0,0,3.6-1.7,3.6-3.8v-7.9C170.3,56.4,170.2,55.8,169.9,55.2z"/>
	<path class="st2" d="M129.2,21.3c0,0-11.5-19.3-27.4-19.3S11.8,2,9.7,2C5.9,2,4.1,6.6,4.1,17.4s0,10.8,0,10.8L129.2,21.3z"/>
	<path class="st3" d="M136.1,27.7V31h-0.5V28c-0.9-0.8-8.9-7.6-15.4-7.6h-12v-0.5h12C127.2,19.8,135.6,27.3,136.1,27.7L136.1,27.7z"
		/>
	<path class="st4" d="M165.1,53c-5.3-6-15.2-9.4-18.2-9.4H5.4v25.2l161.5,0c0,0,1.7-1.5,1.7-3.4C168.6,65.4,170.5,59,165.1,53z"/>
	<g>
		<rect x="135.5" y="39.8" class="st3" width="0.5" height="22.9"/>
	</g>
	<path class="st5" d="M135.3,68.8H4.6c-1.6,0-2.8-1.3-2.8-2.9v-5.8h133.5V68.8z"/>
	<path class="st6" d="M135.3,68.8H6.6c-1.6,0-2.8-1.3-2.8-2.8v-5.8h131.6V68.8z"/>
	<g>
		<path class="st7" d="M168.1,61.4c0.5,0,0.9-0.3,1-0.8c0.1-1.3,0-3.8-1.1-5.9c-0.7-1.3-1.6-2.4-2.3-3.1c-0.6-0.6-1.6-0.1-1.5,0.8
			l1,8.1c0.1,0.4,0.4,0.7,0.8,0.8L168.1,61.4z"/>
	</g>
	<path class="st1" d="M172.3,59.7h-20v9.1h15.6c1.7,0,4.4-2,4.4-4.4V59.7z"/>
	<path class="st6" d="M168.9,59.7h-16.5v9.1h13.7c1.5,0,2.8-1.3,2.8-2.8L168.9,59.7L168.9,59.7z"/>
	<polygon class="st0" points="130.3,68.8 132.8,62.7 140.8,56.7 147.4,56.7 153.3,58.9 157.2,64.3 158.4,68.8 	"/>
	<circle class="st8" cx="145.1" cy="69.5" r="9.8"/>
	<path class="st0" d="M153.9,69.5c0,4.8-3.9,8.7-8.7,8.7s-8.7-3.9-8.7-8.7s3.9-8.7,8.7-8.7C150,60.8,153.9,64.7,153.9,69.5z"/>
	<path class="st9" d="M151.2,69.5L151.2,69.5c0,3.4-2.7,6.1-6.1,6.1c-3.4,0-6.1-2.7-6.1-6.1v0c0-3.4,2.7-6.1,6.1-6.1
		S151.2,66.1,151.2,69.5z"/>
	<path class="st10" d="M150.5,69.5c0,3-2.4,5.4-5.4,5.4s-5.4-2.4-5.4-5.4s2.4-5.4,5.4-5.4C148.1,64.1,150.5,66.5,150.5,69.5z"/>
	<path class="st11" d="M149.7,69.5c0,2.5-2,4.5-4.5,4.5c-2.5,0-4.5-2-4.5-4.5c0-2.5,2-4.5,4.5-4.5C147.6,65,149.7,67,149.7,69.5z"/>
	<path class="st12" d="M146.9,69.5c0,1-0.8,1.8-1.8,1.8s-1.8-0.8-1.8-1.8s0.8-1.8,1.8-1.8S146.9,68.5,146.9,69.5z"/>
	<path class="st1" d="M159.5,68.8h-3c0-1.6-0.3-3.2-0.9-4.5c0-0.1-0.1-0.1-0.1-0.2c0-0.1-0.1-0.1-0.1-0.2c-1.8-3.8-5.6-6.3-10.2-6.3
		c-5.7,0-10.5,3.7-11.7,8.7c-0.4,1.5-1.7,2.5-3.3,2.5h0c0-3.9,1.7-7.5,4.4-10.1s6.5-4.2,10.6-4.2c6.4,0,11.5,3.8,13.4,9.3
		c0,0.1,0.1,0.1,0.1,0.2s0,0.1,0.1,0.2C159.3,65.7,159.5,67.2,159.5,68.8z"/>
	<path class="st4" d="M159.5,68.8h-3c0-1.6-0.3-3.2-0.9-4.5c0-0.1-0.1-0.1-0.1-0.2c0-0.1-0.1-0.1-0.1-0.2c-1.8-3.8-5.6-6.3-10.2-6.3
		c-5.7,0-10.5,3.7-11.7,8.7c-0.4,1.5-1.7,2.5-3.3,2.5c0.3-3.6,1.9-6.8,4.4-9.1c2.7-2.6,6.5-4.2,10.6-4.2c6.4,0,11.5,3.8,13.4,9.3
		c0,0.1,0.1,0.1,0.1,0.2s0,0.1,0.1,0.2C159.2,66.3,159.4,67.5,159.5,68.8z"/>
	<polygon class="st0" points="23.3,68.8 25.9,62.7 33.8,56.7 40.5,56.7 46.4,58.9 50.3,64.3 51.7,68.8 	"/>
	<path class="st1" d="M52.6,68.8L52.6,68.8c-1.6,0-2.9-1.1-3.3-2.7c-0.2-0.6-0.3-1.3-0.6-1.9c0-0.1-0.1-0.1-0.1-0.2
		c0-0.1-0.1-0.1-0.1-0.2c-1.8-3.8-5.6-6.3-10.2-6.3c-5.7,0-10.5,3.7-11.7,8.7c-0.4,1.5-1.7,2.5-3.3,2.5h0c0-3.9,1.7-7.5,4.4-10.1
		s6.5-4.2,10.6-4.2c6.4,0,11.5,3.8,13.4,9.3c0,0.1,0.1,0.1,0.1,0.2s0,0.1,0.1,0.2C52.4,65.7,52.6,67.2,52.6,68.8z"/>
	<path class="st4" d="M52.6,68.8h-0.2c-1.5,0-2.7-1-3-2.4c-0.2-0.7-0.4-1.4-0.7-2.1c0-0.1-0.1-0.1-0.1-0.2c0-0.1-0.1-0.1-0.1-0.2
		c-1.8-3.8-5.6-6.3-10.2-6.3c-5.7,0-10.5,3.7-11.7,8.7c-0.4,1.5-1.7,2.5-3.3,2.5c0.3-3.6,1.9-6.8,4.4-9.1c2.7-2.6,6.5-4.2,10.6-4.2
		c6.4,0,11.5,3.8,13.4,9.3c0,0.1,0.1,0.1,0.1,0.2s0,0.1,0.1,0.2C52.3,66.3,52.5,67.5,52.6,68.8z"/>
	<path class="st13" d="M151.2,69.5c0,3.4-2.7,6.1-6.1,6.1c-3.4,0-6.1-2.7-6.1-6.1H151.2z"/>
	<circle class="st8" cx="38.3" cy="69.5" r="9.8"/>
	<path class="st0" d="M47,69.5c0,4.8-3.9,8.7-8.7,8.7s-8.7-3.9-8.7-8.7s3.9-8.7,8.7-8.7S47,64.7,47,69.5z"/>
	<path class="st9" d="M44.4,69.5L44.4,69.5c0,3.4-2.7,6.1-6.1,6.1c-3.3,0-6.1-2.7-6.1-6.1v0c0-3.4,2.7-6.1,6.1-6.1
		C41.6,63.4,44.4,66.2,44.4,69.5z"/>
	<path class="st10" d="M43.7,69.5c0,3-2.4,5.4-5.4,5.4s-5.4-2.4-5.4-5.4s2.4-5.4,5.4-5.4C41.3,64.1,43.7,66.5,43.7,69.5z"/>
	<path class="st11" d="M42.8,69.5c0,2.5-2,4.5-4.5,4.5c-2.5,0-4.5-2-4.5-4.5c0-2.5,2-4.5,4.5-4.5C40.8,65,42.8,67,42.8,69.5z"/>
	<path class="st12" d="M40.1,69.5c0,1-0.8,1.8-1.8,1.8c-1,0-1.8-0.8-1.8-1.8s0.8-1.8,1.8-1.8C39.3,67.7,40.1,68.5,40.1,69.5z"/>
	<path class="st13" d="M44.4,69.5c0,3.4-2.7,6.1-6.1,6.1c-3.3,0-6.1-2.7-6.1-6.1H44.4z"/>
	<path class="st0" d="M169,66.6h-2.9v-2.5h4.3v1.1C170.3,66,169.7,66.6,169,66.6z"/>
	<path class="st0" d="M149.6,40.5c0,0-18.9-18.7-29.2-19.5h-15v19.5H149.6z"/>
	<rect x="105" y="20.1" class="st2" width="6.4" height="23.5"/>
	<path class="st1" d="M103.7,40.9H14c-1.5,0-2.8-1.3-2.8-2.8V25.7c0-1.5,1.3-2.8,2.8-2.8h89.7c1.5,0,2.8,1.3,2.8,2.8v12.4
		C106.5,39.6,105.2,40.9,103.7,40.9z"/>
	<path class="st14" d="M113.9,22.7v16h30.6c0,0-12.8-11.4-20.8-15l0,0c-1.5-0.7-2.8-1.1-3.8-1.1h-2.8
		C115,22.7,113.9,22.7,113.9,22.7z"/>
	<rect x="135.8" y="31" class="st0" width="2.3" height="8.8"/>
	<g>
		<rect x="108.1" y="19.8" class="st3" width="0.5" height="49"/>
	</g>
	<rect x="41.1" y="43" class="st0" width="34" height="1.9"/>
	<g>
		<rect x="74.8" y="19.8" class="st3" width="0.5" height="49"/>
	</g>
	<g>
		<rect x="75" y="19.8" class="st3" width="33.6" height="0.5"/>
	</g>
	<rect x="111.4" y="44.9" class="st0" width="4.3" height="1.6"/>
	<rect x="101.1" y="44.9" class="st0" width="4.3" height="1.6"/>
	
		<linearGradient id="SVGID_1_" gradientUnits="userSpaceOnUse" x1="119.3533" y1="-66.05" x2="134.8933" y2="-66.05" gradientTransform="matrix(1 0 0 -1 0 -35.3)">
		<stop  offset="0" style="stop-color:#FFFFFF"/>
		<stop  offset="1" style="stop-color:#000000"/>
	</linearGradient>
	<path class="st15" d="M119.4,22.7l11.9,16h3.6l-11.1-15l0,0c-1.5-0.7-2.8-1.1-3.8-1.1L119.4,22.7L119.4,22.7z"/>
	
		<linearGradient id="SVGID_2_" gradientUnits="userSpaceOnUse" x1="113.9333" y1="-66.05" x2="129.0933" y2="-66.05" gradientTransform="matrix(1 0 0 -1 0 -35.3)">
		<stop  offset="0" style="stop-color:#FFFFFF"/>
		<stop  offset="1" style="stop-color:#000000"/>
	</linearGradient>
	<path class="st16" d="M113.9,22.7v7.4l6.4,8.6h8.7l-11.9-16C115,22.7,113.9,22.7,113.9,22.7z"/>
	<path class="st1" d="M114.2,15.8H14.7c-0.8,0-1.4-0.6-1.4-1.4V10c0-0.8,0.7-1.4,1.4-1.4h95.3c3.2,0,5.8,2.6,5.8,5.8l0,0
		C115.7,15.1,115,15.8,114.2,15.8z"/>
	<rect x="4.1" y="33.2" class="st17" width="2.9" height="21.3"/>
	<rect x="4.1" y="43" class="st18" width="2.9" height="11.5"/>
</g>
</svg>
