<?xml version="1.0" encoding="utf-8"?>
<!-- Generator: Adobe Illustrator 22.0.1, SVG Export Plug-In . SVG Version: 6.00 Build 0)  -->
<svg version="1.1" id="Layer_1" xmlns="http://www.w3.org/2000/svg" xmlns:xlink="http://www.w3.org/1999/xlink" x="0px" y="0px"
	 viewBox="0 0 203.3 91.4" style="enable-background:new 0 0 203.3 91.4;" xml:space="preserve">
<style type="text/css">
	.st0{fill:#231F20;}
	.st1{fill:#58595B;}
	.st2{fill:#FFB080;}
	.st3{fill:#F18D4F;}
	.st4{fill:#A2B9C9;}
	.st5{fill:#778994;}
	.st6{fill:#181B21;}
	.st7{opacity:0.25;fill:#231F20;enable-background:new    ;}
	.st8{fill:#E79361;}
	.st9{fill:#FFFFFF;}
	.st10{fill:#D6702F;}
	.st11{fill:#3B414A;}
	.st12{opacity:0.1;fill:url(#SVGID_1_);enable-background:new    ;}
	.st13{opacity:0.1;fill:url(#SVGID_2_);enable-background:new    ;}
	.st14{opacity:0.1;fill:url(#SVGID_3_);enable-background:new    ;}
	.st15{opacity:0.1;fill:url(#SVGID_4_);enable-background:new    ;}
	.st16{fill:#E6EFFD;}
	.st17{fill:#BECEE8;}
</style>
<g>
	<path class="st0" d="M27.6,76.6h109.1c1.5,0,2.7-1.2,2.7-2.7v-4c0-1.5-1.2-2.7-2.7-2.7H24.9v6.8C24.9,75.4,26.1,76.6,27.6,76.6z"/>
	<rect x="57.8" y="76.6" class="st0" width="54.7" height="2"/>
	<path class="st0" d="M34,73.6h96.5v2.9H31.7V76C31.7,74.7,32.7,73.6,34,73.6z"/>
	<ellipse transform="matrix(0.2272 -0.9739 0.9739 0.2272 -33.3437 116.596)" class="st1" cx="56.8" cy="79.3" rx="9.6" ry="9.6"/>
	<ellipse transform="matrix(0.1589 -0.9873 0.9873 0.1589 -30.5406 122.764)" class="st0" cx="56.8" cy="79.3" rx="8.6" ry="8.6"/>
	<path class="st2" d="M197.9,78.6h-69.3V28.1h30.8c2.8,0,5.4,1.3,7.1,3.4c0.3,0.4,0.5,0.7,0.8,1.1l8.1,10.9c0.3,0.6,0.7,1.1,1.1,1.5
		c0.8,0.8,1.7,1.5,2.7,2l13.1,7.3c3.1,1.5,5.1,4.6,5.1,8.1L197.9,78.6z"/>
	<path class="st0" d="M197.2,59.9c0,0,2.4,1.5,2.4,4c0,2.4,0,6.6,0,6.6h-2.3L197.2,59.9z"/>
	<path class="st3" d="M157,28.1h-44.5v50.4h79.9l-0.3-16.1c-0.1-3.4-1.9-6.5-4.7-8.1l-12.1-7.3c-1.5-0.8-2.7-2-3.5-3.6l-7.4-10.9
		C162.8,29.9,160,28.1,157,28.1z"/>
	<path class="st4" d="M62.7,79.3L62.7,79.3c0,3.3-2.7,6-6,6c-3.3,0-5.9-2.7-6-5.9v0c0-3.3,2.7-6,6-6C60.1,73.3,62.7,76,62.7,79.3z"
		/>
	<path class="st5" d="M62.1,79.3c0,2.9-2.4,5.3-5.3,5.3s-5.3-2.4-5.3-5.3s2.4-5.3,5.3-5.3S62.1,76.4,62.1,79.3z"/>
	<circle class="st4" cx="56.8" cy="79.3" r="1.8"/>
	<g>
		<path class="st6" d="M56.8,83.6L56.8,83.6c-0.6,0-1.1-0.1-1.6-0.3C55,83.2,55,83.1,55,82.9c0,0,0-0.1,0-0.1
			c0.1-0.1,0.3-0.2,0.4-0.2c0.4,0.2,0.9,0.3,1.4,0.3l0,0c0.2,0,0.3,0.1,0.3,0.3v0C57.1,83.4,57,83.6,56.8,83.6z M58.3,83.3
			c-0.1,0-0.2-0.1-0.3-0.2c0,0,0-0.1,0-0.1c0-0.1,0.1-0.2,0.2-0.3c0.4-0.2,0.8-0.4,1.2-0.8c0.1-0.1,0.3-0.1,0.4,0
			c0.1,0.1,0.1,0.1,0.1,0.2c0,0.1,0,0.2-0.1,0.2c-0.4,0.4-0.9,0.7-1.4,0.9C58.4,83.2,58.3,83.3,58.3,83.3z M54,82.4
			c-0.1,0-0.2,0-0.2-0.1c-0.4-0.4-0.7-0.9-0.9-1.4c0,0,0-0.1,0-0.1c0-0.1,0.1-0.2,0.2-0.3c0.1-0.1,0.3,0,0.4,0.1v0l0,0.1
			c0,0,0,0,0,0c0.2,0.4,0.4,0.8,0.8,1.2c0.1,0.1,0.1,0.1,0.1,0.2s0,0.2-0.1,0.2C54.2,82.4,54.1,82.4,54,82.4z M60.4,81.1
			c0,0-0.1,0-0.1,0c-0.1-0.1-0.2-0.2-0.2-0.3c0,0,0-0.1,0-0.1c0.2-0.4,0.3-0.9,0.3-1.4v0c0-0.1,0-0.2,0.1-0.2s0.1-0.1,0.2-0.1
			c0.2,0,0.3,0.1,0.3,0.3v0c0,0.6-0.1,1.1-0.3,1.6C60.6,81.1,60.5,81.1,60.4,81.1z M52.9,79.6L52.9,79.6c-0.2,0-0.3-0.1-0.3-0.3v0
			c0-0.6,0.1-1.1,0.3-1.6c0.1-0.2,0.3-0.2,0.4-0.2c0.1,0.1,0.2,0.2,0.2,0.3c0,0,0,0.1,0,0.1l0,0c0,0,0,0,0,0
			c-0.2,0.4-0.3,0.9-0.3,1.4v0C53.2,79.5,53,79.6,52.9,79.6z M60.4,78.1c-0.1,0-0.2-0.1-0.3-0.2c-0.2-0.4-0.4-0.8-0.8-1.2
			c-0.1-0.1-0.1-0.1-0.1-0.2c0-0.1,0-0.2,0.1-0.2c0.1-0.1,0.3-0.1,0.4,0c0.4,0.4,0.7,0.9,0.9,1.4c0,0,0,0.1,0,0.1
			c0,0.1-0.1,0.2-0.2,0.3C60.5,78.1,60.4,78.1,60.4,78.1z M54,76.9c-0.1,0-0.2,0-0.2-0.1s-0.1-0.1-0.1-0.2c0-0.1,0-0.2,0.1-0.2
			c0.4-0.4,0.9-0.7,1.4-0.9c0.2-0.1,0.3,0,0.4,0.2c0,0,0,0.1,0,0.1c0,0.1-0.1,0.2-0.2,0.3c-0.4,0.2-0.8,0.4-1.2,0.8
			C54.2,76.8,54.1,76.9,54,76.9z M58.3,76c0,0-0.1,0-0.1,0c-0.4-0.2-0.9-0.3-1.4-0.3h0c-0.1,0-0.2,0-0.2-0.1s-0.1-0.1-0.1-0.2
			c0-0.1,0-0.2,0.1-0.2s0.1-0.1,0.2-0.1h0c0.6,0,1.1,0.1,1.6,0.3c0.1,0.1,0.2,0.2,0.2,0.3c0,0,0,0.1,0,0.1
			C58.5,75.9,58.4,76,58.3,76z"/>
	</g>
	<path class="st7" d="M62.7,79.3c0,3.3-2.7,5.9-6,5.9c-3.3,0-5.9-2.7-6-5.9H62.7z"/>
	<rect x="185.8" y="72.6" class="st0" width="12.5" height="2.4"/>
	<rect x="181.2" y="69.1" class="st0" width="18.6" height="3.6"/>
	<rect x="181" y="75" class="st0" width="18.6" height="3.6"/>
	<polygon class="st0" points="159.7,78.6 162.2,72.6 170,66.7 176.5,66.7 182.3,68.9 186.2,74.2 187.4,78.6 	"/>
	<ellipse class="st1" cx="174.3" cy="79.3" rx="9.6" ry="9.6"/>
	<circle class="st0" cx="174.3" cy="79.3" r="8.6"/>
	<path class="st4" d="M180.3,79.3L180.3,79.3c0,3.3-2.7,6-6,6c-3.3,0-5.9-2.7-6-5.9v0c0-3.3,2.7-6,6-6
		C177.6,73.3,180.3,76,180.3,79.3z"/>
	<path class="st5" d="M179.6,79.3c0,2.9-2.4,5.3-5.3,5.3s-5.3-2.4-5.3-5.3s2.4-5.3,5.3-5.3S179.6,76.4,179.6,79.3z"/>
	<circle class="st4" cx="174.3" cy="79.3" r="1.8"/>
	<g>
		<path class="st6" d="M174.3,84.4L174.3,84.4c-0.7,0-1.3-0.1-1.9-0.4c-0.1-0.1-0.2-0.2-0.2-0.4c0-0.1,0-0.1,0-0.1
			c0.1-0.2,0.3-0.3,0.5-0.2c0.5,0.2,1.1,0.3,1.6,0.3l0,0c0.2,0,0.4,0.2,0.4,0.4v0C174.7,84.2,174.5,84.4,174.3,84.4z M176.1,84
			c-0.2,0-0.3-0.1-0.4-0.2c0-0.1,0-0.1,0-0.1c0-0.1,0.1-0.3,0.2-0.4c0.5-0.2,1-0.5,1.4-0.9c0.1-0.1,0.4-0.1,0.5,0
			c0.1,0.1,0.1,0.2,0.1,0.3s0,0.2-0.1,0.3c-0.5,0.5-1,0.9-1.6,1.1C176.2,84,176.2,84,176.1,84z M171,83c-0.1,0-0.2,0-0.3-0.1
			c-0.5-0.5-0.9-1-1.1-1.6c0-0.1,0-0.1,0-0.1c0-0.1,0.1-0.3,0.2-0.4c0.2-0.1,0.4,0,0.5,0.1v0l0,0.1c0,0,0,0,0,0
			c0.2,0.5,0.5,1,0.9,1.4c0.1,0.1,0.1,0.2,0.1,0.3s0,0.2-0.1,0.3C171.2,83,171.1,83,171,83z M178.7,81.5c-0.1,0-0.1,0-0.1,0
			c-0.1-0.1-0.2-0.2-0.2-0.4c0-0.1,0-0.1,0-0.1c0.2-0.5,0.3-1.1,0.3-1.6v0c0-0.1,0-0.2,0.1-0.3s0.2-0.1,0.3-0.1
			c0.2,0,0.4,0.2,0.4,0.4v0c0,0.7-0.1,1.3-0.4,1.9C179,81.4,178.8,81.5,178.7,81.5z M169.6,79.7L169.6,79.7c-0.2,0-0.4-0.2-0.4-0.4
			v0c0-0.7,0.1-1.3,0.4-1.9c0.1-0.2,0.3-0.3,0.5-0.2c0.1,0.1,0.2,0.2,0.2,0.4c0,0.1,0,0.1,0,0.1l0,0c0,0,0,0,0,0
			c-0.2,0.5-0.3,1.1-0.3,1.6v0C170,79.5,169.8,79.7,169.6,79.7z M178.7,77.9c-0.1,0-0.3-0.1-0.4-0.2c-0.2-0.5-0.5-1-0.9-1.4
			c-0.1-0.1-0.1-0.2-0.1-0.3c0-0.1,0-0.2,0.1-0.3c0.1-0.1,0.4-0.1,0.5,0c0.5,0.5,0.9,1,1.1,1.6c0,0.1,0,0.1,0,0.1
			c0,0.2-0.1,0.3-0.2,0.4C178.8,77.9,178.7,77.9,178.7,77.9z M171,76.4c-0.1,0-0.2,0-0.3-0.1s-0.1-0.2-0.1-0.3s0-0.2,0.1-0.3
			c0.5-0.5,1-0.9,1.6-1.1c0.2-0.1,0.4,0,0.5,0.2c0,0.1,0,0.1,0,0.1c0,0.1-0.1,0.3-0.2,0.4c-0.5,0.2-1,0.5-1.4,0.9
			C171.2,76.3,171.1,76.4,171,76.4z M176.1,75.3c-0.1,0-0.1,0-0.1,0c-0.5-0.2-1.1-0.3-1.6-0.3h0c-0.1,0-0.2,0-0.3-0.1
			s-0.1-0.2-0.1-0.3s0-0.2,0.1-0.3s0.2-0.1,0.3-0.1h0c0.7,0,1.3,0.1,1.9,0.4c0.1,0.1,0.2,0.2,0.2,0.4c0,0.1,0,0.1,0,0.1
			C176.4,75.2,176.3,75.3,176.1,75.3z"/>
	</g>
	<path class="st4" d="M174.8,76.6c0,0.3-0.2,0.5-0.5,0.5c-0.3,0-0.5-0.2-0.5-0.5s0.2-0.5,0.5-0.5S174.8,76.3,174.8,76.6z"/>
	<path class="st4" d="M174.8,82c0,0.3-0.2,0.5-0.5,0.5c-0.3,0-0.5-0.2-0.5-0.5c0-0.3,0.2-0.5,0.5-0.5S174.8,81.7,174.8,82z"/>
	<path class="st4" d="M171.6,78.8c0.3,0,0.5,0.2,0.5,0.5c0,0.3-0.2,0.5-0.5,0.5s-0.5-0.2-0.5-0.5C171.1,79,171.4,78.8,171.6,78.8z"
		/>
	<path class="st4" d="M177,78.8c0.3,0,0.5,0.2,0.5,0.5c0,0.3-0.2,0.5-0.5,0.5s-0.5-0.2-0.5-0.5C176.5,79,176.8,78.8,177,78.8z"/>
	<path class="st4" d="M172.1,80.8c0.2-0.2,0.5-0.2,0.7,0s0.2,0.5,0,0.7s-0.5,0.2-0.7,0S171.9,81,172.1,80.8z"/>
	<circle class="st4" cx="176.2" cy="77.4" r="0.5"/>
	<circle class="st4" cx="176.2" cy="81.2" r="0.5"/>
	<path class="st4" d="M172.1,77.7c-0.2-0.2-0.2-0.5,0-0.7s0.5-0.2,0.7,0s0.2,0.5,0,0.7C172.6,77.9,172.3,77.9,172.1,77.7z"/>
	<g>
		<path class="st2" d="M188.4,78.6h-2.9c0-1.6-0.3-3.1-0.9-4.4c0-0.1-0.1-0.1-0.1-0.2s-0.1-0.1-0.1-0.2c-1.7-3.7-5.5-6.2-10-6.2
			c-5.6,0-10.3,3.7-11.5,8.6c-0.4,1.5-1.7,2.5-3.2,2.5h0c0-3.9,1.7-7.4,4.3-9.9c2.7-2.5,6.4-4.1,10.4-4.1c6.3,0,11.3,3.7,13.2,9.2
			c0,0.1,0.1,0.1,0.1,0.2s0,0.1,0.1,0.2C188.2,75.5,188.4,77,188.4,78.6z"/>
	</g>
	<g>
		<path class="st3" d="M188.4,78.6h-2.9c0-1.6-0.3-3.1-0.9-4.4c0-0.1-0.1-0.1-0.1-0.2s-0.1-0.1-0.1-0.2c-1.7-3.7-5.5-6.2-10-6.2
			c-5.6,0-10.3,3.7-11.5,8.6c-0.4,1.5-1.7,2.5-3.2,2.5c0.2-3.5,1.8-6.6,4.3-9c2.7-2.5,6.4-4.1,10.4-4.1c6.3,0,11.3,3.7,13.2,9.2
			c0,0.1,0.1,0.1,0.1,0.2s0,0.1,0.1,0.2C188.1,76.2,188.3,77.3,188.4,78.6z"/>
	</g>
	<path class="st7" d="M180.3,79.3c0,3.3-2.7,5.9-6,5.9c-3.3,0-5.9-2.7-6-5.9H180.3z"/>
	<rect x="192.7" y="72.6" class="st8" width="5.6" height="2.4"/>
	<rect x="195.5" y="72.6" class="st9" width="2.8" height="2.4"/>
	<rect x="197.3" y="69.1" class="st1" width="2.5" height="3.6"/>
	<rect x="197.5" y="75" class="st1" width="2.2" height="3.6"/>
	<path class="st1" d="M192.9,60h1.5c1.1,0,2.1,0.9,2.1,2.1v7.1h-3.6V60z"/>
	<rect x="192.9" y="60" class="st8" width="1.5" height="9.1"/>
	<g>
		<path class="st10" d="M158.4,77h-16.8V29.4H157c2,0,3.9,1,4.9,2.7l9.8,15.2c0.7,1.1,1.1,2.3,1.1,3.6v12.8l-0.4,0
			c-12.1,0.9-14,12.8-14,12.9L158.4,77z M142.4,76.2h15.3c0.4-2,3.1-12.2,14.3-13.2V50.9c0-1.1-0.3-2.2-0.9-3.2l-9.8-15.2
			c-0.9-1.4-2.5-2.3-4.3-2.3h-14.5V76.2z"/>
	</g>
	<rect x="142.4" y="54.4" class="st0" width="2.3" height="5.1"/>
	<path class="st6" d="M167.4,46.4h-22.7V32h11.9c1.5,0,2.9,0.8,3.7,2.1l0.7,1.2L167.4,46.4z"/>
	<path class="st11" d="M164.8,46.4h-20.1V34.7h10.5c1.4,0,2.6,0.7,3.3,1.7L164.8,46.4z"/>
	<path class="st6" d="M176.6,45.1h-2.8l-9.1-13.5h1.9c0.3,0.4,0.5,0.7,0.8,1.1l8.1,10.9C175.8,44.1,176.2,44.6,176.6,45.1z"/>
	<path class="st11" d="M176.6,45.1H175l-9.1-13.5h0.8c0.3,0.4,0.5,0.7,0.8,1.1l8.1,10.9C175.8,44.1,176.2,44.6,176.6,45.1z"/>
	<rect x="154.8" y="31.3" class="st3" width="1.3" height="17.3"/>
	<g>
		<path class="st10" d="M138.4,77.3h-21.9V29.4h21.9V77.3z M117.3,76.5h20.2V30.2h-20.2V76.5z"/>
	</g>
	<rect x="119.2" y="32" class="st6" width="16.4" height="14.5"/>
	<rect x="119.2" y="34" class="st11" width="14.1" height="12.4"/>
	
		<linearGradient id="SVGID_1_" gradientUnits="userSpaceOnUse" x1="119.1933" y1="-35.0567" x2="128.9433" y2="-35.0567" gradientTransform="matrix(1 0 0 -1 0 4.1466)">
		<stop  offset="0" style="stop-color:#FFFFFF"/>
		<stop  offset="1" style="stop-color:#000000"/>
	</linearGradient>
	<polygon class="st12" points="128.9,32 119.2,46.4 119.2,46.4 119.2,41.2 125.4,32 	"/>
	
		<linearGradient id="SVGID_2_" gradientUnits="userSpaceOnUse" x1="120.9433" y1="-35.0567" x2="135.6033" y2="-35.0567" gradientTransform="matrix(1 0 0 -1 0 4.1466)">
		<stop  offset="0" style="stop-color:#FFFFFF"/>
		<stop  offset="1" style="stop-color:#000000"/>
	</linearGradient>
	<polygon class="st13" points="135.6,32 135.6,35.7 128.4,46.4 120.9,46.4 130.7,32 	"/>
	
		<linearGradient id="SVGID_3_" gradientUnits="userSpaceOnUse" x1="144.7633" y1="-34.8217" x2="154.1833" y2="-34.8217" gradientTransform="matrix(1 0 0 -1 0 4.1466)">
		<stop  offset="0" style="stop-color:#FFFFFF"/>
		<stop  offset="1" style="stop-color:#000000"/>
	</linearGradient>
	<polygon class="st14" points="154.2,32 144.8,46 144.8,40.7 150.7,32 	"/>
	
		<linearGradient id="SVGID_4_" gradientUnits="userSpaceOnUse" x1="146.1733" y1="-35.0567" x2="161.0733" y2="-35.0567" gradientTransform="matrix(1 0 0 -1 0 4.1466)">
		<stop  offset="0" style="stop-color:#FFFFFF"/>
		<stop  offset="1" style="stop-color:#000000"/>
	</linearGradient>
	<path class="st15" d="M161.1,35.3l-7.5,11.1h-7.4l9.7-14.5h0.8c1.5,0,2.9,0.8,3.7,2.1L161.1,35.3z"/>
	<rect x="2.2" y="-0.8" class="st16" width="110.4" height="67.9"/>
	<rect x="108.7" y="-0.8" class="st16" width="29.3" height="28.9"/>
	<rect x="112.2" y="25.7" class="st17" width="25.8" height="2.4"/>
	<rect x="109.9" y="25.7" class="st17" width="2.7" height="41.3"/>
	<rect x="2.2" y="64.5" class="st17" width="110.3" height="2.6"/>
	<rect x="8.7" y="67.1" class="st0" width="33.2" height="3.9"/>
	<rect x="76.9" y="69.9" class="st0" width="32.1" height="10.5"/>
	<rect x="71.5" y="67.1" class="st17" width="1.6" height="11.9"/>
	<rect x="87" y="67.1" class="st17" width="1.6" height="11.9"/>
	<rect x="101.8" y="67.1" class="st17" width="1.6" height="11.9"/>
	<rect x="68.9" y="76.9" class="st17" width="36.7" height="2.1"/>
	<rect x="7.9" y="67.1" class="st0" width="1.3" height="9.1"/>
	<rect x="7.3" y="75.9" class="st0" width="2.5" height="1"/>
</g>
</svg>
