<?xml version="1.0" encoding="utf-8"?>
<!-- Generator: Adobe Illustrator 22.0.1, SVG Export Plug-In . SVG Version: 6.00 Build 0)  -->
<svg version="1.1" id="Layer_1" xmlns="http://www.w3.org/2000/svg" xmlns:xlink="http://www.w3.org/1999/xlink" x="0px" y="0px"
	 viewBox="0 0 190.7 81.1" style="enable-background:new 0 0 190.7 81.1;" xml:space="preserve">
<style type="text/css">
	.st0{fill:#231F20;}
	.st1{fill:#414142;}
	.st2{fill:#A2B9C9;}
	.st3{fill:#778994;}
	.st4{opacity:0.25;fill:#231F20;enable-background:new    ;}
	.st5{fill:#4C535D;}
	.st6{fill:#BECEE8;}
	.st7{fill:#414042;}
	.st8{fill:#FFFFFF;}
	.st9{fill:#E6EFFD;}
	.st10{fill:#DAE4F5;}
	.st11{fill:#88898A;}
	.st12{fill:#3B414A;}
	.st13{opacity:0.1;fill:url(#SVGID_1_);enable-background:new    ;}
	.st14{opacity:0.1;fill:url(#SVGID_2_);enable-background:new    ;}
</style>
<path class="st0" d="M31.2,65.8h112.2c1.6,0,3-1.3,3-3v-4.4c0-1.6-1.3-3-3-3H28.2v7.3C28.2,64.5,29.5,65.8,31.2,65.8z"/>
<rect x="58" y="65.8" class="st0" width="61.8" height="2.1"/>
<ellipse class="st1" cx="56.9" cy="68.8" rx="10.4" ry="10.4"/>
<ellipse class="st0" cx="56.9" cy="68.8" rx="9.3" ry="9.3"/>
<path class="st2" d="M63.3,68.7L63.3,68.7c0,3.6-2.9,6.4-6.4,6.4c-3.6,0-6.4-2.9-6.4-6.4v0c0-3.6,2.9-6.4,6.4-6.4
	S63.3,65.2,63.3,68.7z"/>
<path class="st3" d="M62.6,68.7c0,3.2-2.6,5.8-5.8,5.8c-3.2,0-5.8-2.6-5.8-5.8c0-3.2,2.6-5.8,5.8-5.8S62.6,65.6,62.6,68.7z"/>
<circle class="st2" cx="56.9" cy="68.8" r="1.9"/>
<path class="st0" d="M56.9,73.3L56.9,73.3c-0.6,0-1.2-0.1-1.8-0.4c-0.1-0.1-0.2-0.2-0.2-0.3c0,0,0-0.1,0-0.1
	c0.1-0.2,0.3-0.3,0.4-0.2c0.5,0.2,1,0.3,1.5,0.3l0,0c0.2,0,0.3,0.1,0.3,0.3v0C57.2,73.2,57.1,73.3,56.9,73.3z M58.5,73
	c-0.1,0-0.3-0.1-0.3-0.2c0,0,0-0.1,0-0.1c0-0.1,0.1-0.3,0.2-0.3c0.5-0.2,0.9-0.5,1.3-0.9c0.1-0.1,0.4-0.1,0.5,0
	c0.1,0.1,0.1,0.1,0.1,0.2c0,0.1,0,0.2-0.1,0.2c-0.4,0.4-0.9,0.8-1.5,1C58.6,73,58.5,73,58.5,73z M53.9,72.1c-0.1,0-0.2,0-0.2-0.1
	c-0.4-0.4-0.8-0.9-1-1.5c0,0,0-0.1,0-0.1c0-0.1,0.1-0.3,0.2-0.3c0.1-0.1,0.3,0,0.4,0.1v0l0,0.1c0,0,0,0,0,0c0.2,0.5,0.5,0.9,0.8,1.3
	c0.1,0.1,0.1,0.1,0.1,0.2c0,0.1,0,0.2-0.1,0.2C54.1,72.1,54,72.1,53.9,72.1z M60.8,70.7c0,0-0.1,0-0.1,0c-0.1-0.1-0.2-0.2-0.2-0.3
	c0,0,0-0.1,0-0.1c0.2-0.5,0.3-1,0.3-1.5v0c0-0.1,0-0.2,0.1-0.2c0.1-0.1,0.1-0.1,0.2-0.1c0.2,0,0.3,0.1,0.3,0.3v0
	c0,0.6-0.1,1.2-0.4,1.8C61.1,70.6,60.9,70.7,60.8,70.7z M52.6,69.1L52.6,69.1c-0.2,0-0.3-0.1-0.3-0.3v0c0-0.6,0.1-1.2,0.4-1.8
	c0.1-0.2,0.3-0.3,0.4-0.2c0.1,0.1,0.2,0.2,0.2,0.3c0,0,0,0.1,0,0.1l0,0c0,0,0,0,0,0c-0.2,0.5-0.3,1-0.3,1.5v0
	C53,68.9,52.8,69.1,52.6,69.1z M60.8,67.5c-0.1,0-0.3-0.1-0.3-0.2c-0.2-0.5-0.5-0.9-0.9-1.3c-0.1-0.1-0.1-0.1-0.1-0.2
	c0-0.1,0-0.2,0.1-0.2c0.1-0.1,0.4-0.1,0.5,0c0.4,0.4,0.8,0.9,1,1.5c0,0,0,0.1,0,0.1c0,0.1-0.1,0.3-0.2,0.3
	C60.9,67.4,60.8,67.5,60.8,67.5z M53.9,66.1c-0.1,0-0.2,0-0.2-0.1c-0.1-0.1-0.1-0.1-0.1-0.2c0-0.1,0-0.2,0.1-0.2
	c0.4-0.4,0.9-0.8,1.5-1c0.2-0.1,0.4,0,0.4,0.2c0,0,0,0.1,0,0.1c0,0.1-0.1,0.3-0.2,0.3c-0.5,0.2-0.9,0.5-1.3,0.9
	C54,66.1,53.9,66.1,53.9,66.1z M58.5,65.2c0,0-0.1,0-0.1,0c-0.5-0.2-1-0.3-1.5-0.3h0c-0.1,0-0.2,0-0.2-0.1c-0.1-0.1-0.1-0.1-0.1-0.2
	c0-0.1,0-0.2,0.1-0.3c0.1-0.1,0.1-0.1,0.2-0.1h0c0.6,0,1.2,0.1,1.7,0.3c0.1,0.1,0.2,0.2,0.2,0.3c0,0,0,0.1,0,0.1
	C58.7,65.1,58.6,65.2,58.5,65.2z"/>
<path class="st4" d="M63.3,68.8c0,3.6-2.9,6.4-6.4,6.4c-3.6,0-6.4-2.9-6.4-6.4H63.3z"/>
<rect x="3.6" y="-1" class="st5" width="113.7" height="56.5"/>
<rect x="3.6" y="52.7" class="st6" width="113.7" height="2.8"/>
<rect x="10.7" y="55.5" class="st1" width="30.1" height="4.2"/>
<rect x="78.6" y="58.6" class="st1" width="34.7" height="11.3"/>
<rect x="72.8" y="55.5" class="st6" width="1.7" height="12.9"/>
<rect x="89.6" y="55.5" class="st6" width="1.7" height="12.9"/>
<rect x="105.6" y="55.5" class="st6" width="1.7" height="12.9"/>
<rect x="70" y="66.1" class="st6" width="39.8" height="2.3"/>
<rect x="9.9" y="55.5" class="st0" width="1.4" height="9.8"/>
<rect x="9.2" y="65" class="st0" width="2.8" height="1.1"/>
<path class="st7" d="M184.1,52.5c0,0,2.7,0.8,2.7,3s0,4.4,0,4.4h-1.8L184.1,52.5z"/>
<path class="st8" d="M185.8,56.3c-0.1-0.7-0.3-1.4-0.6-2c0-0.1,0-0.1-0.1-0.2s-0.1-0.1-0.1-0.2c-0.6-1.2-2.4-3.8-3.2-4.8
	c-0.5-0.5-9.7-9.1-15.5-12.4c-9-9-20.9-20.9-36.5-20.8l-11.1-0.2v52.5l65.6-0.1c-1.6,0,1.4-1.6,1.4-3.8L185.8,56.3L185.8,56.3z"/>
<path class="st9" d="M185.2,54.5c0-0.1,0-0.1-0.1-0.2s-0.1-0.1-0.1-0.2c-0.6-1.2-2.4-3.7-3.2-4.7c-0.5-0.5-9.7-9-15.5-12.2
	c-9-8.8-20.9-20.5-36.5-20.5l-11.1-0.2v51.8h63.4c0,0,3.7-1.7,3.7-3.9v-8.1C185.6,55.8,185.5,55.1,185.2,54.5z"/>
<path class="st10" d="M180.3,52.3c-5.4-6.1-15.6-9.6-18.6-9.6h-43v25.8l63.4,0c0,0,1.7-1.6,1.7-3.4C183.9,65,185.8,58.4,180.3,52.3z
	"/>
<g>
	<rect x="150" y="38.8" class="st0" width="0.5" height="23.5"/>
</g>
<rect x="118.7" y="59.5" class="st0" width="31.1" height="8.9"/>
<g>
	<path class="st11" d="M184.3,61c0,0,0.6-3.8-1.1-7c-1.7-3.2-4.2-4.7-4.2-4.7l1.4,11.4L184.3,61z"/>
</g>
<rect x="122" y="59" class="st0" width="27.1" height="0.5"/>
<path class="st1" d="M187.7,59.1h-20.5v9.3h16c1.8,0,4.5-2,4.5-4.5V59.1z"/>
<path class="st0" d="M184.1,59.1h-16.9v9.3h12.9c2.2,0,4-1.8,4-4.1L184.1,59.1L184.1,59.1z"/>
<polygon class="st0" points="144.6,68.4 147.2,62.2 155.4,56 162.1,56 168.2,58.3 172.2,63.9 173.4,68.4 "/>
<circle class="st1" cx="159.8" cy="69.2" r="10"/>
<ellipse class="st0" cx="159.8" cy="69.2" rx="8.9" ry="8.9"/>
<path class="st2" d="M166.1,69.2L166.1,69.2c0,3.4-2.8,6.2-6.2,6.2c-3.4,0-6.2-2.8-6.2-6.2v0c0-3.4,2.8-6.2,6.2-6.2
	C163.3,62.9,166.1,65.7,166.1,69.2z"/>
<path class="st3" d="M165.4,69.2c0,3.1-2.5,5.5-5.5,5.5s-5.5-2.5-5.5-5.5s2.5-5.5,5.5-5.5S165.4,66.1,165.4,69.2z"/>
<path class="st2" d="M164.5,69.2c0,2.6-2.1,4.6-4.6,4.6c-2.6,0-4.6-2.1-4.6-4.6c0-2.6,2.1-4.6,4.6-4.6S164.5,66.6,164.5,69.2z"/>
<path class="st3" d="M161.7,69.2c0,1-0.8,1.9-1.9,1.9s-1.9-0.8-1.9-1.9s0.8-1.9,1.9-1.9C160.9,67.3,161.7,68.2,161.7,69.2z"/>
<path class="st8" d="M174.6,68.4h-3.1c0-1.7-0.3-3.2-0.9-4.6c0-0.1-0.1-0.1-0.1-0.2c0-0.1-0.1-0.1-0.1-0.2
	c-1.8-3.9-5.7-6.5-10.4-6.5c-5.8,0-10.7,3.8-12,8.9c-0.4,1.5-1.8,2.6-3.4,2.6h0c0-4,1.7-7.7,4.5-10.3c2.8-2.6,6.6-4.3,10.9-4.3
	c6.5,0,11.8,3.9,13.8,9.6c0,0.1,0.1,0.1,0.1,0.2c0,0.1,0,0.1,0.1,0.2C174.3,65.2,174.6,66.8,174.6,68.4z"/>
<path class="st9" d="M174.5,68.4h-3.1c0-1.7-0.3-3.2-0.9-4.6c0-0.1-0.1-0.1-0.1-0.2c0-0.1-0.1-0.1-0.1-0.2
	c-1.8-3.9-5.7-6.5-10.4-6.5c-5.8,0-10.7,3.8-12,8.9c-0.4,1.5-1.8,2.6-3.4,2.6c0.3-3.6,1.9-6.9,4.5-9.4c2.8-2.6,6.6-4.3,10.9-4.3
	c6.5,0,11.8,3.9,13.8,9.6c0,0.1,0.1,0.1,0.1,0.2c0,0.1,0,0.1,0.1,0.2C174.2,65.9,174.5,67.1,174.5,68.4z"/>
<path class="st4" d="M166.1,69.2c0,3.4-2.8,6.2-6.2,6.2c-3.4,0-6.2-2.8-6.2-6.2H166.1z"/>
<path class="st0" d="M183.7,66.2h-2.4v-2.6h4.4v0.6C185.6,65.3,184.8,66.2,183.7,66.2z"/>
<path class="st0" d="M164.4,39.4c0,0-19.4-19.1-29.9-20h-15.4v20H164.4z"/>
<rect x="118.7" y="18.6" class="st9" width="6.5" height="24.1"/>
<path class="st12" d="M127.9,21.3v16.4h31.4c0,0-13.1-11.7-21.3-15.3l0,0c-1.5-0.7-2.9-1.1-3.9-1.1h-2.8
	C129,21.3,127.9,21.3,127.9,21.3z"/>
<rect x="150.3" y="29.8" class="st0" width="2.4" height="9"/>
<path class="st0" d="M150.6,26.4v3.4H150v-3.1c-0.9-0.8-9.1-7.8-15.8-7.8h-12.3v-0.5h12.3C141.5,18.3,150.1,26,150.6,26.4
	L150.6,26.4z"/>
<g>
	<rect x="121.9" y="18.3" class="st0" width="0.5" height="41.3"/>
</g>
<rect x="125.3" y="44" class="st0" width="4.4" height="1.6"/>
<linearGradient id="SVGID_1_" gradientUnits="userSpaceOnUse" x1="133.45" y1="-64.62" x2="149.37" y2="-64.62" gradientTransform="matrix(1 0 0 -1 0 -35.14)">
	<stop  offset="0" style="stop-color:#FFFFFF"/>
	<stop  offset="1" style="stop-color:#000000"/>
</linearGradient>
<path class="st13" d="M133.4,21.3l12.2,16.4h3.7l-11.4-15.3l0,0c-1.5-0.7-2.9-1.1-3.9-1.1H133.4z"/>
<linearGradient id="SVGID_2_" gradientUnits="userSpaceOnUse" x1="127.9" y1="-64.61" x2="143.42" y2="-64.61" gradientTransform="matrix(1 0 0 -1 0 -35.14)">
	<stop  offset="0" style="stop-color:#FFFFFF"/>
	<stop  offset="1" style="stop-color:#000000"/>
</linearGradient>
<path class="st14" d="M127.9,21.3v7.6l6.6,8.8h9l-12.2-16.4C129,21.3,127.9,21.3,127.9,21.3z"/>
</svg>
